<svg width="546" height="290" viewBox="0 0 546 290" fill="none" xmlns="http://www.w3.org/2000/svg">
<path d="M69.6178 0L103.043 67.4274L93.0635 67.8069L121.388 121.38H106.514L129.715 168.984H-1.52588e-05L28.562 121.38L14.8741 120.787L42.2499 67.2376L32.1361 66.6445L69.6178 0Z" fill="#F5F5F5"/>
<path d="M63.9636 78.2368C63.7738 78.2368 64.0426 118.953 64.5566 169.173C65.0706 219.394 65.893 265.756 65.9009 265.566C65.9563 254.827 65.7665 219.394 65.2446 169.173C64.7227 118.953 64.1612 78.2368 63.9636 78.2368Z" fill="#E0E0E0"/>
<path d="M48.0696 95.5465C47.9194 95.6652 51.2326 100.244 55.5105 105.771C59.7885 111.298 63.3548 115.679 63.4813 115.56C63.6079 115.442 60.3183 110.871 56.0404 105.344C51.7624 99.8166 48.2198 95.4279 48.0696 95.5465Z" fill="#E0E0E0"/>
<path d="M64.2717 114.129C64.3903 114.279 67.6878 111.915 71.6257 108.839C75.5636 105.763 78.6713 103.153 78.5606 102.995C78.4499 102.837 75.1446 105.217 71.1987 108.293C67.2529 111.369 64.161 113.979 64.2717 114.129Z" fill="#E0E0E0"/>
<path d="M65.1732 147.206C66.054 146.648 66.8777 146.004 67.6324 145.285C69.1032 144.043 71.1275 142.335 73.397 140.477C75.6665 138.619 77.7619 136.99 79.2723 135.804C80.1281 135.209 80.9228 134.531 81.6445 133.779C80.6929 134.211 79.7979 134.758 78.9797 135.408C77.3982 136.499 75.2474 138.081 72.9621 139.939C70.6768 141.798 68.6921 143.585 67.3003 144.921C66.4997 145.592 65.7852 146.36 65.1732 147.206Z" fill="#E0E0E0"/>
<path d="M48.0454 126.757C47.9031 126.884 51.5484 131.676 56.206 137.464C60.8635 143.252 64.754 147.847 64.9042 147.744C65.0545 147.641 61.4012 142.833 56.7437 137.045C52.0861 131.257 48.1956 126.639 48.0454 126.757Z" fill="#E0E0E0"/>
<path d="M449.281 0L479.733 61.4335L470.639 61.7735L496.442 110.594H482.896L504.033 153.959H385.855L411.879 110.594L399.408 110.049L424.341 61.2595L415.129 60.7139L449.281 0Z" fill="#F5F5F5"/>
<path d="M444.133 71.2625C443.959 71.2625 444.196 108.349 444.663 154.094C445.129 199.839 445.659 251.704 445.833 251.696C446.007 251.688 445.77 199.847 445.295 154.086C444.821 108.325 444.307 71.2625 444.133 71.2625Z" fill="#E0E0E0"/>
<path d="M429.646 87.0538C429.512 87.1566 432.548 91.3318 436.431 96.361C440.313 101.39 443.547 105.399 443.706 105.289C443.864 105.178 440.811 101.019 436.929 95.9814C433.046 90.9443 429.788 86.9352 429.646 87.0538Z" fill="#E0E0E0"/>
<path d="M444.418 103.984C444.529 104.118 447.526 101.959 451.116 99.1602C454.706 96.3609 457.536 93.9808 457.442 93.8384C457.347 93.6961 454.334 95.8627 450.736 98.662C447.138 101.461 444.315 103.849 444.418 103.984Z" fill="#E0E0E0"/>
<path d="M445.224 134.119C446.032 133.614 446.785 133.026 447.47 132.364C448.806 131.241 450.633 129.675 452.729 127.991C454.824 126.307 456.682 124.828 458.074 123.729C458.856 123.189 459.582 122.572 460.241 121.886C459.371 122.277 458.553 122.773 457.805 123.365C456.358 124.362 454.405 125.809 452.325 127.501C450.246 129.193 448.443 130.814 447.17 132.032C446.441 132.648 445.788 133.349 445.224 134.119Z" fill="#E0E0E0"/>
<path d="M429.599 115.489C429.464 115.6 432.762 119.965 437.024 125.239C441.286 130.513 444.813 134.728 444.931 134.594C445.05 134.459 441.768 130.126 437.506 124.844C433.244 119.562 429.765 115.402 429.599 115.489Z" fill="#E0E0E0"/>
<path d="M501.715 82.1987L525.169 129.517L518.163 129.786L538.043 167.378H527.605L543.886 200.788H458.09L472.9 167.378L463.301 166.959L482.508 129.383L475.407 128.964L501.715 82.1987Z" fill="#EBEBEB"/>
<path d="M497.746 137.084C497.611 137.084 497.801 165.654 498.157 200.882C498.513 236.11 498.948 264.688 499.058 264.688C499.169 264.688 499.011 236.126 498.647 200.882C498.284 165.639 497.88 137.084 497.746 137.084Z" fill="#E0E0E0"/>
<path d="M486.588 149.254C488.202 151.733 489.947 154.125 491.815 156.418C493.559 158.811 495.43 161.108 497.422 163.298C497.524 163.211 495.192 160.001 492.203 156.126C489.214 152.251 486.699 149.167 486.588 149.254Z" fill="#E0E0E0"/>
<path d="M497.968 162.294C498.055 162.397 500.34 160.712 503.132 158.577C504.852 157.334 506.477 155.965 507.995 154.481C507.908 154.371 505.622 156.063 502.831 158.19C500.04 160.317 497.889 162.183 497.968 162.294Z" fill="#E0E0E0"/>
<path d="M498.592 185.502C499.211 185.111 499.788 184.658 500.316 184.15C501.352 183.28 502.775 182.078 504.365 180.782C505.954 179.485 507.425 178.33 508.484 177.5C509.087 177.084 509.647 176.607 510.153 176.077C509.484 176.382 508.855 176.767 508.279 177.223C507.164 178.014 505.661 179.097 504.056 180.386C502.451 181.675 501.067 182.94 500.102 183.881C499.533 184.357 499.026 184.901 498.592 185.502Z" fill="#E0E0E0"/>
<path d="M486.581 171.15C486.47 171.237 489.032 174.598 492.298 178.662C495.564 182.727 498.3 185.953 498.402 185.866C496.62 183.271 494.71 180.766 492.677 178.362C489.411 174.297 486.683 171.071 486.581 171.15Z" fill="#E0E0E0"/>
<path d="M94.5656 265.74C125.468 288.893 166.935 292.182 205.405 288.948C243.875 285.714 282.108 276.85 320.665 279.143C342.498 280.44 364.046 285.303 385.91 285.69C407.774 286.078 430.983 281.27 446.798 266.167L94.5656 265.74Z" fill="#F5F5F5"/>
<path d="M385.436 44.2346H281.056C281.056 44.2346 290.292 27.4312 317.17 29.8746C342.838 32.2468 344.143 21.6112 357.19 20.3065C370.237 19.0017 381.079 29.0048 385.436 44.2346Z" fill="#EBEBEB"/>
<path d="M292.451 72.9707H235.517C235.517 72.9707 240.554 63.8138 255.207 65.1423C269.203 66.4154 269.915 60.635 277.032 59.9233C284.148 59.2116 290.079 64.6678 292.451 72.9707Z" fill="#F5F5F5"/>
<path d="M233.192 19.6658H176.258C176.258 19.6658 181.303 10.501 195.948 11.8137C209.944 13.0868 210.656 7.3064 217.773 6.59472C224.889 5.88305 230.82 11.3629 233.192 19.6658Z" fill="#FAFAFA"/>
<path d="M3.83496 265.258C3.83496 265.376 125.112 265.463 274.675 265.463C424.238 265.463 545.539 265.376 545.539 265.258C545.539 265.139 424.293 265.052 274.675 265.052C125.057 265.052 3.83496 265.147 3.83496 265.258Z" fill="#263238"/>
<path d="M39.0945 187.297C35.349 191.331 33.1921 196.585 33.0235 202.086C32.8548 207.588 34.6858 212.964 38.1772 217.219C41.356 221.029 45.3574 224.068 49.8803 226.107L88.7379 243.615L116.185 247.861L475.391 245.584L497.904 241.179C503.162 240.15 507.892 237.306 511.268 233.146C514.644 228.985 516.452 223.771 516.376 218.413L516.147 202.772C516.127 201.596 515.733 200.457 515.022 199.52C514.311 198.583 513.32 197.897 512.193 197.561L510.612 197.071C510.612 197.071 509.283 181.738 500.031 178.267C466.314 163.741 443.999 159.075 387.563 156.719L339.904 128.252C339.904 128.252 320.665 115.956 302.739 114.343C284.813 112.729 244.223 112.714 225.633 113.781C203.8 115.038 176.1 124.97 160.649 132.633C148.55 138.634 119.427 153.461 119.427 153.461L102.956 156.221C100.473 156.339 54.9807 159.115 49.7538 159.914C47.8524 160.223 46.0731 161.051 44.6122 162.306C43.1514 163.562 42.0656 165.197 41.4746 167.03C40.1699 171.348 39.1024 187.202 39.1024 187.202" fill="#FF725E"/>
<path d="M178.14 133.439C185.906 129.557 206.734 124.203 218.382 122.021C230.03 119.838 253.705 119.538 263.162 119.775C272.619 120.012 298.904 120.471 312.758 124.401C319.875 126.425 331.333 132.356 338.062 137.322C340.434 139.046 350.588 147.024 352.857 148.835L370.491 165.299L153.825 158.459C153.825 158.459 152.575 150.907 156.474 146.558C160.372 142.209 178.14 133.439 178.14 133.439Z" fill="#263238"/>
<path d="M499.557 196.146L510.517 195.988C510.09 193.03 508.643 185.17 503.954 180.766L489.444 180.979C488.841 180.987 488.252 181.155 487.735 181.466C487.219 181.776 486.794 182.218 486.504 182.746C486.214 183.274 486.069 183.869 486.084 184.472C486.099 185.074 486.273 185.661 486.589 186.174L489.23 190.468C490.312 192.228 491.833 193.677 493.643 194.672C495.454 195.667 497.492 196.175 499.557 196.146Z" fill="#FAFAFA"/>
<path d="M498.229 195.481C497.09 190.658 495.651 184.316 491.579 180.948H489.444C488.841 180.956 488.252 181.124 487.735 181.434C487.219 181.744 486.794 182.186 486.504 182.714C486.214 183.242 486.069 183.838 486.084 184.44C486.099 185.042 486.273 185.63 486.589 186.143L489.23 190.437C490.207 192.029 491.546 193.369 493.139 194.346C494.732 195.323 496.533 195.91 498.395 196.059L498.229 195.481Z" fill="#E0E0E0"/>
<g opacity="0.7">
<path opacity="0.7" d="M391.881 246.248C390.719 240.61 390.468 234.822 391.137 229.104C393.968 204.773 409.902 187.266 433.972 186.918C454.919 186.617 472.221 199.704 475.756 223.941C476.79 231.176 476.544 238.537 475.028 245.687L391.881 246.248Z" fill="black"/>
</g>
<g opacity="0.7">
<path opacity="0.7" d="M88.7857 243.718C88.7857 242.824 88.8885 241.907 88.9043 240.958C89.3313 210.253 109.93 188.982 134.428 188.626C145.192 188.482 155.573 192.614 163.293 200.116C171.014 207.617 175.444 217.875 175.61 228.638C175.713 235.47 176.037 241.899 175.231 247.569L116.233 247.964L88.7857 243.718Z" fill="black"/>
</g>
<path d="M170.36 228.709C170.461 235.704 168.485 242.572 164.683 248.444C160.88 254.316 155.422 258.929 148.999 261.699C142.575 264.469 135.474 265.272 128.594 264.006C121.713 262.74 115.363 259.463 110.346 254.588C105.328 249.713 101.869 243.46 100.405 236.619C98.9419 229.778 99.5397 222.657 102.123 216.156C104.707 209.655 109.16 204.066 114.92 200.096C120.68 196.126 127.488 193.954 134.483 193.853C143.863 193.718 152.912 197.314 159.64 203.851C166.368 210.388 170.224 219.329 170.36 228.709Z" fill="#263238"/>
<path d="M170.36 228.622V228.709C170.427 233.354 169.578 237.967 167.862 242.284C166.147 246.6 163.598 250.537 160.361 253.869C157.123 257.201 153.262 259.862 148.996 261.702C144.73 263.541 140.144 264.522 135.499 264.589C130.854 264.656 126.242 263.808 121.925 262.092C117.608 260.377 113.671 257.827 110.339 254.59C107.008 251.353 104.346 247.492 102.507 243.226C100.667 238.96 99.686 234.374 99.619 229.729C99.619 229.729 99.619 229.674 99.619 229.642L170.36 228.622Z" fill="#263238"/>
<path d="M159.827 228.867C159.89 233.778 158.497 238.597 155.822 242.715C153.148 246.834 149.312 250.068 144.801 252.007C140.289 253.947 135.304 254.505 130.475 253.612C125.646 252.719 121.19 250.415 117.67 246.99C114.151 243.566 111.725 239.174 110.7 234.372C109.676 229.569 110.098 224.57 111.913 220.007C113.728 215.444 116.856 211.522 120.9 208.736C124.944 205.949 129.723 204.425 134.633 204.354C137.898 204.307 141.139 204.904 144.173 206.111C147.206 207.318 149.972 209.111 152.312 211.387C154.652 213.664 156.52 216.38 157.809 219.379C159.099 222.379 159.784 225.603 159.827 228.867Z" fill="#FAFAFA"/>
<path d="M134.649 204.385C137.914 204.339 141.155 204.937 144.188 206.144C147.221 207.352 149.986 209.145 152.326 211.421C154.666 213.698 156.534 216.413 157.824 219.412C159.113 222.411 159.799 225.634 159.843 228.899L110.176 229.61C110.124 226.346 110.717 223.105 111.92 220.07C113.122 217.035 114.911 214.268 117.184 211.925C119.457 209.582 122.169 207.71 125.166 206.417C128.163 205.123 131.386 204.433 134.649 204.385Z" fill="#E0E0E0"/>
<path d="M150.116 229.001C150.16 231.993 149.315 234.931 147.689 237.442C146.063 239.954 143.728 241.927 140.981 243.112C138.233 244.297 135.196 244.64 132.254 244.099C129.311 243.557 126.595 242.156 124.449 240.07C122.303 237.985 120.824 235.311 120.198 232.385C119.572 229.459 119.828 226.413 120.934 223.633C122.039 220.852 123.944 218.462 126.408 216.765C128.872 215.067 131.784 214.138 134.775 214.096C138.786 214.039 142.655 215.577 145.532 218.372C148.409 221.167 150.058 224.991 150.116 229.001Z" fill="#263238"/>
<path d="M431.699 265.49C412.179 264.614 397.066 248.08 397.942 228.561C398.818 209.042 415.352 193.929 434.871 194.805C454.39 195.681 469.504 212.215 468.628 231.734C467.751 251.253 451.218 266.366 431.699 265.49Z" fill="#263238"/>
<path d="M468.623 229.531C468.623 229.531 468.623 229.595 468.623 229.626C468.758 239.007 465.161 248.057 458.624 254.786C452.086 261.515 443.143 265.371 433.763 265.507C424.382 265.642 415.331 262.045 408.603 255.508C401.874 248.97 398.017 240.027 397.882 230.646V230.552L468.623 229.531Z" fill="#263238"/>
<path d="M458.067 229.777C458.138 234.689 456.751 239.512 454.081 243.636C451.411 247.76 447.578 251 443.067 252.945C438.556 254.89 433.569 255.454 428.737 254.565C423.905 253.676 419.446 251.374 415.923 247.95C412.399 244.527 409.97 240.135 408.943 235.331C407.916 230.526 408.337 225.525 410.152 220.96C411.967 216.395 415.096 212.471 419.142 209.684C423.187 206.897 427.969 205.372 432.881 205.303C439.466 205.21 445.818 207.736 450.541 212.325C455.264 216.915 457.971 223.192 458.067 229.777Z" fill="#FAFAFA"/>
<path d="M432.905 205.303C439.485 205.216 445.831 207.745 450.549 212.334C455.267 216.923 457.971 223.196 458.066 229.777L408.399 230.496C408.352 227.232 408.949 223.991 410.155 220.958C411.362 217.926 413.154 215.16 415.43 212.82C417.706 210.48 420.421 208.612 423.419 207.322C426.418 206.032 429.641 205.346 432.905 205.303Z" fill="#E0E0E0"/>
<path d="M448.388 229.919C448.436 232.911 447.595 235.85 445.973 238.365C444.35 240.879 442.018 242.856 439.271 244.045C436.525 245.234 433.487 245.581 430.543 245.043C427.599 244.505 424.881 243.106 422.732 241.022C420.584 238.939 419.102 236.265 418.473 233.34C417.844 230.414 418.098 227.367 419.201 224.585C420.305 221.803 422.208 219.411 424.672 217.711C427.135 216.012 430.047 215.081 433.039 215.037C437.047 214.978 440.915 216.512 443.793 219.302C446.671 222.092 448.323 225.911 448.388 229.919Z" fill="#263238"/>
<g opacity="0.4">
<path opacity="0.4" d="M501.692 222.027C501.748 225.981 503.756 229.144 506.168 229.144C508.58 229.144 510.501 225.862 510.446 221.901C510.391 217.939 508.382 214.784 505.963 214.784C503.543 214.784 501.637 218.066 501.692 222.027Z" fill="black"/>
</g>
<path d="M39.095 187.297C39.3192 187.339 39.5471 187.358 39.7751 187.353L41.7361 187.424C43.4363 187.463 45.8955 187.519 48.9241 187.645C51.9527 187.772 55.5743 187.93 59.5755 188.254C63.9092 188.577 68.2141 189.211 72.4568 190.152C74.6347 190.664 76.7545 191.398 78.7828 192.342C80.6479 193.276 82.3969 194.425 83.9939 195.766C87.1569 198.226 89.5292 200.954 91.7195 203.097C93.3852 204.837 95.242 206.383 97.2548 207.707C97.8103 208.056 98.3889 208.368 98.9865 208.64C99.1869 208.75 99.3991 208.838 99.6191 208.901C99.6191 208.853 98.773 208.474 97.3655 207.541C95.4057 206.168 93.5955 204.594 91.9647 202.844C89.8376 200.685 87.4653 197.909 84.2785 195.403C82.6619 194.027 80.8858 192.851 78.9884 191.9C76.9298 190.931 74.775 190.181 72.5596 189.662C68.2896 188.715 63.9547 188.088 59.5913 187.788C55.5743 187.495 51.9527 187.345 48.9162 187.282C45.8797 187.218 43.3809 187.21 41.7124 187.226H39.7513C39.5309 187.231 39.3113 187.255 39.095 187.297Z" fill="#263238"/>
<g opacity="0.5">
<path opacity="0.5" d="M89.8932 244.35C89.7557 244.25 89.6131 244.158 89.4661 244.073C89.0519 243.801 88.6533 243.505 88.2721 243.188C86.8362 241.932 85.7172 240.355 85.0063 238.585C83.9117 235.767 83.5182 232.725 83.8597 229.721C84.2705 225.74 85.0649 221.807 86.232 217.978C87.5977 213.328 89.5088 208.856 91.9254 204.654C94.7102 199.836 98.2656 195.506 102.45 191.836C107.058 187.765 112.478 184.719 118.352 182.901C124.69 181.052 131.332 180.484 137.892 181.232C144.458 181.929 150.883 183.6 156.957 186.19C162.415 188.341 167.353 191.629 171.443 195.835C175.533 200.041 178.682 205.069 180.679 210.585C182.396 215.119 183.631 219.821 184.364 224.613C184.712 226.811 184.973 228.915 185.155 230.939C185.367 232.81 185.446 234.694 185.392 236.577C185.281 240.088 184.135 243.093 182.34 244.809C181.031 246.209 179.257 247.085 177.35 247.276C176.686 247.293 176.023 247.232 175.373 247.094L175.864 247.236C176.354 247.344 176.856 247.392 177.358 247.379C179.303 247.222 181.123 246.359 182.474 244.951C184.333 243.211 185.542 240.143 185.637 236.593C185.706 234.695 185.64 232.795 185.44 230.907C185.274 228.907 185.021 226.795 184.688 224.581C183.973 219.758 182.748 215.024 181.035 210.458C180.063 207.92 178.889 205.463 177.524 203.112C176.055 200.625 174.327 198.301 172.369 196.177C168.076 191.676 162.881 188.132 157.123 185.779C151.007 183.158 144.532 181.471 137.915 180.774C131.279 180.006 124.556 180.582 118.147 182.466C112.207 184.31 106.729 187.399 102.079 191.528C97.8661 195.237 94.2917 199.612 91.4984 204.48C87.1149 212.253 84.4053 220.856 83.5434 229.737C83.2449 232.771 83.6872 235.832 84.8323 238.657C85.5734 240.443 86.7344 242.024 88.2168 243.267C88.7265 243.699 89.29 244.063 89.8932 244.35Z" fill="white"/>
</g>
<path d="M475.013 223.933C475.421 223.505 475.804 223.053 476.159 222.581C477.198 221.365 478.347 220.248 479.591 219.244C483.755 215.981 488.633 213.751 493.825 212.736C499.036 211.759 504.346 211.419 509.64 211.724C511.672 211.795 513.317 211.898 514.455 211.953C515.044 212.016 515.636 212.032 516.227 212.001C516.081 211.951 515.929 211.922 515.776 211.914L514.471 211.756C513.34 211.637 511.696 211.487 509.655 211.368C504.337 210.961 498.988 211.254 493.746 212.238C488.466 213.264 483.524 215.584 479.362 218.991C478.121 220.031 476.997 221.203 476.009 222.486C475.725 222.829 475.461 223.188 475.218 223.561C475.137 223.678 475.068 223.802 475.013 223.933Z" fill="#263238"/>
<path d="M475.234 197.64C475.234 197.783 483.679 197.775 494.093 197.64C504.508 197.506 512.945 197.253 512.945 197.111C512.945 196.968 504.5 196.984 494.085 197.111C483.671 197.237 475.226 197.459 475.234 197.64Z" fill="#263238"/>
<g opacity="0.5">
<path opacity="0.5" d="M379.513 242.595C379.522 242.434 379.522 242.273 379.513 242.112C379.513 241.772 379.513 241.321 379.513 240.697C379.513 240.072 379.513 239.297 379.608 238.388C379.703 237.478 379.719 236.427 379.838 235.225C380.454 228.562 381.897 222.001 384.131 215.693C385.659 211.33 387.539 207.099 389.754 203.041C392.231 198.369 395.255 194.008 398.76 190.049C402.662 185.686 407.501 182.263 412.915 180.038C418.73 177.652 424.943 176.381 431.228 176.29C434.405 176.261 437.578 176.488 440.717 176.97C443.762 177.49 446.763 178.244 449.693 179.224C452.513 180.195 455.25 181.393 457.877 182.806L458.841 183.32L459.775 183.881L461.633 184.988L463.38 186.198L464.25 186.799L465.041 187.455C469.236 190.682 472.887 194.558 475.858 198.937C478.456 202.75 480.56 206.876 482.121 211.218C483.402 214.807 484.321 218.516 484.865 222.288C485.047 223.957 485.253 225.506 485.284 226.946C485.316 228.385 485.355 229.697 485.347 230.899C485.34 232.101 485.221 233.129 485.181 234.062C485.142 234.995 485.015 235.739 484.936 236.356C484.857 236.972 484.81 237.423 484.762 237.763C484.715 238.103 484.762 238.245 484.762 238.245C484.762 238.245 484.762 238.087 484.857 237.771C484.952 237.455 484.984 236.98 485.079 236.371C485.174 235.762 485.316 234.988 485.371 234.078C485.427 233.169 485.593 232.117 485.585 230.915C485.577 229.713 485.664 228.401 485.585 226.961C485.506 225.522 485.371 223.949 485.197 222.272C484.685 218.479 483.784 214.748 482.509 211.138C480.962 206.757 478.863 202.59 476.262 198.74C473.276 194.313 469.603 190.391 465.381 187.123L464.551 186.467L463.673 185.858L461.91 184.625L460.051 183.494L459.118 182.924L458.146 182.41C455.501 180.975 452.743 179.761 449.898 178.781C446.941 177.787 443.911 177.023 440.836 176.496C437.663 176.007 434.455 175.776 431.244 175.808C424.902 175.906 418.635 177.199 412.772 179.619C407.293 181.867 402.392 185.325 398.436 189.733C394.931 193.749 391.913 198.166 389.445 202.891C387.236 206.965 385.369 211.215 383.862 215.598C381.648 221.94 380.25 228.538 379.703 235.233C379.488 237.68 379.424 240.139 379.513 242.595Z" fill="white"/>
</g>
<path d="M102.916 156.687C102.897 156.858 102.897 157.03 102.916 157.201C102.964 157.597 103.027 158.079 103.106 158.672C103.28 159.945 103.541 161.788 103.707 164.073C103.948 166.742 103.825 169.431 103.343 172.067C102.721 175.284 101.174 178.249 98.8915 180.6C96.5772 182.918 93.81 184.735 90.7626 185.937C88.2802 186.912 85.7123 187.653 83.0923 188.151C80.8386 188.602 78.9962 188.879 77.731 189.084L76.2681 189.329C76.0956 189.35 75.9259 189.39 75.762 189.448C75.9348 189.477 76.1112 189.477 76.2839 189.448L77.7547 189.298C79.0357 189.148 80.9177 188.926 83.1555 188.507C85.828 188.051 88.448 187.328 90.9761 186.348C94.1014 185.148 96.9385 183.302 99.3027 180.932C101.631 178.51 103.198 175.458 103.81 172.154C104.275 169.478 104.366 166.75 104.079 164.049C103.857 161.748 103.541 159.906 103.288 158.64C103.169 158.008 103.067 157.518 102.995 157.185C102.991 157.017 102.965 156.849 102.916 156.687Z" fill="#263238"/>
<path d="M282.63 176.045C282.488 176.01 282.342 175.997 282.196 176.005C281.775 175.985 281.354 176.006 280.938 176.069C280.594 176.11 280.263 176.225 279.967 176.405C279.671 176.585 279.417 176.826 279.222 177.112C278.957 177.495 278.798 177.941 278.762 178.405C278.726 178.869 278.814 179.335 279.017 179.754C279.278 180.246 279.641 180.677 280.082 181.019C280.522 181.361 281.029 181.606 281.571 181.738C282.778 181.999 284.02 182.06 285.248 181.92L293.567 181.446C294.328 181.435 295.083 181.293 295.796 181.027C296.155 180.887 296.481 180.675 296.754 180.402C297.026 180.13 297.238 179.804 297.378 179.445C297.484 179.078 297.501 178.691 297.428 178.315C297.355 177.94 297.194 177.588 296.959 177.286C296.541 176.713 295.955 176.285 295.282 176.061C294.084 175.742 292.843 175.616 291.605 175.689C290.467 175.689 289.399 175.689 288.442 175.768L283.864 175.966C283.301 175.953 282.738 175.982 282.18 176.053C282.321 176.094 282.468 176.113 282.615 176.108C282.899 176.108 283.318 176.148 283.864 176.156C284.947 176.156 286.513 176.156 288.45 176.156C289.415 176.156 290.475 176.156 291.613 176.156C292.8 176.104 293.987 176.237 295.132 176.551C295.712 176.743 296.216 177.114 296.571 177.611C296.761 177.85 296.891 178.132 296.95 178.431C297.009 178.731 296.996 179.041 296.911 179.334C296.793 179.632 296.614 179.9 296.385 180.124C296.156 180.347 295.883 180.52 295.583 180.631C294.921 180.872 294.223 180.998 293.519 181.003L285.208 181.517C284.026 181.663 282.828 181.623 281.658 181.398C281.162 181.291 280.695 181.081 280.286 180.781C279.877 180.482 279.536 180.099 279.286 179.659C279.1 179.294 279.015 178.887 279.037 178.479C279.059 178.071 279.188 177.676 279.412 177.334C279.578 177.062 279.8 176.828 280.063 176.648C280.326 176.468 280.625 176.346 280.938 176.29C282.022 176.069 282.638 176.1 282.63 176.045Z" fill="#263238"/>
<path d="M170.763 175.12C170.619 175.098 170.472 175.098 170.328 175.12C169.908 175.099 169.487 175.12 169.071 175.183C168.727 175.226 168.397 175.341 168.101 175.521C167.805 175.701 167.551 175.942 167.355 176.227C167.089 176.61 166.93 177.056 166.894 177.52C166.858 177.984 166.946 178.449 167.149 178.868C167.411 179.36 167.774 179.792 168.214 180.134C168.654 180.476 169.162 180.721 169.703 180.853C170.916 181.115 172.163 181.176 173.396 181.035L181.715 180.56C182.476 180.549 183.229 180.41 183.945 180.149C184.303 180.01 184.629 179.797 184.902 179.525C185.174 179.252 185.387 178.927 185.526 178.568C185.637 178.201 185.657 177.814 185.586 177.438C185.514 177.062 185.352 176.709 185.115 176.409C184.695 175.838 184.11 175.41 183.439 175.183C182.24 174.868 180.999 174.743 179.762 174.812C178.623 174.812 177.555 174.851 176.598 174.891L172.012 175.088C171.452 175.086 170.893 175.115 170.336 175.175C170.477 175.217 170.624 175.236 170.771 175.231C171.055 175.231 171.474 175.27 172.02 175.286C173.103 175.286 174.669 175.286 176.606 175.286C177.571 175.286 178.631 175.286 179.769 175.286C180.956 175.234 182.143 175.368 183.288 175.681C183.87 175.873 184.375 176.247 184.727 176.749C184.917 176.987 185.047 177.267 185.106 177.566C185.165 177.864 185.152 178.172 185.067 178.465C184.949 178.762 184.77 179.031 184.541 179.254C184.312 179.478 184.039 179.651 183.739 179.762C183.077 180.001 182.379 180.129 181.675 180.141L173.364 180.647C172.182 180.797 170.983 180.757 169.814 180.529C169.319 180.422 168.853 180.212 168.444 179.914C168.036 179.616 167.694 179.235 167.442 178.797C167.26 178.43 167.176 178.023 167.198 177.614C167.22 177.205 167.348 176.809 167.568 176.464C167.737 176.2 167.959 175.974 168.221 175.801C168.482 175.628 168.777 175.512 169.086 175.46C170.154 175.144 170.771 175.175 170.763 175.12Z" fill="#263238"/>
<path d="M153.904 158.459C153.904 158.459 153.904 158.609 154.015 158.902C154.125 159.194 154.212 159.645 154.37 160.222L155.786 165.33C157.043 169.814 158.878 176.401 161.218 184.704V184.751H161.266C165.238 186.609 168.906 189.056 172.147 192.01C173.98 193.667 175.675 195.471 177.215 197.403C178.852 199.481 180.333 201.677 181.643 203.974C184.46 209.03 186.587 214.439 187.969 220.058C189.562 226.238 190.385 232.591 190.421 238.973V239.163H190.603H269.931L372.254 239.123H372.404V238.981C375.037 218.042 376.619 200.803 377.623 188.744C378.113 182.735 378.414 178.038 378.667 174.843C378.77 173.262 378.849 172.028 378.904 171.198C378.96 170.367 378.991 169.964 378.991 169.964C378.991 169.964 378.944 170.383 378.881 171.206C378.817 172.028 378.714 173.254 378.596 174.843C378.335 178.006 377.947 182.751 377.457 188.737C376.421 200.748 374.753 217.994 372.151 238.981L372.309 238.839H269.986H190.658L190.84 239.028C190.794 232.624 189.96 226.251 188.357 220.05C186.945 214.404 184.786 208.971 181.936 203.895C180.615 201.585 179.121 199.378 177.468 197.293C175.915 195.354 174.206 193.545 172.36 191.884C169.091 188.925 165.393 186.478 161.392 184.625L161.456 184.696L155.92 165.354C155.28 163.132 154.79 161.4 154.449 160.254C154.283 159.684 154.157 159.249 154.062 158.949C153.967 158.649 153.904 158.459 153.904 158.459Z" fill="#263238"/>
<path d="M267.938 162.468C267.931 162.533 267.931 162.6 267.938 162.665C267.938 162.816 267.978 163.005 268.001 163.243C268.065 163.78 268.159 164.524 268.278 165.457C268.397 166.39 268.555 167.6 268.697 168.968C268.84 170.336 269.037 171.894 269.18 173.625C269.322 175.357 269.504 177.239 269.622 179.271C269.741 181.303 269.86 183.486 269.97 185.771C270.121 190.35 270.16 195.395 269.97 200.677C269.781 205.959 269.401 210.996 268.934 215.551C268.681 217.828 268.452 219.995 268.144 222.011C267.835 224.028 267.59 225.91 267.313 227.626C267.037 229.342 266.752 230.876 266.523 232.236C266.293 233.596 266.064 234.758 265.866 235.707C265.669 236.656 265.55 237.368 265.447 237.898L265.344 238.475C265.334 238.54 265.334 238.607 265.344 238.672C265.376 238.613 265.397 238.549 265.408 238.483C265.45 238.335 265.497 238.145 265.55 237.913C265.669 237.384 265.835 236.656 266.048 235.739C266.262 234.822 266.523 233.635 266.776 232.275C267.029 230.915 267.361 229.389 267.63 227.673C267.899 225.957 268.239 224.083 268.507 222.059C268.776 220.034 269.061 217.876 269.298 215.59C269.781 211.028 270.176 205.991 270.366 200.693C270.555 195.395 270.476 190.35 270.31 185.755C270.192 183.462 270.097 181.288 269.923 179.248C269.749 177.207 269.607 175.294 269.425 173.594C269.243 171.894 269.053 170.312 268.887 168.944C268.721 167.576 268.547 166.398 268.397 165.441C268.246 164.484 268.128 163.765 268.041 163.235L267.938 162.658C267.948 162.595 267.948 162.531 267.938 162.468Z" fill="#263238"/>
<path d="M378.035 160.214C380.565 162.112 384.361 162.586 387.445 161.946C390.529 161.305 392.98 159.874 394.562 157.13L387.603 156.822L378.035 160.214Z" fill="#263238"/>
<path d="M387.619 156.822C387.619 156.822 380.597 161.1 378.557 160.515C376.517 159.929 343.764 134.056 324.034 124.069C325.966 123.353 327.984 122.895 330.036 122.709C330.036 122.709 339.225 127.358 350.691 134.254C359.389 139.504 368.285 145.008 372.436 147.538L387.619 156.822Z" fill="#455A64"/>
<path d="M365.161 162.31L365.39 162.452L366.078 162.855L368.767 164.381L378.904 170.067C385.23 169.838 393.414 169.671 402.769 170.067C407.442 170.272 412.408 170.605 417.58 171.134C422.751 171.664 428.136 172.4 433.648 173.277C443.303 174.78 452.404 176.685 460.739 178.212C468.124 179.557 475.584 180.452 483.078 180.892C489.475 181.256 494.67 181.161 498.244 181.058C500.039 181.003 501.407 180.932 502.364 180.876L503.439 180.805C503.561 180.812 503.682 180.812 503.803 180.805C503.803 180.805 503.677 180.805 503.432 180.805H502.364C501.423 180.805 499.992 180.884 498.244 180.916C494.662 180.971 489.483 181.019 483.093 180.615C475.642 180.14 468.225 179.223 460.881 177.872C452.563 176.29 443.445 174.408 433.782 172.898C428.247 172.02 422.878 171.316 417.69 170.763C412.503 170.209 407.529 169.917 402.848 169.735C393.486 169.371 385.317 169.584 378.959 169.853H379.031L368.83 164.318L366.11 162.847L365.406 162.476C365.332 162.409 365.25 162.353 365.161 162.31Z" fill="#263238"/>
<path d="M357.704 163.124C307.982 160.902 207.683 159.052 157.96 156.798C157.96 156.798 156.324 151.334 161.005 147.918C162.705 146.676 173.032 138.864 185.091 134.269C199.88 128.75 215.314 125.144 231.018 123.539C239.874 122.819 256.077 122.163 256.077 122.163C256.077 122.163 285.738 123.349 294.033 124.093C304.465 124.959 314.649 127.73 324.081 132.269C334.401 137.44 352.438 152.567 352.438 152.567L365.09 163.148L357.704 163.124Z" fill="#455A64"/>
<path d="M266.199 120.732L275.798 161.764L258.394 161.21L254.938 120.732H266.199Z" fill="#263238"/>
<path d="M190.974 130.664L192.659 158.459H190.247L188.61 131.534L190.974 130.664Z" fill="#263238"/>
<path d="M355.822 153.714C355.032 154.734 350.643 164.666 350.643 164.666L367.438 163.567L355.822 153.714Z" fill="#263238"/>
<path d="M340.071 163.678L352.897 164.034C354.581 164.034 355.91 161.013 355.854 157.336C355.807 154.046 354.668 151.271 353.166 150.788L341.012 146.938L340.071 163.678Z" fill="#FF725E"/>
<path d="M260.75 120.265C260.64 120.265 262 129.628 263.779 141.149C265.558 152.67 267.108 161.993 267.219 161.97C267.329 161.946 265.977 152.607 264.19 141.086C262.403 129.565 260.869 120.242 260.75 120.265Z" fill="#455A64"/>
<path d="M355.324 153.105C355.755 154.606 356.417 156.031 357.285 157.328C358.036 158.697 359 159.938 360.14 161.005C360.235 160.926 358.954 159.297 357.633 157.114C356.313 154.932 355.435 153.058 355.324 153.105Z" fill="#455A64"/>
<path d="M284.354 128.197C284.405 128.314 284.469 128.426 284.544 128.529L285.137 129.454C285.699 130.308 286.458 131.447 287.375 132.823C289.281 135.661 291.898 139.584 294.753 143.948C297.607 148.313 300.146 152.283 301.98 155.161L304.171 158.562C304.408 158.933 304.613 159.234 304.779 159.479C304.843 159.591 304.92 159.695 305.009 159.787C305.009 159.787 304.969 159.661 304.851 159.439L304.305 158.482C303.823 157.652 303.119 156.466 302.233 155.011C300.454 152.085 297.947 148.084 295.116 143.719C292.286 139.354 289.581 135.456 287.644 132.649C286.663 131.257 285.857 130.126 285.272 129.359C285.003 129.011 284.789 128.719 284.607 128.473C284.426 128.228 284.37 128.189 284.354 128.197Z" fill="#EBEBEB"/>
<path d="M291.653 134.38C292.843 136.4 294.15 138.348 295.567 140.216C296.869 142.166 298.287 144.036 299.813 145.815C298.622 143.796 297.315 141.847 295.899 139.979C294.596 138.03 293.178 136.161 291.653 134.38Z" fill="#EBEBEB"/>
<path d="M39.2448 185.107C39.2448 185.107 43.3725 185.368 46.4881 184.032C47.67 183.534 48.7395 182.803 49.6329 181.882C50.5262 180.962 51.2251 179.871 51.6878 178.675C52.1505 177.479 52.3676 176.202 52.326 174.92C52.2845 173.638 51.9853 172.377 51.4461 171.214L51.3986 171.119C50.6846 169.636 49.5752 168.379 48.1926 167.486C46.8099 166.593 45.2077 166.099 43.5623 166.058H41.8385C41.1996 167.342 40.8182 168.739 40.7156 170.17C40.2491 173.918 39.5453 179.667 39.2448 185.107Z" fill="#F5F5F5"/>
<path d="M221.901 129.525C221.806 129.588 225.602 135.733 230.378 143.253C235.154 150.773 239.076 156.814 239.203 156.751C239.329 156.687 235.51 150.551 230.726 143.031C225.942 135.511 221.996 129.462 221.901 129.525Z" fill="#EBEBEB"/>
<path d="M223.214 137.282C224.038 138.932 224.984 140.518 226.045 142.027C226.984 143.619 228.041 145.139 229.208 146.574C228.379 144.925 227.43 143.339 226.369 141.829C225.431 140.238 224.377 138.718 223.214 137.282Z" fill="#EBEBEB"/>
<path d="M343.004 149.318C346.128 150.797 349.467 151.771 352.896 152.204C352.896 152.085 350.682 151.555 347.962 150.757C345.242 149.958 343.044 149.207 343.004 149.318Z" fill="#EBEBEB"/>
<path d="M274.17 166.69C274.17 166.809 295.038 166.896 320.769 166.896C346.5 166.896 367.375 166.809 367.375 166.69C367.375 166.572 346.515 166.485 320.769 166.485C295.022 166.485 274.17 166.58 274.17 166.69Z" fill="#EBEBEB"/>
<path d="M281.017 174.978C283.267 175.186 285.528 175.254 287.786 175.183C290.047 175.255 292.31 175.186 294.563 174.978C292.31 174.774 290.047 174.705 287.786 174.772C285.528 174.706 283.268 174.774 281.017 174.978Z" fill="#EBEBEB"/>
<path d="M432.541 184.371C432.715 184.388 432.889 184.388 433.063 184.371C433.403 184.371 433.901 184.371 434.542 184.371C436.35 184.372 438.156 184.483 439.95 184.704C445.89 185.41 451.607 187.39 456.712 190.507C461.817 193.623 466.19 197.804 469.532 202.764C470.549 204.259 471.474 205.814 472.3 207.422C472.608 207.991 472.806 208.442 472.964 208.742C473.029 208.903 473.114 209.054 473.217 209.193C473.17 209.028 473.109 208.866 473.035 208.711C472.901 208.402 472.727 207.92 472.442 207.351C471.669 205.707 470.778 204.122 469.778 202.606C466.471 197.554 462.083 193.301 456.929 190.155C451.776 187.01 445.987 185.05 439.982 184.419C438.173 184.217 436.352 184.148 434.534 184.213C433.893 184.213 433.395 184.284 433.055 184.308C432.882 184.308 432.709 184.329 432.541 184.371Z" fill="#EBEBEB"/>
<path d="M194.193 164.5C194.193 164.611 208.007 164.706 225.032 164.706C242.057 164.706 255.872 164.611 255.872 164.5C255.872 164.389 242.065 164.294 225.032 164.294C208 164.294 194.193 164.381 194.193 164.5Z" fill="#EBEBEB"/>
<path d="M167.133 173.768C167.875 173.831 168.621 173.831 169.363 173.768C170.739 173.768 172.637 173.697 174.732 173.681C176.828 173.665 178.726 173.681 180.102 173.681C180.845 173.733 181.591 173.72 182.332 173.641C181.601 173.484 180.857 173.399 180.11 173.388C178.734 173.301 176.836 173.23 174.732 173.238C172.629 173.246 170.723 173.341 169.347 173.451C168.6 173.479 167.858 173.585 167.133 173.768Z" fill="#EBEBEB"/>
<path d="M117.062 102.094C118.53 102.094 119.938 101.511 120.976 100.473C122.014 99.4346 122.597 98.0267 122.597 96.5587V90.2326C122.597 90.2326 127.144 89.521 127.199 84.9742C127.255 80.4273 126.464 69.9499 126.464 69.9499C123.878 68.8395 121.042 68.4395 118.249 68.7912C115.456 69.1429 112.808 70.2335 110.578 71.9505L111.653 96.954C111.741 98.3348 112.347 99.6315 113.35 100.585C114.353 101.538 115.678 102.077 117.062 102.094Z" fill="#B78876"/>
<path d="M122.534 90.1932C120.434 90.2292 118.369 89.6402 116.604 88.501C116.604 88.501 118.011 91.7826 122.55 91.3714L122.534 90.1932Z" fill="#AA6550"/>
<path d="M111.021 77.225C110.942 77.225 107.858 76.3078 107.993 79.4154C108.127 82.5231 111.195 81.7877 111.195 81.6928C111.195 81.5979 111.021 77.225 111.021 77.225Z" fill="#B78876"/>
<path d="M110.206 80.5461C110.206 80.5461 110.159 80.5857 110.064 80.6331C110 80.6599 109.932 80.6736 109.862 80.6736C109.793 80.6736 109.725 80.6599 109.661 80.6331C109.456 80.5138 109.286 80.3415 109.171 80.1341C109.055 79.9268 108.998 79.6921 109.004 79.4549C108.987 79.1851 109.03 78.9148 109.131 78.6641C109.157 78.5659 109.206 78.4756 109.275 78.4011C109.344 78.3266 109.43 78.2703 109.526 78.2371C109.588 78.217 109.654 78.2195 109.713 78.2442C109.773 78.2688 109.822 78.314 109.851 78.3716C109.89 78.4585 109.851 78.5218 109.89 78.5297C109.93 78.5376 109.953 78.4744 109.89 78.3478C109.87 78.2705 109.822 78.2031 109.756 78.1581C109.713 78.1258 109.665 78.1028 109.613 78.0905C109.561 78.0783 109.507 78.077 109.455 78.0869C109.331 78.1192 109.216 78.1815 109.121 78.2683C109.026 78.3552 108.953 78.4639 108.91 78.5851C108.784 78.8572 108.727 79.1558 108.744 79.4549C108.735 79.7337 108.81 80.0086 108.96 80.2441C109.109 80.4795 109.326 80.6647 109.582 80.7755C109.665 80.7952 109.753 80.7969 109.837 80.7806C109.922 80.7642 110.002 80.7301 110.072 80.6806C110.206 80.6094 110.222 80.554 110.206 80.5461Z" fill="#AA6550"/>
<path d="M124.756 77.0512C124.756 77.2212 124.691 77.3846 124.573 77.5071C124.455 77.6295 124.294 77.7013 124.124 77.7075C124.041 77.7139 123.959 77.7038 123.88 77.6777C123.802 77.6515 123.73 77.61 123.668 77.5554C123.606 77.5008 123.556 77.4344 123.52 77.36C123.484 77.2856 123.463 77.2048 123.46 77.1223C123.457 77.0382 123.472 76.9545 123.502 76.876C123.532 76.7975 123.578 76.7257 123.636 76.6647C123.694 76.6038 123.763 76.5549 123.84 76.5208C123.917 76.4867 124 76.4681 124.084 76.466C124.167 76.4596 124.25 76.4696 124.329 76.4957C124.408 76.5217 124.48 76.5632 124.543 76.6176C124.606 76.6721 124.657 76.7385 124.693 76.8129C124.73 76.8874 124.751 76.9684 124.756 77.0512Z" fill="#263238"/>
<path d="M125.547 76.4026C125.46 76.4816 124.97 76.1179 124.274 76.1258C123.578 76.1337 123.056 76.4737 122.985 76.3867C122.914 76.2998 123.033 76.197 123.254 76.0309C123.557 75.8243 123.915 75.714 124.282 75.7146C124.646 75.7157 125 75.8319 125.294 76.0467C125.508 76.2128 125.587 76.363 125.547 76.4026Z" fill="#263238"/>
<path d="M117.909 77.0512C117.909 77.2212 117.843 77.3846 117.725 77.5071C117.607 77.6295 117.446 77.7013 117.276 77.7075C117.194 77.7139 117.111 77.7038 117.033 77.6777C116.954 77.6515 116.882 77.61 116.82 77.5554C116.758 77.5008 116.708 77.4344 116.672 77.36C116.636 77.2856 116.616 77.2048 116.612 77.1223C116.61 77.0382 116.624 76.9545 116.655 76.876C116.685 76.7975 116.73 76.7257 116.788 76.6647C116.846 76.6038 116.916 76.5549 116.993 76.5208C117.07 76.4867 117.152 76.4681 117.237 76.466C117.319 76.4596 117.402 76.4696 117.481 76.4957C117.56 76.5217 117.633 76.5632 117.695 76.6176C117.758 76.6721 117.809 76.7385 117.846 76.8129C117.882 76.8874 117.904 76.9684 117.909 77.0512Z" fill="#263238"/>
<path d="M118.667 76.5291C118.588 76.6161 118.098 76.2524 117.394 76.2524C116.69 76.2524 116.184 76.6082 116.113 76.5212C116.042 76.4343 116.153 76.3315 116.382 76.1654C116.683 75.954 117.043 75.8433 117.41 75.8491C117.773 75.8457 118.128 75.9593 118.422 76.1733C118.636 76.3394 118.707 76.4896 118.667 76.5291Z" fill="#263238"/>
<path d="M121.206 81.7165C121.576 81.5997 121.958 81.5306 122.345 81.5109C122.519 81.5109 122.693 81.4556 122.725 81.3369C122.739 81.1525 122.698 80.9679 122.606 80.8071C122.432 80.3722 122.258 79.9215 122.076 79.4471C121.584 78.2953 121.188 77.1052 120.89 75.8887C121.47 77.0001 121.962 78.1555 122.361 79.3443C122.535 79.8187 122.701 80.2773 122.867 80.7123C122.977 80.9266 123.008 81.1732 122.954 81.4081C122.93 81.4722 122.891 81.5294 122.84 81.5749C122.789 81.6204 122.728 81.6527 122.661 81.6691C122.564 81.6984 122.463 81.7144 122.361 81.7165C121.978 81.7664 121.59 81.7664 121.206 81.7165Z" fill="#263238"/>
<path d="M119.15 82.1909C119.261 82.1909 119.269 82.9817 119.941 83.4798C120.613 83.978 121.396 83.9385 121.404 84.0413C121.411 84.1441 121.222 84.1915 120.882 84.1994C120.425 84.2146 119.978 84.0628 119.624 83.7724C119.296 83.5034 119.084 83.1183 119.031 82.697C119.016 82.3807 119.095 82.1909 119.15 82.1909Z" fill="#263238"/>
<path d="M118.834 73.7929C118.762 73.9827 118.043 73.8878 117.252 73.9906C116.461 74.0934 115.773 74.3148 115.671 74.1408C115.568 73.9668 115.734 73.8798 116.003 73.698C116.359 73.4664 116.766 73.3253 117.189 73.2868C117.608 73.2361 118.033 73.2848 118.43 73.4291C118.731 73.5477 118.881 73.698 118.834 73.7929Z" fill="#263238"/>
<path d="M125.286 74.378C125.167 74.5362 124.685 74.378 124.1 74.378C123.515 74.378 123.032 74.4887 122.922 74.3227C122.811 74.1566 122.922 74.0775 123.159 73.9273C123.448 73.7465 123.785 73.6559 124.125 73.6672C124.466 73.6785 124.796 73.791 125.073 73.9906C125.27 74.1329 125.341 74.2831 125.286 74.378Z" fill="#263238"/>
<path d="M128.624 67.1665C128.654 66.8838 128.613 66.5979 128.504 66.3353C128.394 66.0727 128.221 65.8419 127.999 65.6641C127.767 65.4852 127.477 65.3983 127.185 65.4202C126.893 65.4421 126.62 65.5712 126.417 65.7827C126.46 65.5923 126.462 65.3953 126.423 65.2041C126.385 65.0129 126.307 64.8319 126.195 64.6725C126.082 64.5132 125.938 64.3791 125.77 64.2789C125.603 64.1787 125.417 64.1145 125.223 64.0905C124.48 64.051 123.847 64.6045 123.128 64.8022C122.414 64.9581 121.668 64.8719 121.009 64.557C120.336 64.2882 119.704 63.9165 119.024 63.6635C117.584 63.1381 115.994 63.2022 114.601 63.8418C113.208 64.4814 112.123 65.6449 111.583 67.0795C111.074 66.9563 110.541 66.9892 110.051 67.1739C109.562 67.3587 109.139 67.6869 108.839 68.1154C108.263 68.9984 108.032 70.0623 108.191 71.1045C108.29 71.8015 108.465 72.4856 108.712 73.1446C108.712 73.2079 108.712 73.2632 108.712 73.3186C108.76 75.8252 109.045 78.7589 110.112 78.7747C111.97 78.7747 111.528 75.3033 111.528 75.3033C113.813 74.4177 112.959 70.9938 113.536 70.4798C114.113 69.9658 115.299 68.7559 120.076 71.1994C121.857 71.9959 123.844 72.209 125.753 71.8082H125.872C126.304 71.7015 126.718 71.5281 127.097 71.2942C127.545 71.0368 127.9 70.6435 128.11 70.1714C128.209 69.9331 128.237 69.6711 128.191 69.4171C128.145 69.1631 128.026 68.928 127.849 68.7401C128.264 68.309 128.535 67.7589 128.624 67.1665Z" fill="#263238"/>
<path d="M72.3769 97.8873C72.4876 98.0771 73.7845 100.521 73.7845 100.521C73.7845 100.521 72.7565 96.5272 72.7169 96.3849C72.3848 95.0802 73.1914 95.2146 73.4286 95.6811C73.6659 96.1477 75.1287 100.086 75.1287 100.086C73.7607 94.9616 74.1878 94.5029 74.5752 94.4238C74.9627 94.3448 76.1567 99.0339 76.1567 99.0339C76.4706 98.5007 76.8937 98.0399 77.3982 97.6817C78.6397 96.8277 80.7036 97.6817 80.7985 98.2669C80.8933 98.852 80.1658 99.0102 80.1658 99.0102C79.875 98.7901 79.5262 98.6601 79.1623 98.6361C78.7985 98.6122 78.4355 98.6953 78.1184 98.8753C77.8013 99.0553 77.5439 99.3243 77.3779 99.649C77.212 99.9737 77.1448 100.34 77.1847 100.702C77.2113 100.97 77.3298 101.22 77.5201 101.41C77.7105 101.6 77.9609 101.718 78.2286 101.745C78.4963 101.771 78.7647 101.703 78.9882 101.553C79.2117 101.404 79.3764 101.181 79.4542 100.924C79.9682 98.6148 80.7589 99.3423 80.7589 99.3423L79.9681 104.443L80.8063 107.005L85.4243 119.522L94.2491 110.334C94.2491 110.334 98.9936 120.764 99.0727 121.112C99.1518 121.46 94.6524 126.03 91.695 129.075C90.648 130.148 89.3313 130.92 87.883 131.309C86.4348 131.698 84.9085 131.69 83.4645 131.285C82.0205 130.881 80.7121 130.095 79.6767 129.01C78.6413 127.926 77.917 126.582 77.5801 125.121L74.0928 107.147L72.456 101.256C72.456 101.256 71.8708 98.8837 71.7285 98.3064C71.5466 97.6185 72.0685 97.3892 72.3769 97.8873Z" fill="#B78876"/>
<path d="M150.772 133.005C148.139 133.471 145.118 131.573 143.497 129.446L136.926 120.788L144.652 113.9L151.571 122.519L177.555 121.143L183.675 117.727C184.095 117.491 184.583 117.402 185.059 117.474L193.504 119.847L185.597 122.282L171.767 127.485L150.772 133.005Z" fill="#B78876"/>
<path d="M91.877 260.355L90.7858 264.933C90.7858 264.933 83.3053 274.644 80.9963 274.169C79.4859 273.861 81.3442 271.323 84.1593 263.945L84.7523 260.901L91.877 260.355Z" fill="#FF725E"/>
<path d="M80.6959 272.762C80.7076 272.809 80.7262 272.854 80.7513 272.896C80.8276 273.021 80.937 273.122 81.0675 273.189C81.2712 273.298 81.5008 273.35 81.7318 273.339C82.0364 273.308 82.3279 273.199 82.5779 273.023C83.9191 271.946 85.1797 270.773 86.3497 269.512C87.5345 268.268 88.6511 266.962 89.6947 265.598C90.09 265.068 90.4063 264.641 90.6119 264.332C90.6989 264.214 90.778 264.095 90.8491 263.984C90.8782 263.944 90.9047 263.902 90.9282 263.858C90.9282 263.858 90.8887 263.858 90.8254 263.969L90.5645 264.301L89.6076 265.534C88.8169 266.562 87.6308 267.962 86.2469 269.409C85.0795 270.66 83.8356 271.838 82.5225 272.936C82.3261 273.099 82.0885 273.204 81.8359 273.24C81.5833 273.277 81.3256 273.242 81.0913 273.141C80.9256 273.056 80.7882 272.924 80.6959 272.762Z" fill="#263238"/>
<path d="M81.7554 269.599C81.7554 269.599 81.9926 269.599 82.3564 269.599C82.8348 269.672 83.2926 269.844 83.7006 270.105C84.1219 270.346 84.4712 270.696 84.7128 271.117C84.8946 271.441 84.9421 271.67 84.9658 271.67C84.9626 271.46 84.9083 271.254 84.8077 271.069C84.5772 270.614 84.2203 270.235 83.7797 269.978C83.3548 269.709 82.8727 269.544 82.3722 269.496C82.161 269.469 81.9465 269.505 81.7554 269.599Z" fill="#263238"/>
<path d="M88.8328 267.329C88.8328 267.329 88.7537 267.005 88.6984 266.475C88.6244 265.786 88.7536 265.091 89.07 264.475C89.383 263.854 89.8838 263.347 90.5012 263.028C90.756 262.908 91.0205 262.81 91.292 262.735C91.2134 262.723 91.1334 262.723 91.0548 262.735C90.8394 262.772 90.6296 262.836 90.4301 262.925C89.7758 263.232 89.2438 263.75 88.9197 264.396C88.583 265.036 88.4611 265.768 88.5718 266.483C88.6033 266.695 88.6536 266.905 88.7221 267.108C88.7853 267.226 88.7853 267.337 88.8328 267.329Z" fill="#263238"/>
<path d="M91.3945 261.13C91.1834 261.585 91.0447 262.071 90.9833 262.569C90.8489 263.36 90.6986 264.016 90.7303 264.032C90.9403 263.577 91.0739 263.091 91.1256 262.593C91.268 261.786 91.434 261.146 91.3945 261.13Z" fill="#263238"/>
<path d="M84.0406 264.594C84.0406 264.633 84.4675 264.594 84.9657 264.736C85.4639 264.878 85.8435 265.052 85.8672 265.013C85.6263 264.793 85.3269 264.647 85.0052 264.594C84.6908 264.498 84.355 264.498 84.0406 264.594Z" fill="#263238"/>
<path d="M83.9064 265.376C83.9064 265.376 84.2622 265.376 84.6971 265.479C85.132 265.582 85.4088 265.771 85.4404 265.732C85.2556 265.522 85.0043 265.383 84.7287 265.336C84.4595 265.245 84.1656 265.259 83.9064 265.376Z" fill="#263238"/>
<path d="M83.3048 266.357C83.5677 266.33 83.8326 266.33 84.0956 266.357C84.3509 266.443 84.5994 266.549 84.8389 266.673C84.7616 266.548 84.6577 266.443 84.5346 266.363C84.4115 266.284 84.2724 266.233 84.1272 266.214C83.9882 266.175 83.8421 266.167 83.6998 266.192C83.5575 266.217 83.4225 266.273 83.3048 266.357Z" fill="#263238"/>
<path d="M84.5706 264.261C84.6546 264.272 84.7397 264.272 84.8237 264.261C85.0488 264.215 85.2708 264.154 85.4879 264.079C85.8088 263.966 86.1207 263.828 86.421 263.668C86.5967 263.571 86.7658 263.463 86.9271 263.344C87.029 263.283 87.1159 263.201 87.1816 263.102C87.2473 263.004 87.29 262.892 87.3066 262.775C87.298 262.711 87.2756 262.65 87.241 262.596C87.2064 262.541 87.1604 262.495 87.1063 262.461C87.0521 262.426 86.991 262.404 86.9273 262.395C86.8636 262.386 86.7987 262.392 86.7373 262.411C86.5336 262.479 86.3529 262.602 86.2154 262.767C85.9705 263 85.7408 263.248 85.5275 263.51C85.3456 263.739 85.2032 263.929 85.1162 264.063C85.0648 264.129 85.0222 264.2 84.9897 264.277C84.9897 264.277 85.219 264.008 85.6065 263.581C85.7963 263.368 86.0335 263.122 86.3103 262.862C86.4329 262.72 86.5913 262.613 86.7689 262.553C86.935 262.514 87.1564 262.601 87.1564 262.782C87.1564 262.964 86.9982 263.115 86.848 263.233C86.6977 263.352 86.5159 263.455 86.3498 263.549C86.06 263.716 85.7588 263.861 85.4484 263.984C84.9186 264.166 84.5706 264.237 84.5706 264.261Z" fill="#263238"/>
<path d="M84.9657 264.166C84.9795 264.091 84.9795 264.013 84.9657 263.937C84.9657 263.795 84.9657 263.581 84.9183 263.32C84.883 263.007 84.8032 262.701 84.6811 262.411C84.6088 262.239 84.5101 262.078 84.3885 261.936C84.3266 261.839 84.2325 261.767 84.1226 261.732C84.0127 261.698 83.894 261.703 83.7875 261.747C83.7005 261.816 83.6349 261.908 83.5985 262.013C83.5621 262.118 83.5563 262.232 83.5819 262.34C83.6134 262.526 83.6692 262.706 83.748 262.877C83.8757 263.171 84.0552 263.439 84.2778 263.668C84.426 263.819 84.5874 263.957 84.7601 264.079C84.8787 264.158 84.9499 264.198 84.9578 264.19C84.9657 264.182 84.7048 263.985 84.3569 263.597C84.1543 263.376 83.9911 263.122 83.8745 262.846C83.8032 262.687 83.7527 262.519 83.7242 262.348C83.7242 262.182 83.7243 261.968 83.8587 261.897C83.9931 261.826 84.1671 261.897 84.2857 262.055C84.3952 262.188 84.4882 262.334 84.5624 262.49C84.6839 262.768 84.769 263.06 84.8155 263.36C84.851 263.631 84.9012 263.9 84.9657 264.166Z" fill="#263238"/>
<g opacity="0.4">
<path opacity="0.4" d="M90.7856 264.934L91.3154 262.735C91.3154 262.735 89.4809 263.075 89.0064 264.443C88.7233 265.201 88.5994 266.008 88.6427 266.816L84.6889 271.109C84.6889 271.109 83.6847 269.156 81.8739 269.623C81.8739 269.623 80.4505 272.786 80.498 273.537C80.5454 274.288 81.4548 274.233 81.779 274.083C83.0949 273.318 84.2956 272.37 85.3453 271.268C87.4329 269.053 89.7656 266.278 90.7856 264.934Z" fill="black"/>
</g>
<path d="M129.058 262.672L129.097 256.568L117.671 256.433L117.521 265.353L118.232 265.408C121.395 265.622 134.269 266.27 136.42 265.653C138.736 264.973 129.058 262.672 129.058 262.672Z" fill="#FF725E"/>
<g opacity="0.4">
<path opacity="0.4" d="M121.665 265.313C121.509 264.348 121.002 263.475 120.241 262.862C119.495 262.246 118.542 261.938 117.576 262V265.163L121.665 265.313Z" fill="black"/>
</g>
<g opacity="0.4">
<path opacity="0.4" d="M133.787 263.961C133.787 263.961 137.179 264.989 136.744 265.542C136.309 266.096 123.301 265.93 117.521 265.352V265.099L132.735 265.424C132.735 265.424 133.123 263.984 133.787 263.961Z" fill="black"/>
</g>
<path d="M117.363 265.092H117.56L118.122 265.131L120.202 265.25C121.957 265.329 124.377 265.416 127.057 265.456C129.738 265.495 132.158 265.456 133.913 265.456L135.993 265.392H136.554H136.752H135.961H133.882C132.126 265.392 129.706 265.392 127.026 265.392C124.345 265.392 121.925 265.289 120.17 265.226L118.098 265.155H117.529L117.363 265.092Z" fill="#263238"/>
<path d="M132.751 265.598C132.853 265.256 132.988 264.925 133.154 264.609C133.364 264.32 133.605 264.055 133.874 263.819C133.528 263.965 133.236 264.212 133.035 264.529C132.835 264.845 132.735 265.215 132.751 265.59V265.598Z" fill="#263238"/>
<path d="M129.406 263.842C129.406 263.842 129.604 263.676 129.77 263.415C129.936 263.154 130.054 262.925 130.023 262.901C129.991 262.878 129.825 263.075 129.651 263.336C129.477 263.597 129.374 263.827 129.406 263.842Z" fill="#263238"/>
<path d="M128.489 263.344C128.489 263.344 128.694 263.257 128.892 263.083C129.09 262.909 129.232 262.743 129.208 262.711C129.185 262.68 129.003 262.806 128.797 262.98C128.592 263.154 128.457 263.312 128.489 263.344Z" fill="#263238"/>
<path d="M127.911 262.261C128.104 262.331 128.309 262.358 128.512 262.34C128.712 262.367 128.915 262.348 129.105 262.284C128.915 262.218 128.713 262.191 128.512 262.205C128.31 262.178 128.105 262.197 127.911 262.261Z" fill="#263238"/>
<path d="M127.722 261.494C127.916 261.631 128.149 261.703 128.386 261.699C128.619 261.742 128.86 261.712 129.074 261.612C128.852 261.577 128.627 261.558 128.402 261.557C128.177 261.523 127.95 261.502 127.722 261.494Z" fill="#263238"/>
<path d="M129.802 262.853C130.045 262.896 130.294 262.896 130.537 262.853C130.805 262.823 131.07 262.768 131.328 262.687C131.484 262.647 131.635 262.588 131.778 262.513C131.869 262.465 131.937 262.382 131.968 262.284C131.98 262.23 131.976 262.173 131.957 262.121C131.937 262.069 131.903 262.024 131.858 261.992C131.58 261.849 131.261 261.808 130.956 261.876C130.651 261.944 130.38 262.116 130.189 262.363C130.073 262.504 129.989 262.669 129.944 262.846C129.928 262.911 129.928 262.978 129.944 263.043C130.023 262.821 130.138 262.612 130.284 262.426C130.453 262.235 130.672 262.095 130.917 262.023C131.207 261.932 131.522 261.957 131.794 262.094C131.905 262.181 131.865 262.324 131.731 262.395C131.601 262.469 131.463 262.527 131.32 262.569C131.061 262.649 130.797 262.71 130.529 262.751C130.086 262.838 129.802 262.83 129.802 262.853Z" fill="#263238"/>
<path d="M129.991 262.893C130.04 262.819 130.073 262.737 130.089 262.65C130.105 262.563 130.104 262.474 130.086 262.387C130.067 262.192 129.999 262.004 129.888 261.842C129.829 261.733 129.742 261.641 129.637 261.575C129.532 261.508 129.412 261.469 129.287 261.462C129.25 261.469 129.214 261.483 129.182 261.504C129.149 261.525 129.122 261.552 129.101 261.583C129.079 261.615 129.064 261.651 129.057 261.688C129.05 261.726 129.05 261.765 129.058 261.802C129.07 261.919 129.111 262.03 129.177 262.126C129.268 262.292 129.382 262.444 129.517 262.577C129.746 262.806 129.928 262.893 129.936 262.878C129.944 262.862 129.786 262.743 129.588 262.514C129.475 262.375 129.375 262.227 129.287 262.071C129.185 261.913 129.121 261.628 129.287 261.597C129.454 261.565 129.651 261.771 129.762 261.921C129.864 262.062 129.934 262.224 129.968 262.395C129.99 262.56 129.998 262.727 129.991 262.893Z" fill="#263238"/>
<path d="M117.64 261.968C117.922 261.954 118.204 261.954 118.486 261.968C119.156 262.06 119.787 262.333 120.312 262.759C120.835 263.188 121.227 263.755 121.443 264.396C121.609 264.894 121.625 265.187 121.649 265.187C121.662 265.111 121.662 265.033 121.649 264.957C121.627 264.749 121.587 264.543 121.53 264.341C121.335 263.666 120.94 263.066 120.396 262.621C119.852 262.176 119.186 261.907 118.486 261.85C118.276 261.825 118.063 261.825 117.853 261.85C117.775 261.874 117.702 261.915 117.64 261.968Z" fill="#263238"/>
<path d="M118.881 257.224C118.791 258.011 118.749 258.803 118.755 259.596C118.708 260.386 118.708 261.178 118.755 261.968C118.845 261.181 118.89 260.389 118.889 259.596C118.935 258.806 118.933 258.013 118.881 257.224Z" fill="#263238"/>
<path d="M123.12 264.222C123.666 264.353 124.227 264.414 124.789 264.404C125.347 264.442 125.908 264.405 126.457 264.293C126.457 264.254 125.706 264.293 124.789 264.293C123.871 264.293 123.128 264.182 123.12 264.222Z" fill="#263238"/>
<path d="M120.882 264.19C120.882 264.19 120.937 264.348 121.016 264.514C121.095 264.68 121.127 264.839 121.167 264.839C121.206 264.839 121.23 264.657 121.167 264.459C121.103 264.261 120.906 264.159 120.882 264.19Z" fill="#263238"/>
<path d="M120.051 263.123C120.051 263.123 120.091 263.273 120.209 263.391C120.328 263.51 120.446 263.589 120.47 263.565C120.494 263.542 120.431 263.415 120.312 263.297C120.193 263.178 120.075 263.099 120.051 263.123Z" fill="#263238"/>
<path d="M118.834 262.632C118.834 262.672 118.992 262.672 119.158 262.735C119.324 262.799 119.443 262.886 119.475 262.854C119.506 262.822 119.411 262.672 119.206 262.601C119 262.53 118.834 262.593 118.834 262.632Z" fill="#263238"/>
<path d="M117.996 262.395C117.996 262.395 118.043 262.49 118.138 262.53C118.233 262.569 118.32 262.569 118.336 262.53C118.351 262.49 118.28 262.435 118.185 262.395C118.091 262.356 118.004 262.356 117.996 262.395Z" fill="#263238"/>
<path d="M79.7389 261.169L102.331 141.529L133.731 146.313L131.502 260.039L113.71 260.41L116.667 161.195L96.6531 261.169H79.7389Z" fill="#455A64"/>
<path d="M98.8593 152.971L134.752 151.635L133.731 118.874L138.436 124.243L148.036 115.932L137.48 101.548C136.122 99.7146 134.411 98.1715 132.447 97.0103C130.483 95.849 128.306 95.0932 126.045 94.7875C124.709 94.6056 123.673 94.5107 123.025 94.4316C119.214 95.6377 115.124 95.6377 111.314 94.4316C109.659 94.4877 108.023 94.8025 106.466 95.3647C103.531 96.4031 100.882 98.1178 98.7328 100.37L86.9585 116.288L97.0248 124.986L102.758 119.941L98.8593 152.971Z" fill="#263238"/>
<path d="M133.194 106.507C133.083 106.507 133.194 111.963 133.447 118.676C133.7 125.39 133.993 130.838 134.103 130.83C134.214 130.822 134.104 125.382 133.858 118.66C133.613 111.939 133.313 106.507 133.194 106.507Z" fill="#455A64"/>
<path d="M104.031 108.657C103.595 110.983 103.299 113.333 103.146 115.695C102.85 118.043 102.689 120.406 102.663 122.772C103.1 120.446 103.395 118.096 103.549 115.734C103.845 113.387 104.006 111.024 104.031 108.657Z" fill="#455A64"/>
<path d="M121.602 94.7874C121.53 94.8823 121.807 95.2065 122.21 95.5307C122.614 95.8549 123.001 96.0289 123.072 95.9419C123.143 95.8549 122.867 95.5228 122.463 95.1986C122.06 94.8744 121.673 94.7004 121.602 94.7874Z" fill="#455A64"/>
<path d="M119.972 95.1434C119.87 95.1987 119.972 95.5308 120.051 95.9341C120.131 96.3374 120.265 96.63 120.384 96.6221C120.502 96.6142 120.565 96.2504 120.447 95.8313C120.328 95.4122 120.067 95.088 119.972 95.1434Z" fill="#455A64"/>
<path d="M118.114 95.3806C117.995 95.3806 117.893 95.6811 117.869 96.0686C117.845 96.456 117.932 96.7644 118.043 96.7723C118.154 96.7803 118.264 96.4719 118.28 96.0844C118.296 95.6969 118.225 95.3806 118.114 95.3806Z" fill="#455A64"/>
<path d="M115.726 95.1987C115.607 95.1987 115.512 95.5308 115.402 95.9262C115.291 96.3216 115.22 96.6616 115.315 96.717C115.41 96.7723 115.678 96.4877 115.805 96.0369C115.931 95.5862 115.837 95.1987 115.726 95.1987Z" fill="#455A64"/>
<path d="M113.061 94.914C112.95 94.8745 112.768 95.1117 112.555 95.3964C112.341 95.681 112.159 95.9182 112.231 96.0131C112.302 96.108 112.626 96.0131 112.879 95.6415C113.132 95.2698 113.164 94.9535 113.061 94.914Z" fill="#455A64"/>
<path d="M111.662 94.5107C111.598 94.4158 111.322 94.5107 111.053 94.6609C110.784 94.8112 110.61 95.0563 110.673 95.1512C110.736 95.2461 111.005 95.1512 111.274 95.0089C111.543 94.8665 111.717 94.6056 111.662 94.5107Z" fill="#455A64"/>
<path d="M103.28 116.438C103.28 116.557 110.009 116.652 118.304 116.66C126.599 116.668 133.328 116.573 133.328 116.462C133.328 116.351 126.599 116.249 118.304 116.241C110.009 116.233 103.28 116.328 103.28 116.438Z" fill="#FAFAFA"/>
<path d="M103.019 118.66C103.019 118.779 109.748 118.874 118.043 118.882C126.338 118.89 133.067 118.795 133.067 118.684C133.067 118.573 126.338 118.471 118.043 118.471C109.748 118.471 103.019 118.566 103.019 118.66Z" fill="#FAFAFA"/>
<path d="M102.758 120.882C102.758 121.001 109.677 121.151 118.201 121.23C126.725 121.309 133.652 121.23 133.652 121.159C133.652 121.088 126.741 120.89 118.209 120.819C109.677 120.748 102.758 120.772 102.758 120.882Z" fill="#FAFAFA"/>
<path d="M93.0075 107.874C93.3764 108.396 93.8065 108.871 94.2886 109.29C95.1268 110.08 96.3287 111.227 97.7046 112.389C99.0805 113.552 100.369 114.548 101.326 115.236C101.814 115.638 102.344 115.986 102.908 116.272C102.474 115.803 101.995 115.379 101.476 115.007L97.9339 112.073L94.4546 109.076C94.0096 108.633 93.5253 108.23 93.0075 107.874Z" fill="#FAFAFA"/>
<path d="M91.1576 109.867C91.6175 110.415 92.1285 110.918 92.6837 111.369C93.6642 112.247 95.056 113.417 96.6375 114.651C98.219 115.885 99.7214 116.928 100.828 117.648C101.404 118.074 102.021 118.44 102.671 118.739C102.156 118.244 101.594 117.799 100.995 117.411C99.9349 116.62 98.4799 115.545 96.8826 114.327C95.2853 113.109 93.8778 111.955 92.8498 111.164C92.3273 110.68 91.7608 110.246 91.1576 109.867Z" fill="#FAFAFA"/>
<path d="M90.2641 111.741C91.9588 113.467 93.7515 115.093 95.6333 116.612C97.4276 118.234 99.3127 119.752 101.279 121.159C99.5793 119.439 97.7841 117.815 95.9022 116.296C94.1064 114.677 92.2243 113.157 90.2641 111.741Z" fill="#FAFAFA"/>
<path d="M133.62 117.134C134.176 116.907 134.691 116.592 135.147 116.201C136.28 115.315 137.337 114.336 138.31 113.275C139.464 112.058 140.484 110.903 141.212 110.112C141.634 109.691 142.008 109.225 142.327 108.721C141.84 109.064 141.395 109.462 140.998 109.907C140.207 110.698 139.164 111.773 138.009 112.991C137.047 114.036 136.03 115.032 134.965 115.972C134.494 116.332 134.045 116.72 133.62 117.134Z" fill="#FAFAFA"/>
<path d="M134.649 119.847C135.219 119.524 135.749 119.137 136.23 118.692C137.14 117.901 138.373 116.834 139.662 115.529C140.951 114.224 142.082 113.054 142.825 112.153C143.276 111.691 143.671 111.179 144.003 110.626C143.499 111.025 143.033 111.47 142.612 111.955C141.821 112.801 140.635 113.971 139.346 115.237C138.057 116.502 136.863 117.609 136.001 118.4C135.5 118.833 135.047 119.318 134.649 119.847Z" fill="#FAFAFA"/>
<path d="M135.74 121.776C136.261 121.38 136.743 120.935 137.179 120.447C138.033 119.601 139.219 118.439 140.564 117.181C141.908 115.924 143.157 114.809 144.067 114.018C144.582 113.618 145.061 113.174 145.498 112.69C144.914 112.99 144.369 113.362 143.877 113.797C142.92 114.532 141.631 115.6 140.279 116.857C138.927 118.114 137.772 119.324 136.966 120.226C136.5 120.695 136.089 121.214 135.74 121.776Z" fill="#FAFAFA"/>
<path d="M98.9304 151.461C98.9304 151.571 106.909 151.461 116.746 151.215C126.583 150.97 134.554 150.678 134.554 150.567C134.554 150.456 126.575 150.567 116.738 150.804C106.901 151.041 98.9304 151.342 98.9304 151.461Z" fill="#455A64"/>
<path d="M18.804 219.781C17.7783 220.295 16.8666 221.01 16.1234 221.883C15.3802 222.757 14.8208 223.771 14.4786 224.866C13.8128 227.063 13.656 229.384 14.02 231.651C14.6051 236.039 17.183 240.428 19.9427 243.891C23.5801 240.594 24.3314 234.94 24.529 232.03C24.8374 227.468 22.6312 219.014 18.804 219.766" fill="#FF725E"/>
<path d="M15.7747 251.245C16.0038 249.984 15.8948 248.684 15.4587 247.479C15.0226 246.273 14.2749 245.205 13.2918 244.382C12.3019 243.581 11.1635 242.985 9.94203 242.627C8.72059 242.268 7.44037 242.155 6.17505 242.294C5.58274 242.296 4.99803 242.428 4.46237 242.681C3.92671 242.933 3.45315 243.301 3.07527 243.757C2.7905 244.235 2.64018 244.782 2.64018 245.338C2.64018 245.895 2.7905 246.442 3.07527 246.92C3.65264 247.868 4.47126 248.646 5.44753 249.174C8.68961 251.127 12.1927 252.424 15.7985 251.261" fill="#FF725E"/>
<path d="M20.7803 264.641C20.7611 264.337 20.7135 264.035 20.6379 263.74C20.5035 263.107 20.3375 262.285 20.1398 261.304C19.6764 258.594 18.7764 255.977 17.4749 253.555C16.1219 251.136 14.1519 249.12 11.7657 247.711C11.0407 247.297 10.268 246.973 9.46463 246.746C9.24709 246.678 9.02514 246.626 8.80037 246.588C8.65013 246.588 8.57107 246.588 8.57107 246.588C9.64222 246.93 10.6756 247.38 11.655 247.932C13.9598 249.37 15.8638 251.366 17.1903 253.737C18.4671 256.135 19.3837 258.709 19.9105 261.375C20.1556 262.395 20.3533 263.226 20.5035 263.787C20.5732 264.078 20.6657 264.364 20.7803 264.641Z" fill="#263238"/>
<path d="M19.9182 226.384C19.9017 226.516 19.9017 226.648 19.9182 226.78C19.9182 227.072 19.9182 227.444 19.8708 227.91C19.8708 228.899 19.8075 230.322 19.7838 232.086C19.7364 235.612 19.7364 240.483 19.8629 245.86C19.9894 251.238 20.2108 256.101 20.4164 259.627C20.5271 261.383 20.622 262.79 20.7011 263.787C20.7011 264.253 20.7723 264.625 20.8039 264.918C20.8039 265.051 20.8225 265.184 20.8592 265.313C20.8679 265.181 20.8679 265.049 20.8592 264.918C20.8592 264.625 20.8592 264.245 20.8592 263.779C20.8118 262.759 20.7564 261.343 20.6774 259.612C20.5271 256.093 20.3374 251.23 20.2108 245.853C20.0843 240.475 20.0527 235.573 20.0448 232.086C20.0448 230.354 20.0448 228.923 20.0448 227.91C20.0448 227.444 20.0448 227.072 20.0448 226.78C20.0135 226.645 19.9711 226.512 19.9182 226.384Z" fill="#263238"/>
<path d="M22.2276 253.784C22.6222 251.107 23.6495 248.563 25.2241 246.363C26.7987 244.162 28.8754 242.369 31.2817 241.132C32.5074 240.515 34.1126 240.104 35.1484 240.997C36.1843 241.891 35.9867 243.559 35.5122 244.848C34.4758 247.524 32.6699 249.833 30.3225 251.484C27.9751 253.135 25.1914 254.054 22.3225 254.124" fill="#FF725E"/>
<path d="M30.7596 245.354C30.4852 245.447 30.2204 245.567 29.9688 245.71C29.6682 245.859 29.3753 246.023 29.0911 246.201C28.7669 246.414 28.3636 246.628 27.9761 246.928C27.5331 247.239 27.1081 247.574 26.703 247.932C26.227 248.329 25.7755 248.754 25.3509 249.205C23.3663 251.268 21.9213 253.789 21.1441 256.544C20.9804 257.14 20.8484 257.744 20.7487 258.354C20.6523 258.877 20.5889 259.405 20.5589 259.936C20.5195 260.378 20.5063 260.821 20.5194 261.264C20.5162 261.6 20.5321 261.935 20.5668 262.269C20.5729 262.556 20.61 262.843 20.6775 263.123C20.7487 263.123 20.5984 261.897 20.7803 259.96C20.8274 259.429 20.9039 258.901 21.0096 258.378C21.1179 257.778 21.2578 257.184 21.4287 256.599C21.8362 255.26 22.3877 253.968 23.0735 252.748C23.7817 251.542 24.6167 250.416 25.5644 249.387C25.9778 248.936 26.4161 248.509 26.877 248.106C27.271 247.749 27.6827 247.411 28.1106 247.094C29.6842 245.948 30.7912 245.418 30.7596 245.354Z" fill="#263238"/>
<path d="M201.302 61.1189H176.942C176.026 61.1189 175.284 61.8612 175.284 62.7769V109.242C175.284 110.158 176.026 110.9 176.942 110.9H201.302C202.218 110.9 202.96 110.158 202.96 109.242V62.7769C202.96 61.8612 202.218 61.1189 201.302 61.1189Z" fill="#263238"/>
<path d="M202.025 62.7866V109.143C202.025 109.233 202.008 109.322 201.973 109.405C201.938 109.487 201.887 109.563 201.824 109.626C201.76 109.689 201.684 109.738 201.6 109.772C201.517 109.805 201.428 109.822 201.338 109.821H176.831C176.749 109.822 176.668 109.806 176.593 109.775C176.517 109.744 176.449 109.699 176.391 109.641C176.334 109.583 176.289 109.513 176.259 109.438C176.228 109.362 176.214 109.281 176.216 109.199V62.7339C176.213 62.6619 176.224 62.59 176.249 62.5224C176.274 62.4548 176.313 62.3928 176.362 62.34C176.411 62.2871 176.47 62.2444 176.535 62.2144C176.601 62.1843 176.671 62.1675 176.743 62.1648H182.87C182.956 62.1664 183.039 62.1935 183.109 62.2426C183.179 62.2917 183.233 62.3607 183.264 62.4406L183.517 63.0656C183.549 63.145 183.603 63.2133 183.674 63.2619C183.744 63.3104 183.827 63.3369 183.913 63.3382H194.343C194.428 63.338 194.511 63.3124 194.581 63.2647C194.652 63.2169 194.706 63.1493 194.738 63.0703L194.991 62.4422C195.022 62.3621 195.076 62.2929 195.146 62.2435C195.216 62.1941 195.299 62.1667 195.385 62.1648H201.424C201.586 62.1694 201.739 62.237 201.852 62.3532C201.964 62.4694 202.026 62.6249 202.025 62.7866Z" fill="#FF2734"/>
<path opacity="0.3" d="M202.026 65.0581H176.216V107.214H202.026V65.0581Z" fill="white"/>
<path opacity="0.6" d="M179.062 64.03H179.38V63.6044H179.062V64.03Z" fill="white"/>
<path opacity="0.6" d="M178.541 64.03H178.86V63.4625H178.541V64.03Z" fill="white"/>
<path opacity="0.6" d="M178.021 64.03H178.34V63.3222H178.021V64.03Z" fill="white"/>
<path opacity="0.6" d="M177.503 64.0283H177.822V63.1786H177.503V64.0283Z" fill="white"/>
<path opacity="0.6" d="M199.105 63.4495H198.916V63.8751H199.105V63.4495Z" fill="white"/>
<path opacity="0.6" d="M199.236 64.03H200.741V63.2951H199.236V64.03Z" fill="white"/>
<path opacity="0.4" d="M200.967 68.9644H177.275C176.89 68.9644 176.578 69.2763 176.578 69.661V82.082C176.578 82.4668 176.89 82.7787 177.275 82.7787H200.967C201.352 82.7787 201.664 82.4668 201.664 82.082V69.661C201.664 69.2763 201.352 68.9644 200.967 68.9644Z" fill="white"/>
<path d="M195.32 69.3276H182.922C182.601 69.3276 182.341 69.5875 182.341 69.908V81.8363C182.341 82.1568 182.601 82.4166 182.922 82.4166H195.32C195.641 82.4166 195.901 82.1568 195.901 81.8363V69.908C195.901 69.5875 195.641 69.3276 195.32 69.3276Z" fill="white"/>
<path d="M180.299 76.2246C180.299 76.3977 180.248 76.5669 180.152 76.7109C180.056 76.8548 179.919 76.967 179.759 77.0332C179.599 77.0995 179.423 77.1168 179.253 77.0831C179.084 77.0493 178.928 76.9659 178.805 76.8435C178.683 76.7211 178.599 76.5652 178.566 76.3954C178.532 76.2256 178.549 76.0496 178.615 75.8897C178.682 75.7297 178.794 75.593 178.938 75.4969C179.082 75.4007 179.251 75.3494 179.424 75.3494C179.656 75.3494 179.879 75.4416 180.043 75.6057C180.207 75.7699 180.299 75.9925 180.299 76.2246Z" fill="#263238"/>
<path opacity="0.2" d="M179.947 76.2245C179.947 76.3283 179.916 76.4297 179.858 76.516C179.801 76.6023 179.719 76.6696 179.623 76.7092C179.527 76.7489 179.421 76.7592 179.32 76.7388C179.218 76.7184 179.124 76.6683 179.051 76.5948C178.978 76.5213 178.928 76.4277 178.908 76.3258C178.888 76.224 178.898 76.1185 178.938 76.0226C178.978 75.9268 179.046 75.845 179.132 75.7876C179.219 75.7301 179.32 75.6996 179.424 75.7C179.563 75.7004 179.696 75.7558 179.794 75.8541C179.892 75.9525 179.947 76.0856 179.947 76.2245Z" fill="black"/>
<path d="M177.318 74.9268L177.546 74.5904C177.546 74.5904 178.412 74.6956 178.789 74.3369H179.902L179.955 74.38L178.703 75.3493L177.554 75.1898L177.318 74.9268Z" fill="#263238"/>
<path d="M179.424 75.1053H179.842L180.482 76.1145H180.629L180.167 75.1053V74.7371H179.778L179.424 75.1053Z" fill="#263238"/>
<path d="M176.578 73.959L176.6 74.0352L176.578 74.1369V73.959Z" fill="#263238"/>
<path d="M176.79 73.3961L176.695 73.5699L176.844 73.6417L176.884 73.7501L176.837 73.8059L176.996 73.927C177 73.9376 177.003 73.9491 177.002 73.9606C177.002 73.9721 176.999 73.9834 176.994 73.9937C176.989 74.004 176.981 74.0131 176.972 74.0203C176.963 74.0275 176.953 74.0327 176.942 74.0354L176.736 73.927H176.577V73.554H176.647L176.733 73.3643C176.733 73.3643 176.663 73.1921 176.962 73.0725L177.033 73.1283V73.2782L176.939 73.3643L176.79 73.3961Z" fill="#263238"/>
<path d="M176.688 74.2632L176.578 74.4189V74.1567L176.688 74.2632Z" fill="#FF2734"/>
<path d="M180.482 74.4739L180.199 74.8932L180.167 74.8677L180.084 74.7991L179.547 75.0829L179.499 75.1052L178.412 75.609L178.485 75.6999H179.052L179.116 75.8003L178.933 76.0411L178.59 76.4922L178.455 76.6708H176.578V75.1435C176.704 75.2505 176.856 75.3235 177.018 75.3555C177.027 75.358 177.036 75.358 177.045 75.3555C177.056 75.3499 177.066 75.343 177.076 75.3348H177.084C177.091 75.3276 177.097 75.3196 177.103 75.3109C177.106 75.3064 177.109 75.3016 177.111 75.2965C177.115 75.2875 177.118 75.2778 177.12 75.2678C177.126 75.2186 177.114 75.1689 177.087 75.1275L177.318 74.9394C178.609 74.9713 178.968 74.6461 178.968 74.6461L179.944 74.3926L180.482 74.4739Z" fill="#FF2734"/>
<path d="M179.116 75.8005L178.933 76.0412L178.59 76.4924L178.455 76.671H176.578V76.5897L176.908 76.5339L176.846 76.1767L177.672 75.5725L178.002 75.7001L178.412 75.6092L178.485 75.7001H179.052L179.116 75.8005Z" fill="#263238"/>
<path d="M177.018 75.3556C176.968 75.3826 176.915 75.4024 176.859 75.4146L176.582 75.2759V75.1436C176.707 75.2501 176.857 75.3231 177.018 75.3556Z" fill="#263238"/>
<path opacity="0.2" d="M176.688 74.2632L176.578 74.4189V74.1567L176.688 74.2632Z" fill="black"/>
<path opacity="0.2" d="M177.476 75.1883L176.972 75.7L176.578 75.4784V75.1436C176.704 75.2506 176.856 75.3236 177.018 75.3557C177.027 75.3582 177.036 75.3582 177.045 75.3557C177.056 75.3501 177.066 75.3431 177.076 75.3349H177.084C177.091 75.3278 177.097 75.3197 177.103 75.311C177.106 75.3066 177.109 75.3018 177.111 75.2967C177.115 75.2876 177.118 75.278 177.12 75.268C177.126 75.2187 177.114 75.169 177.087 75.1277L177.476 75.1883Z" fill="black"/>
<path opacity="0.2" d="M180.482 74.4741L180.199 74.8934L180.167 74.8679L180.084 74.7994L179.547 75.0831L179.499 75.1055L178.412 75.6092L178.485 75.7001H179.052L179.116 75.8006L178.933 76.0413L178.59 76.4925L178.455 76.671H176.578V75.5917L177.034 75.8356L177.656 75.4243L178.281 75.504L178.611 75.3382L178.901 75.1899L179.76 74.7563L179.797 74.7372L180.027 74.6208L180.482 74.4741Z" fill="black"/>
<path d="M184.289 76.0985H193.751L193.561 74.4038L190.835 73.8203L188.301 74.2619L185.25 74.5616L184.493 75.4289L184.289 76.0985Z" fill="#263238"/>
<path opacity="0.2" d="M184.289 76.0985H193.751L193.561 74.4038L190.835 73.8203L188.301 74.2619L185.25 74.5616L184.493 75.4289L184.289 76.0985Z" fill="black"/>
<path d="M186.917 76.0986C186.917 76.2966 186.858 76.4902 186.748 76.6548C186.638 76.8195 186.482 76.9478 186.299 77.0236C186.116 77.0994 185.915 77.1192 185.72 77.0806C185.526 77.0419 185.348 76.9466 185.208 76.8066C185.068 76.6665 184.972 76.4881 184.934 76.2939C184.895 76.0997 184.915 75.8984 184.991 75.7155C185.067 75.5325 185.195 75.3762 185.36 75.2661C185.524 75.1561 185.718 75.0974 185.916 75.0974C186.047 75.0974 186.177 75.1233 186.299 75.1736C186.42 75.2239 186.531 75.2977 186.624 75.3907C186.717 75.4836 186.79 75.594 186.841 75.7155C186.891 75.8369 186.917 75.9671 186.917 76.0986Z" fill="#263238"/>
<path opacity="0.2" d="M185.919 76.7681C186.289 76.7681 186.589 76.4684 186.589 76.0985C186.589 75.7287 186.289 75.429 185.919 75.429C185.549 75.429 185.25 75.7287 185.25 76.0985C185.25 76.4684 185.549 76.7681 185.919 76.7681Z" fill="black"/>
<path d="M193.453 76.0986C193.453 76.2966 193.394 76.4902 193.284 76.6548C193.174 76.8195 193.018 76.9478 192.835 77.0236C192.652 77.0994 192.451 77.1192 192.257 77.0806C192.062 77.0419 191.884 76.9466 191.744 76.8066C191.604 76.6665 191.509 76.4881 191.47 76.2939C191.431 76.0997 191.451 75.8984 191.527 75.7155C191.603 75.5325 191.731 75.3762 191.896 75.2661C192.06 75.1561 192.254 75.0974 192.452 75.0974C192.583 75.0974 192.714 75.1233 192.835 75.1736C192.956 75.2239 193.067 75.2977 193.16 75.3907C193.253 75.4836 193.327 75.594 193.377 75.7155C193.427 75.8369 193.453 75.9671 193.453 76.0986Z" fill="#263238"/>
<path opacity="0.2" d="M192.455 76.7681C192.825 76.7681 193.125 76.4684 193.125 76.0985C193.125 75.7287 192.825 75.429 192.455 75.429C192.085 75.429 191.786 75.7287 191.786 76.0985C191.786 76.4684 192.085 76.7681 192.455 76.7681Z" fill="black"/>
<path d="M194.395 75.2073L194.285 75.9901L193.67 76.1846C193.67 76.1846 193.654 74.8613 192.315 74.8613C190.976 74.8613 191.148 76.438 191.148 76.438H190.914L190.472 76.2483H187.58L187.328 76.4444H187.157C187.157 76.4444 187.299 74.8677 185.919 74.8677C184.538 74.8677 184.713 76.4444 184.713 76.4444L183.924 76.1048L183.846 75.3077L184.176 75.1021L184.256 74.6238C184.291 74.5967 184.328 74.5712 184.364 74.5472C185.287 73.9287 186.55 73.8458 186.55 73.8458C187.636 72.7409 188.076 72.5847 188.076 72.5847C189.699 72.486 191.327 72.5175 192.945 72.6788L193.67 73.6082L193.841 73.7469L194.018 73.892C194.084 74.2138 194.111 74.5426 194.096 74.8709L194.395 75.2073Z" fill="#FF2734"/>
<path opacity="0.6" d="M185.05 74.5919L184.497 75.0973H184.178L184.258 74.619C184.293 74.5919 184.33 74.5664 184.366 74.5425L184.768 74.4819L185.05 74.5919Z" fill="white"/>
<path opacity="0.6" d="M194.091 74.8615L193.89 74.7866C193.872 74.4908 193.786 74.2032 193.638 73.9464L193.836 73.7375L194.013 73.8826C194.08 74.2044 194.106 74.5332 194.091 74.8615Z" fill="white"/>
<path d="M193.67 73.5987C192.358 73.9176 186.55 73.8362 186.55 73.8362L186.649 73.7374C187.015 73.3517 187.419 73.0039 187.854 72.6995C187.923 72.65 187.998 72.6083 188.076 72.5752C189.699 72.4765 191.327 72.508 192.945 72.6692L193.67 73.5987Z" fill="#263238"/>
<path opacity="0.6" d="M188.126 72.6995L187.179 73.7342H186.649C187.015 73.3484 187.419 73.0007 187.855 72.6963L188.126 72.6995Z" fill="white"/>
<path opacity="0.6" d="M187.446 73.7375L188.282 72.698H189.528L189.433 73.7375H187.446Z" fill="white"/>
<path opacity="0.6" d="M189.732 73.7342L189.842 72.6963H191.561L191.861 73.6369C191.861 73.6369 190.821 73.7342 189.732 73.7342Z" fill="white"/>
<path opacity="0.6" d="M191.763 72.6997L192.082 73.6148C192.082 73.6148 193.091 73.5526 193.233 73.4889L192.815 72.9181C192.777 72.8723 192.73 72.8345 192.677 72.8072C192.624 72.7798 192.566 72.7633 192.506 72.7587C192.26 72.7223 192.012 72.7026 191.763 72.6997Z" fill="white"/>
<path opacity="0.2" d="M194.395 75.2075L194.285 75.9903L193.67 76.1848C193.67 76.1848 193.654 74.8616 192.315 74.8616C190.976 74.8616 191.148 76.4383 191.148 76.4383H190.914L190.472 76.2486H187.58L187.328 76.4447H187.157C187.157 76.4447 187.299 74.868 185.919 74.868C184.538 74.868 184.713 76.4447 184.713 76.4447L183.924 76.1051L183.846 75.308H184.497C184.667 75.0654 184.894 74.8681 185.158 74.7333C185.422 74.5985 185.715 74.5304 186.011 74.5348C187.052 74.5348 187.387 75.308 187.387 75.308H190.725C190.725 75.308 191.293 74.5236 192.128 74.4821C192.591 74.4434 193.054 74.5499 193.453 74.7867H193.892L194.093 74.8616L194.395 75.2075Z" fill="black"/>
<path d="M201.664 74.3193V76.4588H198.396C198.396 76.4588 198.613 75.7271 198.782 75.2297C198.823 75.0718 198.885 74.9197 198.964 74.7769C199.399 74.5409 200.413 74.399 201.664 74.3193Z" fill="#263238"/>
<path opacity="0.2" d="M201.664 74.3193V76.4588H198.396C198.396 76.4588 198.613 75.7271 198.782 75.2297C198.823 75.0718 198.885 74.9197 198.964 74.7769C199.399 74.5409 200.413 74.399 201.664 74.3193Z" fill="black"/>
<path d="M200.213 77.0982C200.74 77.0982 201.167 76.6713 201.167 76.1448C201.167 75.6182 200.74 75.1914 200.213 75.1914C199.687 75.1914 199.26 75.6182 199.26 76.1448C199.26 76.6713 199.687 77.0982 200.213 77.0982Z" fill="#263238"/>
<path opacity="0.2" d="M200.213 76.9882C200.679 76.9882 201.057 76.6107 201.057 76.1449C201.057 75.6791 200.679 75.3015 200.213 75.3015C199.748 75.3015 199.37 75.6791 199.37 76.1449C199.37 76.6107 199.748 76.9882 200.213 76.9882Z" fill="white"/>
<path d="M200.438 73.4152C200.905 73.1299 201.309 72.8971 201.664 72.709V76.7473H201.353L201.301 76.4651L201.18 75.813C201.145 75.624 201.045 75.4532 200.897 75.3302C200.75 75.2073 200.563 75.1401 200.371 75.1402H199.99C199.81 75.1387 199.635 75.1964 199.491 75.3044C199.347 75.4124 199.242 75.5648 199.193 75.7381L198.987 76.4651L198.908 76.7473L197.615 76.5799L197.774 75.4814L197.8 75.3076L198.052 75.1402L198.546 74.0051L199.005 73.8616L200.438 73.4152Z" fill="#FF2734"/>
<path opacity="0.7" d="M199.26 73.9352L198.652 74.9651L198.064 75.1341L198.558 73.999L199.017 73.8555C199.161 73.8937 199.26 73.9352 199.26 73.9352Z" fill="white"/>
<path opacity="0.4" d="M201.664 72.9849V73.6003C201.347 73.6087 201.03 73.5873 200.717 73.5365C200.717 73.5365 201.173 73.2639 201.664 72.9849Z" fill="black"/>
<path opacity="0.2" d="M201.664 75.5008V76.7411H201.353L201.301 76.4589L201.18 75.8069C201.145 75.6179 201.045 75.447 200.897 75.3241C200.75 75.2011 200.563 75.1339 200.371 75.1341H199.99C199.81 75.1325 199.635 75.1902 199.491 75.2983C199.347 75.4063 199.242 75.5587 199.193 75.7319L198.987 76.4589L198.908 76.7411L197.615 76.5737L197.774 75.4753L198.745 75.1915L198.774 75.2297L198.956 75.4705C198.956 75.4705 199.274 74.8599 200.355 74.8599C201.231 74.8599 201.565 75.3174 201.664 75.5008Z" fill="black"/>
<path d="M191.437 81.1477H186.814C186.715 81.1477 186.617 81.1282 186.525 81.0903C186.434 81.0523 186.351 80.9968 186.281 80.9267C186.211 80.8567 186.156 80.7735 186.118 80.6821C186.08 80.5906 186.061 80.4926 186.061 80.3936C186.061 80.194 186.14 80.0026 186.281 79.8615C186.423 79.7204 186.614 79.6411 186.814 79.6411H191.437C191.636 79.6411 191.828 79.7204 191.969 79.8615C192.11 80.0026 192.189 80.194 192.189 80.3936C192.189 80.5933 192.11 80.7849 191.969 80.9263C191.828 81.0676 191.637 81.1473 191.437 81.1477Z" fill="#FF2734"/>
<path d="M201.664 65.677H176.578V68.5786H201.664V65.677Z" fill="#FF2734"/>
<path opacity="0.6" d="M189.117 62.2221C189.117 62.2921 189.096 62.3605 189.057 62.4187C189.018 62.4769 188.963 62.5223 188.899 62.5491C188.834 62.5759 188.763 62.5829 188.694 62.5692C188.625 62.5556 188.562 62.5219 188.513 62.4724C188.463 62.4229 188.43 62.3598 188.416 62.2911C188.402 62.2225 188.409 62.1513 188.436 62.0866C188.463 62.022 188.508 61.9667 188.566 61.9278C188.625 61.8889 188.693 61.8682 188.763 61.8682C188.81 61.8682 188.856 61.8773 188.899 61.8951C188.941 61.9129 188.981 61.939 189.013 61.9718C189.046 62.0047 189.072 62.0437 189.09 62.0866C189.108 62.1296 189.117 62.1756 189.117 62.2221Z" fill="white"/>
<path opacity="0.6" d="M189.834 62.222C189.835 62.2671 189.822 62.3114 189.797 62.3491C189.772 62.3868 189.736 62.4163 189.695 62.4338C189.653 62.4513 189.607 62.456 189.563 62.4474C189.519 62.4388 189.478 62.4172 189.446 62.3854C189.414 62.3535 189.392 62.3129 189.383 62.2687C189.374 62.2244 189.378 62.1785 189.396 62.1367C189.413 62.095 189.442 62.0593 189.48 62.0341C189.517 62.009 189.561 61.9956 189.606 61.9956C189.667 61.9956 189.724 62.0194 189.767 62.0618C189.81 62.1042 189.834 62.1618 189.834 62.222Z" fill="white"/>
<path opacity="0.2" d="M181.319 75.59L182.096 76.6247V74.5537L181.319 75.59Z" fill="black"/>
<path opacity="0.2" d="M196.923 75.59L196.146 74.5537V76.6247L196.923 75.59Z" fill="black"/>
<path opacity="0.4" d="M200.86 83.2905H177.382C176.938 83.2905 176.578 83.6503 176.578 84.094V99.9905C176.578 100.434 176.938 100.794 177.382 100.794H200.86C201.304 100.794 201.664 100.434 201.664 99.9905V84.094C201.664 83.6503 201.304 83.2905 200.86 83.2905Z" fill="white"/>
<path opacity="0.4" d="M201.315 101.229H176.927C176.734 101.229 176.578 101.385 176.578 101.578V106.246C176.578 106.439 176.734 106.595 176.927 106.595H201.315C201.508 106.595 201.664 106.439 201.664 106.246V101.578C201.664 101.385 201.508 101.229 201.315 101.229Z" fill="white"/>
<path d="M178.398 102.323V102.52H178.716V102.622H178.398V102.873H178.276V102.221H178.755V102.323H178.398Z" fill="#263238"/>
<path d="M179.296 102.873L179.162 102.681H178.99V102.871H178.869V102.219H179.137C179.309 102.219 179.416 102.307 179.416 102.45C179.418 102.495 179.405 102.54 179.38 102.577C179.355 102.614 179.318 102.642 179.276 102.657L179.427 102.871L179.296 102.873ZM179.137 102.323H178.995V102.59H179.137C179.244 102.59 179.296 102.543 179.296 102.46C179.296 102.377 179.239 102.323 179.132 102.323H179.137Z" fill="#263238"/>
<path d="M179.504 102.546C179.501 102.476 179.519 102.407 179.556 102.347C179.592 102.288 179.646 102.241 179.71 102.212C179.774 102.183 179.845 102.174 179.914 102.186C179.983 102.198 180.046 102.23 180.097 102.279C180.147 102.327 180.182 102.389 180.197 102.458C180.212 102.526 180.206 102.597 180.18 102.662C180.154 102.727 180.109 102.783 180.051 102.822C179.993 102.861 179.924 102.882 179.854 102.882C179.809 102.885 179.763 102.878 179.721 102.862C179.678 102.846 179.639 102.822 179.606 102.79C179.573 102.759 179.547 102.721 179.53 102.679C179.512 102.637 179.503 102.592 179.504 102.546ZM180.084 102.546C180.084 102.501 180.071 102.456 180.045 102.418C180.02 102.381 179.984 102.351 179.942 102.334C179.9 102.317 179.854 102.312 179.81 102.321C179.765 102.33 179.724 102.352 179.692 102.384C179.66 102.416 179.638 102.457 179.629 102.501C179.62 102.546 179.625 102.592 179.642 102.634C179.66 102.676 179.689 102.712 179.727 102.737C179.765 102.762 179.809 102.776 179.854 102.776C179.885 102.776 179.915 102.771 179.943 102.76C179.972 102.749 179.997 102.732 180.019 102.71C180.04 102.689 180.057 102.663 180.068 102.635C180.08 102.607 180.085 102.576 180.084 102.546Z" fill="#263238"/>
<path d="M180.932 102.873V102.441L180.717 102.798H180.663L180.449 102.445V102.873H180.333V102.221H180.433L180.692 102.653L180.947 102.221H181.046V102.873H180.932Z" fill="#263238"/>
<path d="M178.408 104.822H178.193V104.72H178.746V104.822H178.529V105.373H178.408V104.822Z" fill="#263238"/>
<path d="M178.786 105.042C178.784 104.972 178.802 104.903 178.838 104.844C178.875 104.784 178.929 104.737 178.993 104.708C179.056 104.679 179.127 104.67 179.196 104.682C179.265 104.694 179.329 104.726 179.38 104.775C179.43 104.823 179.465 104.886 179.48 104.954C179.494 105.023 179.488 105.094 179.462 105.159C179.436 105.224 179.391 105.279 179.333 105.318C179.275 105.358 179.207 105.379 179.137 105.379C179.092 105.381 179.046 105.374 179.004 105.358C178.961 105.342 178.922 105.318 178.889 105.286C178.856 105.255 178.83 105.217 178.812 105.175C178.795 105.133 178.786 105.088 178.786 105.042ZM179.367 105.042C179.367 104.997 179.353 104.953 179.328 104.915C179.303 104.877 179.267 104.848 179.225 104.83C179.183 104.813 179.137 104.808 179.092 104.817C179.048 104.826 179.007 104.848 178.975 104.88C178.943 104.912 178.921 104.953 178.912 104.998C178.903 105.042 178.908 105.088 178.925 105.13C178.942 105.172 178.972 105.208 179.01 105.233C179.047 105.258 179.092 105.272 179.137 105.272C179.167 105.272 179.197 105.266 179.225 105.255C179.252 105.243 179.277 105.226 179.298 105.205C179.319 105.183 179.336 105.158 179.347 105.13C179.358 105.102 179.363 105.072 179.362 105.042H179.367Z" fill="#263238"/>
<path d="M198.984 101.731H182.593C182.37 101.741 182.158 101.836 182.003 101.998C181.848 102.16 181.762 102.375 181.762 102.599C181.762 102.823 181.848 103.038 182.003 103.2C182.158 103.362 182.37 103.458 182.593 103.467H198.984C199.208 103.458 199.419 103.362 199.574 103.2C199.729 103.038 199.816 102.823 199.816 102.599C199.816 102.375 199.729 102.16 199.574 101.998C199.419 101.836 199.208 101.741 198.984 101.731Z" fill="white"/>
<path d="M198.985 104.228H182.594C182.364 104.228 182.143 104.319 181.981 104.482C181.818 104.644 181.727 104.865 181.727 105.095C181.727 105.325 181.818 105.546 181.981 105.708C182.143 105.871 182.364 105.962 182.594 105.962H198.985C199.215 105.962 199.435 105.871 199.598 105.708C199.76 105.546 199.852 105.325 199.852 105.095C199.852 104.865 199.76 104.644 199.598 104.482C199.435 104.319 199.215 104.228 198.985 104.228Z" fill="white"/>
<path d="M201.664 89.0921C198.464 90.0933 195.161 91.1311 191.992 92.1323L194.888 97.5226L201.67 97.7521V99.3464L193.911 99.0833L190.444 92.6202L186.157 93.9817L189.273 100.796H187.52L184.625 94.4695C181.367 95.5074 178.566 96.4129 176.577 97.0666V95.3878C177.16 95.1965 177.812 94.9829 178.526 94.7501C180.041 94.2591 181.857 93.6756 183.957 93.006L181.257 87.1008L176.578 88.5883V86.9159L180.589 85.6405L179.515 83.2905H181.269L185.482 92.5197C187.143 91.9883 188.958 91.4138 190.925 90.7963L194.338 89.7202L191.381 83.2905H193.135L195.874 89.2371L201.659 87.4213L201.664 89.0921Z" fill="#FF2734"/>
<path opacity="0.4" d="M201.664 84.097V99.9918C201.665 100.097 201.645 100.202 201.606 100.299C201.566 100.397 201.507 100.486 201.433 100.561C201.359 100.636 201.271 100.695 201.174 100.736C201.076 100.776 200.972 100.797 200.867 100.797H177.383C177.277 100.798 177.172 100.778 177.074 100.738C176.976 100.698 176.887 100.638 176.812 100.563C176.737 100.489 176.677 100.399 176.637 100.301C176.597 100.203 176.577 100.098 176.578 99.9918V84.097C176.578 83.9916 176.599 83.8873 176.64 83.7901C176.68 83.6928 176.74 83.6046 176.814 83.5305C176.889 83.4564 176.978 83.3978 177.076 83.3582C177.173 83.3186 177.278 83.2988 177.383 83.2998H200.86C200.966 83.299 201.07 83.319 201.167 83.3587C201.265 83.3984 201.354 83.4569 201.428 83.5311C201.503 83.6052 201.562 83.6933 201.603 83.7904C201.643 83.8876 201.664 83.9918 201.664 84.097Z" fill="white"/>
<path d="M188.719 91.3811C188.426 91.0883 188.029 90.9238 187.615 90.9238C187.2 90.9238 186.803 91.0883 186.511 91.3811C186.218 91.6739 186.053 92.0711 186.053 92.4852C186.053 92.8993 186.218 93.2964 186.511 93.5892L187.614 94.6924L188.719 93.5892C189.011 93.2963 189.175 92.8992 189.175 92.4852C189.175 92.0712 189.011 91.6741 188.719 91.3811ZM188.167 93.0376C188.058 93.1468 187.919 93.2212 187.767 93.2514C187.615 93.2815 187.458 93.266 187.316 93.2069C187.173 93.1478 187.051 93.0476 186.965 92.9192C186.879 92.7907 186.833 92.6397 186.833 92.4852C186.833 92.3307 186.879 92.1796 186.965 92.0512C187.051 91.9227 187.173 91.8226 187.316 91.7634C187.458 91.7043 187.615 91.6888 187.767 91.719C187.919 91.7491 188.058 91.8235 188.167 91.9327C188.313 92.0795 188.395 92.2781 188.395 92.4852C188.395 92.6922 188.313 92.8909 188.167 93.0376Z" fill="#FF2734"/>
</svg>
