<svg width="254" height="193" viewBox="0 0 254 193" fill="none" xmlns="http://www.w3.org/2000/svg">
<g clip-path="url(#clip0)">
<path d="M253.682 161.17H78.8042V161.794H253.682V161.17Z" fill="#3F3D56"/>
<path d="M193.61 192.376H18.7329V193H193.61V192.376Z" fill="#3F3D56"/>
<path d="M74.3942 45.3979C75.5221 45.3979 76.4364 44.4835 76.4364 43.3557C76.4364 42.2278 75.5221 41.3135 74.3942 41.3135C73.2664 41.3135 72.3521 42.2278 72.3521 43.3557C72.3521 44.4835 73.2664 45.3979 74.3942 45.3979Z" fill="#D0CDE1"/>
<path d="M46.7087 167.714C47.8366 167.714 48.7509 166.8 48.7509 165.672C48.7509 164.544 47.8366 163.63 46.7087 163.63C45.5808 163.63 44.6665 164.544 44.6665 165.672C44.6665 166.8 45.5808 167.714 46.7087 167.714Z" fill="#D0CDE1"/>
<path d="M78.0252 74.2182C78.5265 74.2182 78.9328 73.8119 78.9328 73.3106C78.9328 72.8094 78.5265 72.4031 78.0252 72.4031C77.524 72.4031 77.1177 72.8094 77.1177 73.3106C77.1177 73.8119 77.524 74.2182 78.0252 74.2182Z" fill="#D0CDE1"/>
<path d="M30.37 121.42C30.8712 121.42 31.2775 121.014 31.2775 120.513C31.2775 120.012 30.8712 119.605 30.37 119.605C29.8687 119.605 29.4624 120.012 29.4624 120.513C29.4624 121.014 29.8687 121.42 30.37 121.42Z" fill="#D0CDE1"/>
<path d="M149.736 155.46C150.237 155.46 150.644 155.053 150.644 154.552C150.644 154.051 150.237 153.645 149.736 153.645C149.235 153.645 148.829 154.051 148.829 154.552C148.829 155.053 149.235 155.46 149.736 155.46Z" fill="#D0CDE1"/>
<path d="M27.4198 75.1258C27.921 75.1258 28.3273 74.7195 28.3273 74.2182C28.3273 73.717 27.921 73.3107 27.4198 73.3107C26.9185 73.3107 26.5122 73.717 26.5122 74.2182C26.5122 74.7195 26.9185 75.1258 27.4198 75.1258Z" fill="#D0CDE1"/>
<path d="M82.5635 50.164H82.1094V49.7098H81.8823V50.164H81.4282V50.391H81.8823V50.8451H82.1094V50.391H82.5635V50.164Z" fill="#D0CDE1"/>
<path d="M47.8428 57.653H47.3887V57.1989H47.1616V57.653H46.7075V57.88H47.1616V58.3342H47.3887V57.88H47.8428V57.653Z" fill="#D0CDE1"/>
<path d="M25.1504 100.316H24.6963V99.8618H24.4693V100.316H24.0151V100.543H24.4693V100.997H24.6963V100.543H25.1504V100.316Z" fill="#D0CDE1"/>
<path d="M88.9183 174.976C89.4195 174.976 89.8259 174.569 89.8259 174.068C89.8259 173.567 89.4195 173.161 88.9183 173.161C88.4171 173.161 88.0107 173.567 88.0107 174.068C88.0107 174.569 88.4171 174.976 88.9183 174.976Z" fill="#D0CDE1"/>
<path d="M85.9676 128.682C86.4689 128.682 86.8752 128.275 86.8752 127.774C86.8752 127.273 86.4689 126.866 85.9676 126.866C85.4664 126.866 85.0601 127.273 85.0601 127.774C85.0601 128.275 85.4664 128.682 85.9676 128.682Z" fill="#D0CDE1"/>
<path d="M193.306 145.475C193.808 145.475 194.214 145.068 194.214 144.567C194.214 144.066 193.808 143.659 193.306 143.659C192.805 143.659 192.399 144.066 192.399 144.567C192.399 145.068 192.805 145.475 193.306 145.475Z" fill="#D0CDE1"/>
<path d="M83.6983 153.872H83.2442V153.418H83.0171V153.872H82.563V154.099H83.0171V154.553H83.2442V154.099H83.6983V153.872Z" fill="#D0CDE1"/>
<path d="M127.723 169.984H127.269V169.53H127.042V169.984H126.588V170.211H127.042V170.666H127.269V170.211H127.723V169.984Z" fill="#D0CDE1"/>
<path d="M16.5269 129.59H16.0728V129.136H15.8457V129.59H15.3916V129.817H15.8457V130.271H16.0728V129.817H16.5269V129.59Z" fill="#D0CDE1"/>
<path d="M79.6162 96.9102H79.1621V96.4561H78.9351V96.9102H78.481V97.1372H78.9351V97.5913H79.1621V97.1372H79.6162V96.9102Z" fill="#D0CDE1"/>
<path d="M51.7007 70.1339H51.2466V69.6798H51.0195V70.1339H50.5654V70.361H51.0195V70.8151H51.2466V70.361H51.7007V70.1339Z" fill="#D0CDE1"/>
<path d="M70.3101 114.839H69.856V114.385H69.6289V114.839H69.1748V115.066H69.6289V115.52H69.856V115.066H70.3101V114.839Z" fill="#D0CDE1"/>
<path d="M43.0782 142.979H42.6241V142.525H42.397V142.979H41.9429V143.206H42.397V143.66H42.6241V143.206H43.0782V142.979Z" fill="#D0CDE1"/>
<path d="M53.7431 103.266C48.267 103.266 40.127 102.665 40.127 100.996C40.127 99.3263 48.2697 98.7252 53.7431 98.7252C59.2166 98.7252 67.3593 99.3263 67.3593 100.996C67.3593 102.665 59.2166 103.266 53.7431 103.266ZM53.7431 99.1814C50.5886 99.1539 47.4362 99.3529 44.3102 99.777C41.3604 100.227 40.5811 100.771 40.5811 100.996C40.5811 101.222 41.3604 101.766 44.3102 102.216C50.574 103.01 56.913 103.01 63.1768 102.216C66.1265 101.766 66.9059 101.222 66.9059 100.996C66.9059 100.771 66.1265 100.226 63.1768 99.777C60.0505 99.3529 56.8979 99.1538 53.7431 99.1814Z" fill="#D0CDE1"/>
<path d="M214.919 119.791C196.039 98.9115 60.5326 163.723 113.24 55.0691C136.735 6.63609 79.9462 12.5189 41.7168 45.936C78.7354 20.5174 123.419 19.7848 102.12 63.6926C49.4121 172.347 184.918 107.535 203.799 128.414C212.584 138.13 208.817 149.415 197.756 159.817C216.769 147.354 226.209 132.276 214.919 119.791Z" fill="#E02525" fill-opacity="0.17"/>
<path d="M171.785 64.9863C171.785 64.9863 159.468 77.0572 164.639 78.5351C169.81 80.0129 175.725 67.4492 175.725 67.4492L171.785 64.9863Z" fill="#FFB9B9"/>
<path d="M184.101 105.632L182.624 112.529L193.709 113.022L191.985 105.632H184.101Z" fill="#FFB9B9"/>
<path d="M219.081 148.248L217.603 155.145L228.689 155.638L226.965 148.248H219.081Z" fill="#FFB9B9"/>
<path d="M199.62 59.5663L200.605 63.5064C200.605 63.5064 173.261 58.0871 174.74 71.8822C176.219 85.6774 182.62 98.9797 182.62 98.9797C182.62 98.9797 182.127 103.414 183.113 104.153C184.099 104.891 183.113 107.358 183.113 107.358C183.113 107.358 192.228 108.59 192.474 106.373C192.606 104.891 192.523 103.397 192.228 101.939C192.228 101.939 192.72 101.939 192.228 99.4752C191.735 97.0116 189.745 77.1453 188.267 74.4353C188.267 74.4353 201.342 84.4486 208.24 83.2165C208.24 83.2165 207.255 93.0701 211.196 106.123C215.136 119.175 215.136 120.656 215.136 120.656C215.136 120.656 219.817 145.537 218.584 148.493L218.338 149.724H227.452C227.452 149.724 226.713 136.668 227.452 134.944C228.192 133.219 228.192 118.439 224.004 111.049C221.038 105.815 221.59 90.6413 223.212 84.6436C224.591 80.0855 224.901 75.2713 224.12 70.574C223.266 65.0598 220.714 62.1775 217.599 59.5649L199.62 59.5663Z" fill="#2F2E41"/>
<path d="M206.888 22.4922C211.785 22.4922 215.755 18.5219 215.755 13.6242C215.755 8.72656 211.785 4.75623 206.888 4.75623C201.99 4.75623 198.02 8.72656 198.02 13.6242C198.02 18.5219 201.99 22.4922 206.888 22.4922Z" fill="#FFB9B9"/>
<path d="M204.547 19.9059C204.547 19.9059 207.256 27.7861 207.01 29.2667C206.765 30.7473 214.891 26.3109 214.891 26.3109C214.891 26.3109 211.685 18.4306 212.674 16.2108L204.547 19.9059Z" fill="#FFB9B9"/>
<path d="M214.401 23.5988L205.779 27.0474L206.272 30.0031C206.272 30.0031 205.533 30.9882 205.779 31.481C206.026 31.9739 202.574 33.9446 203.069 34.6866C203.565 35.4285 200.114 38.3816 200.36 39.1209C200.606 39.8602 192.48 44.2938 196.911 52.9161C196.911 52.9161 199.21 55.9046 198.922 59.4387C198.912 59.5629 198.899 59.6878 198.882 59.8133C198.389 63.5084 217.604 59.3205 217.604 59.3205V55.1326C217.604 55.1326 219.328 54.3933 219.082 51.1924C218.835 47.9916 217.357 49.4681 219.082 47.7438C220.806 46.0195 220.806 46.2659 220.56 44.788C220.461 44.1977 220.441 42.0753 220.453 39.7393C220.476 34.8023 218.868 29.9959 215.879 26.0664L214.401 23.5988Z" fill="#D0CDE1"/>
<path d="M209.72 30.0058L193.709 46.7568L170.307 65.232L175.48 69.4199L218.589 40.5981C218.589 40.5981 222.283 24.8329 209.72 30.0058Z" fill="#D0CDE1"/>
<path d="M184.84 109.328C184.84 109.328 183.116 106.372 181.884 107.357L173.263 114.255C173.263 114.255 157.99 118.689 172.77 122.135C172.77 122.135 180.899 123.366 182.623 122.135C184.348 120.904 187.058 121.15 187.796 121.642C188.535 122.134 197.896 121.396 197.896 119.425C197.896 117.454 192.734 108.841 192.734 108.841C192.734 108.841 189.77 112.283 184.84 109.328Z" fill="#2F2E41"/>
<path d="M219.82 151.943C219.82 151.943 218.096 148.987 216.865 149.972L208.243 156.87C208.243 156.87 192.97 161.304 207.75 164.75C207.75 164.75 215.88 165.981 217.604 164.75C219.328 163.518 222.038 163.765 222.777 164.257C223.515 164.749 232.877 164.011 232.877 162.04C232.877 160.069 227.714 151.456 227.714 151.456C227.714 151.456 224.748 154.899 219.82 151.943Z" fill="#2F2E41"/>
<path d="M196.26 10.1075C196.26 10.1075 197.76 -3.07326 210.584 0.669207C210.584 0.669207 219.656 -1.17598 222.86 10.1523L226.112 22.0321L224.624 21.2588L223.966 22.7734L221.59 23.4238L220.53 21.4157L220.083 23.8866L203.674 27.2037C207.2 22.7535 209.139 17.2539 209.184 11.5767L207.549 13.3718L196.26 10.1075Z" fill="#2F2E41"/>
<path d="M137.028 126.867C150.313 126.867 161.083 125.444 161.083 123.69C161.083 121.935 150.313 120.513 137.028 120.513C123.743 120.513 112.973 121.935 112.973 123.69C112.973 125.444 123.743 126.867 137.028 126.867Z" fill="#2F2E41"/>
<path d="M150.096 85.2747H149.811V77.4733C149.811 76.2758 149.335 75.1273 148.489 74.2806C147.642 73.4338 146.493 72.9581 145.296 72.9581H128.768C127.571 72.9581 126.422 73.4338 125.575 74.2806C124.729 75.1273 124.253 76.2758 124.253 77.4733V120.274C124.253 120.867 124.37 121.454 124.597 122.002C124.824 122.55 125.156 123.047 125.575 123.467C125.995 123.886 126.492 124.218 127.04 124.445C127.588 124.672 128.175 124.789 128.768 124.789H145.296C146.493 124.789 147.642 124.313 148.489 123.467C149.335 122.62 149.811 121.471 149.811 120.274V90.8277H150.096V85.2747Z" fill="#3F3D56"/>
<path d="M145.372 74.2396H143.215C143.313 74.4827 143.35 74.7462 143.323 75.007C143.296 75.2679 143.205 75.518 143.059 75.7356C142.912 75.9531 142.715 76.1314 142.483 76.2548C142.252 76.3783 141.994 76.443 141.731 76.4434H132.262C132 76.443 131.742 76.3783 131.511 76.2548C131.279 76.1314 131.082 75.9531 130.935 75.7356C130.789 75.518 130.698 75.2679 130.671 75.007C130.644 74.7462 130.681 74.4827 130.779 74.2396H128.764C127.87 74.2396 127.013 74.5949 126.38 75.2272C125.748 75.8595 125.393 76.7172 125.393 77.6115V120.346C125.393 121.24 125.748 122.098 126.38 122.73C127.013 123.362 127.87 123.718 128.764 123.718H145.372C146.266 123.718 147.124 123.362 147.756 122.73C148.388 122.098 148.744 121.24 148.744 120.346V77.6108C148.743 76.7166 148.388 75.8592 147.756 75.227C147.123 74.5948 146.266 74.2396 145.372 74.2396Z" fill="#E02525"/>
<path d="M133.396 94.1887C136.028 94.1887 138.162 92.0551 138.162 89.4232C138.162 86.7912 136.028 84.6576 133.396 84.6576C130.764 84.6576 128.631 86.7912 128.631 89.4232C128.631 92.0551 130.764 94.1887 133.396 94.1887Z" fill="#D0CDE1"/>
<path d="M145.784 96.3399L140.02 90.5759C140.728 89.4966 141.011 88.1931 140.813 86.9175C140.616 85.6419 139.952 84.4848 138.951 83.6702C137.95 82.8555 136.682 82.4411 135.393 82.5072C134.104 82.5733 132.885 83.1151 131.972 84.0278C131.06 84.9406 130.518 86.1594 130.452 87.4485C130.386 88.7376 130.8 90.0054 131.615 91.0067C132.429 92.0079 133.586 92.6715 134.862 92.869C136.138 93.0665 137.441 92.7839 138.52 92.0759L144.284 97.8398L145.784 96.3399ZM133.034 90.3395C132.514 89.8203 132.161 89.1588 132.018 88.4387C131.874 87.7186 131.948 86.9721 132.229 86.2938C132.51 85.6155 132.986 85.0357 133.596 84.6278C134.207 84.2199 134.925 84.0022 135.659 84.0022C136.393 84.0022 137.111 84.2199 137.721 84.6278C138.332 85.0357 138.808 85.6155 139.089 86.2938C139.37 86.9721 139.443 87.7186 139.3 88.4387C139.157 89.1588 138.803 89.8203 138.284 90.3395C137.939 90.6843 137.53 90.9578 137.08 91.1444C136.629 91.3309 136.146 91.427 135.659 91.427C135.171 91.427 134.688 91.3309 134.238 91.1444C133.788 90.9578 133.378 90.6843 133.034 90.3395Z" fill="#3F3D56"/>
<path d="M146.331 101.904H127.723V104.173H146.331V101.904Z" fill="#3F3D56"/>
</g>
<defs>
<clipPath id="clip0">
<rect width="253.681" height="193" fill="white"/>
</clipPath>
</defs>
</svg>
