<svg width="168" height="186" viewBox="0 0 168 186" fill="none" xmlns="http://www.w3.org/2000/svg">
<g clip-path="url(#clip0)">
<path d="M167.89 185.589H94.3071V184.988H168.001L167.89 185.589Z" fill="#3F3D56"/>
<path d="M165.117 5.31055H0V97.042H165.117V5.31055Z" fill="#E6E6E6"/>
<path d="M9.0166 88.0247H156.099V14.3276H9.0166V88.0247Z" fill="white"/>
<path d="M164.876 0H0.241699V8.20732H164.876V0Z" fill="#E02525"/>
<path d="M47.295 40.3136H17.3613V61.5567H47.295V40.3136Z" fill="#E6E6E6"/>
<path d="M147.755 40.3136H65.1963V42.7278H147.755V40.3136Z" fill="#E6E6E6"/>
<path d="M147.755 49.9694H65.1963V52.3836H147.755V49.9694Z" fill="#E6E6E6"/>
<path d="M147.755 59.6251H65.1963V62.0394H147.755V59.6251Z" fill="#E6E6E6"/>
<path d="M120.777 98.8329L119.972 103.463C119.972 103.463 116.147 114.133 117.153 124.199C118.159 134.264 118.965 141.311 118.965 141.311C118.965 141.311 115.945 166.676 117.153 175.736C117.153 175.736 120.374 180.165 124.602 175.535L127.823 142.116L131.248 118.361L134.268 144.935L136.281 175.132C136.281 175.132 139.099 178.152 143.327 175.535L142.924 141.311C142.924 141.311 146.548 112.321 145.944 109.905C145.34 107.489 141.314 98.0273 141.314 98.0273L120.777 98.8329Z" fill="#2F2E41"/>
<path d="M118.764 175.937L118.965 180.165C118.965 180.165 115.897 184.95 119.722 184.95C122.488 184.942 124.988 186.187 124.661 183.44L124.199 179.56L123.394 175.332L118.764 175.937Z" fill="#2F2E41"/>
<path d="M142.092 175.937L141.891 180.164C141.891 180.164 144.959 184.95 141.135 184.95C138.368 184.941 135.868 186.186 136.195 183.439L136.657 179.56L137.463 175.332L142.092 175.937Z" fill="#2F2E41"/>
<path d="M130.138 63.9044C133.696 63.9044 136.58 61.0202 136.58 57.4623C136.58 53.9045 133.696 51.0203 130.138 51.0203C126.58 51.0203 123.696 53.9045 123.696 57.4623C123.696 61.0202 126.58 63.9044 130.138 63.9044Z" fill="#9F616A"/>
<path d="M127.32 61.6901C127.32 61.6901 128.125 70.9508 125.709 72.36C123.293 73.7693 135.775 73.1656 135.775 73.1656C135.775 73.1656 132.956 62.2945 133.158 61.0864L127.32 61.6901Z" fill="#FFB8B8"/>
<path d="M139.5 67.6288C139.5 67.6288 131.447 64.0053 120.171 67.6288C120.171 67.6288 115.239 68.9371 114.635 70.5476C114.031 72.1581 121.379 90.5784 120.574 93.7995C120.089 95.774 119.953 97.8178 120.171 99.8391C120.171 99.8391 137.887 97.423 142.115 99.2353C142.115 99.2353 140.504 94.0013 140.907 90.3772C141.309 86.7531 144.731 69.843 144.731 69.843C143.26 68.5782 141.432 67.8041 139.5 67.6288Z" fill="#E02525"/>
<path d="M146.545 115.542C146.545 115.542 143.525 124.803 146.746 125.004C149.967 125.205 148.558 117.958 148.558 117.958L148.156 115.542H146.545Z" fill="#9F616A"/>
<g filter="url(#filter0_d)">
<path d="M140.505 71.0492L144.733 69.8412C144.733 69.8412 147.149 71.6529 147.149 74.069C147.149 76.4851 146.746 91.9859 146.746 91.9859L149.766 115.137L145.136 116.748L139.701 91.7847L140.505 71.0492Z" fill="#E02525"/>
</g>
<path d="M113.53 115.542C113.53 115.542 116.55 124.803 113.329 125.004C110.108 125.205 111.517 117.958 111.517 117.958L111.919 115.542H113.53Z" fill="#9F616A"/>
<g filter="url(#filter1_d)">
<path d="M119.57 71.0492L115.342 69.8412C115.342 69.8412 112.926 71.6529 112.926 74.069C112.926 76.4851 113.328 91.9859 113.328 91.9859L110.309 115.137L114.939 116.748L120.374 91.7847L119.57 71.0492Z" fill="#E02525"/>
</g>
<path d="M132.957 48.001C132.957 48.001 127.32 46.9942 126.113 54.4431C124.905 61.892 125.509 64.7099 123.495 65.5142C121.482 66.3186 120.878 67.326 121.281 68.9396C121.684 70.5532 123.093 71.1538 121.08 74.1736C119.067 77.1934 125.509 76.3878 130.744 78.8039C135.979 81.22 148.054 77.7971 146.447 74.9792C144.839 72.1612 142.219 73.3686 143.427 70.147C144.635 66.9254 145.038 66.3223 143.427 64.3087C141.816 62.295 144.231 49.8128 132.957 48.001Z" fill="#2F2E41"/>
<path d="M109.148 108.164L62.6267 70.6743C62.3559 70.4037 62.0344 70.1891 61.6806 70.0429C61.3268 69.8967 60.9476 69.8217 60.5648 69.8223H58.5879C62.5381 64.7601 64.4088 58.3819 63.8184 51.9881C63.2281 45.5943 60.2213 39.6664 55.411 35.4131C50.6007 31.1598 44.3492 28.9014 37.9312 29.0984C31.5132 29.2955 25.412 31.933 20.8717 36.4734C16.3314 41.0137 13.6938 47.1149 13.4968 53.5329C13.2997 59.9509 15.5581 66.2024 19.8114 71.0126C24.0647 75.8229 29.9926 78.8298 36.3864 79.4201C42.7802 80.0104 49.1585 78.1398 54.2206 74.1896V76.1658C54.22 76.5487 54.295 76.9279 54.4412 77.2817C54.5874 77.6355 54.802 77.957 55.0726 78.2278L101.594 115.717C101.863 115.989 102.184 116.204 102.537 116.351C102.89 116.498 103.268 116.574 103.651 116.574C104.033 116.574 104.412 116.498 104.765 116.351C105.118 116.204 105.438 115.989 105.708 115.717L109.136 112.292C109.683 111.745 109.992 111.004 109.994 110.23C109.996 109.457 109.692 108.714 109.148 108.164ZM38.6898 69.8223C38.6903 68.1162 39.3684 66.4801 40.5751 65.274C41.7818 64.0678 43.4181 63.3904 45.1242 63.3906C46.8303 63.3909 48.4665 64.0688 49.6728 65.2753C50.8791 66.4817 51.5568 68.118 51.5568 69.8241C51.5568 71.5302 50.8791 73.1665 49.6728 74.3729C48.4665 75.5794 46.8303 76.2574 45.1242 76.2576C43.4181 76.2578 41.7818 75.5804 40.5751 74.3742C39.3684 73.1681 38.6903 71.532 38.6898 69.8259V69.8223Z" fill="url(#paint0_linear)"/>
<path d="M109.148 108.164L62.6267 70.6743C62.3559 70.4037 62.0344 70.1891 61.6806 70.0429C61.3268 69.8967 60.9476 69.8217 60.5648 69.8223H58.5879C62.5381 64.7601 64.4088 58.3819 63.8184 51.9881C63.2281 45.5943 60.2213 39.6664 55.411 35.4131C50.6007 31.1598 44.3492 28.9014 37.9312 29.0984C31.5132 29.2955 25.412 31.933 20.8717 36.4734C16.3314 41.0137 13.6938 47.1149 13.4968 53.5329C13.2997 59.9509 15.5581 66.2024 19.8114 71.0126C24.0647 75.8229 29.9926 78.8298 36.3864 79.4201C42.7802 80.0104 49.1585 78.1398 54.2206 74.1896V76.1658C54.22 76.5487 54.295 76.9279 54.4412 77.2817C54.5874 77.6355 54.802 77.957 55.0726 78.2278L101.594 115.717C101.863 115.989 102.184 116.204 102.537 116.351C102.89 116.498 103.268 116.574 103.651 116.574C104.033 116.574 104.412 116.498 104.765 116.351C105.118 116.204 105.438 115.989 105.708 115.717L109.136 112.292C109.683 111.745 109.992 111.004 109.994 110.231C109.996 109.457 109.692 108.714 109.148 108.165V108.164ZM38.6898 69.8223C38.6903 68.1162 39.3684 66.4801 40.5751 65.274C41.7818 64.0678 43.4181 63.3904 45.1242 63.3906C46.8303 63.3909 48.4665 64.0688 49.6728 65.2753C50.8791 66.4817 51.5568 68.118 51.5568 69.8241C51.5568 71.5302 50.8791 73.1665 49.6728 74.3729C48.4665 75.5794 46.8303 76.2574 45.1242 76.2576C43.4181 76.2578 41.7818 75.5804 40.5751 74.3742C39.3684 73.1681 38.6903 71.532 38.6898 69.8259V69.8223Z" fill="#E02525"/>
</g>
<defs>
<filter id="filter0_d" x="136.031" y="68.0062" width="17.4055" height="54.2468" filterUnits="userSpaceOnUse" color-interpolation-filters="sRGB">
<feFlood flood-opacity="0" result="BackgroundImageFix"/>
<feColorMatrix in="SourceAlpha" type="matrix" values="0 0 0 0 0 0 0 0 0 0 0 0 0 0 0 0 0 0 127 0"/>
<feOffset dy="1.835"/>
<feGaussianBlur stdDeviation="1.835"/>
<feColorMatrix type="matrix" values="0 0 0 0 0 0 0 0 0 0 0 0 0 0 0 0 0 0 0.161 0"/>
<feBlend mode="normal" in2="BackgroundImageFix" result="effect1_dropShadow"/>
<feBlend mode="normal" in="SourceGraphic" in2="effect1_dropShadow" result="shape"/>
</filter>
<filter id="filter1_d" x="106.639" y="68.0062" width="17.4055" height="54.2468" filterUnits="userSpaceOnUse" color-interpolation-filters="sRGB">
<feFlood flood-opacity="0" result="BackgroundImageFix"/>
<feColorMatrix in="SourceAlpha" type="matrix" values="0 0 0 0 0 0 0 0 0 0 0 0 0 0 0 0 0 0 127 0"/>
<feOffset dy="1.835"/>
<feGaussianBlur stdDeviation="1.835"/>
<feColorMatrix type="matrix" values="0 0 0 0 0 0 0 0 0 0 0 0 0 0 0 0 0 0 0.161 0"/>
<feBlend mode="normal" in2="BackgroundImageFix" result="effect1_dropShadow"/>
<feBlend mode="normal" in="SourceGraphic" in2="effect1_dropShadow" result="shape"/>
</filter>
<linearGradient id="paint0_linear" x1="61.7395" y1="116.574" x2="61.7395" y2="29.0865" gradientUnits="userSpaceOnUse">
<stop stop-color="#808080" stop-opacity="0.251"/>
<stop offset="0.54" stop-color="#808080" stop-opacity="0.122"/>
<stop offset="1" stop-color="#808080" stop-opacity="0.102"/>
</linearGradient>
<clipPath id="clip0">
<rect width="168" height="185.589" fill="white"/>
</clipPath>
</defs>
</svg>
