<svg width="265" height="161" viewBox="0 0 265 161" fill="none" xmlns="http://www.w3.org/2000/svg">
<path d="M92.9708 60.4586H88.9614V88.4987H92.9708V60.4586Z" fill="#3F3D56"/>
<path d="M231.589 4.44448L230.081 0.78494L81.704 60.1044L83.2118 63.7639L231.589 4.44448Z" fill="#3F3D56"/>
<path opacity="0.344" d="M0.00138013 156.807C4.45413 162.01 238.221 161.573 237.867 156.807C235.784 154.372 183.475 153.172 128.26 153.073C65.8867 152.96 -0.187399 154.27 0.00138013 156.807Z" fill="#ED1C24" fill-opacity="0.3"/>
<path d="M54.3206 116.934H19.4365V130.362H54.3206V116.934Z" fill="#3F3D56"/>
<path d="M194.658 128.782H22.644V143.789H194.658V128.782Z" fill="#3F3D56"/>
<path d="M47.5615 136.286H88.8612V85.1423H57.9865L47.5615 110.936V136.286Z" fill="#707070"/>
<path d="M81.9968 88.3015H64.3545V105.678H81.9968V88.3015Z" fill="white"/>
<path d="M51.7554 105.876H62.982V88.4995H58.1702L51.7554 105.876Z" fill="white"/>
<path d="M80.8517 115.551H76.8423V123.055H80.8517V115.551Z" fill="#3F3D56"/>
<path d="M59.4974 99.5575H59.2965C58.8 99.5537 58.3076 99.6478 57.8475 99.8343C57.3874 100.021 56.9685 100.296 56.6148 100.645C56.2611 100.993 55.9795 101.408 55.786 101.865C55.5926 102.322 55.491 102.813 55.4873 103.309C55.491 103.806 55.5926 104.297 55.786 104.754C55.9795 105.211 56.2611 105.626 56.6148 105.974C56.9685 106.323 57.3874 106.598 57.8475 106.785C58.3076 106.971 58.8 107.065 59.2965 107.061H59.4974V99.5575Z" fill="#3F3D56"/>
<path d="M202.625 128.782H202.425C201.928 128.778 201.436 128.872 200.976 129.059C200.516 129.245 200.097 129.52 199.743 129.869C199.389 130.217 199.108 130.632 198.914 131.089C198.721 131.546 198.619 132.037 198.616 132.534C198.619 133.03 198.721 133.521 198.914 133.978C199.108 134.436 199.389 134.85 199.743 135.199C200.097 135.547 200.516 135.822 200.976 136.009C201.436 136.195 201.928 136.289 202.425 136.286H202.625V128.782Z" fill="#3F3D56"/>
<path d="M34.8694 128.725C31.8983 128.757 28.9719 129.453 26.304 130.761C23.6362 132.069 21.2943 133.956 19.4496 136.286H11.6167L19.2351 115.383L54.7205 108.49L53.7194 136.286H50.2935C48.4483 133.956 46.1057 132.068 43.4371 130.76C40.7685 129.452 37.8412 128.756 34.8694 128.725Z" fill="#707070"/>
<path d="M34.4728 158.402C44.1058 158.402 51.9148 150.71 51.9148 141.222C51.9148 131.734 44.1058 124.043 34.4728 124.043C24.8398 124.043 17.0308 131.734 17.0308 141.222C17.0308 150.71 24.8398 158.402 34.4728 158.402Z" fill="#3F3D56"/>
<path d="M32.4858 150.265C37.5558 150.265 41.6659 146.216 41.6659 141.223C41.6659 136.229 37.5558 132.18 32.4858 132.18C27.4157 132.18 23.3057 136.229 23.3057 141.223C23.3057 146.216 27.4157 150.265 32.4858 150.265Z" fill="#707070" fill-opacity="0.3"/>
<path d="M183.242 158.204C191.657 158.204 198.478 151.485 198.478 143.197C198.478 134.909 191.657 128.19 183.242 128.19C174.827 128.19 168.005 134.909 168.005 143.197C168.005 151.485 174.827 158.204 183.242 158.204Z" fill="#3F3D56"/>
<path d="M183.388 151.095C187.817 151.095 191.407 147.559 191.407 143.197C191.407 138.834 187.817 135.298 183.388 135.298C178.959 135.298 175.368 138.834 175.368 143.197C175.368 147.559 178.959 151.095 183.388 151.095Z" fill="#707070" fill-opacity="0.3"/>
<path d="M94.8111 78.033H86.3911V137.865H94.8111V78.033Z" fill="#3F3D56"/>
<path d="M204.548 127.005H83.4565V130.559H204.548V127.005Z" fill="#3F3D56"/>
<path d="M264.999 140.05L132.941 104.661L131.994 108.091L264.052 143.48L264.999 140.05Z" fill="#3F3D56"/>
<path d="M149.312 110.611L147.053 108.976L133.158 127.594L135.42 129.23L149.312 110.611Z" fill="#3F3D56"/>
<path d="M61.0363 106.666H57.0269V108.246H61.0363V106.666Z" fill="#3F3D56"/>
<path d="M89.9527 118.514H142.479C142.575 118.514 142.668 118.481 142.74 118.419C142.813 118.356 142.861 118.27 142.876 118.176C142.889 118.081 142.868 117.984 142.815 117.904C142.762 117.824 142.682 117.766 142.59 117.74L91.2692 102.733C91.2119 102.716 91.1517 102.712 91.0927 102.721C91.0338 102.73 90.9776 102.753 90.9281 102.786C90.8791 102.819 90.8381 102.863 90.8083 102.914C90.7785 102.965 90.7605 103.022 90.7557 103.08L89.553 118.088C89.5487 118.142 89.5558 118.197 89.5739 118.248C89.592 118.3 89.6207 118.347 89.6581 118.387C89.696 118.427 89.7417 118.459 89.7923 118.48C89.843 118.502 89.8976 118.513 89.9527 118.513V118.514ZM139.722 117.727H90.3889L91.5187 103.633L139.722 117.727Z" fill="#3F3D56"/>
<path d="M225.955 101.136H225.959L237.471 101.03C237.527 101.029 237.583 101.017 237.634 100.994C237.685 100.971 237.731 100.938 237.768 100.896C237.805 100.855 237.833 100.806 237.85 100.753C237.867 100.7 237.872 100.644 237.866 100.589L231.885 49.1899C231.873 49.093 231.826 49.0038 231.752 48.9394C231.679 48.8749 231.584 48.8396 231.487 48.8402C231.389 48.8401 231.294 48.876 231.221 48.9412C231.148 49.0063 231.101 49.0961 231.09 49.1935L225.56 100.7C225.554 100.755 225.56 100.811 225.578 100.864C225.595 100.916 225.624 100.965 225.661 101.005C225.699 101.047 225.745 101.08 225.796 101.102C225.848 101.125 225.903 101.136 225.959 101.136H225.955ZM237.016 100.244L226.401 100.343L231.501 52.8418L237.016 100.244Z" fill="#3F3D56"/>
<path d="M16.6154 122.707L16.8027 122.777C17.7439 123.132 18.7867 123.101 19.7056 122.693C20.6245 122.284 21.3457 121.53 21.7132 120.594C21.8888 120.131 21.9708 119.638 21.9543 119.144C21.9378 118.649 21.8231 118.163 21.617 117.713C21.4109 117.263 21.1175 116.858 20.7537 116.523C20.3899 116.187 19.9631 115.927 19.498 115.758L19.3107 115.687L16.6154 122.707Z" fill="#3F3D56"/>
<path d="M259.793 128.094L248.609 125.01L248.111 126.76L259.296 129.843L259.793 128.094Z" fill="#3F3D56"/>
<path d="M167.615 103.153L169.774 104.313L257.477 128.492L258.78 126.9C261.031 124.184 262.474 120.891 262.945 117.396C263.276 114.792 263.034 112.048 261.19 110.376L264.539 83.7693L216.034 70.3324L193.029 80.0831C193.029 80.0831 184.216 77.4896 177.732 82.066C175.382 83.7721 173.603 86.1488 172.628 88.8842L171.567 91.9011L167.615 103.153Z" fill="#ED1C24"/>
<path d="M187.002 119.103C193.213 119.103 198.248 114.143 198.248 108.026C198.248 101.909 193.213 96.9496 187.002 96.9496C180.791 96.9496 175.756 101.909 175.756 108.026C175.756 114.143 180.791 119.103 187.002 119.103Z" fill="#3F3D56"/>
<path d="M187.002 113.856C190.271 113.856 192.921 111.246 192.921 108.026C192.921 104.806 190.271 102.196 187.002 102.196C183.733 102.196 181.083 104.806 181.083 108.026C181.083 111.246 183.733 113.856 187.002 113.856Z" fill="#D0CDE1"/>
<path d="M240.44 133.835C246.651 133.835 251.686 128.876 251.686 122.759C251.686 116.641 246.651 111.682 240.44 111.682C234.229 111.682 229.194 116.641 229.194 122.759C229.194 128.876 234.229 133.835 240.44 133.835Z" fill="#3F3D56"/>
<path d="M240.441 128.589C243.71 128.589 246.36 125.978 246.36 122.759C246.36 119.539 243.71 116.929 240.441 116.929C237.172 116.929 234.522 119.539 234.522 122.759C234.522 125.978 237.172 128.589 240.441 128.589Z" fill="#D0CDE1"/>
<path d="M200.982 80.3892L235.779 89.9827L238.711 79.6656L216.521 73.5453L200.982 80.3892Z" fill="white"/>
<path d="M256.82 84.6589L242.972 80.8409L240.041 91.1586L253.889 94.976L256.82 84.6589Z" fill="white"/>
<path d="M233.593 97.6784L231.818 97.189L230.873 100.511L232.649 101.001L233.593 97.6784Z" fill="#3F3D56"/>
<path d="M203.866 84.3896L203.369 86.1381L206.742 87.0681L207.239 85.3196L203.866 84.3896Z" fill="#3F3D56"/>
<path d="M207.855 78.4381L207.66 78.3836C206.681 78.1096 205.635 78.2323 204.746 78.7251C203.858 79.2178 203.199 80.0408 202.913 81.0158C202.779 81.4982 202.741 82.0026 202.803 82.4996C202.864 82.9966 203.024 83.4765 203.272 83.9115C203.52 84.3466 203.852 84.7281 204.249 85.034C204.645 85.34 205.099 85.5643 205.582 85.694L205.777 85.7485L207.855 78.4381Z" fill="#3F3D56"/>
<path d="M171.567 91.9004C172.867 92.4146 174.304 92.4598 175.633 92.0282C176.962 91.5966 178.099 90.7152 178.848 89.5357C179.584 88.3622 179.876 86.9641 179.672 85.5941C179.467 84.224 178.779 82.9724 177.732 82.0653C175.382 83.7714 173.603 86.1481 172.628 88.8835L171.567 91.9004Z" fill="#3F3D56"/>
<path d="M233.677 0.823853H229.667V58.4837H233.677V0.823853Z" fill="#3F3D56"/>
<path d="M90.9986 66.777C94.0987 66.777 96.6119 64.3016 96.6119 61.2481C96.6119 58.1945 94.0987 55.7191 90.9986 55.7191C87.8984 55.7191 85.3853 58.1945 85.3853 61.2481C85.3853 64.3016 87.8984 66.777 90.9986 66.777Z" fill="#3F3D56"/>
</svg>
