<svg width="257" height="131" viewBox="0 0 257 131" fill="none" xmlns="http://www.w3.org/2000/svg">
<g opacity="0.851">
<g opacity="0.851">
<path opacity="0.851" d="M246.156 72.6604C246.156 73.0546 246.156 73.4487 246.131 73.8386C246.072 75.3556 245.89 76.8653 245.585 78.3526C244.079 85.7142 239.729 91.4364 234.267 93.1257C233.18 93.4641 232.048 93.6364 230.91 93.6367C222.489 93.6367 215.665 84.2373 215.665 72.6597C215.665 61.082 222.489 51.6826 230.91 51.6826C238.808 51.6826 245.308 59.9509 246.077 70.5392C246.131 71.2363 246.156 71.9448 246.156 72.6604Z" fill="#36334A"/>
<path opacity="0.1" d="M246.132 73.8409C246.073 75.358 245.89 76.8677 245.586 78.355C244.08 85.7165 239.73 91.4387 234.267 93.128C230.038 91.1814 226.899 83.8868 226.899 75.1845C226.899 64.9918 231.21 56.7292 236.528 56.7292C240.992 56.7292 244.747 62.557 245.836 70.4638C245.987 71.5486 246.087 72.6805 246.132 73.8409Z" fill="black"/>
<path opacity="0.851" d="M169.585 26.2358C169.585 26.2358 210.851 17.7538 232.631 25.548C232.631 25.548 235.838 27.1525 232.631 29.9038C232.631 29.9038 235.666 33.1113 230.365 34.2596L209.309 35.5547L169.585 31.5083V26.2358Z" fill="#3F3D56"/>
<path opacity="0.1" d="M176.806 27.302C176.806 27.302 212.136 20.0395 230.784 26.7125C230.784 26.7125 233.535 28.0882 230.784 30.4425C230.784 30.4425 233.381 33.1938 228.845 34.1725L210.816 35.278L176.806 31.821V27.302Z" fill="black"/>
<path opacity="0.851" d="M217.041 39.9918L214.289 34.4899C214.289 34.4899 215.495 28.9238 205.692 27.2865C205.149 24.8588 202.687 23.027 199.732 23.027C196.848 23.027 194.436 24.769 193.816 27.1076C192.408 27.2288 190.909 27.3927 189.304 27.6123L187.062 39.6347L186.782 39.0752C186.782 39.0752 188.208 32.5005 175.378 31.5397C176.074 30.6904 176.457 29.6271 176.461 28.5289C176.461 25.6151 173.739 23.2544 170.386 23.2544C167.032 23.2544 164.311 25.6136 164.311 28.5289C164.319 29.726 164.774 30.8769 165.585 31.7571C164.385 31.8716 163.12 32.0184 161.789 32.1976L159.267 45.724L170.957 47.3284L189.526 44.5771L187.882 41.2876L198.467 42.741L217.041 39.9918Z" fill="#6C63FF"/>
<path opacity="0.851" d="M217.041 39.9918L214.289 34.4899C214.289 34.4899 215.495 28.9238 205.692 27.2865C205.149 24.8588 202.687 23.027 199.732 23.027C196.848 23.027 194.436 24.769 193.816 27.1076C192.408 27.2288 190.909 27.3927 189.304 27.6123L187.062 39.6347L186.782 39.0752C186.782 39.0752 188.208 32.5005 175.378 31.5397C176.074 30.6904 176.457 29.6271 176.461 28.5289C176.461 25.6151 173.739 23.2544 170.386 23.2544C167.032 23.2544 164.311 25.6136 164.311 28.5289C164.319 29.726 164.774 30.8769 165.585 31.7571C164.385 31.8716 163.12 32.0184 161.789 32.1976L159.267 45.724L170.957 47.3284L189.526 44.5771L187.882 41.2876L198.467 42.741L217.041 39.9918Z" fill="#707070"/>
<path opacity="0.851" d="M177.604 27.8138C177.604 27.8138 175.77 17.5248 184.252 17.2953C192.734 17.0658 189.984 32.1967 189.984 32.1967C189.984 32.1967 196.403 33.5723 196.861 36.0941C197.32 38.6159 174.623 39.3016 174.623 39.3016L177.604 27.8138Z" fill="#707070"/>
<path opacity="0.851" d="M162.707 82.1747C162.707 94.3255 153.675 104.183 142.536 104.183C131.397 104.183 122.364 94.3255 122.364 82.1747C122.364 70.024 131.509 58.2175 142.654 58.2175C153.798 58.2175 162.707 70.0197 162.707 82.1747Z" fill="#36334A"/>
<path opacity="0.1" d="M142.533 101.658C151.396 101.658 158.58 93.3456 158.58 83.0912C158.58 72.8368 151.396 64.524 142.533 64.524C133.67 64.524 126.485 72.8368 126.485 83.0912C126.485 93.3456 133.67 101.658 142.533 101.658Z" fill="black"/>
<path opacity="0.851" d="M53.8117 102.117C64.9537 102.117 73.9862 92.264 73.9862 80.109C73.9862 67.9541 64.9537 58.1006 53.8117 58.1006C42.6696 58.1006 33.6372 67.9541 33.6372 80.109C33.6372 92.264 42.6696 102.117 53.8117 102.117Z" fill="#36334A"/>
<path opacity="0.851" d="M88.201 27.6115C88.201 27.6115 78.8016 28.0698 79.2599 33.1134C79.7182 38.157 87.2836 34.4898 87.2836 34.4898L88.201 27.6115Z" fill="#36334A"/>
<path opacity="0.851" d="M166.403 36.0137L170.273 10.1883C170.273 10.1883 171.19 6.98081 158.81 6.98081C158.81 6.98081 119.149 4.45898 109.062 8.58525C109.062 8.58525 97.3722 12.941 81.0924 35.4078C64.8125 57.8746 216.476 47.3711 216.476 47.3711L210.627 91.2782L166.407 85.6223L166.403 36.0137Z" fill="black"/>
<path opacity="0.851" d="M165 9.04211L157.893 37.2403L153.436 37.1327L132.345 36.6195L85.3014 35.4734C85.1709 33.2452 107.447 10.189 107.447 10.189L165 9.04211Z" fill="#36334A"/>
<path opacity="0.2" d="M132.352 36.6188L134.277 29.1909C134.277 29.1909 132.443 18.8998 140.925 18.6703C149.407 18.4408 146.656 33.5716 146.656 33.5716C146.656 33.5716 152.501 34.8254 153.433 37.132L132.352 36.6188Z" fill="#707070"/>
<path opacity="0.851" d="M246.271 71.0552C244.895 57.7584 236.299 54.893 236.299 54.893C228.045 54.4347 222.542 85.8425 222.542 85.8425L159.038 91.574C159.038 91.574 161.217 64.8655 145.856 60.5097C130.496 56.1539 126.484 87.447 125.797 91.8006C125.109 96.1543 33.1789 91.3445 30.6571 89.5105C28.1353 87.6765 29.0527 70.0238 29.7398 68.6482C30.4269 67.2725 32.2616 61.0827 32.2616 61.0827C32.3929 59.4684 32.8318 57.8941 33.5546 56.4447C33.9673 55.5274 34.3251 54.8923 34.3251 54.8923C36.3173 43.5947 46.6611 40.8598 47.3561 40.6788H47.3925C50.1438 37.9274 75.5907 36.0935 75.5907 36.0935L85.2196 34.2595L163.503 35.7984L166.834 35.8647L206.633 33.9501L233.547 32.655C239.737 32.655 242.947 48.2442 242.947 48.2442C248.678 61.9994 246.271 71.0552 246.271 71.0552Z" fill="black"/>
<path opacity="0.1" d="M117.211 57.5537C123.258 55.1204 126.925 50.079 125.402 46.2933C123.878 42.5077 117.741 41.4114 111.695 43.8447C105.648 46.278 101.981 51.3195 103.504 55.1051C105.027 58.8907 111.164 59.987 117.211 57.5537Z" fill="black"/>
<path opacity="0.851" d="M116.754 56.6358C122.801 54.2024 126.468 49.161 124.944 45.3754C123.421 41.5897 117.284 40.4934 111.237 42.9267C105.19 45.3601 101.523 50.4015 103.046 54.1871C104.57 57.9728 110.707 59.0691 116.754 56.6358Z" fill="#F2F2F2"/>
<path opacity="0.1" d="M47.8145 41.1472C47.6976 43.669 46.5672 46.8494 44.5357 49.9144C41.2641 54.8482 36.7779 57.7549 34.0151 56.8996C34.4278 55.983 34.7856 55.3479 34.7856 55.3479C36.7793 44.0539 47.1203 41.319 47.8145 41.1472Z" fill="black"/>
<path opacity="0.851" d="M47.1265 40.6881C47.0096 43.2099 45.8792 46.3903 43.8477 49.4553C40.5761 54.3891 36.0899 57.2958 33.3271 56.4405C33.7398 55.5239 34.0977 54.8888 34.0977 54.8888C36.0913 43.5948 46.4323 40.8599 47.1265 40.6881Z" fill="#F2F2F2"/>
<path opacity="0.851" d="M79.2593 47.5543H61.1483L60.231 45.0325H82.2394L79.2593 47.5543Z" fill="#36334A"/>
<path opacity="0.851" d="M75.133 66.1244H45.3296V74.836H75.133V66.1244Z" fill="#36334A"/>
<path opacity="0.1" d="M107.228 83.318C109.507 83.318 111.355 81.4706 111.355 79.1917C111.355 76.9128 109.507 75.0654 107.228 75.0654C104.949 75.0654 103.102 76.9128 103.102 79.1917C103.102 81.4706 104.949 83.318 107.228 83.318Z" fill="black"/>
<path opacity="0.851" d="M106.769 82.63C109.048 82.63 110.895 80.7826 110.895 78.5037C110.895 76.2248 109.048 74.3774 106.769 74.3774C104.49 74.3774 102.643 76.2248 102.643 78.5037C102.643 80.7826 104.49 82.63 106.769 82.63Z" fill="#F2F2F2"/>
<path opacity="0.1" d="M32.2627 80.3378C33.4023 80.3378 34.3262 78.3876 34.3262 75.982C34.3262 73.5764 33.4023 71.6262 32.2627 71.6262C31.1231 71.6262 30.1992 73.5764 30.1992 75.982C30.1992 78.3876 31.1231 80.3378 32.2627 80.3378Z" fill="black"/>
<path opacity="0.851" d="M31.5747 80.109C32.7144 80.109 33.6382 78.1589 33.6382 75.7532C33.6382 73.3476 32.7144 71.3975 31.5747 71.3975C30.4351 71.3975 29.5112 73.3476 29.5112 75.7532C29.5112 78.1589 30.4351 80.109 31.5747 80.109Z" fill="#F2F2F2"/>
<path opacity="0.501" d="M216.159 57.4149C213.496 65.2098 213.254 77.3598 213.254 77.3598L212.286 80.5673L165.084 85.6109C165.084 85.6109 165.327 63.1442 166.052 52.5986C166.393 46.881 165.524 41.1557 163.503 35.7963L167.02 35.8626L209.041 33.9509C216.062 38.6118 218.547 50.4161 216.159 57.4149Z" fill="#707070"/>
<path opacity="0.851" d="M163.396 34.9481C163.396 34.9481 164.542 39.9917 170.044 38.3865L171.878 31.2794L168.21 29.2159L163.396 34.9481Z" fill="#36334A"/>
<path opacity="0.851" d="M170.134 24.7069C172.656 23.2101 176.656 21.9057 180.612 25.044C181.435 25.6943 182.016 26.6028 182.261 27.6232C182.506 28.6436 182.401 29.7167 181.962 30.67C180.667 33.4741 177.592 36.5148 170.415 32.8732C169.71 32.5155 169.109 31.9835 168.668 31.3279L168.631 31.273C168.284 30.7477 168.047 30.1574 167.934 29.5378C167.822 28.9183 167.836 28.2823 167.977 27.6684C168.117 27.0545 168.38 26.4755 168.751 25.9665C169.122 25.4574 169.592 25.0289 170.133 24.7069H170.134Z" fill="#36334A"/>
<path opacity="0.851" d="M142.648 86.643C145.181 86.643 147.234 84.5901 147.234 82.0577C147.234 79.5253 145.181 77.4724 142.648 77.4724C140.116 77.4724 138.063 79.5253 138.063 82.0577C138.063 84.5901 140.116 86.643 142.648 86.643Z" fill="#F2F2F2"/>
<path opacity="0.851" d="M237.329 78.3897C238.722 78.3897 239.851 76.3368 239.851 73.8044C239.851 71.272 238.722 69.2191 237.329 69.2191C235.937 69.2191 234.808 71.272 234.808 73.8044C234.808 76.3368 235.937 78.3897 237.329 78.3897Z" fill="#F2F2F2"/>
<path opacity="0.851" d="M142.535 67.9583H142.534C140.888 67.9583 139.554 69.2925 139.554 70.9384V73.0019C139.554 74.6477 140.888 75.982 142.534 75.982H142.535C144.18 75.982 145.515 74.6477 145.515 73.0019V70.9384C145.515 69.2925 144.18 67.9583 142.535 67.9583Z" fill="#36334A"/>
<path opacity="0.851" d="M237.33 59.1318C237.541 59.1318 237.749 59.1734 237.944 59.254C238.139 59.3347 238.316 59.453 238.465 59.602C238.614 59.7511 238.732 59.928 238.812 60.1228C238.893 60.3175 238.935 60.5263 238.934 60.737V64.405C238.935 64.7663 238.863 65.1241 238.725 65.458C238.587 65.7918 238.384 66.0952 238.129 66.3507C237.873 66.6062 237.57 66.8088 237.236 66.947C236.902 67.0853 236.544 67.1564 236.183 67.1563C235.758 67.1563 235.349 66.9872 235.049 66.6864C234.748 66.3855 234.579 65.9774 234.579 65.5518V61.8831C234.579 61.1535 234.868 60.4536 235.384 59.9377C235.9 59.4217 236.6 59.1318 237.33 59.1318Z" fill="#36334A"/>
<path opacity="0.851" d="M237.33 88.4785C236.969 88.4785 236.611 88.4073 236.277 88.269C235.943 88.1308 235.64 87.9281 235.384 87.6726C235.129 87.4172 234.926 87.1139 234.788 86.7801C234.65 86.4462 234.579 86.0885 234.579 85.7272V83.2061C234.579 82.8448 234.65 82.487 234.788 82.1532C234.926 81.8194 235.129 81.5161 235.384 81.2606C235.64 81.0051 235.943 80.8024 236.277 80.6641C236.611 80.5259 236.969 80.4547 237.33 80.4547C238.843 80.4547 238.706 81.6928 238.706 83.2061V85.7279C238.703 87.2404 238.847 88.4785 237.33 88.4785Z" fill="#36334A"/>
<path opacity="0.851" d="M230.452 69.6775C231.182 69.6775 231.882 69.9674 232.398 70.4833C232.914 70.9993 233.203 71.6991 233.203 72.4288V75.8673C233.203 76.3537 233.01 76.8201 232.666 77.1641C232.322 77.508 231.856 77.7012 231.369 77.7012C231.008 77.7013 230.65 77.6302 230.316 77.492C229.983 77.3538 229.679 77.1511 229.424 76.8956C229.168 76.6401 228.966 76.3368 228.827 76.0029C228.689 75.6691 228.618 75.3112 228.618 74.9499V71.5108C228.618 71.0245 228.812 70.5582 229.156 70.2144C229.499 69.8706 229.966 69.6775 230.452 69.6775Z" fill="#36334A"/>
<path opacity="0.851" d="M246.156 72.6597C246.156 73.0539 246.156 73.4481 246.131 73.838C246.072 75.355 245.89 76.8647 245.585 78.352C245.434 78.3776 245.28 78.3907 245.127 78.3912C244.397 78.3912 243.697 78.1013 243.181 77.5854C242.665 77.0694 242.375 76.3696 242.375 75.6399V73.1188C242.375 72.3891 242.665 71.6893 243.181 71.1733C243.697 70.6573 244.397 70.3674 245.127 70.3674C245.368 70.3668 245.607 70.3984 245.84 70.4615C245.922 70.4844 246.005 70.51 246.083 70.5392C246.131 71.2363 246.156 71.9448 246.156 72.6597Z" fill="#36334A"/>
<path opacity="0.851" d="M154.111 77.7012H154.11C152.464 77.7012 151.13 79.0354 151.13 80.6813V82.7448C151.13 84.3907 152.464 85.7249 154.11 85.7249H154.111C155.757 85.7249 157.091 84.3907 157.091 82.7448V80.6813C157.091 79.0354 155.757 77.7012 154.111 77.7012Z" fill="#36334A"/>
<path opacity="0.851" d="M131.644 77.7012H131.643C129.997 77.7012 128.663 79.0354 128.663 80.6813V82.7448C128.663 84.3907 129.997 85.7249 131.643 85.7249H131.644C133.29 85.7249 134.624 84.3907 134.624 82.7448V80.6813C134.624 79.0354 133.29 77.7012 131.644 77.7012Z" fill="#36334A"/>
<path opacity="0.851" d="M142.648 89.6232H142.647C141.001 89.6232 139.667 90.9574 139.667 92.6033V94.6668C139.667 96.3127 141.001 97.6469 142.647 97.6469H142.648C144.294 97.6469 145.628 96.3127 145.628 94.6668V92.6033C145.628 90.9574 144.294 89.6232 142.648 89.6232Z" fill="#36334A"/>
<path opacity="0.851" d="M160.033 36.9438L215.373 44.3129L209.918 92.7588L162.558 84.196L160.033 36.9438Z" fill="black"/>
<path opacity="0.851" d="M203.275 49.9925C203.122 49.9593 202.963 49.9587 202.809 49.9905C202.655 50.0223 202.51 50.0859 202.382 50.1772C202.255 50.2686 202.148 50.3856 202.068 50.5208C201.988 50.656 201.938 50.8063 201.919 50.9622C201.905 51.0927 201.922 51.2249 201.97 51.3471C202.018 51.4693 202.095 51.5779 202.195 51.6634C202.805 52.2225 207.771 52.7856 209.658 52.9833C209.937 53.0164 210.218 52.9563 210.459 52.8124C210.699 52.6684 210.886 52.4488 210.988 52.1879C211.1 51.881 211.062 51.5817 210.603 51.4502L203.275 49.9925Z" fill="#F2F2F2"/>
</g>
<g opacity="0.851">
<g opacity="0.851">
<path opacity="0.05" d="M167.1 69.8479C164.032 72.002 161.486 74.8162 159.648 78.0837C157.811 81.3512 156.73 84.9889 156.483 88.7294H161.988C161.988 88.7294 164.151 74.5758 170.441 69.8515L167.1 69.8479Z" fill="black"/>
<path opacity="0.851" d="M182.255 66.4394C182.274 65.662 182.255 64.8841 182.197 64.1086C182.191 63.9698 182.179 63.8313 182.16 63.6938C182.598 64.0245 174.394 65.6282 174.394 65.6282L176.889 45.5849L180.352 33.4356C180.352 25.9172 176.303 23.7989 176.303 23.7989C176.303 23.7989 174.183 22.8338 173.605 21.4866C173.027 20.1395 167.903 17.2912 167.903 17.2912C167.862 16.8005 167.847 16.308 167.856 15.8157C167.856 15.6874 167.856 15.5549 167.868 15.4216C169.152 14.5703 170.084 13.2818 170.491 11.7952C170.897 10.3086 170.75 8.72508 170.077 7.33867C170.362 7.33867 170.593 7.21965 170.699 6.79769C171.018 5.28295 170.746 3.70366 169.937 2.38344C169.772 2.16009 169.586 1.95314 169.381 1.76546C169.141 1.52453 168.888 1.29659 168.623 1.08263C168.041 0.461814 167.252 0.0769023 166.404 0.00134277C165.939 0.0622395 165.492 0.221112 165.092 0.467494C163.043 1.54569 160.999 2.63339 158.962 3.73059C158.166 4.08956 157.463 4.62596 156.907 5.2987C156.416 6.0823 156.113 6.96843 156.021 7.88823C155.897 8.51188 155.868 9.15051 155.934 9.78279C155.996 10.3583 156.259 10.8933 156.678 11.2932C156.762 11.3952 156.857 11.4868 156.963 11.5662C157.411 11.8011 157.872 12.0089 158.345 12.1884C158.672 13.1401 159.221 14.0004 159.946 14.6988C159.946 14.8179 159.929 14.9319 159.92 15.0623C159.894 15.3959 159.855 15.7616 159.804 16.1315C159.804 16.1315 158.378 16.0944 156.259 18.9826C154.14 21.8708 149.512 22.2614 149.512 22.2614C149.512 22.2614 147.778 21.4902 145.851 30.1647C143.923 38.8392 143.345 44.6148 144.307 45.5842C144.716 45.9378 145.177 46.2263 145.673 46.4396C147.307 47.2642 149.064 47.8154 150.876 48.0711C150.899 48.1405 150.939 48.2035 150.99 48.255L151.128 49.935C151.244 53.4825 151.38 60.5975 150.662 62.1756C150.366 62.714 150.227 63.3249 150.261 63.9385C150.295 64.5521 150.501 65.1438 150.855 65.6461L151.088 65.6297C151.131 65.7029 151.178 65.7729 151.231 65.8392L152.163 65.7765C152.095 69.7388 151.913 75.2344 151.434 76.4418C150.663 78.3663 151.434 88.971 151.434 88.971L150.085 108.054C150.085 108.054 149.345 118.015 150.038 119.169C149.66 121.241 148.983 125.189 149.122 126.173C149.315 127.522 153.749 129.452 153.749 129.452C153.749 129.452 158.952 130.617 161.458 130.223C161.942 130.198 162.399 129.993 162.738 129.648C163.078 129.302 163.275 128.842 163.292 128.358C165.036 128.698 166.817 128.806 168.59 128.678C171.095 128.293 170.71 125.399 169.361 125.594C168.012 125.79 166.468 123.075 165.322 121.725C164.686 120.836 164.213 119.841 163.923 118.787C164.167 118.75 164.39 118.63 164.557 118.449C165.135 117.484 166.1 108.618 166.1 108.618L168.605 93.1985C168.605 93.1985 169.955 85.6801 171.111 83.9459C171.985 82.6358 173.078 72.8615 173.561 68.1536H173.616L173.667 67.9883L174.392 65.6482C174.779 66.3311 175.754 66.6689 176.887 66.8136C176.766 67.3075 176.665 67.711 176.608 67.9419C176.319 69.1073 180.532 71.0254 181.549 70.0624C181.976 69.659 182.197 68.1978 182.248 66.5991H182.283L182.255 66.4394ZM156.931 119.006C156.865 119.381 156.8 119.773 156.735 120.171C156.588 119.705 156.472 119.286 156.392 118.976C156.583 118.981 156.763 118.99 156.931 119.006Z" fill="url(#paint0_linear)"/>
<path opacity="0.851" d="M163.394 112.848C163.394 112.848 164.137 116.191 165.258 117.489C166.379 118.786 167.857 121.385 169.155 121.201C170.453 121.018 170.826 123.8 168.412 124.171C165.997 124.541 160.986 123.427 160.986 123.427C160.986 123.427 156.716 121.563 156.532 120.272C156.347 118.981 157.646 112.289 157.646 112.289L163.394 112.848Z" fill="#53526B"/>
<path opacity="0.05" d="M163.394 112.848C163.394 112.848 164.137 116.191 165.258 117.489C166.379 118.786 167.857 121.385 169.155 121.201C170.453 121.018 170.826 123.8 168.412 124.171C165.997 124.541 160.986 123.427 160.986 123.427C160.986 123.427 156.716 121.563 156.532 120.272C156.347 118.981 157.646 112.289 157.646 112.289L163.394 112.848Z" fill="black"/>
<path opacity="0.851" d="M156.525 114.332C156.525 114.332 157.269 117.675 158.39 118.972C159.511 120.27 160.989 122.869 162.287 122.685C163.585 122.501 163.958 125.284 161.543 125.655C159.129 126.025 154.118 124.913 154.118 124.913C154.118 124.913 149.848 123.049 149.663 121.758C149.479 120.467 150.778 113.775 150.778 113.775L156.525 114.332Z" fill="#53526B"/>
<path opacity="0.851" d="M173.419 63.4741C173.419 63.4741 171.935 79.4368 170.821 81.1076C169.706 82.7783 168.408 90.0173 168.408 90.0173L165.996 104.866C165.996 104.866 165.064 113.405 164.512 114.333C163.959 115.261 157.07 114.862 157.07 114.862L161.347 65.7016L173.419 63.4741Z" fill="#5F5D7E"/>
<path opacity="0.05" d="M173.419 63.4741C173.419 63.4741 171.935 79.4368 170.821 81.1076C169.706 82.7783 168.408 90.0173 168.408 90.0173L165.996 104.866C165.996 104.866 165.064 113.405 164.512 114.333C163.959 115.261 157.07 114.862 157.07 114.862L161.347 65.7016L173.419 63.4741Z" fill="black"/>
<path opacity="0.851" d="M176.386 55.8645L175.902 57.4048L173.28 65.7272L173.229 65.8855H173.214C172.862 65.9646 165.432 67.6731 163.829 68.1977C163.743 68.2244 163.658 68.2563 163.575 68.2932C162.832 68.6639 161.905 82.0277 161.905 82.0277C161.905 82.0277 161.348 94.6503 160.972 95.5784C160.597 96.5064 159.108 115.622 158.188 115.067C157.267 114.513 150.578 115.067 150.578 115.067C149.835 114.324 150.578 104.304 150.578 104.304L151.876 85.9273C151.876 85.9273 151.133 75.719 151.876 73.8615C152.619 72.004 152.619 59.5702 152.619 59.5702L167.822 57.2181L169.291 56.985L176.386 55.8645Z" fill="#5F5D7E"/>
<path opacity="0.02" d="M175.902 57.4049L173.28 65.7273L173.217 65.8905C172.865 65.9697 165.435 67.6782 163.832 68.2028H163.671L167.821 57.2139L167.94 56.8967L169.29 56.983L175.902 57.4049Z" fill="black"/>
<path opacity="0.1" d="M158.567 18.7416C158.567 18.7416 165.435 26.1673 169.705 20.0396L173.788 22.8244L173.045 27.0939L175.457 59.392C175.457 59.392 169.145 59.2053 164.694 60.69C163.454 61.13 162.113 61.2065 160.831 60.9106C159.548 60.6146 158.377 59.9584 157.455 59.0192L158.199 30.6207L156.528 21.897L158.567 18.7416Z" fill="black"/>
<path opacity="0.851" d="M158.566 18.1849C158.566 18.1849 165.435 25.6106 169.704 19.4829L173.788 22.2677L173.044 26.5373L175.459 58.8447C175.459 58.8447 169.148 58.6579 164.696 60.1426C163.456 60.5826 162.116 60.6592 160.833 60.3632C159.551 60.0672 158.379 59.411 157.457 58.4719L158.201 30.0734L156.528 21.3497L158.566 18.1849Z" fill="#53526B"/>
<path opacity="0.851" d="M171.931 21.5244L165.435 26.5352C165.435 26.5352 155.784 25.9779 158.196 21.3377C159.246 19.2971 159.88 17.068 160.061 14.7801C160.139 13.9359 160.139 13.0862 160.061 12.2419C160.061 12.2419 168.97 4.08488 167.856 13.356C167.769 14.0676 167.717 14.7832 167.702 15.5C167.579 22.461 171.931 21.5244 171.931 21.5244Z" fill="#FDC2CC"/>
<path opacity="0.1" d="M167.844 13.3588C167.756 14.0704 167.705 14.786 167.69 15.5028C166.691 16.165 165.517 16.5169 164.318 16.5142C162.657 16.5142 161.433 14.8969 160.327 13.8221C160.45 12.2818 160.049 12.244 160.049 12.244C160.049 12.244 168.961 4.07769 167.844 13.3588Z" fill="black"/>
<path opacity="0.851" d="M164.321 16.1408C167.703 16.1408 170.446 13.3986 170.446 10.0159C170.446 6.6332 167.703 3.89099 164.321 3.89099C160.938 3.89099 158.196 6.6332 158.196 10.0159C158.196 13.3986 160.938 16.1408 164.321 16.1408Z" fill="#FDC2CC"/>
<path opacity="0.1" d="M159.961 15.8635C159.961 15.8635 158.94 15.9569 156.896 18.7396C154.851 21.5223 150.386 21.8951 150.386 21.8951C150.386 21.8951 148.715 21.1516 146.86 29.5047C145.004 37.8577 144.448 43.4252 145.375 44.3533C146.302 45.2813 150.015 46.5814 151.871 46.5814C151.871 46.5814 152.427 58.271 151.5 60.3159C151.215 60.8348 151.082 61.423 151.115 62.0138C151.148 62.6046 151.346 63.1743 151.687 63.6582L159.844 63.1015C159.844 63.1015 162.629 59.5754 163.186 53.4505C163.743 47.3256 165.598 29.876 164.671 27.8346C163.743 25.7932 159.66 20.5957 159.844 20.039C159.968 18.6509 160.007 17.2564 159.961 15.8635Z" fill="black"/>
<path opacity="0.851" d="M159.943 15.8079C159.943 15.8079 158.571 15.7708 156.529 18.5557C154.488 21.3405 150.034 21.7111 150.034 21.7111C150.034 21.7111 148.363 20.9677 146.508 29.3207C144.652 37.6738 144.096 43.2413 145.028 44.1622C145.96 45.0831 149.668 46.3903 151.523 46.3903C151.523 46.3903 152.08 58.0799 151.153 60.1249C150.868 60.6437 150.735 61.2319 150.768 61.8227C150.801 62.4135 150.999 62.9832 151.339 63.4671L159.497 62.9104C159.497 62.9104 171.353 63.5519 171.91 57.427C172.466 51.3021 165.251 29.685 164.323 27.6436C163.396 25.6022 159.313 20.4046 159.497 19.8479C159.68 19.2912 159.943 15.8079 159.943 15.8079Z" fill="#ED1C24"/>
<path opacity="0.851" d="M155.05 39.7152C155.05 39.7152 164.337 29.0641 163.033 36.3729C162.101 41.5705 158.579 44.356 156.908 44.9127C155.237 45.4694 155.05 39.7152 155.05 39.7152Z" fill="#FDC2CC"/>
<path opacity="0.851" d="M193.828 38.0371C193.828 38.0371 206.409 44.4722 199.001 44.9747C193.733 45.3275 190.178 42.5842 189.233 41.0977C188.289 39.6113 193.828 38.0371 193.828 38.0371Z" fill="#FDC2CC"/>
<path opacity="0.1" d="M167.754 16.9775C167.754 16.9775 172.488 20.0425 173.044 21.3405C173.601 22.6384 175.643 23.5686 175.643 23.5686C175.643 23.5686 179.54 25.61 179.54 32.849L181.581 43.0574L172.296 56.0485C172.296 56.0485 171.182 43.0553 170.625 39.8998C170.069 36.7443 169.327 30.8104 169.327 30.8104C169.327 30.8104 166.542 27.2843 166.915 26.3563C167.288 25.4283 167.754 16.9775 167.754 16.9775Z" fill="black"/>
<path opacity="0.851" d="M159.03 18.8942C159.03 18.8942 167.686 19.4929 168.241 20.6811C168.796 21.8693 170.842 22.7118 170.842 22.7118C170.842 22.7118 173.87 22.0297 179.715 28.6493L184.41 30.6051L193.051 37.6616C193.051 37.6616 192.232 42.0238 189.82 43.3824C188.502 44.1244 182.512 39.6923 176.705 35.9887C176.814 37.2004 177.571 44.3639 177.524 50.9228C177.476 57.6508 176.612 63.7593 176.155 63.7628C175.287 63.7721 172.931 63.7564 171.548 62.1627C169.13 59.3764 167.627 54.176 167.627 54.176C167.627 54.176 166.384 40.5505 165.827 37.6623C165.269 34.7742 164.529 29.3435 164.529 29.3435C164.529 29.3435 161.744 26.1289 162.117 25.2757C162.49 24.4225 159.03 18.8942 159.03 18.8942Z" fill="#ED1C24"/>
<path opacity="0.1" d="M169.698 2.56727C169.384 2.16688 169.021 1.80766 168.617 1.4981C168.057 0.899056 167.295 0.528778 166.478 0.458862C166.03 0.518494 165.6 0.672519 165.215 0.910766C163.242 1.95047 161.274 3.00087 159.312 4.06196C158.546 4.40773 157.869 4.92498 157.334 5.57377C156.862 6.32897 156.569 7.18244 156.479 8.06849C156.36 8.66839 156.331 9.28275 156.395 9.89106C156.452 10.4873 156.742 11.0371 157.201 11.4221C157.73 11.807 158.455 11.8091 158.897 12.3124C159.122 12.6402 159.307 12.9939 159.447 13.3659C159.629 13.7222 159.946 14.0651 160.303 14.0024C160.48 13.9464 160.636 13.8367 160.748 13.6884C160.86 13.5402 160.924 13.3607 160.93 13.1748C160.953 12.7851 160.93 12.3939 160.862 12.0094C160.754 11.3255 160.907 10.6259 161.29 10.0493C161.569 9.6929 161.971 9.47907 162.241 9.11698C162.889 8.24098 162.593 6.7862 163.304 5.96365C163.51 5.74858 163.77 5.59211 164.056 5.51022C164.343 5.42832 164.646 5.42393 164.935 5.49749C165.507 5.66013 166.055 5.89511 166.567 6.19673C167.281 6.55735 168.03 6.84626 168.802 7.0592C169.45 7.23596 170.2 7.66077 170.421 6.79831C170.73 5.34733 170.471 3.83327 169.698 2.56727Z" fill="black"/>
<path opacity="0.851" d="M169.511 2.38123C169.197 1.98085 168.834 1.62163 168.43 1.31206C167.87 0.713021 167.108 0.342743 166.292 0.272827C165.843 0.332459 165.413 0.486484 165.028 0.72473C163.057 1.76396 161.418 0.780331 159.125 3.87593C158.636 4.5381 157.653 4.68208 157.147 5.38631C156.674 6.14152 156.382 6.99498 156.291 7.88103C156.172 8.48092 156.144 9.09529 156.207 9.7036C156.265 10.2999 156.554 10.8497 157.013 11.2347C157.542 11.6196 158.267 11.6217 158.71 12.1249C158.935 12.4527 159.119 12.8064 159.26 13.1784C159.442 13.5348 159.759 13.8776 160.115 13.8149C160.293 13.7589 160.448 13.6492 160.561 13.501C160.673 13.3527 160.737 13.1733 160.743 12.9874C160.765 12.5976 160.743 12.2065 160.675 11.822C160.566 11.1381 160.719 10.4384 161.103 9.86183C161.382 9.50544 161.783 9.29161 162.053 8.92952C162.701 8.05352 162.405 6.59874 163.116 5.77619C163.323 5.56112 163.582 5.40465 163.869 5.32276C164.156 5.24086 164.459 5.23647 164.748 5.31003C165.319 5.47266 165.867 5.70764 166.379 6.00927C167.094 6.36989 167.843 6.6588 168.614 6.87174C169.262 7.0485 170.013 7.47332 170.234 6.61086C170.549 5.16058 170.29 3.64447 169.511 2.38123Z" fill="#865A61"/>
<path opacity="0.851" d="M152.812 29.8782C152.812 29.8782 152.626 36.7465 151.698 37.6738C150.771 38.6012 152.255 39.7152 152.255 39.7152L155.968 38.7829C155.968 38.7829 155.036 44.9078 158.937 44.1665C158.937 44.1665 156.339 46.5786 153.74 46.9513C151.141 47.3241 151.321 46.3968 151.321 46.3968L147.424 41.7566L152.812 29.8782Z" fill="#ED1C24"/>
<path opacity="0.1" d="M152.783 30.7122C152.783 30.7122 150.307 37.0238 152.165 39.6219L156.248 38.6896C156.248 38.6896 152.535 39.8036 153.093 37.5755C153.65 35.3474 152.783 30.7122 152.783 30.7122Z" fill="black"/>
<path opacity="0.1" d="M151.421 46.304C151.421 46.304 156.805 46.6746 158.289 45.5605C156.336 47.057 154.027 48.0208 151.589 48.3575L151.421 46.304Z" fill="black"/>
<path opacity="0.1" d="M174.626 34.4249C174.626 34.4249 177.411 42.964 177.225 44.2613C177.039 45.5585 176.669 59.8533 176.669 59.8533L176.112 59.6665L176.299 44.0745L174.626 34.4249Z" fill="black"/>
</g>
</g>
<g opacity="0.851">
<path opacity="0.851" d="M241.58 31.8285H235.653V37.756H241.58V31.8285Z" fill="#E6E6E6"/>
<path opacity="0.851" d="M241.745 45.3298H235.817V51.2573H241.745V45.3298Z" fill="#E6E6E6"/>
<path opacity="0.851" d="M241.91 58.8313H235.982V64.7588H241.91V58.8313Z" fill="#E6E6E6"/>
<path opacity="0.851" d="M241.91 58.8313H235.982V64.7588H241.91V58.8313Z" fill="#E6E6E6"/>
<path opacity="0.851" d="M254.181 112.146L252.56 112.337C251.209 113.101 249.663 113.449 248.114 113.339C247.882 113.333 247.655 113.265 247.457 113.144C247.259 113.022 247.096 112.851 246.984 112.647C246.888 112.469 246.833 112.27 246.826 112.067C246.818 111.863 246.858 111.661 246.941 111.476C247.024 111.29 247.149 111.127 247.306 110.997C247.463 110.868 247.648 110.777 247.846 110.731L249.078 110.446L252.049 107.54L253.841 104.296L256.445 104.594L256.987 108.715C257.055 109.539 256.801 110.357 256.277 110.998C255.754 111.638 255.002 112.05 254.181 112.146Z" fill="#707070"/>
<path opacity="0.851" d="M228.943 110.062L227.355 110.435C226.1 111.348 224.603 111.871 223.052 111.938C222.82 111.958 222.588 111.917 222.377 111.819C222.166 111.72 221.985 111.569 221.851 111.379C221.734 111.213 221.658 111.021 221.628 110.82C221.597 110.619 221.614 110.413 221.676 110.219C221.738 110.026 221.844 109.849 221.986 109.703C222.127 109.557 222.301 109.445 222.492 109.377L223.683 108.95L226.304 105.724L227.715 102.297H230.336L231.344 106.329C231.506 107.141 231.347 107.985 230.899 108.681C230.451 109.378 229.749 109.873 228.943 110.062Z" fill="#707070"/>
<path opacity="0.851" d="M227.642 102.527L230.605 102.984L235.279 79.3907L243.372 65.5978L253.175 105.722L256.822 106.406C256.413 83.8107 258.409 55.3637 253.858 51.9188L234.024 54.1997L225.361 77.4534L227.642 102.527Z" fill="#2F2E41"/>
<path opacity="0.851" d="M242.004 16.8074C245.781 16.8074 248.843 13.7454 248.843 9.96826C248.843 6.19112 245.781 3.12915 242.004 3.12915C238.227 3.12915 235.165 6.19112 235.165 9.96826C235.165 13.7454 238.227 16.8074 242.004 16.8074Z" fill="#FFB8B8"/>
<path opacity="0.851" d="M251.579 20.4561L243.371 21.8203L241.32 14.525L247.247 12.701L251.579 20.4561Z" fill="#FFB8B8"/>
<path opacity="0.851" d="M254.999 52.8283L233.116 54.8804C234.871 48.779 236.478 42.6997 235.168 36.6425C233.505 31.2347 235.111 28.0179 239.5 25.4719L242.464 18.8609L250.442 17.9492C252.555 21.3465 253.42 25.3735 252.887 29.3387C251.744 37.9605 252.054 45.9621 254.999 52.8283Z" fill="#ED1C24"/>
<path opacity="0.851" d="M241.85 1.89106C239.569 2.41281 236.969 3.15124 236.823 3.83836C234.475 4.42997 232.703 5.84697 232.341 8.00812C232.311 8.19484 232.322 8.38591 232.374 8.56789C232.425 8.74987 232.516 8.91833 232.64 9.06138C232.764 9.20444 232.917 9.31861 233.09 9.39587C233.263 9.47312 233.45 9.51156 233.639 9.5085C235.153 9.5391 236.661 9.31355 238.099 8.84136C241.776 11.2106 242.394 17.3726 240.788 21.5673L243.315 21.3356L245.929 13.6825L246.593 21.0349L252.36 20.2722L251.617 10.897C251.389 8.68727 250.636 6.56385 249.423 4.70297C249.297 4.51614 249.159 4.33758 249.01 4.16839C248.134 3.17787 247.005 2.44316 245.744 2.04221C244.484 1.64127 243.138 1.58904 241.85 1.89106Z" fill="#2F2E41"/>
<path opacity="0.851" d="M227.367 114.498C227.354 114.609 227.366 114.722 227.399 114.829C227.433 114.936 227.489 115.035 227.564 115.119C227.638 115.203 227.729 115.27 227.831 115.317C227.934 115.364 228.044 115.388 228.156 115.39L230.722 115.416C230.861 115.406 230.99 115.345 231.084 115.244C231.179 115.142 231.231 115.009 231.231 114.871C231.231 114.761 231.199 114.655 231.137 114.564C231.076 114.474 230.989 114.404 230.888 114.363L230.131 114.06L229.03 112.52H228.15C227.717 113.096 227.446 113.778 227.366 114.494V114.499L227.367 114.498Z" fill="#707070" fill-opacity="0.3"/>
<path opacity="0.851" d="M221.228 114.498C221.241 114.609 221.23 114.722 221.196 114.829C221.162 114.936 221.106 115.035 221.031 115.119C220.957 115.203 220.866 115.27 220.764 115.317C220.662 115.364 220.551 115.388 220.439 115.39L217.873 115.416C217.735 115.406 217.605 115.345 217.511 115.244C217.416 115.142 217.364 115.009 217.364 114.871C217.364 114.762 217.397 114.655 217.458 114.564C217.519 114.474 217.606 114.404 217.707 114.363L218.464 114.06L219.568 112.519H220.448C220.881 113.096 221.152 113.777 221.232 114.494V114.498H221.228Z" fill="#707070" fill-opacity="0.3"/>
<path opacity="0.851" d="M219.345 112.519H220.666L225.288 92.4902L227.711 112.739H229.253L231.343 86.6582L220.669 86.5485L219.345 112.519Z" fill="#3F3D56"/>
<path opacity="0.851" d="M213.402 75.764H215.163V71.5828L215.563 70.7817C215.644 70.6209 215.686 70.4432 215.685 70.2633C215.684 70.0833 215.64 69.9061 215.558 69.7463C215.475 69.5864 215.356 69.4483 215.21 69.3433C215.064 69.2383 214.895 69.1694 214.717 69.1422C214.554 69.1172 214.388 69.1275 214.23 69.1727C214.072 69.2178 213.925 69.2967 213.8 69.4038C213.675 69.5109 213.575 69.6438 213.506 69.7933C213.438 69.9428 213.402 70.1054 213.402 70.2699V75.764Z" fill="#FFB8B8"/>
<path opacity="0.851" d="M223.857 65.4188C226.106 65.4188 227.928 63.596 227.928 61.3474C227.928 59.0988 226.106 57.276 223.857 57.276C221.608 57.276 219.786 59.0988 219.786 61.3474C219.786 63.596 221.608 65.4188 223.857 65.4188Z" fill="#FFB8B8"/>
<path opacity="0.851" d="M222.206 68.2806H226.388V63.4387H222.206V68.2806Z" fill="#FFB8B8"/>
<path opacity="0.851" d="M220.226 87.2092C223.927 89.4901 227.84 89.2698 231.89 87.4295L231.01 66.9606L226.389 66.7404L221.547 67.4004L219.124 69.3812L220.226 87.2092Z" fill="#ED1C24"/>
<path opacity="0.851" d="M215.824 79.9452L220.666 76.2038L219.125 69.3811L216.264 74.6635L215.384 73.7832L212.743 75.764L215.824 79.9452Z" fill="#ED1C24"/>
<path opacity="0.851" d="M237.318 67.3118L235.777 68.1672L233.75 64.5099L233.012 64.0031C232.864 63.9016 232.741 63.7664 232.655 63.6086C232.569 63.4508 232.521 63.2748 232.516 63.0951C232.511 62.9154 232.548 62.737 232.625 62.5745C232.702 62.4119 232.816 62.2699 232.958 62.1599C233.088 62.0591 233.239 61.9876 233.399 61.9504C233.559 61.9132 233.726 61.9112 233.887 61.9443C234.048 61.9775 234.2 62.0452 234.333 62.1427C234.465 62.2402 234.575 62.3652 234.655 62.5092L235.291 63.656L237.318 67.3118Z" fill="#FFB8B8"/>
<path opacity="0.851" d="M228.7 73.4533L234.544 70.3513L237.614 68.7219L238.054 66.081L236.073 64.1002L233.65 65.6405L233.87 67.4011L231.009 66.9606L228.7 73.4533Z" fill="#ED1C24"/>
<path opacity="0.851" d="M224.737 64.6491C227.412 64.6491 229.579 62.4813 229.579 59.8072C229.579 57.1331 227.412 54.9653 224.737 54.9653C222.063 54.9653 219.896 57.1331 219.896 59.8072C219.896 62.4813 222.063 64.6491 224.737 64.6491Z" fill="#2F2E41"/>
<path opacity="0.851" d="M227.379 56.5061C228.594 56.5061 229.58 55.5207 229.58 54.3051C229.58 53.0895 228.594 52.104 227.379 52.104C226.163 52.104 225.178 53.0895 225.178 54.3051C225.178 55.5207 226.163 56.5061 227.379 56.5061Z" fill="#2F2E41"/>
<path opacity="0.851" d="M227.272 56.1448C227.709 56.3728 228.209 56.4479 228.693 56.358C229.177 56.268 229.617 56.0184 229.943 55.6488C230.268 55.2793 230.46 54.8113 230.488 54.3197C230.516 53.8281 230.378 53.3413 230.097 52.9373C230.352 53.1287 230.561 53.3731 230.712 53.6536C230.863 53.9341 230.951 54.244 230.97 54.5618C230.989 54.8797 230.939 55.1979 230.824 55.4945C230.708 55.7912 230.529 56.0592 230.3 56.2799C230.07 56.5007 229.796 56.6691 229.495 56.7733C229.194 56.8776 228.874 56.9152 228.557 56.8837C228.24 56.8523 227.934 56.7523 227.659 56.5909C227.385 56.4295 227.149 56.2104 226.967 55.9487C227.063 56.0224 227.165 56.0879 227.272 56.1448Z" fill="#2F2E41"/>
<path opacity="0.851" d="M240.864 59.6681L241.015 64.9604C241.036 65.69 240.779 66.4002 240.298 66.9483C239.816 67.4964 239.144 67.8415 238.418 67.9142C237.953 67.9606 237.483 67.8934 237.05 67.7182C236.616 67.5431 236.232 67.2653 235.93 66.9087C235.627 66.5522 235.416 66.1275 235.314 65.6713C235.213 65.2151 235.223 64.741 235.345 64.2897L236.533 59.8954L239.954 41.2014L239.726 30.2581L247.021 30.03L245.653 42.3411L240.864 59.6681Z" fill="#FFB8B8"/>
<path opacity="0.851" d="M247.474 31.1705C244.831 30.1638 241.911 30.1638 239.268 31.1705L239.724 22.0512C239.724 21.084 240.108 20.1564 240.792 19.4724C241.476 18.7884 242.404 18.4041 243.371 18.4039C243.85 18.4042 244.324 18.4988 244.767 18.6824C245.209 18.8659 245.611 19.1348 245.949 19.4737C246.288 19.8126 246.556 20.2148 246.739 20.6574C246.922 21.1001 247.016 21.5744 247.016 22.0534L247.474 31.1705Z" fill="#ED1C24"/>
</g>
</g>
<path opacity="0.403" d="M14.3484 104.336C14.3484 104.336 -4.63784 93.4223 1.07009 80.8083C6.77802 68.1942 14.3484 104.336 14.3484 104.336Z" fill="#ED1C24" fill-opacity="0.49"/>
<path opacity="0.403" d="M14.3606 104.654C14.3606 104.654 6.36006 86.8259 17.1602 78.7491C27.9603 70.6724 14.3606 104.654 14.3606 104.654Z" fill="#ED1C24" fill-opacity="0.3"/>
<path opacity="0.403" d="M14.4639 104.337C14.4639 104.337 20.1218 85.6336 33.5716 86.6234C47.0214 87.6133 14.4639 104.337 14.4639 104.337Z" fill="#ED1C24" fill-opacity="0.47"/>
<defs>
<linearGradient id="paint0_linear" x1="163.067" y1="130.304" x2="163.067" y2="0.00134277" gradientUnits="userSpaceOnUse">
<stop stop-color="#808080" stop-opacity="0.251"/>
<stop offset="0.54" stop-color="#808080" stop-opacity="0.122"/>
<stop offset="1" stop-color="#808080" stop-opacity="0.102"/>
</linearGradient>
</defs>
</svg>
