<svg width="238" height="92" viewBox="0 0 238 92" fill="none" xmlns="http://www.w3.org/2000/svg">
<path d="M51.2358 36.7488C51.2358 36.7488 88.1525 14.1066 111.897 14.1066C111.897 14.1066 125.004 9.3446 156.098 16.8698C187.192 24.395 198.677 34.1523 207.298 31.2878L171.081 32.3483L51.2358 36.7488Z" fill="#8CD0F3"/>
<path opacity="0.1" d="M56.5674 35.7398C56.5674 35.7398 87.2049 13.7984 108.386 13.7984C108.386 13.7984 133.887 9.34591 161.623 16.8711C189.36 24.3964 199.606 34.1536 207.297 31.2891L174.989 32.3495L56.5674 35.7398Z" fill="#8CD0F3"/>
<path d="M200.212 69.323H13.8501L18.9735 46.2491L50.6642 36.7794L200.211 41.1965L200.212 69.323Z" fill="#121C3F"/>
<path d="M211.237 54.9057V62.2703C211.237 62.2703 205.632 66.7814 205.122 70.3139C205.122 70.3139 197.095 72.5728 194.804 72.5728C194.58 72.569 194.356 72.5777 194.133 72.599C194.492 71.5284 194.772 70.4329 194.97 69.3212C196.507 60.7562 193.242 52.0075 186.697 47.1545C183.587 44.7934 179.789 43.5152 175.884 43.5152C171.979 43.5152 168.182 44.7934 165.071 47.1545C158.526 52.0069 155.261 60.7562 156.799 69.3212C157.067 70.8234 157.481 72.2957 158.037 73.7169H147.151C147.151 73.7169 147.051 73.7547 146.887 73.8341C146.303 74.1271 144.928 74.9001 144.73 76.1162H54.5289L52.6808 76.0985C53.0754 75.3632 53.428 74.6062 53.737 73.831C54.3191 72.3786 54.7488 70.8697 55.0191 69.3285C56.4844 61.2562 53.6845 52.9618 47.8016 47.9409C45.035 45.5012 41.5828 43.9749 37.9163 43.5706C34.2499 43.1663 30.548 43.9037 27.3163 45.682C20.6605 49.3261 16.4479 56.8489 16.4479 65.0824C16.4476 66.5038 16.5731 67.9224 16.8228 69.3218C17.2409 71.6633 18.0194 73.9258 19.1305 76.0289C17.8417 75.6803 15.0297 74.69 15.0297 74.69C15.0297 74.69 3.05502 73.2779 -0.00244141 70.2943L0.459722 69.9396L2.41887 68.4542L1.52629 64.6464C1.41748 64.4839 1.32871 64.3089 1.26194 64.1251C1.07456 63.5815 1.0126 63.0025 1.08069 62.4316C1.14878 61.8606 1.34515 61.3125 1.65511 60.8283C2.92803 58.5694 2.29127 50.5105 2.29127 50.5105C2.29127 50.5105 19.6226 37.2281 53.7657 34.2598C54.4998 34.7802 55.3697 35.0753 56.2688 35.109C57.8592 35.2009 59.4483 34.9097 60.9027 34.2598C60.9027 34.2598 63.7043 35.6719 75.6894 28.0411C75.6894 28.0411 96.0763 12.4925 122.832 13.9107C122.832 13.9107 150.351 12.0712 173.793 22.1124C183.895 26.4361 191.582 28.7414 197.061 29.96C200.238 30.7339 203.485 31.1874 206.752 31.3135H207.684C207.684 31.3135 207.684 34.6792 207.845 38.6543V38.6751C207.906 40.0579 207.983 41.5134 208.094 42.9285V43.0164C208.399 46.9561 208.928 50.5356 209.844 51.245L211.237 54.9057Z" fill="#888888" fill-opacity="0.7"/>
<path d="M5.60115 50.1894C5.60115 50.1894 14.1166 43.5458 24.7176 44.961C24.7176 44.961 15.0715 52.5924 10.7246 52.0997L9.98344 51.4642L5.58772 51.7084C5.58772 51.7084 4.93324 50.6845 5.60115 50.1894Z" fill="#8CD0F3"/>
<path opacity="0.2" d="M13.8647 61.6842V65.6062C13.8647 65.6062 13.5716 69.3529 10.1888 69.4933L0.522461 69.9707L2.69285 68.4854L1.70259 64.6776C1.58252 64.5185 1.48398 64.3442 1.40954 64.1592C2.28808 63.3509 4.35956 61.9858 8.57151 61.6927L13.8647 61.6842Z" fill="white"/>
<path opacity="0.2" d="M52.8579 45.2454L60.2775 44.9524C60.2775 44.9524 57.275 47.3194 55.1541 47.533C53.0331 47.7467 52.8579 45.2454 52.8579 45.2454Z" fill="white"/>
<path opacity="0.2" d="M62.4912 67.7533C62.4912 67.7533 129.591 58.421 145.81 61.3911C145.81 61.3911 150.579 61.7104 152.384 63.6171C154.188 65.5237 152.384 64.2886 152.384 64.2886L62.4912 67.7533Z" fill="white"/>
<path opacity="0.5" d="M100.432 41.5689C100.432 41.5689 101.281 39.9785 102.658 39.9431L111.598 39.4834C111.507 39.9044 111.294 40.2894 110.986 40.5909C110.679 40.8923 110.289 41.0969 109.866 41.1794L100.432 41.5689Z" fill="#18218A"/>
<path opacity="0.5" d="M146.808 38.8826C146.808 38.8826 147.657 37.2922 149.034 37.2568L157.974 36.7855C157.883 37.2065 157.671 37.5915 157.363 37.893C157.055 38.1944 156.666 38.399 156.243 38.4815L146.808 38.8826Z" fill="#18218A"/>
<path d="M123.063 17.089L116.203 35.0803L91.4686 35.1065H69.3472C69.3472 35.1065 72.6513 32.6809 77.9738 29.5905C79.7314 28.5655 81.726 27.4696 83.8909 26.3682C85.883 25.3486 88.0271 24.3175 90.2793 23.3394C92.037 22.5659 93.8881 21.8223 95.7807 21.1281C104.36 17.9913 114.003 15.885 123.063 17.089Z" fill="#8CD0F3"/>
<path d="M155.114 30.2267C155.114 30.2267 144.78 31.7585 134.917 32.8922C131.147 33.3257 127.447 33.7005 124.416 33.9087L123.994 33.938C122.823 34.0143 121.735 34.0638 120.813 34.0815C119.772 34.149 118.726 34.0772 117.705 33.8678L120.554 16.6586C120.554 16.6586 124.07 16.6964 129.269 16.9516L130.406 17.0127C131.487 17.0737 132.626 17.1445 133.816 17.2263C135.515 17.3436 137.304 17.484 139.15 17.6537C148.063 18.4712 158.154 19.9383 164.547 22.5806C178.149 28.2114 155.114 30.2267 155.114 30.2267Z" fill="#8CD0F3"/>
<path d="M196.626 38.8833V43.4762C196.626 43.4762 189.207 43.5818 190.797 42.0995C191.827 41.1153 192.762 40.0364 193.589 38.8772L196.626 38.8833Z" fill="#8CD0F3"/>
<path d="M207.743 43.0072L201.718 43.4785V37.9571C201.718 37.9571 204.509 34.0351 207.301 38.3844L207.462 38.639L207.743 43.0072Z" fill="#8CD0F3"/>
<path d="M39.8589 82.3269C49.3829 82.3269 57.1035 74.6062 57.1035 65.0823C57.1035 55.5583 49.3829 47.8376 39.8589 47.8376C30.3349 47.8376 22.6143 55.5583 22.6143 65.0823C22.6143 74.6062 30.3349 82.3269 39.8589 82.3269Z" fill="#000002"/>
<path d="M53.6908 65.0671C53.6973 68.6255 52.3367 72.0504 49.8902 74.6343C47.4437 77.2183 44.0982 78.7638 40.5448 78.9517C36.9913 79.1395 33.5015 77.9554 30.7962 75.6438C28.0909 73.3323 26.3767 70.0699 26.0079 66.5307C25.6391 62.9915 26.6437 59.4458 28.8143 56.6262C30.9849 53.8065 34.1556 51.9282 37.6714 51.3794C41.1872 50.8306 44.7795 51.6531 47.7062 53.677C50.6329 55.701 52.6704 58.7718 53.3978 62.2551C53.591 63.18 53.6891 64.1222 53.6908 65.0671Z" fill="white"/>
<path opacity="0.5" d="M39.8381 53.1449C42.1967 53.1391 44.504 53.8332 46.4679 55.1394C48.4319 56.4456 49.9641 58.305 50.8707 60.4825C51.7774 62.6599 52.0176 65.0573 51.561 67.3713C51.1044 69.6853 49.9716 71.8119 48.3058 73.4817C46.6401 75.1516 44.5163 76.2897 42.2035 76.7519C39.8906 77.2142 37.4925 76.9799 35.3129 76.0786C33.1333 75.1774 31.27 73.6497 29.959 71.689C28.648 69.7283 27.9483 67.4227 27.9483 65.064C27.9445 61.9068 29.1951 58.8774 31.4248 56.6422C33.6545 54.407 36.6808 53.149 39.8381 53.1449Z" fill="#797979"/>
<path d="M43.8161 51.7596V52.2633L39.8588 65.3656L36.6841 51.5423C39.04 50.9931 41.4985 51.0678 43.8168 51.759L43.8161 51.7596Z" fill="white"/>
<path d="M43.7866 78.3806C41.5198 79.0518 39.1195 79.1344 36.812 78.6206L39.8554 65.3656L43.7866 78.3806Z" fill="white"/>
<path d="M49.5145 65.067C49.5165 66.5124 49.2932 67.9493 48.8527 69.326H48.7971L35.6948 65.3686L49.2483 62.255C49.4325 63.1797 49.5227 64.1206 49.5175 65.0634L49.5145 65.067Z" fill="white"/>
<path d="M39.8584 65.3662L26.7561 69.3236H26.6535C25.9238 67.0358 25.7937 64.5989 26.2756 62.2465L39.8584 65.3662Z" fill="white"/>
<path d="M39.8381 66.5842C40.6776 66.5842 41.3582 65.9036 41.3582 65.064C41.3582 64.2244 40.6776 63.5438 39.8381 63.5438C38.9985 63.5438 38.3179 64.2244 38.3179 65.064C38.3179 65.9036 38.9985 66.5842 39.8381 66.5842Z" fill="#E02525"/>
<path d="M171.91 82.3269C181.434 82.3269 189.154 74.6062 189.154 65.0823C189.154 55.5583 181.434 47.8376 171.91 47.8376C162.386 47.8376 154.665 55.5583 154.665 65.0823C154.665 74.6062 162.386 82.3269 171.91 82.3269Z" fill="#000002"/>
<path d="M185.745 65.0671C185.751 68.6255 184.39 72.0504 181.944 74.6343C179.497 77.2183 176.152 78.7638 172.598 78.9517C169.045 79.1395 165.555 77.9554 162.85 75.6438C160.145 73.3323 158.43 70.0699 158.062 66.5307C157.693 62.9915 158.697 59.4458 160.868 56.6262C163.039 53.8065 166.209 51.9282 169.725 51.3794C173.241 50.8306 176.833 51.6531 179.76 53.677C182.687 55.701 184.724 58.7718 185.452 62.2551C185.645 63.18 185.743 64.1222 185.745 65.0671Z" fill="white"/>
<path opacity="0.5" d="M171.892 76.9831C178.459 76.9831 183.782 71.6467 183.782 65.064C183.782 58.4813 178.459 53.1449 171.892 53.1449C165.326 53.1449 160.002 58.4813 160.002 65.064C160.002 71.6467 165.326 76.9831 171.892 76.9831Z" fill="#797979"/>
<path d="M175.867 51.7597V52.2634L171.91 65.3657L168.735 51.5424C171.091 50.9935 173.549 51.0685 175.867 51.7597Z" fill="white"/>
<path d="M175.841 78.3806C173.575 79.0518 171.174 79.1344 168.867 78.6205L171.913 65.3662L175.841 78.3806Z" fill="white"/>
<path d="M185.745 65.0671C185.747 66.5125 185.523 67.9494 185.083 69.326H185.016L171.91 65.3656L185.463 62.252C185.652 63.1784 185.746 64.1216 185.745 65.0671Z" fill="white"/>
<path d="M176.03 65.3662L162.928 69.3236H162.825C162.096 67.0358 161.966 64.5989 162.448 62.2465L176.03 65.3662Z" fill="white"/>
<path d="M171.892 66.5842C172.732 66.5842 173.412 65.9036 173.412 65.064C173.412 64.2244 172.732 63.5438 171.892 63.5438C171.053 63.5438 170.372 64.2244 170.372 65.064C170.372 65.9036 171.053 66.5842 171.892 66.5842Z" fill="#E02525"/>
<path opacity="0.2" d="M85.3517 26.3866L81.017 35.117H76.23L79.4315 29.6071C81.1977 28.5845 83.1868 27.491 85.3517 26.3866Z" fill="white"/>
<path opacity="0.2" d="M96.1105 21.1459L91.796 35.1096H85.4277L90.6122 23.3517C92.3815 22.5843 94.221 21.8461 96.1105 21.1459Z" fill="white"/>
<path opacity="0.2" d="M136.426 17.2441L127.024 33.9142L126.602 33.9436C125.431 34.0199 124.343 34.0693 123.421 34.087L131.878 16.9712L133.015 17.0322C134.083 17.0896 135.231 17.1598 136.426 17.2441Z" fill="white"/>
<path opacity="0.2" d="M70.2571 35.0602L64.8906 72.0245L109.711 71.0434L117.07 35.222L70.2571 35.0602Z" stroke="white" stroke-width="0.610516" stroke-miterlimit="10"/>
<path opacity="0.5" d="M152.555 73.8225C151.908 74.1156 150.381 74.8885 150.162 76.1046H50.0932L48.0425 76.0869C48.4782 75.3553 48.8695 74.5981 49.214 73.8195L152.555 73.8225Z" fill="#18218A"/>
<path opacity="0.1" d="M109.034 58.2684H108.932C108.932 58.2684 112.3 57.3605 109.034 58.2684Z" fill="black"/>
<path opacity="0.1" d="M134.206 75.2316V75.7297C134.168 75.5659 134.168 75.3954 134.206 75.2316Z" fill="black"/>
<path opacity="0.05" d="M112.168 73.0613C112.168 73.0613 117.35 73.9398 118.644 76.7372C119.939 79.5346 127.725 87.1037 127.725 87.1037" fill="black"/>
<g opacity="0.05">
<path opacity="0.05" d="M97.8876 84.031C97.0701 84.3943 88.9063 81.8545 88.9063 81.8545C88.806 81.0652 88.8148 80.2659 88.9325 79.479C88.6521 80.4569 88.5812 81.4829 88.7243 82.4901C88.7243 82.4901 96.8881 85.0298 97.7056 84.6666C97.9748 84.5445 98.2356 83.8491 98.4645 82.9675C98.2826 83.5304 98.0896 83.9468 97.8876 84.031Z" fill="black"/>
<path opacity="0.05" d="M93.1598 60.697C93.093 60.8812 93.0363 61.0689 92.9901 61.2593C92.9901 61.2593 91.0218 73.0142 89.8472 77.3702C90.9333 73.8347 92.984 61.7428 93.1598 60.697Z" fill="black"/>
<path opacity="0.05" d="M105.234 90.9238C105.234 90.9238 99.1556 82.136 99.4279 78.0352C99.4279 78.0352 99.3632 78.5449 99.249 79.2654C99.5244 83.5536 105.049 91.5624 105.049 91.5624C109.276 91.5624 111.165 88.5708 111.983 85.4254C111.084 88.3199 109.177 90.9238 105.234 90.9238Z" fill="black"/>
</g>
<path d="M129.328 85.4758C189.346 85.4758 238 84.6558 238 83.6443C238 82.6328 189.346 81.8127 129.328 81.8127C69.3103 81.8127 20.6562 82.6328 20.6562 83.6443C20.6562 84.6558 69.3103 85.4758 129.328 85.4758Z" fill="#ED1C24" fill-opacity="0.3"/>
<path d="M212.631 28.4007C212.631 28.4007 207.526 27.1699 207.19 28.4007C206.854 29.6315 211.118 30.3018 211.118 30.3018L212.631 28.4007Z" fill="#FFB9B9"/>
<path opacity="0.1" d="M212.631 28.4007C212.631 28.4007 207.011 27.1699 206.675 28.4007C206.339 29.6315 211.118 30.3018 211.118 30.3018L212.631 28.4007Z" fill="black"/>
<path d="M227.231 17.7727C227.231 17.7727 221.972 27.1747 221.858 28.5147C221.745 29.8548 221.747 29.9696 221.299 29.8579C220.852 29.7461 214.698 29.0746 214.138 29.2986C213.578 29.5227 212.459 27.9555 212.459 27.9555C212.459 27.9555 210.334 30.0813 210.781 30.5288C211.229 30.9763 212.571 31.2004 212.796 31.7596C212.876 32.0975 213.084 32.3911 213.376 32.5789C213.668 32.7668 214.022 32.8342 214.362 32.767C215.37 32.6553 222.195 34.557 223.093 34.2218C223.99 33.8867 224.212 33.3268 224.659 33.3268C225.152 33.2764 225.619 33.0819 226.003 32.7676C226.003 32.6559 229.136 26.7235 229.136 26.7235C229.136 26.7235 232.826 18.6653 227.231 17.7727Z" fill="#D0CDE1"/>
<path opacity="0.1" d="M227.231 17.7727C227.231 17.7727 221.972 27.1747 221.858 28.5147C221.745 29.8548 221.747 29.9696 221.299 29.8579C220.852 29.7461 214.698 29.0746 214.138 29.2986C213.578 29.5227 212.459 27.9555 212.459 27.9555C212.459 27.9555 210.334 30.0813 210.781 30.5288C211.229 30.9763 212.571 31.2004 212.796 31.7596C212.876 32.0975 213.084 32.3911 213.376 32.5789C213.668 32.7668 214.022 32.8342 214.362 32.767C215.37 32.6553 222.195 34.557 223.093 34.2218C223.99 33.8867 224.212 33.3268 224.659 33.3268C225.152 33.2764 225.619 33.0819 226.003 32.7676C226.003 32.6559 229.136 26.7235 229.136 26.7235C229.136 26.7235 232.826 18.6653 227.231 17.7727Z" fill="black"/>
<path d="M219.601 11.5736C219.554 12.1678 219.563 12.7652 219.63 13.3575C219.8 14.6433 220.392 15.9828 219.832 17.183C219.63 17.6183 219.283 17.9981 219.1 18.4389C218.704 19.3717 219.063 20.4072 219.009 21.3999C218.949 22.0711 218.723 22.7169 218.352 23.2793C217.981 23.8417 217.475 24.3031 216.882 24.6222C217.912 24.6238 218.93 24.4101 219.873 23.9948C220.815 23.5795 221.66 22.9718 222.354 22.2106C223.596 20.7723 224.496 19.072 224.988 17.2368C225.276 16.4042 225.46 15.5396 225.538 14.6622C225.58 14.1585 225.518 13.6516 225.357 13.1725C225.161 12.7033 224.903 12.2624 224.59 11.8618C224.276 11.3656 223.88 10.9265 223.419 10.5632C222.655 10.0491 221.757 9.77073 220.836 9.76282C219.851 9.83913 219.643 10.888 219.601 11.5736Z" fill="#2F2E41"/>
<path d="M222.867 15.084C222.867 15.084 224.098 19.448 223.091 20.6788C222.085 21.9096 229.135 20.1196 229.135 20.1196C229.135 20.1196 225.666 16.6506 227.345 14.4131L222.867 15.084Z" fill="#FFB9B9"/>
<path opacity="0.1" d="M222.867 15.084C222.867 15.084 224.098 19.448 223.091 20.6788C222.085 21.9096 229.135 20.1196 229.135 20.1196C229.135 20.1196 225.666 16.6506 227.345 14.4131L222.867 15.084Z" fill="black"/>
<path d="M218.839 73.2698V76.5147L220.517 78.5294L221.972 77.8578L221.525 73.1569L218.839 73.2698Z" fill="#FFB9B9"/>
<path d="M219.511 76.2913C219.511 76.2913 219.063 74.7247 218.28 75.8438C217.496 76.9629 216.713 79.4245 216.265 79.5362C215.817 79.6479 212.684 83.1169 215.818 83.1169C218.951 83.1169 219.957 81.662 219.957 81.662C219.957 81.662 223.091 80.4312 223.091 80.2072C223.091 79.9831 222.643 75.8432 222.419 75.8432C222.195 75.8432 222.083 76.6265 221.524 76.6265C220.846 76.5622 220.173 76.4502 219.511 76.2913Z" fill="#2F2E41"/>
<path d="M226.335 73.8298L226.224 76.8512L228.91 77.9703V73.6063L226.335 73.8298Z" fill="#FFB9B9"/>
<path d="M229.245 76.8517C229.245 76.8517 227.79 75.2851 227.007 75.6209C226.619 75.7768 226.245 75.9638 225.888 76.1801C225.888 76.1801 225.44 77.635 225.216 78.8664C225.129 79.6337 224.941 80.3863 224.657 81.1046C224.433 81.5521 224.21 83.2304 226.447 83.4544C228.685 83.6785 229.356 82.4471 229.356 82.4471L229.915 79.538C229.915 79.538 229.693 76.8517 229.245 76.8517Z" fill="#2F2E41"/>
<path d="M220.294 41.6029C220.294 41.6029 217.049 48.876 217.497 55.4781C217.497 55.4781 216.378 58.0515 217.049 62.0803C217.721 66.1091 218.616 74.1648 218.616 74.1648C218.616 74.1648 221.636 74.5006 221.861 73.9408C221.861 73.9408 222.085 68.346 222.308 68.1219C222.532 67.8979 222.196 62.7494 221.861 61.7439C221.525 60.7383 224.994 50.7784 224.994 50.7784L224.099 38.358L220.294 41.6029Z" fill="#2F2E41"/>
<path opacity="0.1" d="M220.294 41.6029C220.294 41.6029 217.049 48.876 217.497 55.4781C217.497 55.4781 216.378 58.0515 217.049 62.0803C217.721 66.1091 218.616 74.1648 218.616 74.1648C218.616 74.1648 221.636 74.5006 221.861 73.9408C221.861 73.9408 222.085 68.346 222.308 68.1219C222.532 67.8979 222.196 62.7494 221.861 61.7439C221.525 60.7383 224.994 50.7784 224.994 50.7784L224.099 38.358L220.294 41.6029Z" fill="black"/>
<path d="M219.398 41.1562L221.524 45.7436C221.524 45.7436 222.531 56.1498 223.09 57.4923C223.09 57.4923 223.314 61.2971 224.321 62.5279C225.328 63.7587 226.111 74.6124 226.111 74.6124C226.111 74.6124 228.909 75.3957 229.133 74.6124C229.357 73.8291 230.028 68.4584 230.028 68.4584C230.028 68.4584 230.251 63.871 229.02 60.8496C227.789 57.8281 230.475 46.9744 230.475 46.9744C230.475 46.9744 233.273 41.7154 229.244 37.4631L219.398 41.1562Z" fill="#2F2E41"/>
<path d="M225.329 16.4265C227.862 16.4265 229.916 14.3727 229.916 11.8391C229.916 9.30557 227.862 7.25171 225.329 7.25171C222.795 7.25171 220.741 9.30557 220.741 11.8391C220.741 14.3727 222.795 16.4265 225.329 16.4265Z" fill="#FFB9B9"/>
<path d="M229.58 18.7764C229.58 18.7764 224.769 18.7764 224.097 19.3356C223.931 19.4936 223.711 19.5817 223.482 19.5817C223.253 19.5817 223.033 19.4936 222.867 19.3356C222.867 19.3356 221.188 19.4473 220.741 20.7905C220.278 21.9058 219.676 22.9585 218.95 23.9236C218.95 23.9236 216.935 25.3785 218.055 29.1826C219.175 32.9868 218.279 39.1414 218.279 39.1414C218.279 39.1414 217.384 40.4845 218.279 41.0437C219.174 41.603 219.51 41.827 219.398 42.2745C219.286 42.722 229.58 38.5821 229.58 37.7988C229.58 37.0156 229.356 36.344 229.58 36.0088C229.732 35.8021 229.831 35.562 229.87 35.3087C229.909 35.0555 229.887 34.7966 229.804 34.5539C229.58 33.9947 230.029 33.8824 229.916 33.3231C229.804 32.7639 230.475 28.6222 230.924 26.8334C231.372 25.0446 231.259 18.8887 229.58 18.7764Z" fill="#D0CDE1"/>
<path d="M212.632 29.7438C212.632 29.7438 206.06 29.1747 205.725 30.4055C205.389 31.6363 211.119 31.6449 211.119 31.6449L212.632 29.7438Z" fill="#FFB9B9"/>
<path d="M227.231 19.3357C227.231 19.3357 221.972 28.7376 221.858 30.0777C221.745 31.4178 221.747 31.5326 221.299 31.4209C220.852 31.3091 214.698 30.6376 214.138 30.8616C213.578 31.0857 212.459 29.5185 212.459 29.5185C212.459 29.5185 210.334 31.6443 210.781 32.0918C211.229 32.5393 212.571 32.7634 212.796 33.3226C212.876 33.6604 213.084 33.9539 213.376 34.1416C213.668 34.3292 214.022 34.3965 214.362 34.3294C215.37 34.2176 222.195 36.12 223.093 35.7842C223.99 35.4484 224.212 34.8892 224.659 34.8892C225.152 34.8387 225.619 34.6442 226.003 34.33C226.003 34.2182 229.136 28.2859 229.136 28.2859C229.136 28.2859 232.826 20.2313 227.231 19.3357Z" fill="#D0CDE1"/>
<path d="M223.057 14.7702C222.945 14.3255 222.807 13.8882 222.641 13.4606C222.548 13.106 222.527 12.7362 222.58 12.3734C222.633 12.0106 222.759 11.6623 222.951 11.3495C223.609 10.2866 224.901 9.81584 225.802 8.94952C225.831 9.1689 225.905 9.37992 226.019 9.56956C226.134 9.7592 226.285 9.92342 226.465 10.0521C226.826 10.307 227.165 10.5914 227.479 10.9026C227.754 11.2572 227.955 11.6638 228.069 12.098C228.246 12.6012 228.325 13.1335 228.302 13.6664C228.29 13.9326 228.223 14.1935 228.106 14.4331C227.989 14.6727 227.825 14.886 227.623 15.0602C227.287 15.3251 226.818 15.4772 226.657 15.8728C226.593 16.0697 226.575 16.2783 226.603 16.4833C226.74 17.7112 226.692 18.9527 226.462 20.1665C226.342 20.7732 226.091 21.3463 225.726 21.8454C225.361 22.3445 224.891 22.7576 224.349 23.0555C225.26 23.1698 226.185 23.1351 227.085 22.9529C227.535 22.8575 227.955 22.6553 228.311 22.3635C228.666 22.0716 228.946 21.6986 229.127 21.2758C229.221 20.8337 229.348 20.3994 229.507 19.9767C230.05 18.9687 231.549 18.9223 232.285 18.0456C232.56 17.677 232.746 17.2493 232.828 16.7965C233.362 14.1337 233.097 11.3725 232.066 8.85979C231.79 7.96806 231.298 7.15821 230.634 6.50198C230.009 6.01335 229.293 5.65558 228.527 5.45004C227.437 5.06291 226.299 4.83129 225.146 4.762C224.644 4.73262 224.142 4.7913 223.661 4.93539C223.187 5.10697 222.745 5.35869 222.355 5.6796C221.434 6.36461 220.691 7.26208 220.191 8.29569C219.691 9.32929 219.447 10.4684 219.482 11.6163C219.63 13.0006 220.124 14.3254 220.918 15.4692C221.181 15.8758 221.803 16.744 222.384 16.4876C222.902 16.2605 223.123 15.2611 223.057 14.7702Z" fill="#2F2E41"/>
<path d="M174.95 8.75655C177.621 8.75655 179.785 7.06815 179.785 4.98539C179.785 2.90264 177.621 1.21423 174.95 1.21423C172.28 1.21423 170.116 2.90264 170.116 4.98539C170.116 7.06815 172.28 8.75655 174.95 8.75655Z" fill="#2F2E41"/>
<path d="M166.813 75.9873C166.813 75.9873 164.785 81.1009 165.843 81.7182C166.9 82.3354 178.01 81.8946 178.01 81.8946C178.01 81.8946 179.861 80.7487 177.745 79.955C176.73 79.8969 175.739 79.6265 174.835 79.1613C173.95 78.5651 173.124 77.8863 172.367 77.1338C172.367 77.1338 172.279 75.1942 171.573 75.635C171.362 75.774 171.183 75.9557 171.046 76.1683C170.909 76.3809 170.819 76.6197 170.78 76.8694L166.813 75.9873Z" fill="#2F2E41"/>
<path opacity="0.1" d="M166.813 75.9873C166.813 75.9873 164.785 81.1009 165.843 81.7182C166.9 82.3354 178.01 81.8946 178.01 81.8946C178.01 81.8946 179.861 80.7487 177.745 79.955C176.73 79.8969 175.739 79.6265 174.835 79.1613C173.95 78.5651 173.124 77.8863 172.367 77.1338C172.367 77.1338 172.279 75.1942 171.573 75.635C171.362 75.774 171.183 75.9557 171.046 76.1683C170.909 76.3809 170.819 76.6197 170.78 76.8694L166.813 75.9873Z" fill="black"/>
<path d="M163.686 77.5515C163.686 77.5515 161.461 83.1597 162.622 83.8361C163.783 84.5126 175.965 84.0296 175.965 84.0296C175.965 84.0296 177.996 82.7726 175.675 81.9026C174.563 81.839 173.476 81.5426 172.485 81.0326C171.514 80.3786 170.608 79.6339 169.778 78.8085C169.778 78.8085 169.681 76.6815 168.908 77.165C168.677 77.3175 168.48 77.5167 168.33 77.7498C168.18 77.9829 168.081 78.2447 168.038 78.5185L163.686 77.5515Z" fill="#2F2E41"/>
<path d="M175.093 41.9705L173.739 54.1534C173.739 54.1534 173.256 59.9533 171.806 61.2115C171.806 61.2115 171.806 63.0486 171.322 63.6286L170.645 71.2673C170.645 71.2673 171.612 74.0714 171.515 74.555C171.418 75.0385 171.902 76.5856 171.805 76.7791C171.708 76.9726 167.165 76.7791 167.165 76.7791L168.132 61.2109L171.13 39.5522L175.093 41.9705Z" fill="#2F2E41"/>
<path opacity="0.1" d="M175.093 41.9705L173.739 54.1534C173.739 54.1534 173.256 59.9533 171.806 61.2115C171.806 61.2115 171.806 63.0486 171.322 63.6286L170.645 71.2673C170.645 71.2673 171.612 74.0714 171.515 74.555C171.418 75.0385 171.902 76.5856 171.805 76.7791C171.708 76.9726 167.165 76.7791 167.165 76.7791L168.132 61.2109L171.13 39.5522L175.093 41.9705Z" fill="black"/>
<path d="M172.678 41.5828C172.678 41.5828 171.615 51.5422 171.131 53.6711C170.827 55.072 170.633 56.4946 170.551 57.9257C170.551 57.9257 170.455 61.0199 169.584 61.8898C169.33 62.1419 169.13 62.4436 168.997 62.7762C168.863 63.1088 168.8 63.4653 168.811 63.8233C168.811 63.8233 167.941 73.5916 168.424 74.7516C168.907 75.9115 169.391 76.8786 168.907 77.6521C168.424 78.4257 163.107 78.4256 163.107 77.8456C163.107 77.2657 163.107 76.7821 162.817 76.4921C162.527 76.2022 162.817 74.3651 162.817 74.3651C162.817 74.3651 161.657 65.7568 162.721 63.2458C163.784 60.7347 164.266 53.8597 164.266 53.8597C164.266 53.8597 163.492 46.028 162.525 44.7709C161.558 43.5139 162.719 39.0663 162.719 39.0663L172.678 41.5828Z" fill="#2F2E41"/>
<path d="M169.956 10.6554C170.102 10.8964 170.321 11.0836 170.582 11.189C171.968 12.0333 173.238 13.0541 174.361 14.2257C174.069 13.2357 174.131 12.1747 174.537 11.2256C174.725 10.9246 174.803 10.568 174.76 10.2158C174.662 9.97435 174.491 9.76933 174.271 9.62912C173.794 9.25966 173.294 8.91898 172.776 8.60893C172.414 8.3922 171.67 7.81527 171.254 7.87632C171.274 8.41918 171.179 8.96009 170.975 9.46367C170.915 9.59066 169.999 10.7531 169.956 10.6554Z" fill="#A0616A"/>
<path d="M174.902 11.8984C177.091 11.8984 178.866 10.1236 178.866 7.9343C178.866 5.74499 177.091 3.97021 174.902 3.97021C172.712 3.97021 170.938 5.74499 170.938 7.9343C170.938 10.1236 172.712 11.8984 174.902 11.8984Z" fill="#A0616A"/>
<path d="M175.095 17.3131C175.095 17.3131 175.772 13.929 173.838 12.7684C171.904 11.6078 169.681 10.2543 169.681 10.2543C169.681 10.2543 169.004 10.1578 168.714 11.6078C168.714 11.6078 163.203 12.6713 162.622 17.8924C162.041 23.1136 163.009 30.7523 163.009 30.7523C163.009 30.7523 162.139 37.4241 161.075 41.0017C161.075 41.0017 160.205 41.7752 164.073 40.6152C167.941 39.4553 174.709 43.9029 174.709 43.9029C174.709 43.9029 175.386 43.2258 175.386 42.7429C175.386 42.26 176.159 39.4553 176.159 39.4553C176.159 39.4553 176.837 27.5624 177.127 26.2071C177.417 24.8517 175.965 17.5066 175.095 17.3131Z" fill="#E02525"/>
<path d="M173.971 8.34032C174.209 8.20831 174.476 8.13721 174.748 8.13335C175.021 8.12938 175.287 8.05015 175.518 7.90441C175.892 7.61685 175.919 7.06128 176.193 6.67666C176.59 6.11987 177.382 6.05271 178.064 6.08079C178.48 6.14501 178.906 6.08113 179.285 5.89764C179.622 5.62517 179.851 5.24233 179.932 4.81703C180.038 4.58658 180.083 4.33246 180.061 4.07957C180.04 3.82667 179.953 3.58368 179.81 3.37438C179.562 3.12345 179.171 3.074 178.894 2.85421C178.64 2.59039 178.449 2.27222 178.336 1.92379C178.159 1.52076 177.88 1.1711 177.526 0.909721C176.98 0.581686 176.347 0.429901 175.712 0.475039C175.082 0.52117 174.45 0.525243 173.819 0.487243C173.316 0.365705 172.798 0.31232 172.28 0.328512C171.956 0.396213 171.652 0.536189 171.389 0.737994C171.127 0.9398 170.914 1.19822 170.765 1.49399C170.473 2.08703 170.273 2.72109 170.172 3.37438L169.806 5.13205C169.66 5.67089 169.613 6.23158 169.666 6.78716C169.85 7.92699 170.855 8.83361 170.925 9.98565C170.991 9.66751 171.135 9.37079 171.344 9.12209C171.553 8.8734 171.821 8.6805 172.123 8.56071C172.199 8.52355 172.285 8.51301 172.367 8.5308C172.467 8.56254 172.526 8.66267 172.589 8.74692C172.754 8.96732 173.275 9.30127 173.57 9.14497C173.833 9.00639 173.636 8.56743 173.971 8.34032Z" fill="#2F2E41"/>
<path d="M163.976 26.4024C163.976 26.4024 163.299 30.6571 166.103 30.27C166.103 30.27 167.554 30.0765 167.747 30.27C167.94 30.4636 175.095 29.2065 176.062 28.143C176.062 28.143 177.222 27.7559 177.802 28.3365C178.383 28.9171 185.143 28.143 183.403 26.403C181.662 24.663 177.996 25.6295 177.996 25.6295L174.322 25.823C174.322 25.823 172.388 26.403 171.228 25.823C170.068 25.243 166.78 25.436 166.78 25.436L163.976 26.4024Z" fill="#A0616A"/>
<path d="M181.213 19.6507C181.213 19.6507 180.536 23.9054 183.34 23.5183C183.34 23.5183 184.791 23.3248 184.983 23.5183C185.176 23.7118 192.332 22.4548 193.299 21.3913C193.299 21.3913 194.459 21.0042 195.039 21.5848C195.62 22.1654 202.38 21.3913 200.64 19.6513C198.899 17.9113 195.233 18.8778 195.233 18.8778L191.559 19.0713C191.559 19.0713 189.625 19.6513 188.465 19.0713C187.305 18.4913 184.017 18.6842 184.017 18.6842L181.213 19.6507Z" fill="#A0616A"/>
<path d="M167.941 12.9625C167.941 12.9625 163.589 13.4461 163.589 19.7307V27.7559C163.589 27.7559 166.006 26.6924 166.49 26.7889C166.973 26.8853 168.907 25.5318 168.907 25.5318C168.907 25.5318 171.131 20.3107 170.938 18.8601C170.744 17.4095 170.841 13.1561 167.941 12.9625Z" fill="#E02525"/>
<path d="M174.901 7.40314C176.957 7.40314 178.623 6.53721 178.623 5.46903C178.623 4.40085 176.957 3.53491 174.901 3.53491C172.845 3.53491 171.179 4.40085 171.179 5.46903C171.179 6.53721 172.845 7.40314 174.901 7.40314Z" fill="#2F2E41"/>
<path d="M171.421 9.04667C172.142 9.04667 172.726 7.59634 172.726 5.80727C172.726 4.0182 172.142 2.56787 171.421 2.56787C170.7 2.56787 170.116 4.0182 170.116 5.80727C170.116 7.59634 170.7 9.04667 171.421 9.04667Z" fill="#2F2E41"/>
<path d="M174.788 15.4851L181.209 18.4766L182.225 24.1905H178.524L174.788 21.9255" fill="#E02525"/>
<path d="M169.954 3.53489L180.146 5.585C180.445 4.99903 180.538 4.32994 180.412 3.68463C180.285 3.03932 179.946 2.45502 179.448 2.02508C177.672 0.482918 176.063 -0.510392 172.946 0.274732C169.829 1.05986 169.954 3.53489 169.954 3.53489Z" fill="#E02525"/>
<path d="M180.055 5.46899C180.055 5.46899 186.471 10.6584 185.015 8.47639C183.558 6.29441 180.055 4.12891 180.055 4.12891V5.46899Z" fill="#E02525"/>
<path d="M207.824 28.5367C207.861 28.2735 207.839 28.0054 207.76 27.7515C207.682 27.4976 207.548 27.2642 207.369 27.0678C207.19 26.8714 206.97 26.717 206.724 26.6154C206.479 26.5139 206.214 26.4677 205.948 26.4802L205.745 26.1718C205.726 26.1429 205.701 26.1184 205.672 26.1C205.642 26.0815 205.609 26.0695 205.575 26.0647L205.197 26.0115L205.254 25.6046C205.258 25.5728 205.256 25.5405 205.248 25.5095C205.24 25.4784 205.226 25.4493 205.207 25.4236C205.188 25.398 205.164 25.3765 205.136 25.3602C205.108 25.3439 205.078 25.3333 205.046 25.3288L204.639 25.2716L204.696 24.8659C204.701 24.8342 204.699 24.8019 204.691 24.7708C204.683 24.7398 204.669 24.7106 204.649 24.685C204.63 24.6594 204.606 24.6378 204.578 24.6215C204.551 24.6053 204.52 24.5946 204.488 24.5901L203.346 24.4295C203.281 24.4205 203.216 24.4373 203.165 24.4763C203.113 24.5153 203.079 24.5732 203.07 24.6374L202.959 25.4282C202.954 25.4602 202.956 25.4927 202.964 25.524C202.972 25.5553 202.986 25.5847 203.006 25.6105L204.414 27.4854C204.299 27.7198 204.236 27.9765 204.229 28.2377C204.223 28.4989 204.273 28.7585 204.376 28.9984C204.48 29.2383 204.634 29.4529 204.829 29.6275C205.023 29.802 205.253 29.9322 205.503 30.0092C205.753 30.0862 206.016 30.1081 206.275 30.0734C206.534 30.0387 206.782 29.9483 207.003 29.8083C207.224 29.6683 207.411 29.4821 207.553 29.2626C207.695 29.043 207.787 28.7954 207.824 28.5367V28.5367ZM205.966 28.7731C205.98 28.6766 206.022 28.5863 206.087 28.5136C206.152 28.4409 206.237 28.3891 206.331 28.3647C206.425 28.3403 206.525 28.3444 206.617 28.3766C206.709 28.4087 206.789 28.4674 206.848 28.5452C206.906 28.623 206.941 28.7165 206.946 28.8138C206.952 28.9111 206.928 29.0078 206.879 29.0918C206.829 29.1757 206.756 29.2431 206.668 29.2855C206.581 29.3278 206.482 29.3432 206.386 29.3296C206.256 29.3114 206.139 29.2426 206.061 29.1382C205.982 29.0339 205.948 28.9025 205.966 28.7731Z" fill="#ED1C24"/>
<path d="M207.226 29.1241L210.246 30.4593C210.287 30.3004 210.291 30.1342 210.257 29.9737C210.223 29.8131 210.153 29.6624 210.052 29.5334C209.951 29.4043 209.821 29.3001 209.673 29.2291C209.525 29.1582 209.363 29.1223 209.199 29.1241C207.898 29.063 206.558 29.1241 206.558 29.1241" stroke="#707070" stroke-width="0.610516"/>
</svg>
