<svg width="189" height="127" viewBox="0 0 189 127" fill="none" xmlns="http://www.w3.org/2000/svg">
<g clip-path="url(#clip0)">
<path d="M123.756 106.105L90.0561 94.1024V93.9329H33.881L0 106.105H0.0973754V109.352H123.856V106.105H123.756Z" fill="#E6E6E6"/>
<path d="M147.35 126.076C170.352 126.076 189 124.556 189 122.68C189 120.805 170.352 119.285 147.35 119.285C124.347 119.285 105.7 120.805 105.7 122.68C105.7 124.556 124.347 126.076 147.35 126.076Z" fill="#E6E6E6"/>
<path d="M126.009 61.4991L123.921 63.4564C123.921 63.4564 118.266 68.0681 120.891 69.7613C123.516 71.4545 126.443 64.6698 126.443 64.6698L127.571 62.9184L126.009 61.4991Z" fill="#9F616A"/>
<path d="M138.108 27.8486L135.158 28.5429C134.743 30.4219 134.568 32.346 134.638 34.2691C134.811 37.0454 133.959 42.1978 133.959 42.1978L131.961 46.8495L123.583 62.695L128.789 64.9585L138.107 46.7619L138.974 35.1364L138.108 27.8486Z" fill="#E02525"/>
<path d="M142.493 19.6068C147.594 19.6068 151.728 15.2177 151.728 9.80339C151.728 4.38913 147.594 0 142.493 0C137.393 0 133.258 4.38913 133.258 9.80339C133.258 15.2177 137.393 19.6068 142.493 19.6068Z" fill="#2F2E41"/>
<path d="M150.687 24.6388C153.371 24.6388 155.546 22.4636 155.546 19.7805C155.546 17.0974 153.371 14.9222 150.687 14.9222C148.004 14.9222 145.829 17.0974 145.829 19.7805C145.829 22.4636 148.004 24.6388 150.687 24.6388Z" fill="#2F2E41"/>
<path d="M147.304 13.2739L149.906 20.0412L143.313 22.8174L142.733 21.5053L140.709 16.9181L147.304 13.2739Z" fill="#9F616A"/>
<path d="M156.154 50.4055L158.583 61.8572L161.88 87.537L159.446 110.961C159.446 110.961 152.161 113.391 149.382 108.879L152.679 89.619L146.085 66.8892L145.044 89.2722L146.78 108.705C146.78 108.705 141.401 111.828 137.063 108.705L134.113 70.1853C134.113 70.1853 131.857 53.3547 137.063 47.8022L156.154 50.4055Z" fill="#2F2E41"/>
<path d="M142.098 17.6978C145.308 17.6978 147.91 15.0955 147.91 11.8854C147.91 8.6753 145.308 6.073 142.098 6.073C138.888 6.073 136.286 8.6753 136.286 11.8854C136.286 15.0955 138.888 17.6978 142.098 17.6978Z" fill="#9F616A"/>
<path d="M142.099 23.1635L142.668 21.3519C142.668 21.3519 147.904 20.4889 149.427 18.79L152.163 21.602C152.163 21.602 159.624 24.0315 160.665 25.0725C161.706 26.1135 156.501 42.2505 156.501 42.2505C156.501 42.2505 157.715 45.0267 155.633 46.2436C155.633 46.2436 158.757 50.9281 156.328 51.4486C153.899 51.9691 136.374 48.3256 136.374 48.3256C136.374 48.3256 135.159 46.2436 137.936 45.3756C137.936 45.3756 136.895 42.9462 138.109 42.0789C139.324 41.2116 138.283 36.3526 138.283 36.3526C138.283 36.3526 134.64 29.067 135.16 28.5444C135.68 28.0218 142.099 23.1635 142.099 23.1635Z" fill="#E02525"/>
<path d="M159.102 65.6744L158.929 67.0622C158.929 67.0622 159.102 75.3909 155.979 75.0435C152.855 74.696 154.764 66.5417 154.764 66.5417L155.285 64.6362L159.102 65.6744Z" fill="#9F616A"/>
<path d="M155.285 109.399C155.285 109.399 154.591 116.34 155.805 116.86C157.02 117.381 165.175 121.718 162.746 123.627C160.316 125.536 152.161 120.504 151.294 121.372C150.427 122.239 147.651 121.545 147.477 119.984C147.302 118.422 147.65 115.646 149.038 113.911C150.426 112.176 150.427 108.706 150.427 108.706L155.285 109.399Z" fill="#2F2E41"/>
<path d="M145.396 106.799L146.61 112.525C146.61 112.525 149.213 118.252 146.961 119.466C144.708 120.68 144.358 120.854 144.184 121.548C144.011 122.241 139.326 125.885 137.938 123.109C136.549 120.333 141.58 116.342 141.58 116.342L142.448 114.434L141.58 107.666L145.396 106.799Z" fill="#2F2E41"/>
<path d="M137.348 11.2478C141.001 8.80995 142.093 8.22711 146.281 9.16864L146.533 3.0592L135.711 5.32966L137.348 11.2478Z" fill="#2F2E41"/>
<path d="M159.101 25.2454L160.836 25.0717C160.836 25.0717 162.571 29.5832 162.571 31.8389V46.7605L159.795 66.3672L154.416 65.5L157.366 47.9752L156.499 37.3907L159.101 25.2454Z" fill="#E02525"/>
<path d="M178.135 52.9609H175.192V122.001H178.135V52.9609Z" fill="#3F3D56"/>
<path d="M184.813 33.7206H168.515V55.4514H184.813V33.7206Z" fill="#3F3D56"/>
<path d="M182.323 47.0757C182.218 47.078 182.116 47.1125 182.03 47.1745L181.101 39.6016C181.063 39.291 180.913 39.0051 180.679 38.7978C180.444 38.5904 180.142 38.4759 179.829 38.4758H173.496C173.183 38.4759 172.881 38.5904 172.647 38.7978C172.413 39.0051 172.262 39.291 172.224 39.6016L171.297 47.1759C171.211 47.1139 171.109 47.0794 171.004 47.0771C170.504 47.0771 170.099 47.8876 170.099 48.888C170.099 49.8884 170.504 50.6989 171.004 50.6989C171.383 50.6989 171.708 50.2302 171.844 49.5668H181.485C181.619 50.2302 181.943 50.6989 182.325 50.6989C182.825 50.6989 183.23 49.8884 183.23 48.888C183.23 47.8876 182.823 47.0757 182.323 47.0757ZM173.721 47.5283C173.497 47.5283 173.278 47.4618 173.092 47.3375C172.906 47.2131 172.761 47.0363 172.675 46.8294C172.59 46.6225 172.567 46.3949 172.611 46.1753C172.655 45.9557 172.762 45.754 172.921 45.5957C173.079 45.4373 173.281 45.3295 173.5 45.2859C173.72 45.2422 173.948 45.2646 174.154 45.3503C174.361 45.4359 174.538 45.581 174.662 45.7672C174.787 45.9534 174.853 46.1723 174.853 46.3962C174.853 46.6964 174.734 46.9844 174.522 47.1967C174.309 47.409 174.021 47.5283 173.721 47.5283ZM179.38 47.5283C179.156 47.5283 178.937 47.4618 178.751 47.3375C178.565 47.2131 178.42 47.0363 178.334 46.8294C178.249 46.6225 178.226 46.3949 178.27 46.1753C178.313 45.9557 178.421 45.754 178.58 45.5957C178.738 45.4373 178.94 45.3295 179.159 45.2859C179.379 45.2422 179.606 45.2646 179.813 45.3503C180.02 45.4359 180.197 45.581 180.321 45.7672C180.446 45.9534 180.512 46.1723 180.512 46.3962C180.512 46.6964 180.393 46.9844 180.181 47.1967C179.968 47.409 179.68 47.5283 179.38 47.5283ZM180.739 43.2045C180.739 43.3903 180.665 43.5685 180.533 43.6999C180.402 43.8312 180.224 43.905 180.038 43.905H173.294C173.108 43.905 172.93 43.8312 172.798 43.6999C172.667 43.5685 172.593 43.3903 172.593 43.2045V40.9873C172.593 40.8015 172.667 40.6233 172.798 40.4919C172.93 40.3605 173.108 40.2867 173.294 40.2867H180.038C180.224 40.2867 180.402 40.3605 180.533 40.4919C180.665 40.6233 180.739 40.8015 180.739 40.9873V43.2045Z" fill="#E02525"/>
<path d="M121.12 60.6067L121.78 61.8901C121.784 61.8961 121.786 61.9027 121.786 61.9095C121.787 61.9164 121.786 61.9233 121.784 61.9298C121.782 61.9364 121.779 61.9425 121.775 61.9477C121.77 61.9529 121.765 61.9572 121.758 61.9602L121.727 61.9763L125.168 68.6623C125.263 68.8472 125.281 69.0624 125.218 69.2605C125.154 69.4586 125.015 69.6234 124.83 69.7187L120.652 71.8686C120.467 71.9638 120.252 71.9816 120.054 71.9182C119.856 71.8547 119.691 71.7152 119.596 71.5303L116.276 65.079L116.253 65.0909C116.245 65.0951 116.235 65.0958 116.226 65.0929C116.217 65.09 116.21 65.0838 116.205 65.0755L115.829 64.3448C115.825 64.3364 115.824 64.3267 115.827 64.3178C115.83 64.3089 115.836 64.3015 115.844 64.2972L115.868 64.2853L115.727 64.01L115.704 64.0219C115.7 64.0242 115.695 64.0256 115.69 64.026C115.685 64.0264 115.68 64.0259 115.676 64.0244C115.671 64.0229 115.667 64.0205 115.663 64.0173C115.659 64.0141 115.656 64.0101 115.654 64.0057L115.283 63.2856C115.279 63.2769 115.278 63.2667 115.281 63.2574C115.284 63.2481 115.291 63.2403 115.299 63.2359L115.323 63.2239L115.129 62.8484L115.105 62.8604C115.098 62.8643 115.089 62.8651 115.08 62.8624C115.072 62.8598 115.065 62.854 115.061 62.8464L114.859 62.4533C114.857 62.4495 114.855 62.4453 114.855 62.4409C114.855 62.4366 114.855 62.4322 114.856 62.428C114.858 62.4238 114.86 62.42 114.863 62.4166C114.865 62.4133 114.869 62.4105 114.873 62.4085L114.897 62.3966L114.487 61.6008C114.392 61.4158 114.374 61.2006 114.437 61.0025C114.501 60.8044 114.64 60.6396 114.825 60.5444L119.003 58.3944C119.187 58.2993 119.403 58.2814 119.601 58.3449C119.799 58.4083 119.964 58.5478 120.059 58.7328L121.022 60.6046L121.054 60.5885C121.065 60.5827 121.078 60.5814 121.09 60.5848C121.102 60.5881 121.113 60.596 121.12 60.6067Z" fill="#3F3D56"/>
<path d="M119.793 59.0404L124.862 68.89C124.923 69.0074 124.934 69.144 124.894 69.2697C124.853 69.3954 124.765 69.5 124.647 69.5604L120.649 71.6186C120.591 71.6487 120.527 71.667 120.462 71.6725C120.397 71.678 120.331 71.6706 120.269 71.6506C120.207 71.6307 120.149 71.5987 120.099 71.5564C120.049 71.5141 120.008 71.4624 119.978 71.4042L114.909 61.5546C114.849 61.4372 114.837 61.3006 114.878 61.1749C114.918 61.0492 115.007 60.9446 115.124 60.8842L115.722 60.5759L115.762 60.653C115.811 60.7496 115.898 60.8225 116.001 60.8556C116.105 60.8887 116.217 60.8793 116.314 60.8295L118.345 59.7829C118.442 59.7331 118.515 59.647 118.548 59.5435C118.581 59.4399 118.572 59.3275 118.522 59.2309L118.482 59.1538L119.12 58.826C119.178 58.7956 119.242 58.777 119.307 58.7713C119.373 58.7656 119.439 58.7729 119.501 58.7928C119.564 58.8128 119.622 58.8449 119.672 58.8874C119.722 58.9299 119.763 58.9819 119.793 59.0404Z" fill="#E02525"/>
<path d="M83.4038 83.5403C83.0047 83.5488 82.6177 83.6791 82.2948 83.9137L78.783 55.2328C78.6385 54.0574 78.0693 52.9754 77.1825 52.1905C76.2956 51.4056 75.1524 50.972 73.9682 50.9714H49.9858C48.8008 50.9715 47.6568 51.4052 46.7695 52.1905C45.8822 52.9759 45.3129 54.0588 45.1689 55.2349L41.6571 83.9158C41.3341 83.6812 40.9472 83.5509 40.5481 83.5425C38.6566 83.5425 37.1196 86.6122 37.1196 90.3994C37.1196 94.1865 38.6545 97.2563 40.5481 97.2563C41.9863 97.2563 43.2165 95.4825 43.7251 92.9704H80.2275C80.7361 95.4825 81.9663 97.2563 83.4045 97.2563C85.2959 97.2563 86.8329 94.1865 86.8329 90.3994C86.8329 86.6122 85.2973 83.5403 83.4038 83.5403ZM50.8328 85.2546C49.9851 85.2546 49.1564 85.0032 48.4516 84.5323C47.7468 84.0613 47.1975 83.392 46.8731 82.6088C46.5487 81.8257 46.4638 80.9639 46.6292 80.1325C46.7946 79.3011 47.2028 78.5375 47.8022 77.9381C48.4015 77.3387 49.1652 76.9305 49.9966 76.7651C50.828 76.5997 51.6897 76.6846 52.4729 77.009C53.256 77.3334 53.9254 77.8827 54.3964 78.5875C54.8673 79.2923 55.1187 80.121 55.1187 80.9687C55.1187 82.1054 54.6671 83.1955 53.8634 83.9993C53.0596 84.803 51.9694 85.2546 50.8328 85.2546ZM72.2609 85.2546C71.4133 85.2546 70.5846 85.0032 69.8798 84.5323C69.175 84.0613 68.6257 83.392 68.3013 82.6088C67.9769 81.8257 67.892 80.9639 68.0574 80.1325C68.2227 79.3011 68.6309 78.5375 69.2303 77.9381C69.8297 77.3387 70.5934 76.9305 71.4248 76.7651C72.2562 76.5997 73.1179 76.6846 73.9011 77.009C74.6842 77.3334 75.3536 77.8827 75.8246 78.5875C76.2955 79.2923 76.5469 80.121 76.5469 80.9687C76.5469 82.1052 76.0954 83.1953 75.2918 83.999C74.4882 84.8028 73.3982 85.2544 72.2616 85.2546H72.2609ZM77.4036 68.8815C77.4036 69.2311 77.3348 69.5773 77.201 69.9002C77.0672 70.2232 76.8711 70.5167 76.6239 70.7639C76.3767 71.0111 76.0833 71.2071 75.7603 71.3409C75.4373 71.4747 75.0911 71.5436 74.7416 71.5436H49.2068C48.8572 71.5436 48.511 71.4747 48.1881 71.3409C47.8651 71.2071 47.5716 71.0111 47.3244 70.7639C47.0772 70.5167 46.8811 70.2232 46.7474 69.9002C46.6136 69.5773 46.5447 69.2311 46.5447 68.8815V60.4855C46.5447 59.7795 46.8252 59.1024 47.3244 58.6032C47.8237 58.1039 48.5008 57.8234 49.2068 57.8234H74.7451C75.4511 57.8234 76.1282 58.1039 76.6274 58.6032C77.1267 59.1024 77.4071 59.7795 77.4071 60.4855L77.4036 68.8815Z" fill="#3F3D56"/>
<path d="M66.4645 52.3256H57.4863L59.4107 49.4401H64.5408L66.4645 52.3256Z" fill="#E3B92D"/>
<path d="M60.8867 45.288C66.4456 45.288 70.9521 40.7816 70.9521 35.2226C70.9521 29.6637 66.4456 25.1572 60.8867 25.1572C55.3277 25.1572 50.8213 29.6637 50.8213 35.2226C50.8213 40.7816 55.3277 45.288 60.8867 45.288Z" fill="#25E08A"/>
<path d="M59.9279 39.4714L56.9155 35.5981L58.6669 34.2355L60.0932 36.0695L64.9115 30.9829L66.5228 32.5094L59.9279 39.4714Z" fill="white"/>
<path d="M62.8925 94.2208H60.8638V95.4384H62.8925V94.2208Z" fill="white"/>
<path d="M62.8924 105.92H60.8608V103.3H62.8924V105.92ZM62.8924 100.679H60.8608V98.0583H62.8924V100.679Z" fill="white"/>
<path d="M62.8925 108.541H60.8638V109.758H62.8925V108.541Z" fill="white"/>
</g>
<defs>
<clipPath id="clip0">
<rect width="189" height="126.076" fill="white"/>
</clipPath>
</defs>
</svg>
