<svg width="299" height="299" viewBox="0 0 299 299" fill="none" xmlns="http://www.w3.org/2000/svg">
<g filter="url(#filter0_d)">
<path d="M146.772 290.089C225.924 290.089 290.089 225.924 290.089 146.772C290.089 67.6206 225.924 3.45544 146.772 3.45544C67.6206 3.45544 3.45544 67.6206 3.45544 146.772C3.45544 225.924 67.6206 290.089 146.772 290.089Z" fill="white"/>
</g>
<path opacity="0.1" d="M274.587 180.373C268.201 193.554 255.223 202.368 241.777 208.18C223.579 215.915 203.802 219.212 184.079 217.799C180.634 217.57 177.199 217.204 173.774 216.7C161.881 214.965 150.285 211.589 139.319 206.667C136.154 205.242 133.053 203.686 130.017 202C124.947 199.188 120.09 196.009 115.484 192.489C114.325 191.604 113.182 190.697 112.055 189.767C111.273 189.123 110.495 188.464 109.713 187.824C108.09 186.44 106.322 185.237 104.44 184.234C103.866 183.944 103.277 183.684 102.675 183.455C96.644 181.16 89.6891 182.026 83.4099 183.815C78.6336 185.177 73.9792 187.04 69.2067 188.37C67.0844 188.98 64.9219 189.439 62.7351 189.746C57.853 190.364 52.8951 189.928 48.1955 188.468L47.7938 188.344C47.1205 188.132 46.4522 187.901 45.7888 187.649L45.3871 187.495C44.7435 187.247 44.1158 186.982 43.5039 186.699L43.1022 186.516C42.4586 186.219 41.8309 185.904 41.219 185.571C40.9963 185.456 40.7787 185.33 40.5626 185.212C37.069 183.261 33.8934 180.789 31.1453 177.88C31.0658 177.801 30.9916 177.719 30.9047 177.639C30.5223 177.226 30.1473 176.805 29.7841 176.377C29.6497 176.218 29.5146 176.06 29.3824 175.896C28.9512 175.37 28.5351 174.832 28.1341 174.282C28.074 174.203 28.0161 174.121 27.9589 174.042C26.3168 171.77 24.9554 169.308 23.9044 166.71C23.871 166.63 23.8398 166.548 23.8109 166.469C23.4901 165.643 23.1975 164.804 22.9331 163.951C22.8247 163.595 22.7215 163.229 22.6302 162.873C22.599 162.767 22.57 162.66 22.5433 162.553C21.2156 157.328 21.0641 151.895 21.0641 146.494V144.606C21.1027 135.869 21.2371 126.983 22.5262 118.366C22.5302 118.306 22.5392 118.247 22.5529 118.188C22.9843 115.288 23.571 112.412 24.3106 109.574C25.0849 106.597 26.0744 103.679 27.2713 100.845C30.2364 93.8704 34.5485 87.5244 39.3366 81.6417C51.3968 66.84 67.2136 54.4137 85.7267 49.763C95.7509 47.3292 106.196 47.1987 116.278 49.3813C126.36 51.5639 135.816 56.0028 143.936 62.3645C148.843 66.2697 153.25 70.8944 158.76 73.8885C163.569 76.4957 169.199 77.5754 174.354 75.5222C178.61 73.8269 181.381 72.9848 186.161 73.2425C196.058 73.8023 205.815 75.8459 215.105 79.3048C215.48 79.4422 215.855 79.584 216.228 79.7259C240.447 88.9917 261.267 107.401 272.088 131.058C272.375 131.683 272.654 132.313 272.923 132.948C279.37 148.02 281.705 165.683 274.587 180.373Z" fill="#E02525"/>
<path opacity="0.1" d="M32.3853 226.49C44.1105 226.49 53.6155 224.964 53.6155 223.081C53.6155 221.197 44.1105 219.671 32.3853 219.671C20.6602 219.671 11.1552 221.197 11.1552 223.081C11.1552 224.964 20.6602 226.49 32.3853 226.49Z" fill="#E02525"/>
<path opacity="0.1" d="M222.841 244.989C243.631 244.989 260.484 243.353 260.484 241.334C260.484 239.315 243.631 237.678 222.841 237.678C202.051 237.678 185.198 239.315 185.198 241.334C185.198 243.353 202.051 244.989 222.841 244.989Z" fill="#E02525"/>
<path opacity="0.1" d="M88.2529 164.012H84.37V157.053C84.37 149.2 77.5873 142.672 69.0811 142.554C64.9997 142.491 61.0441 143.967 58.0012 146.688C56.5642 147.968 55.4102 149.534 54.6132 151.286C53.8162 153.037 53.3937 154.936 53.3727 156.861V164.013H49.5002C45.9358 164.023 43.0524 166.686 43.0398 169.975V198.586C43.0509 201.875 45.9358 204.538 49.5002 204.548H88.2529C91.8173 204.538 94.6992 201.875 94.7089 198.586V169.974C94.6992 166.686 91.8128 164.022 88.2529 164.012ZM71.1395 182.613V192.861C71.122 193.425 70.89 193.961 70.4908 194.36C70.0917 194.759 69.5554 194.99 68.9913 195.008C68.3812 195.037 67.7832 194.831 67.3212 194.431C67.1032 194.244 66.9278 194.012 66.8068 193.751C66.6858 193.49 66.6219 193.206 66.6195 192.919V182.607C65.6006 182.187 64.7636 181.419 64.2575 180.44C63.7514 179.461 63.609 178.334 63.8556 177.26C64.1912 176.19 64.8593 175.256 65.7628 174.592C66.6664 173.929 67.7581 173.571 68.8792 173.571C70.0002 173.571 71.0919 173.929 71.9954 174.592C72.899 175.256 73.5672 176.19 73.9027 177.26C74.1493 178.334 74.0069 179.461 73.5008 180.44C72.9947 181.419 72.1577 182.187 71.1388 182.607L71.1395 182.613ZM79.8581 164.013H57.8928V156.86C57.8928 151.263 62.8079 146.726 68.871 146.726C74.9341 146.726 79.8492 151.263 79.8492 156.86L79.8581 164.013Z" fill="black"/>
<path d="M89.271 165.025H85.1126V157.34C85.1126 148.669 77.8428 141.461 68.7247 141.33C64.3249 141.268 60.0703 142.903 56.8435 145.894C55.2937 147.329 54.054 149.066 53.2008 150.998C52.3476 152.929 51.8989 155.016 51.8824 157.127V165.025H47.7314C45.9421 164.986 44.2103 165.657 42.9134 166.89C41.6166 168.123 40.8599 169.819 40.8083 171.608V203.204C40.8599 204.993 41.6166 206.689 42.9134 207.922C44.2103 209.156 45.9421 209.826 47.7314 209.788H89.271C91.0599 209.826 92.7915 209.155 94.0878 207.922C95.3842 206.689 96.1403 204.993 96.191 203.204V171.609C96.1403 169.82 95.3842 168.124 94.0878 166.891C92.7915 165.658 91.0599 164.987 89.271 165.025ZM70.9294 185.564V196.88C70.9193 197.494 70.6756 198.081 70.2479 198.522C69.8202 198.962 69.2407 199.223 68.6274 199.251C67.9705 199.283 67.3276 199.055 66.8378 198.616C66.6026 198.405 66.4141 198.148 66.2845 197.86C66.1549 197.572 66.0872 197.261 66.0856 196.945V185.558C64.9815 185.073 64.0816 184.217 63.5408 183.139C63.0001 182.061 62.8525 180.828 63.1234 179.653C63.4553 178.48 64.1607 177.449 65.1323 176.714C66.104 175.979 67.2889 175.582 68.5071 175.582C69.7253 175.582 70.9102 175.979 71.8819 176.714C72.8536 177.449 73.5589 178.48 73.8908 179.653C74.1618 180.828 74.0142 182.061 73.4734 183.139C72.9327 184.217 72.0327 185.073 70.9286 185.558L70.9294 185.564ZM80.2747 165.025H56.7321V157.127C56.7321 150.947 62.0007 145.937 68.4997 145.937C74.9987 145.937 80.2673 150.947 80.2673 157.127L80.2747 165.025Z" fill="#E02525"/>
<path d="M247.381 242.435C247.254 241.797 247.037 241.181 246.736 240.605L243.85 236.298H243.867C243.867 236.298 243.413 234.133 243.867 233.07C244.322 232.008 242.246 229.393 242.246 229.393C242.183 229.135 242.187 228.864 242.258 228.608C242.329 228.351 242.465 228.118 242.653 227.929C243.311 227.121 242.246 224.754 242.246 224.754C242.246 224.754 241.741 219.812 241.691 219.057C241.64 218.302 241.234 214.118 241.234 214.118L240.269 205.246L238.557 181.734L238.525 181.294C238.737 181.19 238.85 181.125 238.85 181.125L238.508 168.124L238.805 167.858C241.388 165.52 247.345 160.109 247.285 159.991C247.225 159.874 246.563 150.957 246.487 148.724C246.42 147.138 246.073 145.576 245.462 144.112C245.313 143.814 244.882 141.865 244.704 141.04C244.656 140.817 244.625 140.669 244.625 140.669C244.625 140.669 242.879 137.341 243.031 135.828C243.182 134.315 243.485 133.183 239.763 132.654C238.008 132.386 236.317 131.797 234.775 130.915C233.675 130.153 232.472 129.551 231.202 129.126C231.202 129.126 230.158 127.202 229.432 127.854C229.124 127.168 228.894 126.449 228.746 125.711L228.725 125.577C230.104 124.615 231.097 123.193 231.524 121.567C231.548 121.476 231.567 121.382 231.589 121.291C231.661 121.315 231.736 121.329 231.812 121.332C232.444 121.332 232.834 120.627 233.425 120.403C233.666 120.31 233.962 120.295 234.147 120.106C234.208 120.033 234.254 119.948 234.281 119.857C234.308 119.765 234.317 119.669 234.306 119.575C234.312 119.509 234.312 119.443 234.306 119.377C234.306 119.354 234.306 119.331 234.306 119.307V119.331C234.145 118.456 233.467 117.679 233.541 116.789C233.616 115.952 234.349 115.216 234.289 114.401C234.288 114.337 234.282 114.272 234.272 114.209V114.238C234.182 113.92 234.017 113.628 233.791 113.387C233.532 113.034 233.192 112.748 232.8 112.554C232.466 112.406 232.078 112.374 231.766 112.199C230.847 111.698 230.849 110.395 230.304 109.505C230.07 109.134 229.738 108.834 229.345 108.64C228.952 108.445 228.513 108.362 228.076 108.401C227.393 108.469 226.775 108.832 226.099 108.949C225.159 109.042 224.212 108.876 223.36 108.468C222.512 108.061 221.595 107.816 220.657 107.746C220.188 107.718 219.722 107.834 219.321 108.078C218.921 108.323 218.604 108.685 218.416 109.115C218.267 109.596 218.341 110.113 218.223 110.6C218.079 111.02 217.85 111.406 217.55 111.734C217.25 112.061 216.886 112.324 216.48 112.505C215.999 112.771 215.427 113.077 215.278 113.582V113.543C215.267 113.584 215.259 113.625 215.254 113.666C215.249 113.72 215.249 113.774 215.254 113.827C215.296 114.177 215.4 114.518 215.559 114.833C215.788 115.459 215.783 116.147 215.545 116.771C215.367 117.227 215.064 117.629 214.891 118.084C214.809 118.295 214.756 118.517 214.732 118.742V118.704C214.726 118.806 214.726 118.909 214.732 119.012C214.729 119.363 214.812 119.71 214.972 120.022C215.083 120.237 215.235 120.429 215.421 120.584C215.606 120.74 215.821 120.857 216.052 120.928C216.533 121.039 216.834 120.567 217.341 120.688C217.432 120.71 217.521 120.738 217.608 120.772C217.625 120.88 217.641 120.988 217.661 121.094C217.967 122.713 218.83 124.173 220.099 125.223C220.105 125.282 220.114 125.341 220.126 125.399C220.28 126.358 220.346 127.328 220.326 128.299C220.326 128.299 219.568 127.19 218.529 129.331C217.37 130.023 216.15 130.605 214.883 131.072C213.948 131.25 210.627 132.409 210.627 132.409C210.126 132.771 209.523 132.965 208.905 132.964C207.865 132.964 207.008 135.232 207.132 136.465C207.257 137.699 207.058 138.608 206.093 138.659C205.127 138.709 205.655 140.664 205.662 140.698L205.573 141.119C205.385 141.98 204.979 143.827 204.83 144.115C204.219 145.58 203.871 147.142 203.803 148.728C203.729 150.96 203.082 159.844 203.007 159.995C202.957 160.094 207.038 163.824 209.907 166.43L210.322 166.805L209.002 179.137C209.041 179.612 209.182 180.074 209.416 180.489C209.65 180.904 209.972 181.264 210.359 181.542C210.359 181.687 210.359 181.834 210.345 181.988C210.356 183.215 210.22 184.439 209.941 185.634C209.537 186.442 209.638 190.776 209.638 190.776C209.638 190.776 209.232 199.597 208.727 200.556C208.286 201.62 208.129 202.78 208.27 203.923C208.418 204.317 207.763 214.913 207.763 214.913L207.258 219.653C207.258 219.653 207.406 224.188 206.953 224.289C206.499 224.39 206.243 227.517 206.243 227.517C206.243 227.517 204.625 229.734 205.332 230.54C206.04 231.345 205.229 231.701 205.154 231.901C205.079 232.101 203.61 232.866 204.673 235.681C204.683 235.709 204.694 235.736 204.706 235.763C203.711 237.146 200.555 241.607 200.748 242.285C200.89 242.716 201.191 243.078 201.59 243.295C202.332 243.74 203.607 243.947 205.635 243.295C209.001 242.21 208.761 241.429 208.761 241.429C208.778 241.063 208.935 240.719 209.199 240.465C209.463 240.212 209.814 240.07 210.18 240.068C211.132 239.914 211.997 239.42 212.613 238.678L212.449 238.069L212.226 237.228C212.253 236.988 212.424 236.566 213.192 236.337C214.358 235.984 214.052 233.766 214.052 233.766C214.052 233.766 213.951 231.448 214.456 231.145C214.961 230.842 214.762 227.011 214.762 227.011C215.084 225.429 215.541 223.877 216.127 222.372C216.935 220.506 217.902 209.419 217.902 209.419C217.902 209.419 218.558 203.975 219.164 202.412C219.704 200.462 220.094 198.474 220.331 196.464C220.331 196.464 224.08 189.204 224.128 187.591C224.128 187.591 224.61 186.078 225.094 187.739C225.578 189.4 226.926 193.383 226.926 193.383L228.241 198.272L229.812 205.58L230.827 211.732C230.827 211.732 230.673 214.05 231.068 214.858C231.462 215.666 232.033 217.528 231.726 217.881C231.42 218.235 232.332 219.899 232.587 220.25C232.842 220.601 232.587 228.063 232.587 228.063C232.587 228.063 233.751 234.414 235.422 235.519C235.539 235.595 235.663 235.66 235.793 235.711C235.77 236.399 235.745 237.32 235.776 237.801C235.773 237.908 235.791 238.015 235.829 238.115C236.486 238.749 237.238 239.276 238.057 239.679C238.413 239.679 239.676 240.562 239.728 240.989C239.781 241.417 243.429 243.23 243.946 243.284C244.463 243.337 246.969 243.787 247.313 243.082C247.398 242.876 247.422 242.649 247.383 242.43L247.381 242.435ZM238.418 151.598L238.678 151.821C238.678 151.821 238.944 153.9 239.134 154.524C239.23 155.133 239.217 155.754 239.096 156.359C239.113 156.811 239.203 157.258 239.362 157.681C239.585 158.136 238.906 159.124 238.906 159.124H238.297L238.107 151.338L238.418 151.598ZM220.326 128.348V128.302C220.321 128.317 220.318 128.333 220.318 128.348H220.326ZM210.983 158.325C210.889 158.124 210.875 157.894 210.944 157.683C210.998 157.569 211.041 157.45 211.072 157.327C211.147 157.01 211.193 156.687 211.211 156.362C211.212 156.358 211.212 156.354 211.211 156.35C211.089 155.749 211.077 155.132 211.175 154.527C211.355 153.933 211.629 151.824 211.629 151.824L211.802 151.675L212.204 151.326C212.207 151.211 212.217 151.096 212.233 150.983C212.345 152.296 212.359 153.616 212.276 154.932C212.074 155.131 211.338 157.096 211.517 157.173C211.528 157.8 211.476 158.427 211.36 159.044C211.209 158.817 211.082 158.574 210.983 158.32V158.325Z" fill="url(#paint0_linear)"/>
<path d="M230.366 130.27V133.262L224.229 136.347C224.229 136.347 218.134 132.66 219.638 131.194C220.603 130.265 220.415 127.716 220.158 125.963C220.009 124.943 219.831 124.196 219.831 124.196C219.831 124.196 230.778 121.069 229.124 123.443C228.872 123.865 228.705 124.333 228.635 124.82C228.564 125.307 228.59 125.803 228.712 126.28C229.035 127.694 229.594 129.042 230.366 130.27Z" fill="#EFC7B6"/>
<path d="M213.553 159.525L212.761 169.269C212.761 169.269 211.573 168.194 210.041 166.795C207.196 164.2 203.156 160.49 203.204 160.391C203.278 160.242 203.926 151.399 203.995 149.178C204.061 147.601 204.404 146.048 205.01 144.59C205.304 143.609 205.545 142.612 205.732 141.605C205.79 141.339 205.825 141.165 205.825 141.165L207.153 140.631C207.153 140.631 212.685 146.802 212.685 146.915C212.685 147.028 212.307 151.767 212.307 151.767L211.915 152.109L211.745 152.258C211.745 152.258 211.48 154.328 211.292 154.949C211.19 155.55 211.202 156.165 211.329 156.762C211.311 157.087 211.265 157.41 211.191 157.727C211.16 157.849 211.117 157.967 211.064 158.081C210.996 158.291 211.01 158.519 211.102 158.72C211.209 158.999 211.348 159.264 211.516 159.511L213.553 159.525Z" fill="#3F3D56"/>
<path d="M247.075 160.391C247.133 160.509 241.234 165.893 238.678 168.218L237.519 169.269L236.734 159.524H238.767C238.767 159.524 239.445 158.546 239.219 158.093C239.061 157.672 238.973 157.228 238.957 156.778C239.076 156.177 239.088 155.559 238.993 154.953C238.805 154.33 238.541 152.262 238.541 152.262L238.283 152.039L237.978 151.773C237.978 151.773 237.601 147.033 237.601 146.92C237.601 146.807 243.132 140.636 243.132 140.636L244.45 141.163C244.45 141.163 244.479 141.305 244.525 141.534C244.703 142.351 245.128 144.295 245.275 144.59C245.88 146.048 246.224 147.602 246.29 149.179C246.354 151.399 246.998 160.239 247.075 160.391Z" fill="#3F3D56"/>
<path d="M247.099 243.103C246.746 243.806 244.264 243.344 243.752 243.305C243.239 243.267 239.622 241.449 239.572 241.02C239.521 240.592 238.269 239.717 237.917 239.717C237.105 239.314 236.361 238.788 235.71 238.158C235.671 238.058 235.654 237.952 235.659 237.845C235.606 237.02 235.71 234.897 235.71 234.897L242.987 235.299L246.522 240.616C246.82 241.189 247.035 241.803 247.162 242.437C247.205 242.659 247.184 242.889 247.101 243.1L247.099 243.103Z" fill="#3F3D56"/>
<path opacity="0.1" d="M247.099 243.103C246.746 243.806 244.264 243.344 243.752 243.305C243.239 243.267 239.622 241.449 239.572 241.02C239.521 240.592 238.269 239.717 237.917 239.717C237.105 239.314 236.361 238.788 235.71 238.158C235.671 238.058 235.654 237.952 235.659 237.845C235.606 237.02 235.71 234.897 235.71 234.897L242.987 235.299L246.522 240.616C246.82 241.189 247.035 241.803 247.162 242.437C247.205 242.659 247.184 242.889 247.101 243.1L247.099 243.103Z" fill="black"/>
<path opacity="0.1" d="M247.099 243.103C246.746 243.806 244.264 243.344 243.752 243.305C243.239 243.267 239.622 241.449 239.572 241.02C239.521 240.592 238.268 239.717 237.917 239.717C237.105 239.314 236.361 238.788 235.71 238.158C235.671 238.058 235.654 237.952 235.659 237.845L238.016 239.336C238.712 239.767 239.353 240.281 239.923 240.868C240.325 241.439 243.487 242.624 243.752 242.65C244.878 242.472 246.019 242.401 247.159 242.439C247.202 242.661 247.181 242.891 247.099 243.103V243.103Z" fill="black"/>
<path d="M212.71 238.715C212.102 239.451 211.247 239.94 210.305 240.093C209.942 240.096 209.594 240.238 209.333 240.49C209.071 240.742 208.917 241.084 208.9 241.447C208.9 241.447 209.141 242.226 205.815 243.303C203.81 243.95 202.548 243.749 201.805 243.303C201.41 243.085 201.112 242.726 200.971 242.298C200.748 241.497 205.184 235.401 205.184 235.401L209.224 235.16L212.11 236.463L212.555 238.116L212.71 238.715Z" fill="#3F3D56"/>
<path opacity="0.1" d="M212.71 238.715C212.102 239.451 211.247 239.94 210.305 240.093C209.942 240.096 209.594 240.238 209.333 240.49C209.071 240.742 208.917 241.084 208.9 241.447C208.9 241.447 209.141 242.226 205.815 243.303C203.81 243.95 202.548 243.749 201.805 243.303C201.41 243.085 201.112 242.726 200.971 242.298C200.748 241.497 205.184 235.401 205.184 235.401L209.224 235.16L212.11 236.463L212.555 238.116L212.71 238.715Z" fill="black"/>
<path opacity="0.1" d="M212.71 238.715C212.102 239.451 211.247 239.94 210.305 240.093C209.942 240.096 209.594 240.238 209.333 240.49C209.071 240.742 208.917 241.084 208.9 241.447C208.9 241.447 209.141 242.226 205.815 243.303C203.81 243.95 202.548 243.749 201.805 243.303C203.698 243.106 207.88 241.911 208.298 241.497C208.801 240.994 209.428 239.614 209.858 239.59C210.802 239.179 211.706 238.682 212.558 238.105L212.71 238.715Z" fill="black"/>
<path d="M243.686 233.121C243.234 234.174 243.686 236.331 243.686 236.331C243.686 236.331 236.953 236.682 235.308 235.578C233.663 234.474 232.499 228.152 232.499 228.152C232.499 228.152 232.739 220.727 232.499 220.378C232.258 220.029 231.344 218.373 231.645 218.021C231.945 217.669 231.404 215.813 230.993 215.01C230.581 214.206 230.752 211.9 230.752 211.9L229.747 205.778L228.193 198.506L226.873 193.638C226.873 193.638 225.519 189.675 225.06 188.021C224.6 186.366 224.114 187.872 224.114 187.872C224.066 189.478 220.353 196.703 220.353 196.703C220.119 198.702 219.733 200.681 219.198 202.621C218.597 204.175 217.943 209.595 217.943 209.595C217.943 209.595 216.977 220.632 216.187 222.488C215.612 223.986 215.165 225.53 214.851 227.103C214.851 227.103 215.053 230.917 214.554 231.218C214.055 231.518 214.133 233.827 214.133 233.827C214.133 233.827 214.43 236.033 213.279 236.386C212.128 236.74 212.316 237.49 212.316 237.49C212.316 237.49 205.894 238.542 204.842 235.732C203.789 232.921 205.243 232.173 205.323 231.971C205.402 231.769 206.203 231.42 205.501 230.614C204.799 229.808 206.402 227.606 206.402 227.606C206.402 227.606 206.655 224.497 207.105 224.396C207.555 224.295 207.408 219.781 207.408 219.781L207.908 215.065C207.908 215.065 208.563 204.529 208.411 204.127C208.269 202.985 208.425 201.825 208.863 200.76C209.366 199.795 209.765 191.025 209.765 191.025C209.765 191.025 209.664 186.713 210.062 185.91C210.343 184.722 210.477 183.503 210.461 182.281C210.504 181.192 210.514 180.29 210.514 180.29L216.132 178.183L223.346 175.877L229.416 178.787L238.297 180.495L238.408 182.027L240.103 205.428L241.069 214.257C241.069 214.257 241.47 218.419 241.521 219.172C241.571 219.925 242.072 224.843 242.072 224.843C242.072 224.843 243.125 227.2 242.474 228.003C242.288 228.189 242.154 228.419 242.083 228.672C242.013 228.925 242.009 229.191 242.072 229.446C242.072 229.446 244.139 232.069 243.686 233.121Z" fill="#3F3D56"/>
<path opacity="0.1" d="M229.125 123.442C228.873 123.864 228.707 124.333 228.636 124.82C228.566 125.307 228.592 125.803 228.714 126.279C227.45 127.171 225.928 127.623 224.383 127.565C222.837 127.507 221.353 126.943 220.159 125.959C220.011 124.94 219.833 124.192 219.833 124.192C219.833 124.192 230.78 121.071 229.125 123.442Z" fill="black"/>
<path d="M231.684 120.374C231.676 121.995 231.107 123.563 230.074 124.812C229.04 126.06 227.606 126.913 226.015 127.223C224.424 127.534 222.774 127.284 221.347 126.515C219.92 125.747 218.803 124.508 218.186 123.008C217.569 121.509 217.491 119.843 217.964 118.292C218.437 116.742 219.433 115.404 220.782 114.505C222.131 113.606 223.75 113.202 225.363 113.361C226.976 113.521 228.484 114.235 229.63 115.381C230.284 116.038 230.802 116.816 231.154 117.673C231.507 118.53 231.687 119.447 231.684 120.374Z" fill="#EFC7B6"/>
<path opacity="0.1" d="M233.151 132.083L230.842 173.194L218.301 170.559L215.817 154.078L218.277 131.953L220.129 132.192L223.396 132.608L226.631 132.807L230.137 132.417L233.151 132.083Z" fill="black"/>
<path d="M233.151 132.383L230.842 173.494L218.301 170.861L215.817 154.381L218.277 132.259L220.129 132.494L223.396 132.91L226.631 133.11L230.137 132.72L233.151 132.383Z" fill="#EBEBEB"/>
<path d="M222.842 133.487L227.358 133.636L226.088 135.413C226.088 135.413 226.177 139.003 226.781 140.033C227.385 141.062 227.206 156.963 227.206 156.963L226.004 159.245L223.948 156.686L223.975 135.691L222.842 133.487Z" fill="#3F3D56"/>
<path opacity="0.1" d="M222.842 133.487L227.358 133.636L226.088 135.413C226.088 135.413 226.177 139.003 226.781 140.033C227.385 141.062 227.206 156.963 227.206 156.963L226.004 159.245L223.948 156.686L223.975 135.691L222.842 133.487Z" fill="black"/>
<path opacity="0.1" d="M229.914 128.822L225.7 133.487L228.108 135.996L232.098 132.107L229.914 128.822Z" fill="black"/>
<path d="M229.914 128.521L225.7 133.187L228.108 135.695L232.098 131.806L229.914 128.521Z" fill="#EBEBEB"/>
<path opacity="0.1" d="M223.921 133.261L219.654 128.997L219.253 131.229L221.21 136.12L223.921 133.261Z" fill="black"/>
<path d="M224.073 132.96L219.81 128.696L219.408 130.928L221.365 135.819L224.073 132.96Z" fill="#EBEBEB"/>
<path opacity="0.1" d="M238.43 182.027C236.382 183.003 234.189 183.637 231.937 183.905C227.798 184.432 225.09 179.165 225.09 179.165L223.51 181.222C223.007 183.406 215.357 183.956 212.248 183.129C211.604 182.969 210.998 182.682 210.466 182.284C210.509 181.195 210.519 180.293 210.519 180.293L216.136 178.186L223.351 175.88L229.421 178.79L238.302 180.498L238.43 182.027Z" fill="black"/>
<path opacity="0.1" d="M233.151 132.386L230.844 173.495L218.301 170.862L215.812 154.384L218.269 132.259L220.121 132.499C220.074 133.305 219.983 134.108 219.85 134.904C219.553 136.312 221.409 146.294 221.409 146.294C221.409 146.294 224.937 157.488 226.524 155.873C228.111 154.258 230.372 145.739 230.372 145.739C231.904 142.58 230.399 133.715 230.285 133.537C230.206 133.275 230.158 133.005 230.141 132.732L233.151 132.386Z" fill="black"/>
<path opacity="0.1" d="M238.569 164.197L238.675 168.226L237.516 169.277L236.734 159.525H238.465L238.569 164.197Z" fill="black"/>
<path opacity="0.1" d="M211.332 156.766C211.314 157.092 211.268 157.415 211.194 157.732C211.194 157.643 211.194 157.592 211.175 157.583C211.103 157.563 211.19 157.195 211.332 156.766Z" fill="black"/>
<path opacity="0.1" d="M213.553 159.525L212.761 169.269C212.761 169.269 211.573 168.194 210.041 166.795L210.224 165.068C210.224 165.068 210.87 160.826 211.107 158.734C211.214 159.013 211.352 159.278 211.52 159.525H213.553Z" fill="black"/>
<path d="M220.357 128.846C220.357 128.846 219.607 127.742 218.575 129.873C217.429 130.561 216.221 131.14 214.967 131.604C214.044 131.78 210.759 132.934 210.759 132.934C210.262 133.294 209.664 133.486 209.051 133.485C208.022 133.485 207.168 135.743 207.294 136.975C207.419 138.207 207.219 139.109 206.267 139.159C205.314 139.21 205.839 141.189 205.839 141.189L212.186 148.466C212.186 148.466 212.587 155.163 212.388 155.365C212.188 155.567 211.459 157.53 211.635 157.597C211.81 157.664 210.669 165.071 210.669 165.071L209.14 179.445C209.14 179.445 209.14 181.85 212.252 182.679C215.364 183.509 223.019 182.961 223.511 180.777L225.092 178.718C225.092 178.718 227.8 183.991 231.938 183.461C234.3 183.193 236.594 182.505 238.713 181.428L238.26 164.2L237.963 151.784L244.424 141.165C244.424 141.165 242.692 137.854 242.844 136.355C242.995 134.857 243.294 133.722 239.607 133.196C239.607 133.196 236.498 132.732 234.665 131.464C233.576 130.707 232.386 130.107 231.129 129.682C231.129 129.682 230.095 127.758 229.376 128.419C229.667 129.445 229.888 130.49 230.038 131.546C230.016 132.363 230.091 133.18 230.261 133.979C230.374 134.169 231.879 143.021 230.348 146.181C230.348 146.181 228.099 154.701 226.5 156.315C224.9 157.929 221.385 146.736 221.385 146.736C221.385 146.736 219.528 136.751 219.825 135.346C220.122 133.941 220.357 128.846 220.357 128.846Z" fill="#3F3D56"/>
<path d="M225.724 161.732C226.334 161.732 226.828 161.238 226.828 160.629C226.828 160.019 226.334 159.525 225.724 159.525C225.115 159.525 224.621 160.019 224.621 160.629C224.621 161.238 225.115 161.732 225.724 161.732Z" fill="#3F3D56"/>
<path d="M225.724 166.936C226.334 166.936 226.828 166.442 226.828 165.833C226.828 165.223 226.334 164.729 225.724 164.729C225.115 164.729 224.621 165.223 224.621 165.833C224.621 166.442 225.115 166.936 225.724 166.936Z" fill="#3F3D56"/>
<path opacity="0.1" d="M225.724 161.732C226.334 161.732 226.828 161.238 226.828 160.629C226.828 160.019 226.334 159.525 225.724 159.525C225.115 159.525 224.621 160.019 224.621 160.629C224.621 161.238 225.115 161.732 225.724 161.732Z" fill="black"/>
<path opacity="0.1" d="M225.724 166.936C226.334 166.936 226.828 166.442 226.828 165.833C226.828 165.223 226.334 164.729 225.724 164.729C225.115 164.729 224.621 165.223 224.621 165.833C224.621 166.442 225.115 166.936 225.724 166.936Z" fill="black"/>
<path opacity="0.1" d="M235.645 231.616C235.645 231.616 240.175 231.967 240.625 232.318C241.076 232.669 235.645 231.616 235.645 231.616Z" fill="black" stroke="#6C63FF" stroke-width="0.324" stroke-miterlimit="10"/>
<path opacity="0.1" d="M208.67 228.054C208.67 228.054 209.635 229.257 209.223 229.81C208.811 230.363 208.67 228.054 208.67 228.054Z" fill="black" stroke="#6C63FF" stroke-width="0.324" stroke-miterlimit="10"/>
<path opacity="0.1" d="M209.823 232.39C209.823 232.39 211.579 231.236 212.281 232.003C212.984 232.771 209.823 232.39 209.823 232.39Z" fill="black" stroke="#6C63FF" stroke-width="0.324" stroke-miterlimit="10"/>
<path opacity="0.1" d="M231.684 120.374C231.687 120.975 231.612 121.574 231.461 122.156C231.313 122.088 231.189 121.977 231.105 121.837C231.022 121.697 230.984 121.534 230.995 121.372C231.026 121.086 231.218 120.824 231.175 120.539C231.115 120.102 230.587 119.924 230.307 119.574C230.038 119.098 229.953 118.54 230.067 118.006C230.096 117.464 229.958 116.803 229.451 116.618C229.303 116.563 229.134 116.558 228.987 116.495C228.588 116.327 228.467 115.831 228.198 115.49C227.884 115.187 227.483 114.991 227.052 114.929C226.62 114.867 226.18 114.942 225.793 115.144C225.441 115.313 225.079 115.464 224.711 115.596C224.527 115.661 224.331 115.687 224.136 115.673C223.941 115.658 223.752 115.604 223.579 115.512C223.42 115.411 223.293 115.271 223.129 115.17C222.833 115.055 222.508 115.034 222.199 115.11C221.891 115.185 221.613 115.353 221.402 115.591C220.991 116.08 220.504 116.5 219.96 116.835C219.693 116.955 219.366 117.027 219.238 117.287C219.177 117.428 219.151 117.583 219.164 117.737C219.233 118.671 219.205 119.61 219.08 120.538C218.955 121.127 218.541 121.796 217.942 121.727C217.867 121.715 217.794 121.697 217.723 121.671C217.543 120.708 217.565 119.717 217.789 118.764C218.013 117.81 218.434 116.913 219.024 116.131C219.614 115.348 220.361 114.698 221.217 114.22C222.073 113.743 223.019 113.45 223.995 113.359C224.97 113.268 225.954 113.381 226.884 113.692C227.813 114.003 228.667 114.504 229.392 115.163C230.117 115.823 230.696 116.627 231.092 117.523C231.489 118.419 231.694 119.388 231.695 120.368L231.684 120.374Z" fill="black"/>
<path d="M217.401 121.277C217.582 121.317 217.753 121.411 217.938 121.436C218.536 121.51 218.95 120.841 219.075 120.247C219.205 119.319 219.234 118.38 219.162 117.446C219.149 117.292 219.174 117.137 219.236 116.996C219.374 116.736 219.703 116.664 219.958 116.543C220.5 116.205 220.987 115.786 221.401 115.3C221.609 115.06 221.887 114.891 222.196 114.816C222.505 114.74 222.83 114.762 223.125 114.879C223.286 114.976 223.416 115.12 223.575 115.221C223.749 115.311 223.939 115.365 224.134 115.38C224.329 115.394 224.526 115.369 224.711 115.305C225.082 115.194 225.432 115 225.79 114.853C226.177 114.652 226.617 114.577 227.048 114.639C227.479 114.7 227.881 114.895 228.196 115.196C228.462 115.54 228.585 116.033 228.984 116.202C229.133 116.264 229.297 116.272 229.448 116.327C229.955 116.517 230.085 117.173 230.064 117.714C229.958 118.249 230.043 118.804 230.304 119.283C230.584 119.624 231.112 119.803 231.172 120.248C231.211 120.532 231.024 120.796 230.992 121.081C230.985 121.186 230.999 121.292 231.033 121.392C231.067 121.492 231.121 121.584 231.191 121.663C231.261 121.743 231.346 121.807 231.441 121.853C231.536 121.899 231.639 121.926 231.745 121.932C232.37 121.932 232.757 121.232 233.342 121.008C233.6 120.96 233.846 120.859 234.063 120.711C234.134 120.619 234.184 120.514 234.209 120.401C234.235 120.289 234.236 120.172 234.212 120.059C234.094 119.138 233.356 118.337 233.435 117.414C233.509 116.529 234.326 115.757 234.157 114.889C234.069 114.568 233.903 114.273 233.676 114.031C233.418 113.681 233.082 113.397 232.695 113.201C232.346 113.102 232.004 112.984 231.668 112.848C230.759 112.35 230.761 111.051 230.225 110.166C229.995 109.8 229.668 109.505 229.281 109.313C228.894 109.12 228.462 109.038 228.031 109.075C227.356 109.142 226.742 109.5 226.074 109.62C225.143 109.713 224.204 109.547 223.361 109.139C222.523 108.733 221.617 108.488 220.688 108.417C220.223 108.391 219.761 108.507 219.364 108.75C218.967 108.993 218.654 109.352 218.466 109.779C218.318 110.26 218.392 110.774 218.276 111.258C218.133 111.675 217.906 112.058 217.609 112.384C217.312 112.71 216.952 112.972 216.55 113.153C216.023 113.45 215.391 113.783 215.328 114.382C215.344 114.763 215.445 115.135 215.625 115.471C215.85 116.094 215.845 116.776 215.611 117.395C215.436 117.85 215.142 118.249 214.964 118.701C214.838 119.008 214.778 119.338 214.789 119.67C214.8 120.002 214.881 120.327 215.027 120.625C215.139 120.843 215.294 121.035 215.483 121.19C215.672 121.345 215.891 121.459 216.126 121.527C216.598 121.632 216.896 121.162 217.401 121.277Z" fill="#3F3D56"/>
<g opacity="0.1">
<path opacity="0.1" d="M219.073 119.722C218.948 120.311 218.532 120.98 217.933 120.91C217.748 120.886 217.58 120.792 217.397 120.751C216.894 120.64 216.597 121.112 216.123 120.991C215.888 120.924 215.669 120.809 215.479 120.654C215.29 120.499 215.134 120.307 215.022 120.09C214.896 119.845 214.82 119.578 214.799 119.304C214.751 119.729 214.828 120.16 215.022 120.542C215.134 120.759 215.29 120.952 215.479 121.107C215.669 121.262 215.888 121.376 216.123 121.444C216.604 121.554 216.895 121.083 217.397 121.203C217.573 121.264 217.752 121.317 217.933 121.36C218.532 121.434 218.948 120.766 219.073 120.177C219.171 119.656 219.21 119.126 219.188 118.597C219.186 118.975 219.147 119.353 219.073 119.725V119.722Z" fill="black"/>
<path opacity="0.1" d="M215.78 116.1C215.811 115.706 215.757 115.31 215.622 114.939C215.513 114.692 215.421 114.438 215.345 114.179C215.335 114.219 215.327 114.26 215.322 114.302C215.339 114.682 215.44 115.054 215.619 115.391C215.703 115.619 215.756 115.858 215.777 116.1H215.78Z" fill="black"/>
<path opacity="0.1" d="M234.154 114.833C234.041 115.516 233.486 116.157 233.432 116.877C233.419 117 233.419 117.125 233.432 117.248C233.553 116.408 234.296 115.665 234.154 114.833Z" fill="black"/>
<path opacity="0.1" d="M234.195 119.907C234.174 120.008 234.127 120.101 234.057 120.177C233.879 120.367 233.576 120.381 233.336 120.474C232.751 120.697 232.37 121.404 231.739 121.398C231.577 121.389 231.421 121.33 231.292 121.231C231.163 121.131 231.067 120.995 231.017 120.84C231.003 120.892 230.992 120.945 230.984 120.999C230.977 121.104 230.991 121.21 231.025 121.31C231.06 121.409 231.113 121.501 231.183 121.58C231.253 121.659 231.338 121.724 231.433 121.769C231.528 121.815 231.632 121.842 231.737 121.848C232.364 121.848 232.749 121.148 233.333 120.927C233.574 120.833 233.867 120.818 234.055 120.63C234.126 120.538 234.176 120.433 234.201 120.32C234.227 120.208 234.228 120.091 234.204 119.978C234.202 119.948 234.197 119.929 234.195 119.907Z" fill="black"/>
<path opacity="0.1" d="M231.177 119.708C231.117 119.27 230.588 119.092 230.309 118.742C230.138 118.515 230.045 118.238 230.045 117.954C229.977 118.386 230.071 118.828 230.309 119.194C230.585 119.531 231.006 119.676 231.141 120.022C231.175 119.921 231.187 119.814 231.177 119.708Z" fill="black"/>
<path opacity="0.1" d="M230.063 117.192C230.082 116.651 229.952 115.99 229.445 115.805C229.297 115.75 229.13 115.742 228.983 115.682C228.584 115.514 228.459 115.018 228.195 114.677C227.88 114.375 227.479 114.179 227.048 114.117C226.616 114.055 226.176 114.129 225.79 114.331C225.429 114.479 225.085 114.672 224.71 114.783C224.526 114.848 224.33 114.874 224.135 114.86C223.94 114.845 223.75 114.791 223.577 114.699C223.418 114.598 223.289 114.458 223.127 114.357C222.831 114.242 222.507 114.221 222.198 114.296C221.889 114.371 221.611 114.54 221.401 114.778C220.99 115.267 220.502 115.687 219.958 116.021C219.689 116.142 219.364 116.214 219.222 116.474C219.161 116.615 219.136 116.77 219.148 116.924C219.148 117.017 219.148 117.111 219.148 117.205C219.151 117.108 219.175 117.013 219.218 116.926C219.357 116.666 219.684 116.594 219.954 116.474C220.495 116.136 220.982 115.716 221.396 115.231C221.605 114.991 221.884 114.821 222.193 114.746C222.502 114.67 222.827 114.693 223.123 114.81C223.284 114.906 223.414 115.05 223.573 115.149C223.745 115.241 223.935 115.296 224.13 115.31C224.325 115.325 224.521 115.298 224.705 115.233C225.073 115.102 225.433 114.952 225.785 114.783C226.172 114.581 226.612 114.506 227.043 114.568C227.474 114.63 227.876 114.825 228.19 115.127C228.455 115.468 228.58 115.964 228.979 116.132C229.127 116.194 229.292 116.202 229.441 116.257C229.634 116.359 229.794 116.515 229.902 116.704C230.01 116.894 230.062 117.111 230.052 117.329L230.063 117.192Z" fill="black"/>
</g>
<g opacity="0.1">
<path opacity="0.1" d="M218.217 119.708C218.231 119.308 218.374 118.924 218.624 118.614C218.875 118.303 219.22 118.081 219.607 117.983C220.68 117.722 221.805 117.773 222.849 118.132C225.131 118.887 222.56 121.604 222.56 121.604C222.56 121.604 220.852 123.287 219.256 122.111C218.785 121.755 218.455 121.244 218.325 120.668C218.247 120.354 218.21 120.031 218.217 119.708Z" fill="black"/>
<path opacity="0.1" d="M230.763 119.708C230.749 119.308 230.605 118.924 230.354 118.613C230.103 118.302 229.758 118.081 229.37 117.983C228.299 117.722 227.174 117.774 226.131 118.132C223.849 118.887 226.42 121.604 226.42 121.604C226.42 121.604 228.128 123.287 229.724 122.111C230.195 121.755 230.525 121.244 230.655 120.668C230.733 120.355 230.769 120.032 230.763 119.709L230.763 119.708Z" fill="black"/>
<path opacity="0.1" d="M222.417 117.911V118.023H226.585V117.889L222.417 117.911Z" fill="black"/>
<path opacity="0.1" d="M223.751 119.113H223.883V118.731C224.053 118.629 224.248 118.575 224.446 118.575C224.645 118.575 224.839 118.629 225.009 118.731V119.073H225.25V118.85H225.132C225.132 118.85 225.18 118.386 224.396 118.46C224.396 118.46 223.765 118.4 223.78 118.799H223.636L223.751 119.113Z" fill="black"/>
</g>
<path d="M218.217 119.551C218.231 119.152 218.374 118.768 218.624 118.457C218.875 118.146 219.22 117.925 219.607 117.827C220.68 117.567 221.804 117.618 222.849 117.975C225.131 118.733 222.56 121.447 222.56 121.447C222.56 121.447 220.852 123.131 219.256 121.955C218.784 121.6 218.454 121.088 218.325 120.512C218.247 120.198 218.21 119.876 218.217 119.552V119.551Z" fill="#E02525"/>
<path d="M230.763 119.551C230.749 119.151 230.605 118.767 230.354 118.456C230.103 118.145 229.758 117.924 229.37 117.827C228.298 117.567 227.175 117.618 226.131 117.975C223.849 118.733 226.42 121.447 226.42 121.447C226.42 121.447 228.128 123.131 229.724 121.955C230.196 121.599 230.526 121.088 230.655 120.512C230.733 120.198 230.769 119.875 230.763 119.551Z" fill="#E02525"/>
<path d="M222.417 117.757V117.872H226.585V117.735L222.417 117.757Z" fill="#6C63FF"/>
<path d="M223.751 118.962H223.883V118.58C224.054 118.478 224.248 118.425 224.446 118.425C224.644 118.425 224.839 118.478 225.009 118.58V118.923H225.25V118.701H225.132C225.132 118.701 225.18 118.239 224.396 118.311C224.396 118.311 223.765 118.253 223.78 118.65H223.636L223.751 118.962Z" fill="#6C63FF"/>
<defs>
<filter id="filter0_d" x="0.455444" y="0.455444" width="298.634" height="298.634" filterUnits="userSpaceOnUse" color-interpolation-filters="sRGB">
<feFlood flood-opacity="0" result="BackgroundImageFix"/>
<feColorMatrix in="SourceAlpha" type="matrix" values="0 0 0 0 0 0 0 0 0 0 0 0 0 0 0 0 0 0 127 0"/>
<feOffset dx="3" dy="3"/>
<feGaussianBlur stdDeviation="3"/>
<feColorMatrix type="matrix" values="0 0 0 0 0 0 0 0 0 0 0 0 0 0 0 0 0 0 0.161 0"/>
<feBlend mode="normal" in2="BackgroundImageFix" result="effect1_dropShadow"/>
<feBlend mode="normal" in="SourceGraphic" in2="effect1_dropShadow" result="shape"/>
</filter>
<linearGradient id="paint0_linear" x1="224.07" y1="243.71" x2="224.07" y2="107.742" gradientUnits="userSpaceOnUse">
<stop stop-color="#808080" stop-opacity="0.251"/>
<stop offset="0.54" stop-color="#808080" stop-opacity="0.122"/>
<stop offset="1" stop-color="#808080" stop-opacity="0.102"/>
</linearGradient>
</defs>
</svg>
