<svg width="300" height="300" viewBox="0 0 300 300" fill="none" xmlns="http://www.w3.org/2000/svg">
<g filter="url(#filter0_d)">
<path d="M147.686 290.746C226.696 290.746 290.745 226.696 290.745 147.686C290.745 68.677 226.696 4.62726 147.686 4.62726C68.6769 4.62726 4.6272 68.677 4.6272 147.686C4.6272 226.696 68.6769 290.746 147.686 290.746Z" fill="white"/>
</g>
<path d="M111.801 191.154C111.03 191.154 110.259 191.142 109.497 191.118L109.514 190.565C110.607 190.599 111.723 190.608 112.821 190.593L112.829 191.147C112.487 191.152 112.144 191.154 111.801 191.154ZM116.158 191.026L116.125 190.474C117.22 190.409 118.329 190.319 119.421 190.204L119.479 190.754C118.379 190.869 117.264 190.96 116.159 191.025L116.158 191.026ZM106.17 190.94C105.066 190.855 103.95 190.744 102.854 190.609L102.922 190.06C104.01 190.194 105.116 190.304 106.212 190.387L106.17 190.94ZM122.784 190.331L122.701 189.784C123.788 189.619 124.885 189.427 125.958 189.214L126.066 189.754C124.984 189.971 123.88 190.164 122.784 190.33V190.331ZM99.5576 190.129C98.4671 189.944 97.3666 189.732 96.2861 189.497L96.4033 188.958C97.4753 189.189 98.5681 189.401 99.6501 189.584L99.5576 190.129ZM129.318 189.032L129.185 188.492C130.252 188.229 131.327 187.936 132.376 187.626L132.531 188.156C131.476 188.472 130.394 188.766 129.319 189.032L129.318 189.032ZM93.0478 188.715C91.9781 188.43 90.9015 188.117 89.8481 187.784L90.0146 187.256C91.0604 187.587 92.1285 187.897 93.1897 188.182L93.0478 188.715ZM135.706 187.137L135.524 186.614C136.56 186.254 137.603 185.864 138.622 185.457L138.827 185.971C137.799 186.382 136.75 186.774 135.706 187.137ZM86.6869 186.703C85.6481 186.318 84.6046 185.91 83.5797 185.479L83.7948 184.968C84.8098 185.395 85.847 185.804 86.8797 186.183L86.6869 186.703ZM141.885 184.664L141.653 184.161C142.648 183.709 143.648 183.226 144.625 182.726L144.878 183.219C143.894 183.72 142.887 184.209 141.885 184.665V184.664ZM147.804 181.638L147.53 181.158C148.484 180.613 149.436 180.041 150.36 179.456L150.656 179.924C149.727 180.513 148.768 181.09 147.804 181.638ZM153.427 178.08L153.11 177.627C154.009 176.999 154.906 176.341 155.776 175.673L156.113 176.112C155.239 176.786 154.335 177.447 153.43 178.08L153.427 178.08ZM69.0786 177.301C68.1856 176.652 67.2933 175.972 66.4265 175.28L66.772 174.847C67.6319 175.534 68.518 176.209 69.4041 176.853L69.0786 177.301ZM158.708 174.023L158.351 173.6C159.188 172.893 160.022 172.157 160.828 171.411L161.203 171.817C160.392 172.569 159.552 173.309 158.708 174.023H158.708ZM63.8691 173.142C63.037 172.413 62.211 171.655 61.4128 170.889L61.7984 170.489C62.5905 171.25 63.4103 172.002 64.2362 172.726L63.8691 173.142ZM163.598 169.5L163.204 169.114C163.975 168.332 164.739 167.523 165.474 166.708L165.885 167.078C165.145 167.899 164.376 168.715 163.598 169.503V169.5ZM59.0622 168.527C58.2987 167.725 57.5452 166.896 56.8218 166.06L57.2398 165.697C57.9578 166.525 58.7051 167.347 59.4632 168.144L59.0622 168.527ZM168.059 164.548L167.632 164.196C168.326 163.348 169.016 162.472 169.674 161.593L170.117 161.924C169.454 162.81 168.762 163.693 168.059 164.548ZM54.6964 163.498C54.0108 162.632 53.336 161.737 52.6912 160.84L53.1401 160.517C53.781 161.408 54.4511 162.295 55.1313 163.154L54.6964 163.498ZM172.052 159.209L171.594 158.9C172.211 157.992 172.815 157.056 173.39 156.12L173.862 156.41C173.283 157.351 172.674 158.293 172.052 159.21V159.209ZM50.8079 158.094C50.2049 157.168 49.6149 156.218 49.0535 155.266L49.5301 154.985C50.0869 155.93 50.673 156.874 51.2714 157.791L50.8079 158.094ZM175.542 153.525L175.058 153.257C175.589 152.296 176.105 151.309 176.593 150.322L177.089 150.568C176.598 151.561 176.078 152.556 175.542 153.524V153.525ZM178.498 147.542L177.991 147.32C178.432 146.313 178.856 145.282 179.25 144.254L179.766 144.453C179.369 145.488 178.942 146.527 178.498 147.542ZM44.5936 146.348C44.1694 145.33 43.763 144.288 43.3858 143.252L43.9064 143.063C44.2804 144.092 44.6838 145.125 45.1041 146.135L44.5936 146.348ZM180.888 141.308L180.363 141.133C180.709 140.093 181.034 139.029 181.332 137.971L181.865 138.121C181.568 139.188 181.239 140.26 180.888 141.308ZM42.3177 140.095C41.9884 139.04 41.6792 137.962 41.3984 136.892L41.9337 136.751C42.2121 137.814 42.5198 138.883 42.846 139.929L42.3177 140.095ZM182.692 134.893L182.152 134.768C182.4 133.701 182.627 132.608 182.826 131.529L183.37 131.629C183.174 132.722 182.945 133.819 182.695 134.894L182.692 134.893ZM40.6303 133.65C40.399 132.571 40.1907 131.469 40.0134 130.377L40.5594 130.286C40.7391 131.365 40.945 132.462 41.1763 133.535L40.6303 133.65ZM183.901 128.342L183.352 128.265C183.501 127.181 183.627 126.076 183.726 124.98L184.278 125.029C184.178 126.136 184.05 127.25 183.902 128.342H183.901ZM39.5398 127.079C39.4095 125.983 39.3023 124.868 39.2213 123.763L39.7735 123.722C39.8506 124.818 39.9601 125.926 40.0897 127.013L39.5398 127.079ZM184.503 121.708L183.95 121.683C183.999 120.587 184.027 119.475 184.027 118.378H184.581C184.578 119.479 184.553 120.603 184.503 121.708ZM39.0532 120.435C39.0339 119.756 39.0247 119.064 39.0247 118.377C39.0247 117.952 39.0283 117.526 39.0355 117.102L39.5892 117.112C39.582 117.533 39.5784 117.955 39.5784 118.377C39.5784 119.058 39.5884 119.745 39.6069 120.419L39.0532 120.435ZM39.7203 113.808L39.1681 113.772C39.2375 112.666 39.3324 111.549 39.4511 110.455L40.001 110.515C39.883 111.604 39.7889 112.712 39.7203 113.809V113.808ZM183.665 110.432C183.554 109.34 183.403 108.812 183.241 107.722L183.789 107.645C183.951 108.74 184.089 109.573 184.201 110.674L183.665 110.432ZM40.4329 107.235L39.8861 107.15C40.0558 106.055 40.2524 104.951 40.4714 103.87L41.0113 103.98C40.7938 105.053 40.5987 106.148 40.4306 107.235H40.4329ZM182.685 104.463C182.474 103.383 182.237 102.297 181.977 101.233L182.517 101.102C182.778 102.174 183.018 103.269 183.231 104.357L182.685 104.463ZM41.7432 100.755L41.2033 100.621C41.4717 99.549 41.7694 98.4686 42.0879 97.4081L42.6177 97.567C42.3023 98.6189 42.01 99.6917 41.7432 100.755ZM181.12 98.039C180.811 96.9855 180.474 95.9251 180.117 94.8878L180.64 94.7081C180.999 95.7531 181.34 96.8213 181.65 97.8832L181.12 98.039ZM43.6488 94.4143L43.1267 94.2308C43.4946 93.1842 43.8918 92.1331 44.3067 91.1066L44.8195 91.3141C44.4077 92.3321 44.0136 93.3763 43.6488 94.4143ZM178.973 91.7868C178.569 90.768 178.137 89.7462 177.687 88.7483L178.192 88.5208C178.645 89.5233 179.081 90.556 179.487 91.5824L178.973 91.7868ZM46.1329 88.2724L45.6301 88.0411C46.0928 87.0346 46.584 86.0251 47.0954 85.0411L47.5874 85.2948C47.0792 86.2711 46.591 87.2729 46.1329 88.2724ZM176.261 85.7714C175.766 84.7943 175.241 83.8156 174.701 82.8616L175.182 82.5886C175.726 83.5495 176.255 84.5359 176.754 85.5192L176.261 85.7714ZM49.166 82.3873L48.6864 82.1112C49.2385 81.1526 49.8208 80.1932 50.4169 79.2578L50.8797 79.5555C50.2959 80.484 49.7182 81.4364 49.1699 82.3873H49.166ZM173.008 80.0259C172.424 79.095 171.811 78.1673 171.188 77.2696L171.642 76.9542C172.27 77.8596 172.887 78.7935 173.476 79.7305L173.008 80.0259ZM52.7321 76.8092L52.2794 76.4907C52.9172 75.586 53.5843 74.6837 54.2622 73.81L54.6995 74.1493C54.0247 75.0161 53.3653 75.9115 52.7321 76.8092ZM169.248 74.5943C168.581 73.7205 167.887 72.8521 167.183 72.013L167.607 71.6575C168.316 72.5058 169.016 73.3781 169.69 74.258L169.248 74.5943ZM56.7871 71.5819L56.366 71.2233C57.0817 70.3827 57.8313 69.5452 58.584 68.7354L58.9889 69.1133C58.2385 69.9161 57.4951 70.7475 56.7871 71.5819ZM165.002 69.5321C164.258 68.7231 163.487 67.921 162.71 67.1483L163.1 66.7557C163.883 67.5339 164.66 68.3421 165.409 69.1573L165.002 69.5321ZM61.2987 66.7472L60.9131 66.3516C61.7044 65.5804 62.5234 64.8092 63.347 64.0765L63.7157 64.4891C62.8982 65.2187 62.0853 65.9783 61.3002 66.7465L61.2987 66.7472ZM160.313 64.8709C159.498 64.1321 158.657 63.4056 157.812 62.7046L158.166 62.2781C159.014 62.9814 159.862 63.7164 160.684 64.4606L160.313 64.8709ZM66.2252 62.3436L65.8758 61.9148C66.7319 61.2207 67.6164 60.5267 68.5049 59.8711L68.8342 60.3154C67.9519 60.9693 67.0743 61.6519 66.2244 62.3436H66.2252ZM71.5334 58.4105L71.2249 57.9477C72.1411 57.3308 73.0843 56.7277 74.0283 56.1531L74.3159 56.6259C73.3789 57.1958 72.4434 57.795 71.5342 58.4066L71.5334 58.4105ZM77.1748 54.9786L76.9095 54.4927C77.8789 53.9621 78.8722 53.4477 79.8632 52.9634L80.1062 53.4609C79.1275 53.9413 78.1411 54.4519 77.1794 54.9786H77.1748ZM143.971 53.6945C142.986 53.204 141.977 52.7297 140.972 52.2855L141.196 51.7796C142.208 52.2269 143.225 52.7051 144.217 53.1994L143.971 53.6945ZM83.1069 52.075L82.8871 51.5675C83.8997 51.1287 84.9362 50.7076 85.9666 50.3159L86.1632 50.8333C85.1406 51.2267 84.1118 51.6431 83.1069 52.075ZM137.911 51.0138C136.886 50.6166 135.838 50.2372 134.794 49.8871L134.97 49.3627C136.022 49.7159 137.078 50.0976 138.111 50.4986L137.911 51.0138ZM89.2805 49.7305L89.1077 49.2046C90.1596 48.8598 91.2324 48.5351 92.2966 48.2398L92.4447 48.7727C91.3889 49.0673 90.3239 49.3927 89.2805 49.7344V49.7305ZM131.635 48.913C130.579 48.6123 129.503 48.3315 128.435 48.0801L128.563 47.5403C129.642 47.794 130.722 48.0801 131.787 48.3794L131.635 48.913ZM95.6506 47.9675L95.5272 47.4277C96.6069 47.1817 97.7036 46.9573 98.7918 46.7606L98.8905 47.3051C97.8108 47.4994 96.7211 47.7223 95.6506 47.9668V47.9675ZM125.2 47.3953C124.121 47.1932 123.025 47.0097 121.937 46.8601L122.014 46.3118C123.11 46.466 124.216 46.6472 125.303 46.8516L125.2 47.3953ZM102.157 46.793L102.083 46.2447C103.179 46.0981 104.293 45.9755 105.395 45.8799L105.443 46.4313C104.35 46.5223 103.245 46.6472 102.157 46.7922L102.157 46.793ZM118.653 46.4752C117.563 46.3727 116.454 46.2932 115.355 46.2439L115.382 45.6909C116.489 45.7449 117.606 45.8244 118.705 45.9277L118.653 46.4752ZM108.743 46.2184L108.72 45.6655C109.737 45.6231 110.773 45.6015 111.804 45.6015H112.055V46.1552H111.806C110.782 46.1544 109.753 46.176 108.743 46.2177L108.743 46.2184Z" fill="#3F3D56"/>
<path d="M188.616 133.05L191.383 175.941C191.383 175.941 198.024 192.821 197.748 208.872C197.748 208.872 195.258 215.236 197.194 216.343C199.131 217.45 200.238 218.28 199.131 219.11C198.025 219.94 197.194 221.877 198.025 222.431C198.855 222.985 199.131 223.815 198.854 223.815H190.553C190.553 223.815 192.214 219.664 189.723 218.557C187.233 217.451 188.617 214.683 188.617 214.683L170.077 160.447L155.41 210.258C155.41 210.258 157.9 211.919 155.964 212.749C154.027 213.578 153.197 211.919 154.026 213.578C154.856 215.238 153.75 216.069 153.75 216.345C153.75 216.622 145.448 215.516 145.448 215.516C145.448 215.516 149.599 211.918 147.662 211.088C145.724 210.258 144.895 209.428 145.448 208.875C146.002 208.322 148.215 203.064 148.215 203.064C148.215 203.064 149.322 183.14 149.599 182.31C149.876 181.479 149.599 177.605 149.599 175.669C149.599 173.732 149.322 165.984 150.153 164.047C150.983 162.109 151.813 138.312 156.241 135.545C160.668 132.778 188.616 133.05 188.616 133.05Z" fill="#2F2E41"/>
<path d="M153.473 214.958C153.473 214.958 159.007 226.303 155.133 227.687C151.259 229.07 146.278 227.964 145.171 229.624C144.065 231.285 131.889 233.222 131.612 229.07C131.335 224.919 144.895 217.171 144.895 217.171L146.661 214.327L153.473 214.958Z" fill="#2F2E41"/>
<path d="M198.301 223.26C198.301 223.26 203.835 234.605 199.961 235.989C196.087 237.372 191.106 236.266 189.999 237.926C188.893 239.587 176.717 241.523 176.44 237.372C176.163 233.222 189.723 225.473 189.723 225.473L191.489 222.629L198.301 223.26Z" fill="#2F2E41"/>
<path d="M172.705 80.8896C177.749 80.8896 181.837 76.8012 181.837 71.7578C181.837 66.7144 177.749 62.6259 172.705 62.6259C167.662 62.6259 163.573 66.7144 163.573 71.7578C163.573 76.8012 167.662 80.8896 172.705 80.8896Z" fill="#A0616A"/>
<path d="M178.93 76.6002L177.824 84.6246L169.522 90.9894L167.309 87.9454V77.43L178.93 76.6002Z" fill="#A0616A"/>
<path d="M165.925 86.838C165.925 86.838 174.504 87.6678 178.931 84.6246L187.786 136.924C187.786 136.924 156.517 139.414 155.133 137.754V121.427L160.667 94.8624L165.925 86.838Z" fill="#3F3D56"/>
<path d="M178.168 82.1244L181.144 84.6246C181.144 84.6246 193.319 86.5619 192.489 89.8819L189.169 129.173L190.276 142.456C190.276 142.456 180.867 139.966 173.672 142.456C166.478 144.946 172.194 88.938 172.194 88.938C172.194 88.938 178.79 82.9449 178.168 82.1244Z" fill="#D0CDE1"/>
<path d="M167.308 85.1567C167.308 85.1567 158.453 91.5462 157.346 95.6968C156.24 99.8475 152.642 143.569 152.642 143.569C152.642 143.569 154.303 142.739 155.132 144.123C155.962 145.506 168.692 87.3416 167.308 85.1567Z" fill="#D0CDE1"/>
<path d="M163.577 71.3622C162.999 70.4466 162.783 69.3491 162.969 68.2827C163.196 67.3758 163.286 66.4399 163.235 65.5064C163.66 64.1229 164.194 62.7753 164.832 61.476C165.63 60.0316 165.25 59.4231 167.762 58.9665C170.275 58.51 169.246 55.24 175.86 58.7768C176.083 59.0884 176.394 59.327 176.753 59.4623C177.111 59.5976 177.502 59.6237 177.875 59.5372C179.244 59.2711 179.739 61.1722 179.739 61.1722C179.739 61.1722 180.651 60.64 180.993 61.4035C181.336 62.167 183.775 60.947 183.775 66.0801C183.644 69.4953 182.692 72.8287 180.999 75.7974C180.999 75.7974 181.202 67.1598 176.68 66.2884C172.158 65.4169 167.289 62.8665 166.11 66.1341C165.473 67.9694 164.625 69.724 163.581 71.3622H163.577Z" fill="#2F2E41"/>
<path d="M181.096 73.4128C181.589 73.4128 181.988 72.88 181.988 72.2228C181.988 71.5656 181.589 71.0328 181.096 71.0328C180.603 71.0328 180.204 71.5656 180.204 72.2228C180.204 72.88 180.603 73.4128 181.096 73.4128Z" fill="#A0616A"/>
<path d="M143.591 157.795C141.805 156.839 139.771 156.45 137.758 156.679C138.408 158.616 139.727 160.257 141.477 161.31C143.227 162.363 145.295 162.759 147.31 162.426C146.57 160.541 145.273 158.925 143.591 157.795Z" fill="#D0CDE1"/>
<path d="M153.881 183.924H140.196C139.787 183.917 139.381 183.992 139.002 184.144C138.623 184.296 138.278 184.522 137.987 184.808C137.696 185.095 137.464 185.436 137.306 185.813C137.149 186.19 137.067 186.594 137.067 187.003C137.067 187.411 137.149 187.816 137.306 188.193C137.464 188.569 137.696 188.911 137.987 189.198C138.278 189.484 138.623 189.71 139.002 189.862C139.381 190.014 139.787 190.088 140.196 190.082H153.881C154.689 190.069 155.46 189.739 156.027 189.163C156.594 188.587 156.911 187.811 156.911 187.003C156.911 186.195 156.594 185.419 156.027 184.843C155.46 184.267 154.689 183.937 153.881 183.924Z" fill="#D0CDE1"/>
<path d="M215.853 151.425H139.124C137.321 151.425 135.592 152.141 134.318 153.416C133.043 154.69 132.327 156.419 132.327 158.222V195.606C132.327 197.409 133.043 199.137 134.318 200.412C135.593 201.686 137.321 202.402 139.124 202.402H215.853C217.655 202.402 219.384 201.686 220.659 200.411C221.933 199.137 222.649 197.408 222.649 195.605V158.219C222.649 156.416 221.933 154.687 220.659 153.413C219.384 152.138 217.655 151.422 215.853 151.422V151.425ZM137.225 156.062C139.53 155.589 141.928 155.999 143.945 157.211C145.961 158.424 147.448 160.35 148.111 162.608L148.232 162.981L147.846 163.05C147.295 163.136 146.738 163.177 146.181 163.172C144.413 163.206 142.668 162.766 141.127 161.898C139.189 160.599 137.727 158.704 136.962 156.5L136.842 156.126L137.225 156.062ZM153.883 190.771H140.196C139.198 190.771 138.24 190.374 137.534 189.668C136.829 188.963 136.432 188.005 136.432 187.007C136.432 186.009 136.829 185.052 137.534 184.346C138.24 183.64 139.198 183.244 140.196 183.244H153.881C154.879 183.244 155.836 183.64 156.542 184.346C157.248 185.052 157.644 186.009 157.644 187.007C157.644 188.005 157.248 188.963 156.542 189.668C155.836 190.374 154.879 190.771 153.881 190.771H153.883ZM216.151 190.087C216.147 191.174 215.713 192.216 214.944 192.984C214.174 193.753 213.132 194.186 212.045 194.189H201.78C200.692 194.186 199.649 193.752 198.88 192.983C198.11 192.213 197.677 191.171 197.674 190.083V183.925C197.677 182.837 198.11 181.794 198.88 181.025C199.649 180.255 200.692 179.822 201.78 179.819H212.045C213.133 179.822 214.175 180.255 214.944 181.025C215.714 181.794 216.147 182.837 216.15 183.925L216.151 190.087Z" fill="#E02525"/>
<path d="M205.029 188.885H200.581C200.269 188.893 199.972 189.023 199.754 189.246C199.536 189.47 199.414 189.77 199.414 190.082C199.414 190.395 199.536 190.695 199.754 190.918C199.972 191.142 200.269 191.272 200.581 191.28H205.029C205.189 191.284 205.348 191.256 205.496 191.197C205.645 191.139 205.781 191.051 205.895 190.94C206.01 190.828 206.101 190.695 206.163 190.548C206.225 190.4 206.257 190.242 206.257 190.082C206.257 189.922 206.225 189.764 206.163 189.617C206.101 189.47 206.01 189.336 205.895 189.225C205.781 189.113 205.645 189.026 205.496 188.967C205.348 188.909 205.189 188.881 205.029 188.885ZM205.029 190.596H200.581C200.445 190.596 200.315 190.541 200.218 190.445C200.122 190.349 200.068 190.218 200.068 190.082C200.068 189.946 200.122 189.816 200.218 189.719C200.315 189.623 200.445 189.569 200.581 189.569H205.029C205.165 189.569 205.295 189.623 205.392 189.719C205.488 189.816 205.542 189.946 205.542 190.082C205.542 190.218 205.488 190.349 205.392 190.445C205.295 190.541 205.165 190.596 205.029 190.596Z" fill="#D0CDE1"/>
<path d="M213.24 188.885H208.792C208.48 188.893 208.183 189.023 207.965 189.246C207.747 189.47 207.625 189.77 207.625 190.082C207.625 190.395 207.747 190.695 207.965 190.918C208.183 191.142 208.48 191.272 208.792 191.28H213.24C213.552 191.272 213.849 191.142 214.067 190.918C214.285 190.695 214.407 190.395 214.407 190.082C214.407 189.77 214.285 189.47 214.067 189.246C213.849 189.023 213.552 188.893 213.24 188.885ZM213.24 190.596H208.792C208.656 190.596 208.526 190.541 208.429 190.445C208.333 190.349 208.279 190.218 208.279 190.082C208.279 189.946 208.333 189.816 208.429 189.719C208.526 189.623 208.656 189.569 208.792 189.569H213.24C213.376 189.569 213.507 189.623 213.603 189.719C213.699 189.816 213.753 189.946 213.753 190.082C213.753 190.218 213.699 190.349 213.603 190.445C213.507 190.541 213.376 190.596 213.24 190.596Z" fill="#D0CDE1"/>
<path d="M205.029 185.803H200.581C200.269 185.81 199.972 185.94 199.754 186.164C199.536 186.387 199.414 186.687 199.414 187C199.414 187.312 199.536 187.612 199.754 187.836C199.972 188.06 200.269 188.189 200.581 188.197H205.029C205.189 188.201 205.348 188.173 205.496 188.115C205.645 188.057 205.781 187.969 205.895 187.857C206.01 187.746 206.101 187.612 206.163 187.465C206.225 187.318 206.257 187.16 206.257 187C206.257 186.84 206.225 186.682 206.163 186.534C206.101 186.387 206.01 186.254 205.895 186.142C205.781 186.031 205.645 185.943 205.496 185.885C205.348 185.826 205.189 185.798 205.029 185.803ZM205.029 187.513H200.581C200.445 187.513 200.315 187.459 200.218 187.363C200.122 187.266 200.068 187.136 200.068 187C200.068 186.864 200.122 186.733 200.218 186.637C200.315 186.541 200.445 186.487 200.581 186.487H205.029C205.165 186.487 205.295 186.541 205.392 186.637C205.488 186.733 205.542 186.864 205.542 187C205.542 187.136 205.488 187.266 205.392 187.363C205.295 187.459 205.165 187.513 205.029 187.513Z" fill="#D0CDE1"/>
<path d="M213.24 185.802H208.792C208.48 185.81 208.183 185.94 207.965 186.164C207.747 186.387 207.625 186.687 207.625 187C207.625 187.312 207.747 187.612 207.965 187.836C208.183 188.06 208.48 188.189 208.792 188.197H213.24C213.552 188.189 213.849 188.06 214.067 187.836C214.285 187.612 214.407 187.312 214.407 187C214.407 186.687 214.285 186.387 214.067 186.164C213.849 185.94 213.552 185.81 213.24 185.802ZM213.24 187.513H208.792C208.656 187.513 208.526 187.459 208.429 187.363C208.333 187.266 208.279 187.136 208.279 187C208.279 186.864 208.333 186.733 208.429 186.637C208.526 186.541 208.656 186.487 208.792 186.487H213.24C213.376 186.487 213.507 186.541 213.603 186.637C213.699 186.733 213.753 186.864 213.753 187C213.753 187.136 213.699 187.266 213.603 187.363C213.507 187.459 213.376 187.513 213.24 187.513Z" fill="#D0CDE1"/>
<path d="M205.029 182.726H200.581C200.269 182.734 199.972 182.864 199.754 183.087C199.536 183.311 199.414 183.611 199.414 183.923C199.414 184.236 199.536 184.536 199.754 184.76C199.972 184.983 200.269 185.113 200.581 185.121H205.029C205.189 185.125 205.348 185.097 205.496 185.039C205.645 184.98 205.781 184.893 205.895 184.781C206.01 184.669 206.101 184.536 206.163 184.389C206.225 184.242 206.257 184.083 206.257 183.923C206.257 183.764 206.225 183.605 206.163 183.458C206.101 183.311 206.01 183.177 205.895 183.066C205.781 182.954 205.645 182.867 205.496 182.808C205.348 182.75 205.189 182.722 205.029 182.726ZM205.029 184.437H200.581C200.445 184.437 200.315 184.383 200.218 184.286C200.122 184.19 200.068 184.06 200.068 183.923C200.068 183.787 200.122 183.657 200.218 183.561C200.315 183.464 200.445 183.41 200.581 183.41H205.029C205.165 183.41 205.295 183.464 205.392 183.561C205.488 183.657 205.542 183.787 205.542 183.923C205.542 184.06 205.488 184.19 205.392 184.286C205.295 184.383 205.165 184.437 205.029 184.437Z" fill="#D0CDE1"/>
<path d="M213.24 182.726H208.792C208.48 182.734 208.183 182.864 207.965 183.087C207.747 183.311 207.625 183.611 207.625 183.923C207.625 184.236 207.747 184.536 207.965 184.76C208.183 184.983 208.48 185.113 208.792 185.121H213.24C213.552 185.113 213.849 184.983 214.067 184.76C214.285 184.536 214.407 184.236 214.407 183.923C214.407 183.611 214.285 183.311 214.067 183.087C213.849 182.864 213.552 182.734 213.24 182.726ZM213.24 184.437H208.792C208.656 184.437 208.526 184.383 208.429 184.286C208.333 184.19 208.279 184.06 208.279 183.923C208.279 183.787 208.333 183.657 208.429 183.561C208.526 183.464 208.656 183.41 208.792 183.41H213.24C213.376 183.41 213.507 183.464 213.603 183.561C213.699 183.657 213.753 183.787 213.753 183.923C213.753 184.06 213.699 184.19 213.603 184.286C213.507 184.383 213.376 184.437 213.24 184.437Z" fill="#D0CDE1"/>
<path d="M191.66 143.012L189.676 149.485C189.676 149.485 189.17 161.552 182.528 159.891C175.886 158.231 184.465 144.119 184.465 144.119L186.403 141.075L191.66 143.012Z" fill="#A0616A"/>
<path d="M154.026 143.012L152.042 149.485C152.042 149.485 151.536 161.552 144.894 159.891C138.252 158.231 146.831 144.119 146.831 144.119L148.768 141.075L154.026 143.012Z" fill="#A0616A"/>
<path d="M190.276 87.9454C190.276 87.9454 194.704 86.8388 196.087 94.3102C197.471 101.782 199.131 123.089 199.131 123.089L192.49 145.503C192.49 145.503 185.85 141.905 184.466 142.459L189.693 123L185.297 103.165C185.297 103.165 189.17 87.9454 190.276 87.9454Z" fill="#D0CDE1"/>
<path opacity="0.15" d="M183.838 103.543L189.649 122.914L183.838 142.56L187.159 122.914L183.838 103.543Z" fill="black"/>
<path d="M157.347 103.164L147.386 142.458C147.386 142.458 152.641 144.193 154.577 145.576L157.347 103.164Z" fill="#D0CDE1"/>
<path d="M52.8455 146.57C58.3185 146.57 63.6685 148.193 68.2191 151.234C72.7697 154.275 76.3165 158.596 78.4109 163.653C80.5053 168.709 81.0533 174.273 79.9856 179.641C78.9178 185.008 76.2824 189.939 72.4124 193.809C68.5424 197.679 63.6118 200.314 58.244 201.382C52.8762 202.45 47.3124 201.902 42.256 199.807C37.1997 197.713 32.878 194.166 29.8374 189.616C26.7967 185.065 25.1738 179.715 25.1738 174.242C25.1738 166.903 28.0892 159.865 33.2787 154.675C38.4681 149.486 45.5066 146.57 52.8455 146.57V146.57Z" fill="#EAA82D"/>
<path opacity="0.1" d="M52.8454 198.04C65.9887 198.04 76.6434 187.385 76.6434 174.242C76.6434 161.099 65.9887 150.444 52.8454 150.444C39.7022 150.444 29.0475 161.099 29.0475 174.242C29.0475 187.385 39.7022 198.04 52.8454 198.04Z" fill="#E02525"/>
<path d="M51.7048 188.285V184.822C50.0465 184.807 48.4332 184.28 47.0861 183.312L47.8102 181.015C49.0658 181.956 50.5886 182.472 52.1575 182.489C52.619 182.526 53.0831 182.466 53.52 182.313C53.957 182.16 54.3573 181.918 54.6954 181.602C55.0334 181.285 55.3018 180.902 55.4833 180.476C55.6649 180.05 55.7557 179.591 55.7498 179.128C55.7498 177.242 54.5722 176.076 52.3388 175.047C49.2593 173.675 47.3575 172.098 47.3575 169.114C47.3103 167.796 47.7482 166.506 48.5883 165.488C49.4284 164.471 50.6124 163.796 51.9161 163.593V160.13H53.7879V163.456C55.1835 163.475 56.5449 163.891 57.7125 164.656L56.9575 166.919C55.8378 166.153 54.5109 165.746 53.1539 165.753C50.8295 165.753 49.9542 167.331 49.9542 168.703C49.9542 170.486 51.0709 171.377 53.6976 172.612C56.8071 174.052 58.3765 175.835 58.3765 178.887C58.4183 180.271 57.9585 181.623 57.0819 182.694C56.2053 183.765 54.9711 184.484 53.6066 184.717V188.283L51.7048 188.285Z" fill="#E3B92D"/>
<path d="M82.0766 230.528C62.5378 233.442 42.675 233.442 23.1362 230.528V223.887C42.6957 226.507 62.5171 226.507 82.0766 223.887V230.528Z" fill="#EAA82D"/>
<path d="M82.0766 220.289C62.5378 223.203 42.675 223.203 23.1362 220.289V213.649C42.6957 216.268 62.5171 216.268 82.0766 213.649V220.289Z" fill="#EAA82D"/>
<path d="M82.0766 210.051C62.5378 212.965 42.675 212.965 23.1362 210.051V203.41C42.6957 206.029 62.5171 206.029 82.0766 203.41V210.051Z" fill="#EAA82D"/>
<defs>
<filter id="filter0_d" x="1.6272" y="1.62726" width="298.118" height="298.118" filterUnits="userSpaceOnUse" color-interpolation-filters="sRGB">
<feFlood flood-opacity="0" result="BackgroundImageFix"/>
<feColorMatrix in="SourceAlpha" type="matrix" values="0 0 0 0 0 0 0 0 0 0 0 0 0 0 0 0 0 0 127 0"/>
<feOffset dx="3" dy="3"/>
<feGaussianBlur stdDeviation="3"/>
<feColorMatrix type="matrix" values="0 0 0 0 0 0 0 0 0 0 0 0 0 0 0 0 0 0 0.161 0"/>
<feBlend mode="normal" in2="BackgroundImageFix" result="effect1_dropShadow"/>
<feBlend mode="normal" in="SourceGraphic" in2="effect1_dropShadow" result="shape"/>
</filter>
</defs>
</svg>
