<svg width="300" height="300" viewBox="0 0 300 300" fill="none" xmlns="http://www.w3.org/2000/svg">
<g clip-path="url(#clip0)">
<g filter="url(#filter0_d)">
<path d="M147.772 291.089C226.924 291.089 291.089 226.924 291.089 147.772C291.089 68.6206 226.924 4.45544 147.772 4.45544C68.6206 4.45544 4.45544 68.6206 4.45544 147.772C4.45544 226.924 68.6206 291.089 147.772 291.089Z" fill="white"/>
</g>
<path opacity="0.1" d="M33.2844 62.4884C31.5022 63.2309 29.6695 64.1785 28.6893 65.8433C27.6497 67.6025 27.7752 69.7871 27.9683 71.8218C29.6532 89.4735 34.0908 108.247 26.4275 124.236C22.7079 131.993 16.4859 138.21 11.5374 145.251C6.58885 152.292 2.85518 161.097 5.14974 169.383C7.95518 179.51 18.427 185.126 25.4859 192.918C30.1062 198.013 33.3453 204.205 37.6559 209.565C41.9666 214.925 47.8737 219.648 54.7552 219.961C64.6529 220.417 72.7054 211.867 82.4094 209.889C92.351 207.862 102.362 213.021 110.423 219.196C118.484 225.371 125.816 232.852 135.208 236.707C145.58 240.968 157.273 240.317 168.192 242.877C178.134 245.21 187.286 250.173 197.153 252.818C207.019 255.464 218.591 255.304 226.238 248.546C236.205 239.71 235.42 223.967 241.785 212.279C247.697 201.418 259.271 194.934 267.062 185.332C281.079 168.05 280.621 141.636 268.718 122.84C256.816 104.045 235.256 92.6651 213.211 89.7015C203.269 88.3648 193.032 88.5497 183.474 85.5148C157.891 77.3955 142.667 48.3052 116.548 42.2525C99.9453 38.4111 83.8002 45.0639 69.6564 53.2515C57.3846 60.3594 46.0596 57.1893 33.2844 62.4884Z" fill="#E02525"/>
<path d="M148.591 247.259C203.802 247.259 248.559 202.501 248.559 147.29C248.559 92.0794 203.802 47.322 148.591 47.322C93.3796 47.322 48.6223 92.0794 48.6223 147.29C48.6223 202.501 93.3796 247.259 148.591 247.259Z" fill="url(#paint0_linear)"/>
<path d="M148.591 245.602C202.887 245.602 246.902 201.586 246.902 147.29C246.902 92.9943 202.887 48.9787 148.591 48.9787C94.2946 48.9787 50.2789 92.9943 50.2789 147.29C50.2789 201.586 94.2946 245.602 148.591 245.602Z" fill="#E02525"/>
<path d="M148.591 225.443C191.753 225.443 226.743 190.453 226.743 147.29C226.743 104.128 191.753 69.1381 148.591 69.1381C105.428 69.1381 70.4384 104.128 70.4384 147.29C70.4384 190.453 105.428 225.443 148.591 225.443Z" fill="#DDE1EC"/>
<path opacity="0.3" d="M150.8 82.9463H146.381V151.986H150.8V82.9463Z" fill="#535461"/>
<g opacity="0.1">
<path opacity="0.1" d="M215.697 145.634H153.286V151.157H215.697V145.634Z" fill="black"/>
<path opacity="0.1" d="M109.222 124.969L106.66 129.862L145.93 150.427L148.492 145.534L109.222 124.969Z" fill="black"/>
<path opacity="0.1" d="M148.591 156.68C153.167 156.68 156.876 152.971 156.876 148.395C156.876 143.82 153.167 140.11 148.591 140.11C144.016 140.11 140.306 143.82 140.306 148.395C140.306 152.971 144.016 156.68 148.591 156.68Z" fill="black"/>
</g>
<path d="M215.697 144.529H153.286V150.052H215.697V144.529Z" fill="#535461"/>
<path d="M148.511 144.436L109.242 123.871L106.679 128.764L145.949 149.329L148.511 144.436Z" fill="#535461"/>
<path d="M148.591 155.576C153.167 155.576 156.876 151.867 156.876 147.291C156.876 142.715 153.167 139.006 148.591 139.006C144.016 139.006 140.306 142.715 140.306 147.291C140.306 151.867 144.016 155.576 148.591 155.576Z" fill="#535461"/>
<g opacity="0.1">
<path opacity="0.1" d="M76.5089 156.68C76.5102 140.288 81.6657 124.31 91.246 111.009C100.826 97.707 114.346 87.7542 129.894 82.5583C145.441 77.3625 162.228 77.1865 177.881 82.0554C193.534 86.9242 207.26 96.5914 217.117 109.689C211.952 100.278 204.905 92.0318 196.413 85.4643C187.922 78.8967 178.168 74.1488 167.761 71.5165C157.354 68.8842 146.516 68.424 135.923 70.1646C125.33 71.9051 115.209 75.8091 106.191 81.6332C97.1732 87.4573 89.4518 95.0766 83.5082 104.016C77.5646 112.955 73.5262 123.023 71.6448 133.592C69.7634 144.161 70.0793 155.004 72.5728 165.446C75.0663 175.887 79.684 185.703 86.1379 194.281C79.8025 182.762 76.4895 169.826 76.5082 156.679L76.5089 156.68Z" fill="black"/>
</g>
<path d="M220.801 89.8002C219.873 88.9091 212.063 94.771 212.063 94.771C212.063 94.771 209.282 95.2789 209.945 97.1874C210.608 99.0958 207.032 109.783 207.032 109.783L205.578 107.748C205.73 105.957 205.326 104.164 204.421 102.611C204.368 102.526 204.316 102.443 204.264 102.365L204.518 102.277C204.421 100.974 202.336 98.9881 201.229 98.0161V97.5965C201.298 96.0371 201.922 94.396 201.229 92.9844C200.445 91.3745 198.149 90.5651 197.956 88.7978C197.84 87.7426 198.55 86.7928 198.867 85.774C199.619 83.3436 198.058 80.8641 196.565 78.7708C196.059 77.9857 195.443 77.277 194.736 76.6663C194.064 76.1749 193.326 75.7806 192.544 75.4953C190.362 74.7145 188.133 74.0697 185.872 73.5646C183.709 72.9898 181.713 72.7166 179.52 73.4376C178.999 73.5781 178.524 73.851 178.14 74.2299C177.62 74.8151 177.546 75.6497 177.206 76.3478C176.654 77.472 175.464 78.1426 174.411 78.8636C173.359 79.5846 172.304 80.5715 172.299 81.8161C172.299 83.5804 174.315 84.6906 174.988 86.3339C175.618 87.8636 174.988 89.5678 174.638 91.1807C174.491 91.7019 174.477 92.2514 174.596 92.7794C174.735 93.173 174.945 93.5378 175.215 93.8562C175.632 94.4087 176.079 94.9218 176.524 95.4468L176.321 95.5277C172.614 95.1468 170.231 99.8525 170.231 99.8525C170.403 99.8881 170.566 99.9267 170.726 99.9765L170.569 100.181C169.449 101.635 168.534 103.236 167.849 104.939L164.811 109.01C164.811 109.01 164.148 98.8307 165.739 96.5413C167.33 94.252 164.283 92.8522 164.283 92.8522C164.283 92.8522 157.656 85.4733 156.736 86.1082C155.816 86.7431 158.988 94.7577 161.766 96.0304C161.917 97.4351 161.824 98.8554 161.49 100.228C161.156 101.274 159.372 112.316 159.372 112.316C159.372 112.316 157.784 121.603 165.066 117.01C169.796 114.033 172.853 108.908 174.411 105.688C174.52 105.461 174.622 105.245 174.718 105.039C174.791 105.38 174.84 105.726 174.867 106.074L175.143 116.715C175.213 119.347 174.638 121.955 173.469 124.314L170.224 130.895L170.586 131.006L170.367 131.321C168.23 134.466 164.595 141.538 172.075 145.142L182.017 146.415L181.487 148.958C181.487 148.958 177.383 156.718 176.19 162.062C175.449 165.334 174.292 168.498 172.747 171.476L173.053 171.639C172.989 171.713 172.923 171.787 172.86 171.861C172.257 172.539 171.859 173.374 171.711 174.27L170.364 176.18C170.364 176.18 169.833 184.067 170.894 185.978C171.474 187.023 173.399 187.686 175.036 188.072C175.56 188.221 176.116 188.21 176.634 188.04C177.151 187.871 177.606 187.55 177.939 187.119C178.273 186.689 178.47 186.168 178.505 185.625C178.541 185.081 178.412 184.54 178.137 184.07L178.121 184.043H178.096C177.82 182.759 176.975 178.77 177.251 177.26C177.325 176.829 177.4 176.401 177.436 175.965C177.502 175.392 177.677 174.836 177.95 174.327C177.994 174.242 178.041 174.159 178.088 174.076L178.231 174.137C178.677 174.328 179.115 174.509 179.532 174.665C178.886 175.253 178.427 176.471 178.98 178.975C178.98 178.975 179.032 185.241 179.51 186.227C179.987 187.213 185.334 188.517 186.262 187.5C187.19 186.483 185.668 182.982 185.668 182.982L185.621 183.016C185.315 180.986 184.937 177.352 185.867 175.921C186.243 175.344 186.61 174.747 186.933 174.189L187.134 173.844C188.863 174.705 190.691 175.354 191.69 174.904C191.69 174.904 196.059 164.725 195.794 163.455C195.529 162.184 202.546 147.805 202.546 147.805C202.546 147.805 208.503 141.177 201.224 136.61C198.912 135.154 197.228 134.177 196.004 133.517L194.979 128.159C194.453 125.351 194.547 122.462 195.255 119.694L196.36 115.48L196.452 115.121C196.452 115.121 199.233 109.397 199.1 106.724C199.09 106.516 199.113 106.308 199.169 106.108C199.199 106.235 199.232 106.368 199.268 106.506C199.999 109.284 200.961 111.997 202.146 114.614C204.258 119.381 207.393 119.002 209.11 118.327C209.478 118.185 209.805 117.953 210.061 117.654C210.317 117.354 210.494 116.995 210.577 116.609C211.196 113.644 212.894 105.334 213.002 103.039C213.098 101.243 213.319 99.4569 213.665 97.6923C218.022 95.1438 221.728 90.6921 220.801 89.8002Z" fill="url(#paint1_linear)"/>
<path d="M188.382 171.327C188.382 171.327 187.799 172.496 187.002 173.898C186.69 174.451 186.342 175.044 185.985 175.616C184.723 177.635 185.985 184.066 185.985 184.066L183.223 184.444L180.462 183.064L179.959 178.399V174.983L183.108 171.462L184.488 169.937L188.382 171.327Z" fill="#F8BDC5"/>
<g opacity="0.1">
<path opacity="0.1" d="M188.382 171.327C188.382 171.327 187.799 172.496 187.002 173.898C185.782 173.247 184.604 172.522 183.472 171.728L183.229 171.556L183.099 171.463L184.48 169.938L188.382 171.327Z" fill="black"/>
</g>
<path d="M201.884 147.738C201.884 147.738 195.201 161.99 195.452 163.253C195.704 164.515 191.542 174.605 191.542 174.605C190.592 175.051 188.846 174.409 187.201 173.556C185.959 172.894 184.76 172.157 183.61 171.347L183.368 171.175L183.219 171.071L194.194 140.671L184.489 133.548L183.771 133.02L179.43 129.817L192.685 132.214C192.685 132.214 193.147 132.156 195.581 133.52C196.752 134.174 198.379 135.154 200.626 136.629C207.555 141.179 201.884 147.738 201.884 147.738Z" fill="#797979"/>
<path d="M181.572 173.849C181.572 173.849 178.291 173.343 179.429 178.643C179.429 178.643 179.479 184.856 179.935 185.823C180.391 186.789 185.485 188.093 186.366 187.085C187.247 186.077 185.797 182.609 185.797 182.609C185.797 182.609 182.078 185.321 181.067 182.418C180.056 179.515 181.572 173.849 181.572 173.849Z" fill="#5D3E53"/>
<path d="M179.3 172.841C178.942 173.182 178.65 173.586 178.441 174.034C178.18 174.541 178.014 175.092 177.952 175.658C177.919 176.089 177.849 176.517 177.778 176.942C177.463 178.74 178.669 184.067 178.669 184.067L173.875 184.824L172.111 182.932L171.733 178.774C172.204 177.347 172.459 175.858 172.49 174.356C172.544 173.339 172.932 172.368 173.595 171.594C173.969 171.122 174.398 170.697 174.873 170.326C174.873 170.326 180.31 171.957 179.3 172.841Z" fill="#F8BDC5"/>
<g opacity="0.1">
<path opacity="0.1" d="M179.3 172.841C178.942 173.182 178.65 173.586 178.441 174.034C176.477 173.148 174.414 172.029 173.663 171.615L173.605 171.584C173.979 171.113 174.409 170.687 174.884 170.317C174.884 170.317 180.31 171.957 179.3 172.841Z" fill="black"/>
</g>
<g filter="url(#filter1_d)">
<path d="M194.811 143.954C194.811 143.954 191.661 149.883 189.639 154.801C188.314 158.032 185.574 165.726 183.84 170.625L183.586 171.348C182.824 173.516 182.315 174.982 182.315 174.982C181.979 174.984 181.645 174.934 181.324 174.834C181.027 174.754 180.691 174.646 180.336 174.514L179.935 174.365C179.537 174.211 179.107 174.031 178.695 173.846C176.69 172.954 174.553 171.786 173.777 171.36L173.485 171.198C174.965 168.232 176.069 165.094 176.773 161.855C177.908 156.558 181.819 148.876 181.819 148.876L182.324 146.351L172.863 145.089C165.734 141.524 169.198 134.503 171.234 131.386C171.581 130.845 171.956 130.322 172.358 129.82L179.928 131.476C179.928 131.476 181.121 131.857 183.772 133.031L184.99 133.584C186.475 134.266 188.304 135.143 190.513 136.271C197.962 140.035 194.811 143.954 194.811 143.954Z" fill="#797979"/>
</g>
<path d="M178.623 183.688C178.893 184.142 179.022 184.667 178.994 185.195C178.967 185.723 178.783 186.231 178.467 186.655C178.151 187.079 177.717 187.4 177.219 187.578C176.72 187.756 176.181 187.782 175.668 187.653C174.119 187.269 172.282 186.613 171.732 185.574C170.724 183.682 171.226 175.862 171.226 175.862L172.552 173.906C172.552 173.906 171.859 182.547 173.499 183.296C175.14 184.044 178.608 183.646 178.608 183.646L178.623 183.688Z" fill="#5D3E53"/>
<path d="M179.965 73.9931C179.461 74.1333 179.004 74.4049 178.64 74.7802C178.143 75.3601 178.087 76.1911 177.749 76.8817C177.224 77.9866 176.092 78.6639 175.086 79.3671C174.081 80.0703 173.081 81.0624 173.073 82.2943C173.073 84.0453 175.004 85.1443 175.636 86.7705C176.235 88.2891 175.636 89.977 175.302 91.5757C175.162 92.0935 175.149 92.6372 175.263 93.1611C175.396 93.5499 175.597 93.9118 175.857 94.2297C177.075 95.8864 178.588 97.3559 179.403 99.2421C179.949 100.709 180.27 102.25 180.356 103.813C180.7 106.04 180.715 108.306 180.399 110.537C180.358 110.67 180.358 110.811 180.399 110.944C180.472 111.07 180.586 111.168 180.723 111.22C181.526 111.61 182.4 111.834 183.293 111.878C184.185 111.922 185.077 111.785 185.915 111.476C186.754 111.166 187.52 110.69 188.17 110.077C188.819 109.463 189.338 108.725 189.695 107.906C190.248 106.654 190.46 105.144 191.551 104.332C191.679 104.227 191.833 104.157 191.997 104.131C192.255 104.138 192.505 104.222 192.715 104.372C194.187 105.069 195.855 105.237 197.437 104.847C198.411 104.721 199.314 104.272 200.003 103.571C201.248 102.091 200.555 99.8792 200.638 97.9485C200.704 96.4047 201.298 94.7755 200.638 93.378C199.895 91.7814 197.702 90.9809 197.519 89.2359C197.408 88.1918 198.088 87.245 198.388 86.2396C199.103 83.8285 197.618 81.3713 196.199 79.2973C195.721 78.5236 195.136 77.8215 194.462 77.2121C193.825 76.7273 193.122 76.3366 192.374 76.0522C190.3 75.2773 188.179 74.638 186.022 74.1386C183.964 73.5512 182.067 73.278 179.965 73.9931Z" fill="#85555C"/>
<path d="M190.528 110.024H183.21V98.1653C183.428 97.0264 183.555 95.8721 183.591 94.7131V93.5228C183.623 92.2041 183.227 90.9106 182.462 89.8359C180.443 87.5658 189.02 87.9445 189.02 87.9445C189.283 88.9869 189.625 90.0079 190.042 90.9987C190.663 92.5451 191.49 94.0007 192.5 95.3265C193.388 96.506 194.527 97.4744 195.833 98.1624C200.87 100.689 190.528 110.024 190.528 110.024Z" fill="#F8BDC5"/>
<g opacity="0.1">
<path opacity="0.1" d="M190.034 90.998C189.291 91.9669 188.297 92.7143 187.16 93.1593C186.023 93.6043 184.786 93.73 183.583 93.5228C183.615 92.2041 183.218 90.9106 182.453 89.8359C180.434 87.5658 189.012 87.9445 189.012 87.9445C189.275 88.9869 189.617 90.0079 190.034 90.9987V90.998Z" fill="black"/>
</g>
<path d="M184.723 93.2487C188.415 93.2487 191.408 90.2556 191.408 86.5634C191.408 82.8711 188.415 79.878 184.723 79.878C181.031 79.878 178.037 82.8711 178.037 86.5634C178.037 90.2556 181.031 93.2487 184.723 93.2487Z" fill="#F8BDC5"/>
<path d="M212.474 98.0406C212.146 99.7901 211.936 101.56 211.845 103.337C211.742 105.61 210.124 113.851 209.533 116.792C209.458 117.169 209.292 117.522 209.048 117.82C208.804 118.117 208.491 118.349 208.135 118.496C206.495 119.165 203.513 119.543 201.508 114.818C200.378 112.218 199.46 109.53 198.766 106.781C198.52 105.857 198.335 104.918 198.213 103.97L202.631 101.573C203.047 101.961 203.399 102.412 203.675 102.91C204.54 104.46 204.925 106.233 204.78 108.002L206.161 110.021C206.161 110.021 209.566 99.4255 208.923 97.5334C208.279 95.6413 210.942 95.1364 210.942 95.1364C210.942 95.1364 218.384 89.3369 219.268 90.2183C220.152 91.0997 216.636 95.5166 212.474 98.0406Z" fill="#F8BDC5"/>
<path d="M176.273 103.086C175.928 104.072 175.531 105.039 175.085 105.982C173.6 109.175 170.689 114.267 166.181 117.211C159.244 121.751 160.761 112.544 160.761 112.544C160.761 112.544 162.459 101.597 162.78 100.562C163.085 99.1978 163.17 97.7939 163.031 96.4032C160.383 95.1408 157.356 87.1953 158.237 86.5641C159.117 85.9329 165.417 93.2473 165.417 93.2473C165.417 93.2473 168.319 94.6277 166.797 96.9067C165.275 99.1856 165.913 109.268 165.913 109.268L168.832 105.238C169.482 103.557 170.354 101.971 171.425 100.522C171.978 99.7678 172.364 99.3119 172.364 99.3119L176.273 103.086Z" fill="#F8BDC5"/>
<g opacity="0.1">
<path opacity="0.1" d="M203.678 102.913C202.75 103.255 199.158 104.705 198.76 106.778C198.515 105.855 198.33 104.915 198.208 103.967L202.626 101.57C203.045 101.959 203.4 102.412 203.678 102.912V102.913Z" fill="black"/>
</g>
<g opacity="0.1">
<path opacity="0.1" d="M176.273 103.086C175.928 104.072 175.531 105.039 175.085 105.982C174.913 104.734 174.209 101.542 171.423 100.512C171.976 99.7582 172.362 99.3022 172.362 99.3022L176.273 103.086Z" fill="black"/>
</g>
<g opacity="0.1">
<path opacity="0.1" d="M190.528 110.023H183.21V98.1653C183.427 97.0264 183.555 95.8721 183.591 94.7131C184.041 95.2091 184.375 95.7981 184.571 96.4382C184.767 97.0784 184.819 97.7538 184.723 98.4163L188.634 107.253L190.528 99.4403L189.898 98.4327L192.497 95.345C193.386 96.5246 194.524 97.493 195.831 98.1809C200.87 100.689 190.528 110.023 190.528 110.023Z" fill="black"/>
</g>
<g opacity="0.1">
<path opacity="0.1" d="M195.697 134.237C195.697 134.237 189.965 133.781 184.991 133.568L184.491 133.546C183.784 133.519 183.111 133.496 182.45 133.48C178.64 133.251 174.873 132.546 171.238 131.381C171.586 130.842 171.962 130.322 172.364 129.822L179.934 131.479C179.934 131.479 181.127 131.86 183.778 133.034L179.429 129.822L192.685 132.219C192.685 132.219 193.146 132.161 195.581 133.525L195.697 134.237Z" fill="black"/>
</g>
<path d="M190.528 99.9327L189.898 98.925L192.699 95.5752C192.699 95.5752 198.473 98.4059 199.986 97.7844C199.986 97.7844 203.646 100.822 203.77 102.578C203.77 102.578 198.473 104.343 198.598 106.997C198.723 109.651 196.085 115.32 196.085 115.32L194.98 119.854C194.3 122.602 194.206 125.463 194.704 128.249L195.711 133.864C195.711 133.864 187.766 133.234 182.456 133.107C177.146 132.98 171.103 130.964 171.103 130.964L174.199 124.449C175.315 122.099 175.862 119.518 175.796 116.916L175.519 106.372C175.519 106.372 175.268 101.075 171.101 100.191C171.101 100.191 173.371 95.524 176.9 95.9027C176.9 95.9027 182.043 93.7567 183.57 95.2069C184.026 95.7032 184.365 96.2946 184.565 96.9385C184.764 97.5823 184.817 98.2624 184.721 98.9294L188.632 107.766L190.528 99.9327Z" fill="#ED677B"/>
<g opacity="0.1">
<path opacity="0.1" d="M179.899 85.1859C180.913 85.1859 181.708 84.1114 182.721 84.1671C183.243 84.2539 183.731 84.4834 184.132 84.8302C185.77 85.9647 187.593 86.8057 189.52 87.3156C190.258 87.5596 191.046 87.6165 191.812 87.4812C192.193 87.4061 192.543 87.2192 192.818 86.9442C193.092 86.6692 193.279 86.3187 193.353 85.9374C193.374 85.5978 193.329 85.2574 193.221 84.9349C192.37 81.9724 190.446 79.4331 187.824 77.8128C186.775 77.169 185.494 76.6782 184.334 77.0807C183.285 77.4423 182.609 78.4255 181.849 79.2341C181.277 79.8397 180.628 80.3671 179.918 80.8025C179.366 81.1366 178.538 81.3549 178.22 81.9676C177.612 83.1119 178.553 85.1747 179.899 85.1859Z" fill="black"/>
</g>
<path d="M179.899 84.9341C180.913 84.9341 181.708 83.8596 182.721 83.9153C183.243 84.0022 183.731 84.2317 184.132 84.5785C185.77 85.713 187.593 86.554 189.52 87.0638C190.258 87.3079 191.046 87.3648 191.812 87.2294C192.193 87.1544 192.543 86.9675 192.818 86.6925C193.092 86.4175 193.279 86.067 193.353 85.6856C193.374 85.3461 193.329 85.0056 193.221 84.6832C192.37 81.7206 190.446 79.1814 187.824 77.5611C186.775 76.9173 185.494 76.4265 184.334 76.8289C183.285 77.1906 182.609 78.1737 181.849 78.9824C181.277 79.588 180.628 80.1154 179.918 80.5507C179.366 80.8849 178.538 81.1032 178.22 81.7158C177.612 82.8713 178.553 84.9208 179.899 84.9341Z" fill="#85555C"/>
<path opacity="0.05" d="M176.84 113.743C176.84 113.743 183.021 116.013 187.058 114.249L189.077 114.376C189.077 114.376 192.432 116.729 195.983 115.677" fill="black"/>
<path opacity="0.05" d="M206.106 109.96C206.106 109.96 205.098 112.357 205.6 113.113L206.106 109.96Z" fill="black"/>
<path opacity="0.05" d="M165.867 109.203C165.867 109.203 166.373 111.6 165.867 112.357V109.203Z" fill="black"/>
</g>
<defs>
<filter id="filter0_d" x="1.45544" y="1.45544" width="298.634" height="298.634" filterUnits="userSpaceOnUse" color-interpolation-filters="sRGB">
<feFlood flood-opacity="0" result="BackgroundImageFix"/>
<feColorMatrix in="SourceAlpha" type="matrix" values="0 0 0 0 0 0 0 0 0 0 0 0 0 0 0 0 0 0 127 0"/>
<feOffset dx="3" dy="3"/>
<feGaussianBlur stdDeviation="3"/>
<feColorMatrix type="matrix" values="0 0 0 0 0 0 0 0 0 0 0 0 0 0 0 0 0 0 0.161 0"/>
<feBlend mode="normal" in2="BackgroundImageFix" result="effect1_dropShadow"/>
<feBlend mode="normal" in="SourceGraphic" in2="effect1_dropShadow" result="shape"/>
</filter>
<filter id="filter1_d" x="162.579" y="126.82" width="38.8942" height="57.1627" filterUnits="userSpaceOnUse" color-interpolation-filters="sRGB">
<feFlood flood-opacity="0" result="BackgroundImageFix"/>
<feColorMatrix in="SourceAlpha" type="matrix" values="0 0 0 0 0 0 0 0 0 0 0 0 0 0 0 0 0 0 127 0"/>
<feOffset dy="3"/>
<feGaussianBlur stdDeviation="3"/>
<feColorMatrix type="matrix" values="0 0 0 0 0 0 0 0 0 0 0 0 0 0 0 0 0 0 0.161 0"/>
<feBlend mode="normal" in2="BackgroundImageFix" result="effect1_dropShadow"/>
<feBlend mode="normal" in="SourceGraphic" in2="effect1_dropShadow" result="shape"/>
</filter>
<linearGradient id="paint0_linear" x1="148.591" y1="247.259" x2="148.591" y2="47.322" gradientUnits="userSpaceOnUse">
<stop stop-color="#808080" stop-opacity="0.251"/>
<stop offset="0.54" stop-color="#808080" stop-opacity="0.122"/>
<stop offset="1" stop-color="#808080" stop-opacity="0.102"/>
</linearGradient>
<linearGradient id="paint1_linear" x1="156.574" y1="73.0039" x2="220.944" y2="73.0039" gradientUnits="userSpaceOnUse">
<stop stop-color="#808080" stop-opacity="0.251"/>
<stop offset="0.54" stop-color="#808080" stop-opacity="0.122"/>
<stop offset="1" stop-color="#808080" stop-opacity="0.102"/>
</linearGradient>
<clipPath id="clip0">
<rect width="300" height="300" fill="white"/>
</clipPath>
</defs>
</svg>
