<svg width="140" height="146" viewBox="0 0 140 146" fill="none" xmlns="http://www.w3.org/2000/svg">
<path d="M78.2354 34.6966H77.3744V12.7241C77.3744 5.69988 71.2543 0.00488281 63.7057 0.00488281H13.6687C6.11931 0.00488281 0 5.69911 0 12.7241V133.281C0 140.306 6.12009 146 13.6687 146H63.705C71.2543 146 77.3736 140.306 77.3736 133.281V50.3375H78.2346L78.2354 34.6966Z" fill="#312C2C"/>
<path d="M64.2559 3.14368H57.7249C58.0249 3.82627 58.1398 4.57482 58.0581 5.31505C57.9764 6.05528 57.701 6.76145 57.2592 7.36349C56.7953 7.98791 56.1886 8.49427 55.4891 8.841C54.7896 9.18773 54.0172 9.36495 53.2352 9.35809H24.5696C23.7875 9.36507 23.0149 9.18792 22.3153 8.84118C21.6156 8.49444 21.0089 7.98801 20.5448 7.36349C20.103 6.76145 19.8276 6.05528 19.7459 5.31505C19.6643 4.57482 19.7791 3.82627 20.0791 3.14368H13.9786C8.34301 3.14368 3.77112 7.39454 3.77112 12.6384V132.978C3.77112 138.222 8.34144 142.473 13.9786 142.473H64.2559C69.8915 142.473 74.4634 138.222 74.4634 132.978V12.6384C74.4634 7.39454 69.8931 3.14368 64.2559 3.14368Z" fill="white"/>
<path d="M70.3151 94.6844H10.0322C9.7363 94.684 9.45264 94.5673 9.24341 94.3597C9.03418 94.1522 8.91643 93.8708 8.91602 93.5773V78.7478C8.91643 78.4543 9.03418 78.1729 9.24341 77.9654C9.45264 77.7578 9.7363 77.641 10.0322 77.6406H70.3151C70.611 77.641 70.8947 77.7578 71.1039 77.9654C71.3131 78.1729 71.4308 78.4543 71.4313 78.7478V93.5773C71.4308 93.8708 71.3131 94.1522 71.1039 94.3597C70.8947 94.5673 70.611 94.684 70.3151 94.6844ZM10.0322 78.0793C9.85456 78.0795 9.68425 78.1496 9.55864 78.2742C9.43304 78.3988 9.36238 78.5677 9.36217 78.7439V93.5734C9.36238 93.7496 9.43304 93.9185 9.55864 94.0431C9.68425 94.1677 9.85456 94.2378 10.0322 94.238H70.3151C70.4927 94.2378 70.663 94.1677 70.7886 94.0431C70.9142 93.9185 70.9849 93.7496 70.9851 93.5734V78.7439C70.9849 78.5677 70.9142 78.3988 70.7886 78.2742C70.663 78.1496 70.4927 78.0795 70.3151 78.0793H10.0322Z" fill="#312C2C"/>
<path d="M17.846 90.8109C20.4354 90.8109 22.5345 88.7287 22.5345 86.1602C22.5345 83.5917 20.4354 81.5095 17.846 81.5095C15.2566 81.5095 13.1575 83.5917 13.1575 86.1602C13.1575 88.7287 15.2566 90.8109 17.846 90.8109Z" fill="#312C2C"/>
<path d="M28.6751 83.06C28.4675 83.06 28.2684 83.1418 28.1216 83.2874C27.9748 83.433 27.8923 83.6305 27.8923 83.8364C27.8923 84.0423 27.9748 84.2398 28.1216 84.3854C28.2684 84.531 28.4675 84.6128 28.6751 84.6128H65.5146C65.6174 84.6148 65.7196 84.5967 65.8153 84.5595C65.9111 84.5223 65.9985 84.4668 66.0726 84.3961C66.1467 84.3254 66.206 84.241 66.2472 84.1475C66.2884 84.0541 66.3106 83.9535 66.3126 83.8516C66.3146 83.7496 66.2964 83.6482 66.2589 83.5533C66.2214 83.4583 66.1654 83.3716 66.0942 83.2981C66.0229 83.2246 65.9377 83.1657 65.8435 83.1249C65.7493 83.084 65.6479 83.062 65.5452 83.06H28.679H28.6751Z" fill="#312C2C"/>
<path d="M28.6751 87.7107C28.4675 87.7107 28.2684 87.7925 28.1216 87.9381C27.9748 88.0837 27.8923 88.2812 27.8923 88.4871C27.8923 88.693 27.9748 88.8906 28.1216 89.0362C28.2684 89.1818 28.4675 89.2635 28.6751 89.2635H65.5146C65.7222 89.2669 65.9227 89.1884 66.0719 89.0452C66.2211 88.902 66.3068 88.7059 66.3103 88.5C66.3137 88.294 66.2345 88.0952 66.0902 87.9472C65.9458 87.7992 65.7481 87.7141 65.5405 87.7107H28.6743H28.6751Z" fill="#312C2C"/>
<path d="M70.3151 119.489H10.0322C9.7363 119.488 9.45264 119.371 9.24341 119.164C9.03418 118.956 8.91643 118.675 8.91602 118.381V103.552C8.91643 103.258 9.03418 102.977 9.24341 102.769C9.45264 102.562 9.7363 102.445 10.0322 102.445H70.3151C70.611 102.445 70.8947 102.562 71.1039 102.769C71.3131 102.977 71.4308 103.258 71.4313 103.552V118.381C71.4308 118.675 71.3131 118.956 71.1039 119.164C70.8947 119.371 70.611 119.488 70.3151 119.489ZM10.0322 102.883C9.85456 102.884 9.68425 102.954 9.55864 103.078C9.43304 103.203 9.36238 103.372 9.36217 103.548V118.378C9.36238 118.554 9.43304 118.723 9.55864 118.847C9.68425 118.972 9.85456 119.042 10.0322 119.042H70.3151C70.4927 119.042 70.663 118.972 70.7886 118.847C70.9142 118.723 70.9849 118.554 70.9851 118.378V103.548C70.9849 103.372 70.9142 103.203 70.7886 103.078C70.663 102.954 70.4927 102.884 70.3151 102.883H10.0322Z" fill="#312C2C"/>
<path d="M17.846 115.615C20.4354 115.615 22.5345 113.533 22.5345 110.964C22.5345 108.396 20.4354 106.314 17.846 106.314C15.2566 106.314 13.1575 108.396 13.1575 110.964C13.1575 113.533 15.2566 115.615 17.846 115.615Z" fill="#312C2C"/>
<path d="M28.6751 107.865C28.4675 107.865 28.2684 107.947 28.1216 108.092C27.9748 108.238 27.8923 108.435 27.8923 108.641C27.8923 108.847 27.9748 109.045 28.1216 109.19C28.2684 109.336 28.4675 109.418 28.6751 109.418H65.5146C65.6174 109.419 65.7195 109.401 65.8151 109.363C65.9108 109.326 65.998 109.27 66.0719 109.199C66.1458 109.128 66.2049 109.044 66.2458 108.95C66.2867 108.857 66.3086 108.756 66.3103 108.654C66.312 108.552 66.2934 108.451 66.2556 108.356C66.2179 108.261 66.1616 108.175 66.0902 108.101C66.0187 108.028 65.9333 107.969 65.839 107.929C65.7447 107.888 65.6433 107.867 65.5405 107.865H28.6743H28.6751Z" fill="#312C2C"/>
<path d="M28.6751 112.516C28.4675 112.516 28.2684 112.597 28.1216 112.743C27.9748 112.889 27.8923 113.086 27.8923 113.292C27.8923 113.498 27.9748 113.695 28.1216 113.841C28.2684 113.987 28.4675 114.068 28.6751 114.068H65.5146C65.6174 114.07 65.7195 114.052 65.8151 114.014C65.9108 113.977 65.998 113.921 66.0719 113.85C66.1458 113.779 66.2049 113.695 66.2458 113.601C66.2867 113.507 66.3086 113.407 66.3103 113.305C66.312 113.203 66.2934 113.102 66.2556 113.007C66.2179 112.912 66.1616 112.825 66.0902 112.752C66.0187 112.679 65.9333 112.62 65.839 112.58C65.7447 112.539 65.6433 112.517 65.5405 112.516H28.6743H28.6751Z" fill="#312C2C"/>
<path d="M38.9051 63.9027C36.1208 63.904 33.3634 63.3613 30.7905 62.3055C28.2176 61.2498 25.8795 59.7016 23.9098 57.7495C21.9401 55.7974 20.3773 53.4796 19.3107 50.9283C18.2441 48.3771 17.6945 45.6424 17.6934 42.8805V42.8627C17.6934 42.8184 17.6934 42.7718 17.6934 42.7283C17.7199 38.5726 18.9866 34.5178 21.3334 31.0753C23.6803 27.6328 27.0024 24.9567 30.8806 23.3846C34.7588 21.8125 39.0195 21.4149 43.1253 22.2418C47.231 23.0686 50.998 25.083 53.951 28.0309C56.9041 30.9788 58.911 34.7281 59.7186 38.8059C60.5262 42.8837 60.0984 47.1075 58.489 50.9444C56.8797 54.7813 54.1609 58.0596 50.6756 60.3657C47.1904 62.6719 43.0947 63.9026 38.9051 63.9027ZM38.9051 22.2652C33.4231 22.2773 28.1673 24.4347 24.2798 28.2688C20.3923 32.1029 18.1871 37.3038 18.1434 42.7415C18.1434 42.7889 18.1434 42.8269 18.1434 42.8619C18.1422 46.9363 19.3591 50.9196 21.6403 54.3079C23.9214 57.6963 27.1643 60.3375 30.9589 61.8975C34.7534 63.4575 38.9291 63.8662 42.9579 63.072C46.9866 62.2777 50.6874 60.3162 53.5922 57.4355C56.497 54.5547 58.4753 50.8842 59.2769 46.8881C60.0785 42.892 59.6674 38.7498 58.0956 34.9855C56.5238 31.2212 53.8619 28.0038 50.4465 25.7403C47.0312 23.4767 43.0158 22.2687 38.9083 22.269L38.9051 22.2652Z" fill="#312C2C"/>
<path d="M67.9355 89.3419C72.698 89.3419 76.5588 85.5123 76.5588 80.7882C76.5588 76.0641 72.698 72.2344 67.9355 72.2344C63.173 72.2344 59.3123 76.0641 59.3123 80.7882C59.3123 85.5123 63.173 89.3419 67.9355 89.3419Z" fill="white"/>
<path d="M64.9409 84.6369H60.261C59.9631 84.6424 59.6672 84.589 59.3904 84.4797C59.1136 84.3705 58.8615 84.2076 58.6489 84.0006C58.4363 83.7936 58.2674 83.5466 58.1521 83.2741C58.0368 83.0017 57.9774 82.7091 57.9774 82.4136C57.9774 82.1181 58.0368 81.8255 58.1521 81.5531C58.2674 81.2806 58.4363 81.0336 58.6489 80.8266C58.8615 80.6196 59.1136 80.4567 59.3904 80.3475C59.6672 80.2382 59.9631 80.1848 60.261 80.1903H64.9722C65.2666 80.1923 65.5577 80.2517 65.8289 80.3652C66.1002 80.4788 66.3462 80.6442 66.553 80.8521C66.7598 81.0599 66.9232 81.3061 67.0341 81.5767C67.1449 81.8472 67.201 82.1367 67.199 82.4287C67.1971 82.7207 67.1372 83.0095 67.0227 83.2786C66.9083 83.5476 66.7415 83.7916 66.5319 83.9968C66.3224 84.2019 66.0742 84.3641 65.8015 84.474C65.5288 84.584 65.2368 84.6396 64.9425 84.6376L64.9409 84.6369Z" fill="#E02525"/>
<path d="M140 145.48H70.1412V145.959H140V145.48Z" fill="#3F3D56"/>
<path d="M74.4454 104.93C74.3907 104.845 74.3453 104.755 74.31 104.661L73.197 101.704C73.0682 101.359 73.0824 100.977 73.2366 100.643C73.3908 100.308 73.6723 100.047 74.0196 99.9182L98.8648 90.7154C99.2127 90.5877 99.5974 90.6018 99.9348 90.7547C100.272 90.9076 100.535 91.1869 100.665 91.5314L101.778 94.4888C101.907 94.8338 101.893 95.2156 101.739 95.5504C101.585 95.8852 101.303 96.1456 100.955 96.2745L76.1103 105.477C75.8114 105.587 75.4836 105.593 75.181 105.494C74.8784 105.394 74.6189 105.195 74.4454 104.93Z" fill="#E02525"/>
<path d="M98.785 89.9484L88.6816 93.9445C88.3634 94.0397 88.0942 94.2526 87.93 94.5393C87.7657 94.8259 87.719 95.1643 87.7995 95.4842L88.9736 100.143C89.0199 100.327 89.1068 100.498 89.2279 100.645C89.349 100.791 89.5013 100.91 89.674 100.991C89.8466 101.072 90.0353 101.114 90.2264 101.115C90.4176 101.115 90.6064 101.073 90.7793 100.993L100.91 96.2629C101.231 96.1435 101.491 95.9027 101.634 95.5933C101.776 95.2839 101.789 94.9312 101.67 94.6123L100.452 90.7038C100.332 90.385 100.089 90.1266 99.7765 89.9853C99.4643 89.8439 99.1082 89.8312 98.7866 89.9499L98.785 89.9484Z" fill="#2F2E41"/>
<path d="M117.275 118.961C116.957 118.997 116.637 118.924 116.366 118.755C116.096 118.585 115.892 118.329 115.788 118.029L107.14 93.1603C107.08 92.9878 107.055 92.8051 107.066 92.6229C107.077 92.4407 107.124 92.2625 107.205 92.0984C107.285 91.9343 107.398 91.7875 107.536 91.6665C107.673 91.5455 107.834 91.4527 108.008 91.3932L111.016 90.3637C111.367 90.2439 111.752 90.2673 112.086 90.4287C112.42 90.5901 112.676 90.8764 112.797 91.2247L121.446 116.094C121.566 116.443 121.542 116.824 121.38 117.156C121.217 117.487 120.929 117.741 120.578 117.861L117.57 118.891C117.474 118.924 117.376 118.948 117.275 118.961Z" fill="#E02525"/>
<path d="M113.443 90.8024L116.763 101.077C116.891 101.381 116.897 101.722 116.778 102.03C116.66 102.338 116.426 102.589 116.126 102.731L111.759 104.796C111.586 104.878 111.397 104.92 111.206 104.921C111.015 104.922 110.826 104.88 110.653 104.8C110.48 104.719 110.327 104.602 110.206 104.456C110.084 104.31 109.996 104.139 109.949 103.955L107.183 93.1922C107.072 92.8707 107.094 92.5188 107.244 92.2133C107.394 91.9077 107.659 91.6735 107.983 91.5617L111.798 90.0089C112.122 89.8984 112.477 89.9199 112.786 90.0686C113.094 90.2173 113.33 90.4812 113.443 90.8024Z" fill="#2F2E41"/>
<path d="M103.393 145.62H100.211C99.8397 145.62 99.4835 145.473 99.2209 145.213C98.9582 144.952 98.8105 144.599 98.8101 144.231V117.923C98.8105 117.555 98.9582 117.202 99.2209 116.941C99.4835 116.681 99.8397 116.534 100.211 116.534H103.393C103.764 116.534 104.12 116.681 104.383 116.941C104.646 117.202 104.794 117.555 104.794 117.923V144.231C104.794 144.599 104.646 144.952 104.383 145.213C104.12 145.473 103.764 145.62 103.393 145.62Z" fill="#2F2E41"/>
<path d="M109.687 145.62H106.505C106.134 145.62 105.778 145.473 105.515 145.213C105.252 144.952 105.105 144.599 105.104 144.231V117.923C105.105 117.555 105.252 117.202 105.515 116.941C105.778 116.681 106.134 116.534 106.505 116.534H109.687C110.058 116.534 110.414 116.681 110.677 116.941C110.94 117.202 111.087 117.555 111.088 117.923V144.231C111.087 144.599 110.94 144.952 110.677 145.213C110.414 145.473 110.058 145.62 109.687 145.62Z" fill="#2F2E41"/>
<path d="M112.309 121.016H97.8504C97.4503 121.015 97.0667 120.858 96.7837 120.577C96.5008 120.296 96.3417 119.916 96.3413 119.519V96.221C96.3413 93.9221 97.2619 91.7174 98.9007 90.0918C100.539 88.4663 102.762 87.5531 105.08 87.5531C107.397 87.5531 109.62 88.4663 111.259 90.0918C112.897 91.7174 113.818 93.9221 113.818 96.221V119.519C113.818 119.916 113.658 120.296 113.375 120.577C113.093 120.858 112.709 121.015 112.309 121.016Z" fill="#D3C4C4"/>
<path d="M114.485 126.715H107.155V85.6221L107.291 85.6586C109.355 86.2207 111.177 87.4389 112.476 89.1265C113.776 90.814 114.481 92.8777 114.485 95.0012V126.715Z" fill="#2F2E41"/>
<path d="M102.409 126.715H95.0787V95.002C95.0823 92.8785 95.788 90.8148 97.0874 89.1273C98.3869 87.4397 100.208 86.2215 102.273 85.6594L102.409 85.6229V126.715Z" fill="#2F2E41"/>
<path d="M104.97 82.7339C111.342 82.7339 116.508 77.6097 116.508 71.2887C116.508 64.9678 111.342 59.8436 104.97 59.8436C98.5978 59.8436 93.432 64.9678 93.432 71.2887C93.432 77.6097 98.5978 82.7339 104.97 82.7339Z" fill="#E02525"/>
<path d="M118.016 68.6536C118.016 68.6536 118.662 50.904 110.254 56.6782C110.254 56.6782 105.401 40.5288 93.5461 64.6978L90.0967 68.1195C90.0967 68.1195 105.619 65.9812 120.064 72.6103L118.016 68.6536Z" fill="#2F2E41"/>
<path d="M105.146 76.9573C104.348 77.01 103.552 76.8219 102.863 76.4177C102.66 76.2642 102.492 76.0684 102.373 75.844C102.254 75.6196 102.186 75.3721 102.173 75.1188C102.161 74.9388 102.191 74.7583 102.26 74.5916C102.33 74.4248 102.437 74.2763 102.574 74.1576C102.778 74.0069 103.016 73.9091 103.268 73.8732C103.519 73.8373 103.775 73.8643 104.014 73.9518L103.432 69.7336L103.859 69.6754L104.544 74.6343L104.187 74.472C103.984 74.3554 103.754 74.295 103.52 74.2971C103.286 74.2991 103.056 74.3636 102.856 74.4837C102.769 74.5612 102.701 74.6575 102.658 74.7653C102.615 74.873 102.597 74.9892 102.607 75.1048C102.618 75.2933 102.669 75.4773 102.757 75.6444C102.846 75.8115 102.97 75.9577 103.121 76.073C103.739 76.4244 104.45 76.5836 105.161 76.5303L105.146 76.9573Z" fill="#2F2E41"/>
<path d="M101.319 70.0978H98.9971V70.526H101.319V70.0978Z" fill="#2F2E41"/>
<path d="M108.65 70.0978H106.327V70.526H108.65V70.0978Z" fill="#2F2E41"/>
<path d="M79.2459 106.021C78.935 106.164 78.5795 106.179 78.2573 106.063C77.9352 105.946 77.6728 105.708 77.5279 105.4L70.0881 89.4894C70.0166 89.3365 69.9762 89.1711 69.9691 89.0026C69.9621 88.8342 69.9886 88.6661 70.047 88.5078C70.1055 88.3495 70.1948 88.2042 70.3099 88.0801C70.425 87.9561 70.5636 87.8557 70.7178 87.7848C70.872 87.7139 71.0387 87.6738 71.2085 87.6668C71.3783 87.6598 71.5478 87.6861 71.7074 87.7441C71.867 87.8021 72.0135 87.8907 72.1386 88.0049C72.2636 88.119 72.3648 88.2565 72.4363 88.4094L79.8768 104.317C80.0214 104.625 80.0366 104.978 79.9192 105.297C79.8018 105.617 79.5613 105.877 79.2506 106.021H79.2459Z" fill="#3F3D56"/>
<path d="M71.6002 88.9048C71.3719 88.9048 71.1529 88.8148 70.9914 88.6547C70.8299 88.4945 70.7392 88.2772 70.7392 88.0507V77.153H59.9588C59.7304 77.153 59.5114 77.063 59.35 76.9029C59.1885 76.7427 59.0978 76.5255 59.0978 76.2989C59.0978 76.0724 59.1885 75.8552 59.35 75.695C59.5114 75.5349 59.7304 75.4449 59.9588 75.4449H71.6002C71.8286 75.4449 72.0475 75.5349 72.209 75.695C72.3705 75.8552 72.4612 76.0724 72.4612 76.2989V88.0507C72.4612 88.2772 72.3705 88.4945 72.209 88.6547C72.0475 88.8148 71.8286 88.9048 71.6002 88.9048Z" fill="#E02525"/>
<path d="M71.8046 90.1145C69.9479 90.9689 67.8776 91.2581 65.8553 90.9453C63.833 90.6326 61.9496 89.732 60.4432 88.3575C58.9369 86.983 57.8754 85.1963 57.3928 83.2233C56.9101 81.2503 57.0282 79.1797 57.7319 77.2733C58.4357 75.3668 59.6936 73.7102 61.3465 72.5129C62.9995 71.3156 64.9732 70.6314 67.0182 70.5468C69.0631 70.4622 71.0874 70.9811 72.8351 72.0377C74.5828 73.0943 75.9753 74.6413 76.8367 76.483C77.9917 78.9525 78.1104 81.7761 77.1667 84.3325C76.223 86.8889 74.2942 88.9687 71.8046 90.1145ZM64.1832 73.8191C62.7907 74.4599 61.621 75.4959 60.822 76.7961C60.0231 78.0964 59.6308 79.6024 59.6947 81.1238C59.7587 82.6452 60.276 84.1136 61.1812 85.3434C62.0865 86.5731 63.3391 87.509 64.7806 88.0326C66.2221 88.5562 67.7877 88.644 69.2795 88.285C70.7713 87.9259 72.1223 87.1361 73.1616 86.0155C74.2009 84.8948 74.8818 83.4937 75.1183 81.9891C75.3547 80.4846 75.1361 78.9443 74.4901 77.563C73.6238 75.7108 72.0512 74.2758 70.1183 73.5737C68.1854 72.8716 66.0505 72.9598 64.1832 73.8191Z" fill="#3F3D56"/>
</svg>
