<svg width="116" height="145" viewBox="0 0 116 145" fill="none" xmlns="http://www.w3.org/2000/svg">
<path d="M76.8463 32.0404H76.1058V11.7459C76.1058 8.6307 74.8683 5.64312 72.6656 3.44037C70.4628 1.23762 67.4753 0.00012207 64.3601 0.00012207H21.3637C18.2485 0.00012207 15.2609 1.23762 13.0582 3.44037C10.8554 5.64312 9.61792 8.6307 9.61792 11.7459V123.082C9.61792 124.624 9.92175 126.151 10.512 127.577C11.1023 129.002 11.9675 130.296 13.0582 131.387C14.1489 132.478 15.4437 133.343 16.8688 133.933C18.2938 134.524 19.8212 134.827 21.3637 134.827H64.3594C67.4745 134.827 70.4621 133.59 72.6649 131.387C74.8676 129.184 76.1051 126.197 76.1051 123.082V46.4856H76.8456L76.8463 32.0404Z" fill="#3F3D56"/>
<path d="M114.563 129.292H0V129.67H114.563V129.292Z" fill="#3F3D56"/>
<path opacity="0.2" d="M73.6036 11.8285V123C73.6045 124.153 73.3782 125.294 72.9376 126.358C72.4971 127.423 71.851 128.39 71.0363 129.205C70.2216 130.02 69.2542 130.666 68.1896 131.106C67.125 131.547 65.9839 131.773 64.8317 131.772H21.6308C20.4786 131.773 19.3375 131.547 18.2729 131.106C17.2083 130.666 16.2409 130.02 15.4262 129.205C14.6115 128.39 13.9654 127.423 13.5249 126.358C13.0843 125.294 12.858 124.153 12.8589 123V11.8285C12.858 10.6764 13.0843 9.53532 13.5249 8.47068C13.9654 7.40604 14.6115 6.4387 15.4262 5.62399C16.2409 4.80928 17.2083 4.16318 18.2729 3.72265C19.3375 3.28212 20.4786 3.0558 21.6308 3.05664H26.8715C26.6135 3.68941 26.515 4.37594 26.5848 5.05573C26.6546 5.73552 26.8905 6.38771 27.2718 6.95484C27.653 7.52197 28.1679 7.98662 28.771 8.30786C29.3742 8.6291 30.0471 8.79707 30.7305 8.79696H55.36C56.0434 8.79707 56.7163 8.6291 57.3195 8.30786C57.9226 7.98662 58.4375 7.52197 58.8187 6.95484C59.2 6.38771 59.4359 5.73552 59.5057 5.05573C59.5755 4.37594 59.477 3.68941 59.219 3.05664H64.831C65.9832 3.05571 67.1244 3.28196 68.1891 3.72244C69.2538 4.16293 70.2212 4.80902 71.036 5.62374C71.8508 6.43846 72.497 7.40584 72.9376 8.47052C73.3781 9.5352 73.6045 10.6763 73.6036 11.8285Z" fill="black"/>
<path d="M23.7594 3.05663V131.772H21.6315C21.0749 131.773 20.5196 131.72 19.9731 131.615V3.21341C20.5196 3.10793 21.0749 3.05519 21.6315 3.05592L23.7594 3.05663Z" fill="#3F3D56"/>
<path d="M67.8739 3.59755V131.231C66.9004 131.591 65.8708 131.774 64.833 131.773H64.0869V3.05665H64.833C65.8707 3.05512 66.9004 3.23827 67.8739 3.59755Z" fill="#3F3D56"/>
<path d="M73.605 24.4893H12.8589V28.2762H73.605V24.4893Z" fill="#3F3D56"/>
<path d="M45.0153 61.2202H11.3438V65.0072H45.0153V61.2202Z" fill="#3F3D56"/>
<path d="M43.3114 40.9613H9.63989V44.7483H43.3114V40.9613Z" fill="#3F3D56"/>
<path d="M73.7434 87.9164H43.2603V91.7034H73.7434V87.9164Z" fill="#3F3D56"/>
<path d="M73.605 40.5829H40.4202V44.3699H73.605V40.5829Z" fill="#3F3D56"/>
<path d="M44.8701 81.0414L44.363 81.0416L41.7112 81.0411L22.4743 81.0445L18.099 81.043L9.88498 81.0429L12.0717 77.2554L20.2857 77.2555L24.6603 77.2582L37.8037 77.2562L43.894 77.2546L44.8693 77.2557L44.8701 81.0414Z" fill="#3F3D56"/>
<path d="M44.8701 103.572L44.363 103.572L41.7112 103.572L22.4743 103.575L18.099 103.574L9.88498 103.574L12.0717 99.7862L20.2857 99.7862L24.6603 99.7889L37.8037 99.787L43.894 99.7854L44.8693 99.7864L44.8701 103.572Z" fill="#3F3D56"/>
<path d="M73.6058 115.181H41.2598V118.968H73.6058V115.181Z" fill="#3F3D56"/>
<path d="M86.8076 40.7724C86.8076 52.7975 65.0343 79.5864 65.0343 79.5864C65.0343 79.5864 43.261 52.7982 43.261 40.7724C43.261 34.9977 45.555 29.4595 49.6383 25.3761C53.7217 21.2928 59.2599 18.9988 65.0347 18.9988C70.8094 18.9988 76.3476 21.2928 80.4309 25.3761C84.5143 29.4595 86.8083 34.9977 86.8083 40.7724H86.8076Z" fill="#E02525"/>
<path opacity="0.2" d="M65.034 52.6998C72.1444 52.6998 77.9085 46.9357 77.9085 39.8252C77.9085 32.7148 72.1444 26.9507 65.034 26.9507C57.9236 26.9507 52.1594 32.7148 52.1594 39.8252C52.1594 46.9357 57.9236 52.6998 65.034 52.6998Z" fill="black"/>
<path d="M87.7239 23.2479C87.7239 23.2479 84.3032 22.0264 82.104 26.913C80.4403 30.4443 78.5635 33.8713 76.4841 37.175L78.4389 37.6639C78.4389 37.6639 78.9278 34.2432 80.1492 33.7543L79.6604 38.1527C79.6604 38.1527 94.3215 43.2838 100.918 37.6639L100.674 35.9535C100.674 35.9535 101.652 36.198 101.652 37.6639L102.385 36.9306C101.612 35.6299 100.62 34.4726 99.4525 33.5099C98.0094 32.2271 97.5134 29.7856 97.3424 28.2599C97.2146 26.9855 96.7047 25.7794 95.8793 24.8C94.4184 23.1068 91.7553 21.3066 87.7239 23.2479Z" fill="#2F2E41"/>
<path d="M108.486 50.9012C108.486 50.9012 114.923 56.3885 115.87 59.6103C116.818 62.8322 112.273 63.2078 112.273 63.2078L102.428 64.1541C102.428 64.1541 102.238 68.6979 100.534 69.2659C98.8305 69.8339 100.189 61.7518 100.189 61.7518L109.809 59.0438L105.454 54.5L108.486 50.9012Z" fill="#FBBEBE"/>
<path d="M78.3819 56.5816L77.6243 66.6163L73.4604 83.6562C73.4604 83.6562 69.6734 91.419 72.8903 91.6086C76.1071 91.7981 75.9197 84.2242 75.9197 84.2242L81.9771 68.1306L82.5472 57.1496L78.3819 56.5816Z" fill="#FBBEBE"/>
<path d="M81.7905 129.286V136.669L86.3343 135.533L85.0088 128.716L81.7905 129.286Z" fill="#FBBEBE"/>
<path d="M106.025 129.286V136.669L110.569 135.533L109.243 128.716L106.025 129.286Z" fill="#FBBEBE"/>
<path d="M88.9845 38.9722C92.4351 38.9722 95.2322 36.175 95.2322 32.7245C95.2322 29.274 92.4351 26.4768 88.9845 26.4768C85.534 26.4768 82.7368 29.274 82.7368 32.7245C82.7368 36.175 85.534 38.9722 88.9845 38.9722Z" fill="#FBBEBE"/>
<path d="M86.1446 35.7554C86.1446 35.7554 88.4165 43.8966 84.8191 45.9796C81.2217 48.0627 93.9074 49.577 97.3153 43.3286C97.3153 43.3286 91.2578 41.2456 92.9603 35.7554H86.1446Z" fill="#FBBEBE"/>
<path d="M81.7904 46.9275L80.6545 46.5491C80.6545 46.5491 78.3826 47.4955 78.3826 49.2001C78.3826 50.9047 78.0042 57.7204 78.0042 57.7204L83.1159 58.2905L81.7904 46.9275Z" fill="#575A89"/>
<path d="M82.548 67.1736C82.548 67.1736 76.3003 75.1352 76.3003 84.7915C76.3003 94.4478 77.8147 129.474 77.8147 129.474C77.8147 129.474 83.4944 132.125 86.903 128.904L89.9324 89.1436L101.861 130.233C101.861 130.233 107.54 131.369 110.191 129.475L105.08 102.965C105.08 102.965 104.89 71.5378 99.2103 69.2638C93.5305 66.9898 82.548 67.1736 82.548 67.1736Z" fill="#2F2E41"/>
<path d="M86.7135 134.398C86.7135 134.398 81.7906 131.748 81.4122 135.345C81.0338 138.942 80.8421 141.214 80.8421 141.214C80.8421 141.214 80.2719 145.569 85.5754 144.622C90.8789 143.675 88.9833 141.025 88.9833 141.025C88.9833 141.025 87.0898 137.995 87.0898 137.238C87.016 136.285 86.8904 135.337 86.7135 134.398Z" fill="#2F2E41"/>
<path d="M105.538 134.311C105.538 134.311 110.018 130.966 110.921 134.47C111.824 137.973 112.346 140.192 112.346 140.192C112.346 140.192 113.548 144.416 108.164 144.258C102.781 144.101 104.265 141.201 104.265 141.201C104.265 141.201 105.69 137.926 105.582 137.177C105.515 136.223 105.5 135.267 105.538 134.311Z" fill="#2F2E41"/>
<path d="M99.9662 44.275C99.9662 44.275 102.428 42.9495 104.889 45.7894L109.812 51.4691L106.025 55.6345L98.8274 51.2796L99.9662 44.275Z" fill="#575A89"/>
<path d="M82.2351 32.7652C84.3672 31.3014 86.1398 29.3734 87.4196 27.1261C87.4196 27.1261 91.4816 31.6364 93.9595 31.8616C96.4373 32.0867 94.1847 26.4491 94.1847 26.4491L89.6744 25.3217L85.39 25.7728L82.0071 28.0275L82.2351 32.7652Z" fill="#2F2E41"/>
<path d="M96.369 42.9496C96.369 42.9496 93.7193 47.1392 85.767 45.1388L81.2538 46.3816L80.6538 46.547C80.6538 46.547 81.2239 57.9072 82.7361 59.9895C84.2484 62.0718 83.8721 63.2085 83.4937 63.3974C83.1153 63.5862 82.1682 63.2078 82.7361 64.1549C83.3041 65.102 84.0616 64.5333 83.3062 65.1013C82.5508 65.6693 82.1703 67.7523 82.1703 67.7523L99.9678 70.0242C99.9678 70.0242 99.3977 62.6398 100.914 58.8536C101.647 57.1244 102.279 55.3543 102.808 53.5522L101.672 44.0855L96.369 42.9496Z" fill="#575A89"/>
<path d="M66.9277 95.3001C70.1692 95.3001 72.797 92.6723 72.797 89.4308C72.797 86.1892 70.1692 83.5615 66.9277 83.5615C63.6861 83.5615 61.0583 86.1892 61.0583 89.4308C61.0583 92.6723 63.6861 95.3001 66.9277 95.3001Z" fill="#E02525"/>
<path d="M67.2804 33.7992H62.0774V45.3012H64.608V41.6204H67.2804C70.1473 41.6204 71.2583 39.3499 71.2583 37.475C71.2583 35.6 70.1473 33.7992 67.2804 33.7992ZM66.587 39.32H64.608V35.8694H66.587C67.7628 35.8694 68.8111 36.1288 68.8111 37.5919C68.8111 39.0549 67.7628 39.32 66.587 39.32Z" fill="black" fill-opacity="0.58"/>
</svg>
