<svg width="187" height="140" viewBox="0 0 187 140" fill="none" xmlns="http://www.w3.org/2000/svg">
<path d="M186.984 24.2223C186.978 24.2503 186.968 24.2771 186.954 24.3021C185.852 26.5418 184.773 28.7927 183.718 31.055C183.536 31.4446 183.354 31.8376 183.174 32.2272V30.292C183.354 29.9049 183.535 29.5179 183.718 29.1308C184.531 27.4061 185.359 25.6893 186.203 23.9804C186.212 23.9605 186.223 23.9415 186.235 23.9236C186.486 23.5475 187.106 23.8039 186.984 24.2223Z" fill="white"/>
<path opacity="0.846" d="M111.528 0.424316H6.13641C2.97352 0.42856 0.40942 4.00361 0.406982 8.41556V113.513C0.406982 117.927 2.97352 121.5 6.13641 121.504H111.528C114.691 121.5 117.255 117.925 117.257 113.513V8.41556C117.257 4.00191 114.691 0.42856 111.528 0.424316ZM116.91 113.513C116.91 117.657 114.499 121.014 111.528 121.02H6.13641C3.16526 121.014 0.757964 117.657 0.753902 113.513V8.41556C0.753902 4.27182 3.16526 0.914061 6.13641 0.908968H111.528C114.499 0.914061 116.906 4.27182 116.91 8.41556V113.513Z" fill="#3F3D56" stroke="#707070" stroke-width="0.812454"/>
<path d="M53.1896 58.1904H20.7825C19.4095 58.1888 18.0932 57.6183 17.1223 56.6041C16.1515 55.5898 15.6054 54.2146 15.6039 52.7803V36.7791C15.6054 35.3448 16.1515 33.9696 17.1223 32.9553C18.0932 31.9411 19.4095 31.3706 20.7825 31.369H53.1896C54.5626 31.3706 55.8789 31.9411 56.8498 32.9553C57.8206 33.9696 58.3667 35.3448 58.3682 36.7791V52.7803C58.3667 54.2146 57.8206 55.5898 56.8498 56.6041C55.8789 57.6183 54.5626 58.1888 53.1896 58.1904Z" fill="#E02525"/>
<path d="M108.32 58.1904H75.9125C74.5395 58.1888 73.2232 57.6183 72.2523 56.6041C71.2815 55.5898 70.7354 54.2146 70.7339 52.7803V36.7791C70.7354 35.3448 71.2815 33.9696 72.2523 32.9553C73.2232 31.9411 74.5395 31.3706 75.9125 31.369H108.32C109.693 31.3706 111.01 31.9411 111.981 32.9553C112.951 33.9696 113.497 35.3448 113.499 36.7791V52.7803C113.497 54.2146 112.951 55.5898 111.981 56.6041C111.01 57.6183 109.693 58.1888 108.32 58.1904Z" fill="#E02525"/>
<path d="M108.319 99.5336H75.9124C74.4978 99.532 73.1416 98.9442 72.1414 97.8993C71.1411 96.8543 70.5785 95.4375 70.577 93.9597V77.9585C70.5785 76.4807 71.1411 75.0639 72.1414 74.0189C73.1416 72.9739 74.4978 72.3862 75.9124 72.3846H108.32C109.734 72.3862 111.09 72.9739 112.091 74.0189C113.091 75.0639 113.653 76.4807 113.655 77.9585V93.9563C113.654 95.4348 113.092 96.8526 112.091 97.8984C111.091 98.9441 109.734 99.5322 108.319 99.5336Z" fill="#F2F2F2"/>
<path d="M53.0824 99.5336H20.6761C19.2615 99.532 17.9053 98.9442 16.9051 97.8993C15.9048 96.8543 15.3422 95.4375 15.3407 93.9597V77.9585C15.3422 76.4807 15.9048 75.0639 16.9051 74.0189C17.9053 72.9739 19.2615 72.3862 20.6761 72.3846H53.0832C54.4978 72.3862 55.854 72.9739 56.8543 74.0189C57.8545 75.0639 58.4171 76.4807 58.4186 77.9585V93.9563C58.418 95.4348 57.8556 96.8526 56.8551 97.8984C55.8546 98.9441 54.4977 99.5322 53.0824 99.5336Z" fill="#F2F2F2"/>
<path d="M36.9861 53.9601C41.8393 53.9601 45.7736 49.8499 45.7736 44.7798C45.7736 39.7096 41.8393 35.5994 36.9861 35.5994C32.1329 35.5994 28.1986 39.7096 28.1986 44.7798C28.1986 49.8499 32.1329 53.9601 36.9861 53.9601Z" fill="white"/>
<path d="M36.1144 48.2818C35.9167 48.2822 35.7242 48.2155 35.566 48.0917L35.5562 48.084L33.491 46.4323C33.2978 46.2777 33.1713 46.0492 33.1394 45.7971C33.1075 45.5451 33.1727 45.2901 33.3207 45.0883C33.4688 44.8865 33.6875 44.7543 33.9287 44.721C34.17 44.6876 34.4141 44.7558 34.6073 44.9104L35.9446 45.9816L39.1058 41.6749C39.1791 41.575 39.2705 41.4912 39.3748 41.4282C39.4791 41.3653 39.5943 41.3244 39.7137 41.3079C39.8331 41.2915 39.9545 41.2997 40.0709 41.3322C40.1872 41.3648 40.2963 41.4209 40.3919 41.4975L40.3724 41.5255L40.3927 41.4984C40.5855 41.6533 40.7115 41.8817 40.7434 42.1335C40.7752 42.3854 40.7102 42.6401 40.5625 42.842L36.8448 47.9075C36.7587 48.0243 36.6481 48.1189 36.5214 48.1838C36.3947 48.2487 36.2555 48.2822 36.1144 48.2818Z" fill="#25E08A"/>
<path d="M92.2719 53.8285C97.1251 53.8285 101.059 49.7183 101.059 44.6482C101.059 39.578 97.1251 35.4678 92.2719 35.4678C87.4187 35.4678 83.4844 39.578 83.4844 44.6482C83.4844 49.7183 87.4187 53.8285 92.2719 53.8285Z" fill="white"/>
<path d="M91.4008 48.1502C91.2031 48.1506 91.0107 48.0839 90.8524 47.9601L90.8427 47.9524L88.7775 46.3007C88.5843 46.1461 88.4578 45.9176 88.4259 45.6656C88.394 45.4135 88.4592 45.1585 88.6072 44.9567C88.7553 44.7549 88.974 44.6228 89.2152 44.5894C89.4565 44.5561 89.7006 44.6242 89.8938 44.7789L91.2311 45.85L94.3923 41.5433C94.4656 41.4434 94.557 41.3596 94.6613 41.2967C94.7656 41.2337 94.8808 41.1928 95.0002 41.1763C95.1196 41.1599 95.241 41.1681 95.3574 41.2007C95.4737 41.2332 95.5828 41.2894 95.6784 41.3659L95.6589 41.3939L95.6792 41.3668C95.8724 41.5216 95.9988 41.7502 96.0306 42.0023C96.0624 42.2544 95.9971 42.5094 95.849 42.7112L92.1313 47.7767C92.0451 47.8937 91.9344 47.9883 91.8075 48.0532C91.6807 48.1182 91.5413 48.1516 91.4001 48.1511L91.4008 48.1502Z" fill="#25E08A"/>
<path d="M151.662 87.969C151.951 87.6393 152.168 87.2474 152.296 86.8209C152.424 86.3944 152.461 85.9438 152.404 85.5007C152.347 85.0577 152.198 84.633 151.967 84.2567C151.737 83.8804 151.429 83.5616 151.068 83.3228L146.163 55.9565L140.196 58.2677L146.894 84.4415C146.55 85.1025 146.45 85.8723 146.613 86.6052C146.776 87.338 147.191 87.9829 147.779 88.4177C148.366 88.8525 149.086 89.047 149.802 88.9643C150.518 88.8816 151.18 88.5275 151.662 87.969Z" fill="#A0616A"/>
<path d="M104.054 46.2099C104.069 46.3793 104.071 46.5496 104.06 46.7192L115.661 56.0473L118.95 54.6332L121.638 59.5417L116.047 62.6313C115.595 62.8807 115.078 62.9704 114.573 62.8868C114.069 62.8033 113.604 62.551 113.248 62.1678L101.653 49.6789C101.039 49.8235 100.397 49.7694 99.8135 49.5238C99.2298 49.2783 98.7315 48.8529 98.3849 48.3042C98.0382 47.7556 97.8597 47.1096 97.873 46.4524C97.8863 45.7951 98.0909 45.1577 98.4594 44.6248C98.828 44.092 99.3431 43.689 99.9362 43.4695C100.529 43.25 101.172 43.2243 101.78 43.3959C102.387 43.5676 102.93 43.9283 103.337 44.4302C103.743 44.9322 103.994 45.5514 104.055 46.2057L104.054 46.2099Z" fill="#A0616A"/>
<path d="M131.155 136.543H127.816L126.227 125.933H131.155V136.543Z" fill="#A0616A"/>
<path d="M132.008 139.924H121.241V139.778C121.241 139.203 121.349 138.634 121.56 138.103C121.77 137.572 122.079 137.089 122.468 136.682C122.858 136.276 123.32 135.953 123.828 135.733C124.337 135.513 124.882 135.4 125.432 135.4H132.009L132.008 139.924Z" fill="#2F2E41"/>
<path d="M143.685 136.543H140.346L138.756 125.933H143.685V136.543Z" fill="#A0616A"/>
<path d="M144.538 139.924H133.771V139.778C133.771 139.203 133.879 138.634 134.09 138.103C134.3 137.572 134.609 137.089 134.998 136.682C135.387 136.276 135.849 135.953 136.358 135.733C136.867 135.513 137.412 135.4 137.962 135.4H144.539L144.538 139.924Z" fill="#2F2E41"/>
<path d="M127.124 134.446C126.819 134.446 126.525 134.327 126.3 134.113C126.074 133.899 125.933 133.604 125.905 133.287L122.995 92.3987L123.132 92.3869L143.158 90.6672L143.163 90.8158L144.755 133.17C144.761 133.342 144.734 133.513 144.675 133.674C144.616 133.835 144.527 133.982 144.413 134.106C144.298 134.23 144.161 134.329 144.009 134.396C143.858 134.463 143.694 134.498 143.53 134.498H139.603C139.31 134.5 139.026 134.391 138.804 134.191C138.581 133.992 138.435 133.715 138.392 133.413L133.06 99.1958C133.053 99.1613 133.035 99.1305 133.009 99.1091C132.982 99.0877 132.949 99.0772 132.916 99.0797C132.882 99.0823 132.851 99.0975 132.827 99.1227C132.804 99.1478 132.79 99.1811 132.789 99.2161L132.545 132.998C132.544 133.324 132.423 133.638 132.207 133.875C131.991 134.112 131.697 134.253 131.384 134.271L127.187 134.44L127.124 134.446Z" fill="#2F2E41"/>
<path d="M130.542 40.7243C134.236 40.7243 137.232 37.5953 137.232 33.7354C137.232 29.8756 134.236 26.7466 130.542 26.7466C126.847 26.7466 123.852 29.8756 123.852 33.7354C123.852 37.5953 126.847 40.7243 130.542 40.7243Z" fill="#A0616A"/>
<path d="M131.837 95.0062C128.912 94.997 126.002 94.5814 123.183 93.7704C122.912 93.6879 122.676 93.5103 122.516 93.2674C122.355 93.0245 122.279 92.7312 122.302 92.4369C123.203 78.2963 123.414 67.3225 121.52 59.7301C120.702 56.5935 121.061 53.2489 122.525 50.38C123.54 48.4134 125.048 46.7726 126.888 45.6335C128.728 44.4944 130.83 43.9 132.968 43.914C133.172 43.918 133.378 43.9256 133.586 43.9369C140.061 44.2849 145.107 50.4055 144.833 57.5793L143.534 91.7741C143.529 92.0236 143.453 92.266 143.317 92.4708C143.18 92.6757 142.989 92.8337 142.767 92.925C139.272 94.2981 135.57 95.0031 131.837 95.0062Z" fill="#3F3D56"/>
<path d="M122.622 62.3596L117.611 55.9446C117.468 55.762 117.365 55.5495 117.308 55.3216C117.252 55.0936 117.243 54.8556 117.282 54.6237C117.321 54.3917 117.407 54.1713 117.535 53.9774C117.663 53.7835 117.83 53.6207 118.024 53.5001L124.812 49.274C125.709 48.5132 126.859 48.1562 128.009 48.2814C129.159 48.4066 130.214 49.0038 130.942 49.9416C131.67 50.8794 132.012 52.081 131.892 53.282C131.772 54.4831 131.201 55.5853 130.303 56.346L124.998 62.4275C124.846 62.6016 124.66 62.7394 124.452 62.8316C124.244 62.9238 124.02 62.9682 123.795 62.9617C123.569 62.9553 123.348 62.8982 123.146 62.7943C122.943 62.6904 122.765 62.5421 122.622 62.3596Z" fill="#3F3D56"/>
<path d="M138.386 61.5508C138.18 61.4545 137.997 61.3131 137.848 61.136C137.699 60.9589 137.589 60.7504 137.524 60.5246L135.268 52.6412C135.009 52.0987 134.857 51.5078 134.82 50.9031C134.783 50.2984 134.862 49.692 135.052 49.1195C135.242 48.547 135.54 48.02 135.927 47.5692C136.315 47.1185 136.785 46.7531 137.309 46.4945C137.834 46.2359 138.403 46.0893 138.982 46.0633C139.562 46.0373 140.14 46.1325 140.684 46.3431C141.228 46.5538 141.726 46.8757 142.149 47.2901C142.572 47.7045 142.912 48.2029 143.149 48.7563L147.512 55.639C147.636 55.8355 147.719 56.0577 147.754 56.2905C147.789 56.5233 147.775 56.7613 147.714 56.9881C147.653 57.215 147.546 57.4254 147.4 57.6051C147.254 57.7847 147.072 57.9294 146.868 58.0292L139.689 61.5397C139.485 61.6391 139.264 61.6916 139.039 61.6935C138.814 61.6954 138.591 61.6467 138.386 61.5508Z" fill="#3F3D56"/>
<path d="M133.848 39.4707L128.892 38.2824C128.38 38.1602 127.766 37.9267 127.695 37.3835C127.6 36.6536 128.605 36.1452 128.512 35.4144C128.422 34.7073 127.506 34.6156 126.853 34.4068C126.246 34.1837 125.745 33.7225 125.457 33.1205C125.169 32.5186 125.116 31.8233 125.31 31.1815C125.116 31.4246 124.879 31.625 124.611 31.7713C124.343 31.9175 124.05 32.0065 123.748 32.0332C123.447 32.0599 123.144 32.0237 122.856 31.9268C122.568 31.8298 122.302 31.674 122.072 31.4684C121.634 31.0205 121.346 30.438 121.248 29.8062C121.151 29.1745 121.249 28.5267 121.53 27.9578C121.828 27.3981 122.248 26.9197 122.756 26.5618C123.265 26.2038 123.847 25.9763 124.455 25.8978C125.677 25.7531 126.912 25.9937 128.002 26.5888C128.074 25.7824 129.038 25.4556 129.813 25.448C131.423 25.4677 132.988 26.0113 134.288 27.0032C135.589 27.9951 136.561 29.3859 137.07 30.982C138.021 34.1836 137.385 37.6933 134.723 39.5674L133.848 39.4707Z" fill="#2F2E41"/>
<path d="M156.988 140H53.2084C53.1727 140 53.1373 139.993 53.1043 139.978C53.0713 139.964 53.0413 139.943 53.016 139.917C52.9907 139.89 52.9707 139.859 52.957 139.824C52.9433 139.79 52.9363 139.753 52.9363 139.716C52.9363 139.678 52.9433 139.641 52.957 139.607C52.9707 139.572 52.9907 139.541 53.016 139.515C53.0413 139.488 53.0713 139.467 53.1043 139.453C53.1373 139.439 53.1727 139.431 53.2084 139.431H156.988C157.024 139.431 157.059 139.439 157.092 139.453C157.125 139.467 157.155 139.488 157.18 139.515C157.206 139.541 157.226 139.572 157.239 139.607C157.253 139.641 157.26 139.678 157.26 139.716C157.26 139.753 157.253 139.79 157.239 139.824C157.226 139.859 157.206 139.89 157.18 139.917C157.155 139.943 157.125 139.964 157.092 139.978C157.059 139.993 157.024 140 156.988 140Z" fill="#3F3D56"/>
</svg>
