<svg width="44" height="48" viewBox="0 0 44 48" fill="none" xmlns="http://www.w3.org/2000/svg">
<path d="M28.3921 46.2594C25.5821 48.3786 22.6924 48.4019 18.7677 47.191C18.4785 47.1572 18.2107 47.0226 18.0118 46.8112C17.8129 46.5997 17.6957 46.3251 17.6811 46.0359C17.5968 39.6736 17.6811 30.9733 17.7092 24.1453C17.6681 22.7706 18.0313 21.414 18.7543 20.2417C19.4772 19.0693 20.5285 18.1323 21.7791 17.5455C24.739 15.9929 27.7052 14.4575 30.6776 12.9391C31.3802 12.5852 32.3168 12.0868 31.6143 11.323C31.2022 10.8572 30.3357 11.0062 29.844 11.2438C26.7951 12.7295 23.7883 14.2945 20.7909 15.9013C17.4469 17.6433 15.7562 20.4192 15.7609 24.1965C15.7609 30.4144 15.7609 36.6276 15.7609 42.8268V44.5594C13.4192 43.2646 11.3397 42.1421 9.30243 40.9358C9.0261 40.7728 8.89497 40.172 8.89028 39.7714C8.86687 32.9621 8.84345 26.148 8.89028 19.3386C8.9137 16.6046 10.403 14.6811 12.7494 13.3769C15.7234 11.7701 18.7349 10.1818 21.7042 8.57498C22.0241 8.4399 22.3236 8.2612 22.594 8.04402C22.747 7.89223 22.8443 7.69378 22.8703 7.48045C22.9131 7.27122 22.8783 7.05367 22.7724 6.86793C22.6666 6.68219 22.4967 6.54077 22.2943 6.46976C22.1944 6.42708 22.0868 6.40508 21.9781 6.40508C21.8695 6.40508 21.7619 6.42708 21.662 6.46976C19.901 7.29415 18.215 8.27224 16.5102 9.19444C14.8851 10.0701 13.2318 10.9084 11.6395 11.826C8.47346 13.6145 6.83425 16.3252 6.83894 20.0047C6.83894 25.9726 6.83894 31.9389 6.83894 37.9037V39.3849C1.84171 36.7067 0.399209 34.0007 0.136937 28.6119C-0.0363504 25.0581 -0.0410338 21.5556 0.0994693 17.8016C0.254023 13.6331 0.890971 10.6569 4.14596 8.82649C8.74041 6.21359 13.3723 3.67055 18.0043 1.12751C20.8143 -0.414143 23.6478 -0.353595 26.4344 1.17875C31.5019 3.97329 36.5585 6.78026 41.6041 9.59965C43.145 10.452 43.6508 11.649 43.8756 13.2093C43.9318 13.6285 44.0161 23.8099 43.9973 24.8532C43.9978 25.1705 43.944 25.4855 43.8381 25.7847C43.4454 26.8428 42.6798 27.7233 41.6837 28.2626C37.937 30.5634 34.0825 32.65 30.2702 34.8158C29.8073 35.0004 29.3784 35.2601 29.001 35.5843C28.6557 35.9471 28.4688 36.431 28.4811 36.9303" fill="black"/>
</svg>
