<svg width="262" height="247" viewBox="0 0 262 247" fill="none" xmlns="http://www.w3.org/2000/svg">
<path d="M143.664 197.38C147.07 197.353 150.327 195.974 152.717 193.547C155.108 191.12 156.437 187.843 156.412 184.437L156.392 181.585L159.78 181.568L190.012 181.337L196.59 181.292C197.509 181.284 198.408 181.026 199.192 180.546C225.84 175.991 236.467 152.001 236.251 123.17C236.341 113.22 234.659 103.334 231.284 93.9736L231.623 93.9658C228.007 83.9536 222.163 75.8637 213.691 70.8829L213.713 71.8523C209.445 69.3049 204.754 67.5463 199.863 66.6607C199.491 66.2386 199.033 65.9017 198.519 65.6728C198.005 65.444 197.448 65.3286 196.886 65.3346L155.494 65.6405L155.454 59.5752C155.426 56.1686 154.048 52.9122 151.621 50.5216C149.193 48.1311 145.916 46.8022 142.51 46.8268L142.687 65.8123L91.6432 66.1946L91.6848 72.6208L91.7263 79.0469L91.8035 88.6789L91.6693 88.7499L91.5045 66.4332L67.0164 66.4872C37.2963 66.7132 27.7084 91.6926 27.5068 122.623L27.5778 122.758L27.5769 124.666L27.6444 124.794L27.6751 126.475C28.2727 157.544 38.1644 182.381 68.0263 182.136L92.328 181.875L92.1284 155.995L92.2625 155.924L92.3608 169.133L92.4011 175.198L92.4584 181.979L143.554 181.685L143.672 197.383L143.664 197.38ZM158.992 78.4625L158.818 78.4206L158.952 78.3496L158.992 78.4625Z" fill="url(#paint0_linear)"/>
<path d="M143.015 171.63L142.32 74.9939L94.0027 75.3415L94.6979 171.978L143.015 171.63Z" fill="#4F617D"/>
<path d="M33.6935 124.414L33.7672 124.553C33.549 94.5231 42.3184 69.9471 70.9146 69.7235L93.9289 69.5512L94.6582 178.356L71.6586 178.519C43.0561 178.721 33.9149 154.441 33.6935 124.414Z" fill="#E02525"/>
<path d="M37.0543 97.0324C34.5968 105.963 33.4749 115.208 33.7251 124.468C33.6821 132.514 34.6135 140.537 36.4989 148.359L46.3278 148.293L45.9108 97.0039L37.0543 97.0324Z" fill="#EBEBEB"/>
<path d="M94.1036 90.4571L94.5599 153.881L92.7898 153.894C91.8334 153.9 90.885 153.719 89.9987 153.359C89.1125 153 88.3057 152.469 87.6246 151.797C86.9434 151.126 86.4012 150.327 86.0289 149.446C85.6565 148.565 85.4613 147.619 85.4544 146.663L85.1027 97.7719C85.0888 95.8403 85.8428 93.9824 87.1988 92.6067C88.5548 91.2311 90.4017 90.4505 92.3332 90.4366L94.1034 90.4238L94.1036 90.4571Z" fill="#EBEBEB"/>
<path d="M196.722 78.2494L196.739 80.6091L94.0684 81.3478L93.9816 69.2775L186.924 68.6088C188.201 68.5974 189.467 68.8377 190.651 69.3162C191.835 69.7947 192.912 70.5019 193.822 71.3974C194.732 72.2928 195.457 73.3589 195.954 74.5347C196.452 75.7104 196.713 76.9727 196.722 78.2494V78.2494Z" fill="#FF6469"/>
<path d="M197.375 165.561L197.392 167.92C197.411 170.496 196.406 172.973 194.598 174.807C192.79 176.641 190.327 177.682 187.752 177.701L94.7915 178.37L94.7047 166.299L197.375 165.561Z" fill="#E02525"/>
<path d="M158.122 178.038L157.303 69.2804L185.792 69.0367C217.209 68.8094 229.864 93.0612 230.098 123.083C230.317 153.112 218.022 177.549 186.55 177.824L158.122 178.038Z" fill="#E02525"/>
<path d="M208.869 73.8893L208.992 95.7653L225.692 95.6326C222.337 86.1886 216.829 78.5883 208.869 73.8893Z" fill="#FFF6D5"/>
<path d="M209.602 171.626L209.479 149.75L226.179 149.617C222.872 159.132 217.497 166.82 209.602 171.626Z" fill="#FFF6D5"/>
<path d="M153.971 60.7819L154.032 69.2108L141.961 69.2976L141.831 51.1582L144.157 51.1414C145.435 51.1279 146.703 51.3667 147.889 51.8443C149.074 52.3218 150.154 53.0286 151.066 53.9243C151.977 54.8199 152.703 55.8867 153.202 57.0635C153.7 58.2403 153.962 59.5039 153.971 60.7819V60.7819Z" fill="#FF6469"/>
<path d="M143.049 192.985L142.918 174.861L154.989 174.774L155.049 183.205C155.068 185.78 154.063 188.257 152.255 190.092C150.447 191.926 147.984 192.967 145.409 192.985L143.049 193.002L143.049 192.985Z" fill="#FF6469"/>
<path d="M146.14 169.055L145.451 78.0884L192.844 89.8379C196.532 90.7541 199.809 92.8708 202.161 95.8548C204.513 98.8388 205.806 102.52 205.835 106.32L206.08 140.113C206.109 143.928 204.863 147.643 202.541 150.669C200.218 153.695 196.951 155.858 193.259 156.816L146.14 169.055Z" fill="#797979"/>
<path d="M145.151 81.4507C165.182 81.2929 181.542 99.4268 181.71 121.967C181.879 144.507 165.76 162.838 145.764 163.015" fill="#F4F4F4" fill-opacity="0.53"/>
<path d="M142.78 168.906L142.106 78.2749L151.172 78.2106L148.198 84.7063L148.745 159.151L151.848 168.842L142.78 168.906Z" fill="#FF656A"/>
<path opacity="0.05" d="M142.78 168.906L142.106 78.2749L151.172 78.2106L148.198 84.7063L148.745 159.151L151.848 168.842L142.78 168.906Z" fill="black"/>
<path d="M142.515 123.476L142.429 111.406L130.358 111.493L130.445 123.563L142.515 123.476Z" fill="#53678B"/>
<path d="M127.36 117.572C127.408 124.238 128.798 129.632 130.464 129.62C132.13 129.608 133.442 124.195 133.394 117.528C133.346 110.862 131.957 105.468 130.29 105.48C128.624 105.492 127.312 110.905 127.36 117.572Z" fill="#53678B"/>
<path opacity="0.05" d="M78.1841 81.7644C75.3723 81.45 72.5259 81.7155 69.8208 82.5445C67.1157 83.3736 64.6093 84.7486 62.4566 86.5845C60.3038 88.4205 58.5504 90.6783 57.3047 93.2187C56.059 95.759 55.3474 98.5278 55.214 101.354" fill="black"/>
<path opacity="0.05" d="M78.7655 163.306C75.9622 163.657 73.1166 163.43 70.4042 162.64C67.6919 161.849 65.1701 160.512 62.9943 158.71C60.8186 156.907 59.0348 154.679 57.7531 152.161C56.4714 149.643 55.7188 146.89 55.5417 144.07" fill="black"/>
<path opacity="0.05" d="M193.795 102.066C193.795 102.066 206.021 120.097 194.105 144.353L193.795 102.066Z" fill="black"/>
<path opacity="0.05" d="M182.39 102.146C182.39 102.146 194.616 120.176 182.7 144.433L182.39 102.146Z" fill="black"/>
<path d="M151.457 105.299C151.493 110.299 155.575 114.323 160.575 114.287C165.575 114.251 169.599 110.169 169.563 105.169C169.527 100.169 165.444 96.1449 160.445 96.1809C155.445 96.2168 151.421 100.299 151.457 105.299Z" fill="#EBEBEB"/>
<path d="M157.736 138.482C157.76 141.815 160.482 144.498 163.815 144.474C167.149 144.45 169.832 141.729 169.808 138.395C169.784 135.061 167.062 132.379 163.728 132.403C160.395 132.427 157.712 135.148 157.736 138.482Z" fill="#EBEBEB"/>
<path d="M135.946 127.73L137.071 129.098C137.684 129.845 137.976 130.804 137.882 131.766C137.787 132.727 137.315 133.612 136.569 134.226L121.257 146.807C120.494 147.434 119.512 147.733 118.529 147.637C117.545 147.54 116.64 147.058 116.013 146.295L112.617 142.162L130.861 127.172C131.612 126.578 132.566 126.303 133.518 126.408C134.47 126.512 135.342 126.987 135.946 127.73Z" fill="#FDDABC"/>
<path opacity="0.05" d="M124.395 130.288L130.137 137.291L121.778 144.146C120.284 145.371 118.365 145.953 116.442 145.762C114.519 145.572 112.75 144.626 111.525 143.132L110.402 141.763L124.395 130.288Z" fill="black"/>
<path d="M121.085 89.1774L121.199 105.008L102.451 105.143L102.337 89.3122C102.323 87.3224 103.1 85.4084 104.497 83.9913C105.893 82.5742 107.796 81.77 109.786 81.7557L113.445 81.7294C114.437 81.7111 115.423 81.8899 116.346 82.2554C117.268 82.6208 118.109 83.1657 118.82 83.8584C119.53 84.5511 120.096 85.3779 120.485 86.2909C120.874 87.2039 121.078 88.185 121.085 89.1774Z" fill="#CDEFFF"/>
<path d="M102.754 90.9588L102.403 83.8382C102.755 77.5079 109.07 72.4903 116.763 72.4276L125.694 72.36L125.772 81.7055L102.754 90.9588Z" fill="#CDEFFF"/>
<path d="M144.335 75.883L144.348 77.7038C144.355 78.7002 143.966 79.6587 143.266 80.3684C142.567 81.078 141.614 81.4807 140.618 81.4879L125.695 81.5952L125.628 72.2604L140.55 72.153C141.547 72.1458 142.505 72.5348 143.215 73.2343C143.925 73.9338 144.327 74.8866 144.335 75.883V75.883Z" fill="#FDDABC"/>
<path opacity="0.05" d="M110.888 100.528C107.791 100.548 104.79 101.599 102.356 103.514L102.378 104.484L120.633 104.368C118.007 101.872 114.515 100.494 110.893 100.525L110.888 100.528Z" fill="black"/>
<path d="M102.966 140.36L102.853 124.541L121.533 124.407L121.646 140.237C121.661 142.227 120.884 144.141 119.487 145.558C118.09 146.975 116.188 147.78 114.198 147.794L110.535 147.82C108.546 147.833 106.633 147.056 105.217 145.659C103.802 144.262 102.998 142.36 102.984 140.372L102.966 140.36Z" fill="#CDEFFF"/>
<path opacity="0.05" d="M111.087 129.04C107.985 129.069 104.962 128.063 102.497 126.181L102.475 125.211L120.729 125.095C118.141 127.605 114.683 129.016 111.079 129.035L111.087 129.04Z" fill="black"/>
<path d="M97.152 115.269C97.2077 123.006 103.525 129.233 111.262 129.178C119 129.122 125.227 122.805 125.171 115.067C125.115 107.33 118.798 101.103 111.061 101.159C103.324 101.214 97.0964 107.532 97.152 115.269Z" fill="#CDEFFF"/>
<path d="M97.6703 114.759C97.726 122.496 104.043 128.723 111.781 128.668C119.518 128.612 125.745 122.295 125.689 114.557C125.634 106.82 119.316 100.593 111.579 100.649C103.842 100.704 97.6147 107.022 97.6703 114.759Z" fill="#CDEFFF"/>
<path d="M125.834 114.645C125.817 112.185 125.153 109.773 123.907 107.652C122.661 105.531 120.878 103.775 118.737 102.562C116.624 103.811 114.875 105.592 113.666 107.729C112.457 109.865 111.83 112.282 111.848 114.736C111.866 117.191 112.527 119.598 113.767 121.717C115.007 123.836 116.781 125.592 118.913 126.81C121.033 125.568 122.788 123.79 124.003 121.655C125.218 119.519 125.85 117.102 125.834 114.645Z" fill="#797979"/>
<defs>
<linearGradient id="paint0_linear" x1="-6.87626" y1="64.119" x2="90.7456" y2="248.694" gradientUnits="userSpaceOnUse">
<stop stop-color="#808080" stop-opacity="0.251"/>
<stop offset="0.54" stop-color="#808080" stop-opacity="0.122"/>
<stop offset="1" stop-color="#808080" stop-opacity="0.102"/>
</linearGradient>
</defs>
</svg>
