<svg width="1298" height="544" viewBox="0 0 1298 544" fill="none" xmlns="http://www.w3.org/2000/svg">
<g filter="url(#filter0_d)">
<path d="M1289.01 4.3877H848.032V277.65H1289.01V4.3877Z" fill="#E02525"/>
</g>
<path d="M848.755 266.806H1288.29" stroke="white" stroke-width="2.89166"/>
<path d="M848.755 271.144H1288.29" stroke="white" stroke-width="2.89166"/>
<path d="M848.755 47.0398H1288.29" stroke="white" stroke-width="4.33749"/>
<path d="M850.201 47.0398V171.381" stroke="white" stroke-width="4.33749"/>
<path d="M994.784 47.0398V171.381" stroke="white" stroke-width="4.33749"/>
<path d="M1139.37 47.0398V171.381" stroke="white" stroke-width="4.33749"/>
<path d="M992.778 142.315C992.522 139.127 991.012 136.171 988.578 134.097C986.145 132.023 982.987 131 979.799 131.253L977.132 131.464L976.887 128.294L974.629 100.005L974.144 93.8507C974.074 92.9913 973.772 92.167 973.269 91.4663C967.205 66.8265 944.026 58.4986 917.051 60.6469C907.729 61.2343 898.587 63.4767 890.052 67.2692L890.022 66.9474C880.893 71.0083 873.714 77.0251 869.622 85.295L870.525 85.217C868.428 89.3841 867.099 93.8945 866.601 98.5325C866.231 98.9078 865.946 99.3583 865.766 99.8533C865.586 100.348 865.514 100.876 865.556 101.401L868.644 140.129L862.968 140.576C859.781 140.831 856.825 142.341 854.751 144.775C852.677 147.209 851.653 150.366 851.906 153.554L869.669 152.106L873.473 199.868L879.486 199.396L885.499 198.924L894.512 198.202L894.589 198.325L873.711 199.984L875.417 222.904C877.635 250.712 901.662 258.005 930.637 256.102L930.76 256.025L932.547 255.897L932.669 255.821L934.241 255.679C963.287 253.021 985.871 242.084 983.624 214.143L981.738 191.409L957.523 193.342L957.446 193.22L969.805 192.237L975.48 191.789L981.825 191.278L978.087 143.475L992.777 142.308L992.778 142.315ZM880.413 135.995L880.386 136.162L880.309 136.039L880.413 135.995Z" fill="url(#paint0_linear)"/>
<path d="M968.715 144.661L878.293 151.837L881.881 197.048L972.303 189.871L968.715 144.661Z" fill="#4F617D"/>
<path d="M931.892 250.192L932.015 250.115C903.916 252.349 880.316 245.796 878.175 219.04L876.46 197.507L978.271 189.478L979.977 210.999C982.104 237.763 959.99 247.96 931.892 250.192Z" fill="#797979"/>
<path d="M906.033 248.896C914.561 250.593 923.293 251.018 931.945 250.157C939.481 249.654 946.928 248.241 954.124 245.948L953.398 236.752L905.407 240.608L906.033 248.896Z" fill="#EBEBEB"/>
<path d="M896.025 195.932L955.371 191.222L955.503 192.879C955.646 194.687 955.066 196.477 953.889 197.856C952.713 199.236 951.036 200.092 949.229 200.235L903.481 203.866C901.674 204.009 899.883 203.429 898.504 202.252C897.124 201.076 896.269 199.399 896.125 197.592L895.994 195.935L896.025 195.932Z" fill="#EBEBEB"/>
<path d="M877.665 100.687L879.874 100.512L887.498 196.58L876.204 197.477L869.302 110.509C869.205 109.315 869.345 108.113 869.713 106.973C870.081 105.833 870.67 104.776 871.447 103.864C872.224 102.952 873.173 102.201 874.24 101.656C875.307 101.111 876.471 100.782 877.665 100.687V100.687Z" fill="#E3B92D"/>
<path d="M959.361 94.1797L961.57 94.0044C963.98 93.8135 966.367 94.5877 968.206 96.1565C970.045 97.7254 971.186 99.9606 971.377 102.37L978.28 189.352L966.986 190.249L959.361 94.1797Z" fill="#E3B92D"/>
<path d="M972.336 123.3L870.575 131.41L868.423 104.756C866.087 75.3568 887.939 61.873 916.028 59.6271C944.128 57.3941 967.835 67.2565 970.221 96.6973L972.336 123.3Z" fill="#797979"/>
<path d="M872.764 89.609L893.236 88.0166L891.984 72.3908C883.369 76.1697 876.626 81.8391 872.764 89.609Z" fill="#FFF6D5"/>
<path d="M964.214 82.3229L943.743 83.9153L942.491 68.2894C951.621 70.7424 959.18 75.2512 964.214 82.3229Z" fill="#FFF6D5"/>
<path d="M864.201 141.888L872.088 141.262L872.985 152.556L856.011 153.903L855.838 151.726C855.739 150.531 855.877 149.327 856.244 148.185C856.611 147.043 857.2 145.985 857.977 145.071C858.754 144.157 859.704 143.405 860.772 142.859C861.84 142.313 863.005 141.983 864.201 141.888V141.888Z" fill="#EAA82D"/>
<path d="M988.705 143.187L971.747 144.533L970.85 133.239L978.737 132.613C981.147 132.421 983.534 133.195 985.373 134.764C987.213 136.332 988.354 138.567 988.545 140.977L988.721 143.186L988.705 143.187Z" fill="#EAA82D"/>
<path d="M966.093 141.908L880.974 148.691L888.78 103.529C889.389 100.016 891.149 96.8046 893.783 94.4013C896.418 91.998 899.777 90.5393 903.331 90.255L934.952 87.7447C938.521 87.4597 942.083 88.375 945.072 90.3453C948.062 92.3155 950.308 95.2279 951.453 98.6201L966.093 141.908Z" fill="#797979"/>
<path d="M884.144 148.745C882.645 130.007 898.515 113.464 919.605 111.785C940.694 110.107 958.944 123.957 960.461 142.665" fill="#F4F4F4" fill-opacity="0.53"/>
<path opacity="0.05" d="M966.181 153.206L881.38 159.959L880.707 151.474L886.989 153.821L956.646 148.282L965.505 144.725L966.181 153.206Z" fill="#797979"/>
<path d="M923.668 148.38L912.374 149.276L913.27 160.57L924.565 159.674L923.668 148.38Z" fill="#53678B"/>
<path d="M919.164 162.969C925.401 162.473 930.358 160.808 930.234 159.248C930.11 157.689 924.953 156.826 918.715 157.321C912.478 157.816 907.521 159.481 907.645 161.041C907.769 162.601 912.926 163.464 919.164 162.969Z" fill="#53678B"/>
<path opacity="0.05" d="M888.962 211.423C888.857 214.076 889.298 216.723 890.257 219.2C891.216 221.676 892.672 223.93 894.536 225.822C896.4 227.713 898.633 229.202 901.095 230.197C903.558 231.191 906.198 231.671 908.853 231.605" fill="black"/>
<path opacity="0.05" d="M965.261 205.372C965.779 207.973 965.759 210.652 965.202 213.245C964.646 215.838 963.564 218.289 962.023 220.448C960.483 222.606 958.517 224.427 956.247 225.797C953.976 227.166 951.449 228.057 948.821 228.413" fill="black"/>
<path opacity="0.05" d="M900.16 101.814C900.16 101.814 916.214 89.1505 939.727 98.669L900.16 101.814Z" fill="black"/>
<path opacity="0.05" d="M901.005 112.488C901.005 112.488 917.059 99.8236 940.572 109.342L901.005 112.488Z" fill="black"/>
<path d="M906.048 141.238C910.727 140.867 914.219 136.773 913.847 132.094C913.476 127.415 909.382 123.923 904.703 124.295C900.024 124.666 896.532 128.76 896.904 133.439C897.275 138.118 901.369 141.61 906.048 141.238Z" fill="#EBEBEB"/>
<path d="M936.689 133.118C939.808 132.87 942.136 130.141 941.888 127.022C941.641 123.902 938.911 121.574 935.792 121.822C932.673 122.07 930.345 124.799 930.593 127.918C930.84 131.037 933.569 133.365 936.689 133.118Z" fill="#EBEBEB"/>
<path d="M928.094 154.243L929.299 153.098C929.957 152.473 930.835 152.136 931.742 152.159C932.648 152.183 933.508 152.565 934.132 153.222L946.945 166.707C947.584 167.38 947.929 168.279 947.906 169.206C947.882 170.134 947.491 171.014 946.818 171.653L943.181 175.109L927.915 159.042C927.308 158.379 926.987 157.504 927.02 156.606C927.054 155.708 927.439 154.859 928.094 154.243Z" fill="#FDDABC"/>
<path opacity="0.05" d="M931.269 164.885L937.438 159.036L944.42 166.398C945.668 167.715 946.342 169.473 946.294 171.286C946.246 173.099 945.479 174.818 944.163 176.067L942.957 177.211L931.269 164.885Z" fill="black"/>
<path d="M893.005 170.76L907.818 169.584L909.21 187.126L894.397 188.301C893.475 188.375 892.547 188.266 891.667 187.98C890.787 187.695 889.972 187.239 889.268 186.638C888.564 186.038 887.986 185.304 887.566 184.48C887.145 183.656 886.892 182.757 886.819 181.835L886.548 178.416C886.464 177.488 886.564 176.553 886.844 175.664C887.124 174.776 887.577 173.951 888.178 173.239C888.779 172.527 889.514 171.941 890.343 171.516C891.172 171.09 892.077 170.833 893.005 170.76V170.76Z" fill="#CDEFFF"/>
<path d="M895.91 187.798L889.267 188.608C883.316 188.705 878.193 183.133 877.618 175.94L876.951 167.583L885.695 166.879L895.91 187.798Z" fill="#CDEFFF"/>
<path d="M878.992 149.891L880.695 149.756C881.628 149.682 882.552 149.982 883.264 150.589C883.976 151.197 884.418 152.062 884.492 152.995L885.6 166.957L876.86 167.65L875.752 153.689C875.678 152.756 875.978 151.832 876.585 151.119C877.193 150.407 878.058 149.965 878.992 149.891V149.891Z" fill="#FDDABC"/>
<path opacity="0.05" d="M904.317 179.535C904.545 182.431 905.731 185.169 907.686 187.317L908.589 187.239L907.253 170.164C905.097 172.79 904.045 176.151 904.319 179.538L904.317 179.535Z" fill="black"/>
<path d="M942.141 184.265L927.345 185.44L925.957 167.961L940.77 166.786C942.632 166.638 944.476 167.236 945.897 168.448C947.318 169.66 948.199 171.386 948.347 173.248L948.618 176.671C948.766 178.533 948.168 180.377 946.956 181.798C945.744 183.219 944.018 184.1 942.156 184.248L942.141 184.265Z" fill="#CDEFFF"/>
<path opacity="0.05" d="M930.997 177.423C931.233 180.324 930.496 183.222 928.901 185.658L927.998 185.736L926.657 168.654C929.181 170.907 930.736 174.049 930.997 177.423Z" fill="black"/>
<path d="M919.048 191.402C926.287 190.827 931.69 184.493 931.116 177.253C930.541 170.014 924.207 164.611 916.967 165.185C909.728 165.76 904.325 172.095 904.899 179.334C905.474 186.574 911.808 191.977 919.048 191.402Z" fill="#CDEFFF"/>
<path d="M918.534 190.951C925.773 190.376 931.176 184.042 930.602 176.802C930.027 169.563 923.693 164.16 916.453 164.734C909.214 165.309 903.811 171.643 904.385 178.883C904.96 186.122 911.294 191.525 918.534 190.951Z" fill="#CDEFFF"/>
<path d="M916.524 164.596C914.222 164.778 912.009 165.563 910.107 166.873C908.205 168.182 906.682 169.97 905.691 172.056C907.002 173.952 908.788 175.47 910.87 176.459C912.953 177.448 915.259 177.873 917.557 177.69C919.855 177.507 922.064 176.724 923.964 175.419C925.864 174.113 927.388 172.331 928.383 170.252C927.076 168.351 925.293 166.828 923.211 165.835C921.129 164.842 918.823 164.415 916.524 164.596Z" fill="#797979"/>
<path d="M1029.61 16.888C1030.63 17.432 1031.14 18.3653 1031.14 19.688C1031.14 20.648 1030.77 21.864 1030.01 23.336C1029.17 24.9787 1028.31 25.8 1027.43 25.8C1027.26 25.8 1027.07 25.72 1026.86 25.56C1026.65 25.3893 1026.45 25.224 1026.25 25.064V27.784C1026.25 27.9227 1026.27 28.0827 1026.33 28.264C1026.4 28.52 1026.45 28.696 1026.47 28.792C1026.49 28.888 1026.45 29.0587 1026.34 29.304C1026.25 29.56 1026.1 29.6987 1025.91 29.72C1025.72 29.7413 1025.3 29.608 1024.66 29.32C1023.99 29.0213 1023.58 28.7547 1023.42 28.52C1023.32 28.3707 1023.32 28.1467 1023.42 27.848C1023.49 27.624 1023.53 27.448 1023.53 27.32V17.432C1023.53 17.368 1023.49 17.2507 1023.42 17.08C1023.34 16.9093 1023.31 16.7867 1023.32 16.712C1023.38 16.2 1023.58 15.944 1023.9 15.944C1023.95 15.944 1024.16 16.008 1024.54 16.136C1024.92 16.2533 1025.22 16.3173 1025.45 16.328C1025.77 16.3387 1026.17 16.2533 1026.66 16.072C1027.17 15.8907 1027.53 15.8 1027.75 15.8C1027.88 15.8 1028.01 15.816 1028.14 15.848C1028.38 15.912 1028.64 16.072 1028.9 16.328C1029.22 16.6267 1029.46 16.8133 1029.61 16.888ZM1028.28 18.12C1028.03 18.12 1027.69 18.2533 1027.26 18.52C1026.82 18.7867 1026.48 19.08 1026.25 19.4V23.256C1026.82 23.0747 1027.37 22.4187 1027.88 21.288C1028.35 20.264 1028.58 19.3947 1028.58 18.68C1028.58 18.3067 1028.48 18.12 1028.28 18.12ZM1039.09 28.76C1039.08 28.9093 1039.01 29.0373 1038.9 29.144C1038.78 29.2507 1038.65 29.2933 1038.5 29.272C1037.17 29.0907 1036.44 28.84 1036.29 28.52C1036.27 28.4773 1036.26 28.4347 1036.26 28.392C1036.26 28.3387 1036.28 28.28 1036.32 28.216C1036.37 28.152 1036.41 28.0987 1036.42 28.056C1036.43 28.0027 1036.45 27.9547 1036.48 27.912C1036.5 27.8267 1036.51 27.64 1036.5 27.352C1036.37 27.448 1036.18 27.704 1035.92 28.12C1035.65 28.5787 1035.42 28.8987 1035.22 29.08C1034.88 29.4 1034.49 29.56 1034.05 29.56C1033.79 29.56 1033.54 29.4587 1033.3 29.256C1033.18 29.16 1032.97 28.952 1032.67 28.632C1032.16 28.056 1031.88 27.7413 1031.84 27.688C1031.62 27.3893 1031.5 27.1067 1031.5 26.84C1031.5 26.7547 1031.52 26.6693 1031.54 26.584C1031.74 25.6453 1032.37 24.7547 1033.42 23.912C1034.19 23.304 1035.28 22.6587 1036.69 21.976C1036.69 21.6347 1036.6 21.416 1036.43 21.32C1036.33 21.256 1035.95 21.3787 1035.31 21.688C1034.67 21.9867 1034.22 22.2427 1033.97 22.456C1033.88 22.5413 1033.74 22.6587 1033.55 22.808C1033.37 22.9147 1033.21 22.9467 1033.06 22.904C1032.94 22.872 1032.69 22.68 1032.3 22.328C1031.92 21.976 1031.71 21.7413 1031.68 21.624C1031.6 21.336 1031.69 21.112 1031.95 20.952C1031.96 20.9413 1032.18 20.8773 1032.59 20.76C1032.99 20.5467 1033.38 20.3333 1033.78 20.12C1034.61 19.7253 1035.31 19.512 1035.89 19.48C1036.13 19.4693 1036.41 19.5973 1036.72 19.864C1037 20.1093 1037.28 20.3547 1037.55 20.6C1037.84 20.8347 1038.13 21.064 1038.43 21.288C1038.77 21.5867 1038.94 21.8747 1038.94 22.152V28.2C1039.05 28.4773 1039.1 28.664 1039.09 28.76ZM1036.53 24.088C1036.01 24.2907 1035.56 24.6 1035.18 25.016C1034.91 25.3573 1034.63 25.6933 1034.35 26.024C1034.13 26.248 1033.92 26.5413 1033.71 26.904C1033.52 27.256 1033.42 27.5173 1033.42 27.688C1033.42 27.7733 1033.46 27.816 1033.52 27.816C1033.74 27.816 1034.25 27.336 1035.02 26.376C1035.8 25.4053 1036.3 24.6427 1036.53 24.088ZM1046.59 20.632C1046.63 20.8027 1046.57 20.9413 1046.41 21.048C1046.28 21.112 1046.16 21.1813 1046.04 21.256C1045.37 22.28 1044.46 23.6613 1043.31 25.4C1043.31 27.096 1043.31 27.9707 1043.32 28.024C1043.33 28.0773 1043.37 28.216 1043.43 28.44C1043.51 28.6533 1043.55 28.824 1043.55 28.952C1043.55 29.1547 1043.46 29.2933 1043.27 29.368C1043.16 29.4213 1043 29.448 1042.79 29.448C1042.39 29.448 1041.94 29.3573 1041.45 29.176C1040.83 28.9627 1040.52 28.6907 1040.52 28.36C1040.52 28.264 1040.56 28.1093 1040.65 27.896C1040.74 27.6827 1040.78 27.5067 1040.78 27.368V21.032C1040.66 20.4347 1040.6 20.1253 1040.6 20.104C1040.6 19.7733 1040.75 19.5653 1041.05 19.48C1041.18 19.448 1041.33 19.432 1041.51 19.432C1041.89 19.432 1042.28 19.496 1042.68 19.624C1043.1 19.7413 1043.34 19.8693 1043.42 20.008C1043.44 20.0507 1043.45 20.104 1043.45 20.168C1043.45 20.2213 1043.38 20.4773 1043.23 20.936V21.704C1043.48 21.2453 1043.73 20.7867 1043.98 20.328C1044.31 19.752 1044.55 19.448 1044.71 19.416C1044.95 19.3733 1045.31 19.512 1045.79 19.832C1046.27 20.152 1046.53 20.4187 1046.59 20.632ZM1055.28 27.544C1055.3 27.7467 1055.1 28.1147 1054.67 28.648C1054.25 29.1813 1053.92 29.432 1053.68 29.4C1053.22 29.336 1052.25 28.0987 1050.77 25.688C1050.66 25.8053 1050.48 25.992 1050.23 26.248V28.136C1050.23 28.1893 1050.24 28.2853 1050.26 28.424C1050.29 28.5627 1050.31 28.664 1050.32 28.728C1050.35 29.0907 1050.28 29.3253 1050.1 29.432C1050 29.4853 1049.85 29.512 1049.63 29.512C1049.23 29.512 1048.83 29.4373 1048.45 29.288C1048 29.1173 1047.78 28.9147 1047.78 28.68V16.808C1047.78 16.6373 1047.83 16.4507 1047.94 16.248C1048.05 16.0453 1048.17 15.9173 1048.31 15.864C1048.34 15.8533 1048.38 15.848 1048.43 15.848C1048.71 15.848 1049.1 15.944 1049.59 16.136C1050.09 16.3173 1050.37 16.4773 1050.42 16.616C1050.45 16.6907 1050.47 16.7547 1050.47 16.808C1050.47 16.8933 1050.42 17.0053 1050.34 17.144C1050.25 17.272 1050.21 17.3947 1050.21 17.512V23.064L1052.58 19.816C1052.72 19.624 1052.89 19.5227 1053.11 19.512C1053.31 19.5013 1053.59 19.6293 1053.95 19.896C1054.36 20.1947 1054.57 20.488 1054.58 20.776C1054.59 20.8933 1054.34 21.3093 1053.83 22.024C1053.04 23.1547 1052.57 23.8267 1052.43 24.04L1054.51 26.904C1054.59 27.0107 1054.74 27.1227 1054.98 27.24C1055.17 27.336 1055.27 27.4373 1055.28 27.544ZM1059.35 17.736C1059.36 17.7573 1059.36 17.8 1059.36 17.864C1059.36 18.0987 1059.32 18.4027 1059.22 18.776C1059.11 19.1813 1059.01 19.4053 1058.92 19.448C1058.81 19.4907 1058.35 19.3787 1057.54 19.112C1056.73 18.8347 1056.3 18.6373 1056.24 18.52C1056.21 18.4667 1056.2 18.3867 1056.2 18.28C1056.2 17.992 1056.27 17.688 1056.42 17.368C1056.59 17.0053 1056.78 16.8027 1057 16.76C1057.24 16.7173 1057.67 16.8133 1058.28 17.048C1058.88 17.272 1059.24 17.5013 1059.35 17.736ZM1059.3 28.792C1059.34 29.176 1059.21 29.416 1058.9 29.512C1058.85 29.5227 1058.77 29.528 1058.68 29.528C1058.29 29.528 1057.82 29.448 1057.25 29.288C1056.64 29.1173 1056.29 28.936 1056.18 28.744C1056.13 28.6587 1056.17 28.4933 1056.32 28.248C1056.42 28.088 1056.47 27.7947 1056.47 27.368V20.648C1056.34 20.2427 1056.28 19.9707 1056.28 19.832C1056.28 19.6933 1056.47 19.624 1056.87 19.624C1057.19 19.624 1057.63 19.7253 1058.2 19.928C1058.77 20.12 1059.12 20.2907 1059.24 20.44C1059.27 20.4827 1059.28 20.536 1059.28 20.6C1059.28 20.6853 1059.22 20.8453 1059.09 21.08C1058.97 21.3147 1058.92 21.4907 1058.92 21.608V28.04C1058.92 28.1467 1058.97 28.28 1059.09 28.44C1059.22 28.6 1059.29 28.7173 1059.3 28.792ZM1068.13 28.088C1068.22 28.2907 1068.26 28.4933 1068.26 28.696C1068.26 29.016 1068.14 29.2347 1067.89 29.352C1067.82 29.384 1067.68 29.4 1067.49 29.4C1067.13 29.4 1066.7 29.3413 1066.19 29.224C1065.69 29.1173 1065.39 29.0107 1065.28 28.904C1065.23 28.84 1065.2 28.7707 1065.2 28.696C1065.2 28.5787 1065.28 28.392 1065.44 28.136C1065.6 27.8693 1065.68 27.6773 1065.68 27.56C1065.7 23.3573 1065.67 21.24 1065.59 21.208C1065.44 21.1547 1065.07 21.6347 1064.48 22.648C1063.86 23.7147 1063.55 24.52 1063.55 25.064V28.056C1063.69 28.1947 1063.76 28.3653 1063.76 28.568C1063.76 28.9733 1063.58 29.2507 1063.22 29.4C1063.18 29.4213 1063.11 29.432 1063.03 29.432C1062.74 29.432 1062.32 29.3627 1061.76 29.224C1061.21 29.096 1060.9 28.9893 1060.83 28.904C1060.77 28.8187 1060.74 28.7227 1060.74 28.616C1060.74 28.5093 1060.8 28.3813 1060.91 28.232C1061.04 28.0827 1061.11 27.9867 1061.11 27.944V20.504C1061.11 20.4187 1061.06 20.3067 1060.98 20.168C1060.89 20.0293 1060.87 19.912 1060.9 19.816C1060.96 19.592 1061.13 19.448 1061.39 19.384C1061.56 19.3413 1061.96 19.4 1062.59 19.56C1063.28 19.7307 1063.65 19.9067 1063.71 20.088C1063.76 20.2053 1063.74 20.3813 1063.67 20.616C1063.55 20.9893 1063.49 21.2027 1063.49 21.256C1063.49 21.3733 1063.51 21.5013 1063.55 21.64C1063.71 21.1067 1063.94 20.632 1064.23 20.216C1064.58 19.7147 1064.93 19.464 1065.28 19.464C1065.64 19.464 1066.11 19.592 1066.69 19.848C1067.27 20.0933 1067.6 20.3173 1067.68 20.52C1067.98 21.2027 1068.13 23.7253 1068.13 28.088ZM1076.4 20.648C1076.4 20.6587 1076.34 20.7653 1076.23 20.968C1076.15 21.1173 1076.11 21.2347 1076.11 21.32V28.328C1076.11 30.0987 1075.46 31.2347 1074.15 31.736C1073.54 31.9707 1072.98 32.088 1072.48 32.088C1071.76 32.088 1071.13 31.8427 1070.59 31.352C1070.44 31.224 1070.19 30.9467 1069.83 30.52C1069.8 30.4987 1069.7 30.3973 1069.52 30.216C1069.41 30.0987 1069.36 29.976 1069.35 29.848C1069.33 29.688 1069.49 29.56 1069.83 29.464C1069.87 29.4533 1069.93 29.448 1070.02 29.448C1070.25 29.448 1070.53 29.496 1070.85 29.592C1071.18 29.688 1071.41 29.8053 1071.55 29.944C1071.72 30.1573 1071.9 30.376 1072.08 30.6C1072.26 30.824 1072.48 30.9467 1072.72 30.968C1073.16 31.0107 1073.44 30.712 1073.57 30.072C1073.63 29.7627 1073.67 29.2133 1073.67 28.424C1073.63 28.4667 1073.53 28.6053 1073.36 28.84C1073.23 29.0107 1073.12 29.1333 1073.03 29.208C1072.91 29.3147 1072.79 29.368 1072.66 29.368C1072.09 29.368 1071.62 29.2133 1071.23 28.904C1070.09 27.944 1069.52 26.5307 1069.52 24.664C1069.52 23.48 1069.77 22.4187 1070.27 21.48C1070.8 20.4773 1071.48 19.848 1072.32 19.592C1072.39 19.5707 1072.44 19.56 1072.5 19.56C1072.67 19.56 1072.86 19.64 1073.07 19.8C1073.25 19.9387 1073.44 20.0827 1073.62 20.232C1073.68 20.0507 1073.75 19.8747 1073.81 19.704C1073.88 19.5227 1074 19.4213 1074.15 19.4C1074.37 19.368 1074.76 19.4427 1075.33 19.624C1075.91 19.7947 1076.23 19.944 1076.31 20.072C1076.43 20.2853 1076.47 20.4773 1076.4 20.648ZM1073.57 24.584C1073.65 23.848 1073.7 23.2453 1073.7 22.776C1073.7 21.912 1073.56 21.4267 1073.28 21.32C1073.06 21.2347 1072.79 21.6133 1072.47 22.456C1072.15 23.2987 1071.99 24.0667 1071.99 24.76C1071.99 26.0187 1072.13 27.016 1072.42 27.752C1073.06 26.76 1073.44 25.704 1073.57 24.584ZM1090.99 28.344C1090.98 28.44 1090.96 28.6693 1090.93 29.032C1090.92 29.224 1090.88 29.368 1090.8 29.464C1090.75 29.496 1090.66 29.512 1090.53 29.512C1090.18 29.512 1089.74 29.4213 1089.22 29.24C1088.65 29.0693 1088.27 28.8667 1088.06 28.632C1087.98 28.536 1087.89 28.216 1087.81 27.672C1087.69 26.9573 1087.56 26.3653 1087.41 25.896C1087 25.9493 1086.41 26.0987 1085.63 26.344C1084.85 26.5787 1084.35 26.776 1084.11 26.936C1083.95 27.3947 1083.74 27.96 1083.47 28.632C1083.44 28.7813 1083.4 28.92 1083.36 29.048C1083.33 29.1867 1083.24 29.2987 1083.09 29.384C1083.06 29.4053 1083.01 29.416 1082.94 29.416C1082.69 29.416 1082.26 29.2827 1081.65 29.016C1081.05 28.7493 1080.74 28.5733 1080.72 28.488C1080.68 28.3387 1080.78 27.9707 1081.02 27.384C1081.37 26.5307 1081.56 26.008 1081.62 25.816C1081.39 25.592 1081.28 25.368 1081.28 25.144C1081.28 25.0907 1081.29 25.032 1081.3 24.968C1081.32 24.84 1081.64 24.6107 1082.27 24.28L1084.34 17.224C1084.37 17.096 1084.37 16.8613 1084.35 16.52C1084.33 16.232 1084.36 16.0507 1084.45 15.976C1084.5 15.9227 1084.63 15.896 1084.83 15.896C1085.33 15.896 1086.05 16.024 1086.98 16.28C1087.9 16.536 1088.46 16.7653 1088.64 16.968C1088.7 18.152 1088.94 19.928 1089.36 22.296C1089.89 25.2187 1090.44 27.2347 1090.99 28.344ZM1086.82 23.48C1086.68 22.808 1086.59 22.3653 1086.56 22.152C1086.44 21.4373 1086.36 20.696 1086.32 19.928C1086.11 20.4507 1085.86 21.176 1085.57 22.104C1085.26 23.0747 1085.09 23.6827 1085.07 23.928C1085.28 23.8427 1085.86 23.6933 1086.82 23.48ZM1098.4 20.632C1098.44 20.8027 1098.38 20.9413 1098.22 21.048C1098.09 21.112 1097.97 21.1813 1097.85 21.256C1097.18 22.28 1096.27 23.6613 1095.12 25.4C1095.12 27.096 1095.12 27.9707 1095.13 28.024C1095.15 28.0773 1095.18 28.216 1095.25 28.44C1095.32 28.6533 1095.36 28.824 1095.36 28.952C1095.36 29.1547 1095.27 29.2933 1095.09 29.368C1094.97 29.4213 1094.81 29.448 1094.61 29.448C1094.2 29.448 1093.75 29.3573 1093.26 29.176C1092.64 28.9627 1092.33 28.6907 1092.33 28.36C1092.33 28.264 1092.38 28.1093 1092.46 27.896C1092.55 27.6827 1092.59 27.5067 1092.59 27.368V21.032C1092.47 20.4347 1092.41 20.1253 1092.41 20.104C1092.41 19.7733 1092.56 19.5653 1092.86 19.48C1092.99 19.448 1093.15 19.432 1093.33 19.432C1093.7 19.432 1094.09 19.496 1094.49 19.624C1094.91 19.7413 1095.16 19.8693 1095.23 20.008C1095.25 20.0507 1095.26 20.104 1095.26 20.168C1095.26 20.2213 1095.19 20.4773 1095.04 20.936V21.704C1095.29 21.2453 1095.55 20.7867 1095.79 20.328C1096.12 19.752 1096.37 19.448 1096.53 19.416C1096.76 19.3733 1097.12 19.512 1097.6 19.832C1098.08 20.152 1098.35 20.4187 1098.4 20.632ZM1105.33 26.312C1105.43 26.472 1105.22 26.9467 1104.71 27.736C1104.15 28.5787 1103.61 29.1493 1103.08 29.448C1103.01 29.48 1102.92 29.496 1102.79 29.496C1102.37 29.496 1101.83 29.368 1101.16 29.112C1100.44 28.856 1099.97 28.5787 1099.75 28.28C1099.13 27.48 1098.82 26.3707 1098.82 24.952C1098.82 23.608 1099.09 22.424 1099.64 21.4C1100.22 20.28 1100.97 19.7093 1101.88 19.688C1102.21 19.6773 1102.61 19.7627 1103.08 19.944C1103.65 20.168 1104.13 20.472 1104.5 20.856C1104.6 20.952 1104.69 21.24 1104.77 21.72C1104.88 22.232 1104.93 22.7333 1104.93 23.224C1104.93 23.9493 1104.82 24.4507 1104.58 24.728C1103.48 25.08 1102.36 25.2773 1101.22 25.32C1101.2 25.8427 1101.26 26.392 1101.41 26.968C1101.56 27.544 1101.72 27.8373 1101.88 27.848C1102.09 27.8587 1102.35 27.6827 1102.64 27.32C1102.91 27.0107 1103.08 26.7493 1103.14 26.536C1103.22 26.216 1103.32 25.8853 1103.44 25.544C1103.62 25.5227 1103.95 25.608 1104.45 25.8C1104.95 25.992 1105.25 26.1627 1105.33 26.312ZM1102.48 21.416C1102.3 21.3947 1102.05 21.6827 1101.72 22.28C1101.4 22.8773 1101.21 23.448 1101.16 23.992C1101.64 23.9707 1102.02 23.8533 1102.31 23.64C1102.48 23.512 1102.56 22.9787 1102.56 22.04C1102.56 21.6453 1102.54 21.4373 1102.48 21.416ZM1114.12 28.76C1114.11 28.9093 1114.05 29.0373 1113.93 29.144C1113.81 29.2507 1113.68 29.2933 1113.53 29.272C1112.21 29.0907 1111.47 28.84 1111.32 28.52C1111.3 28.4773 1111.29 28.4347 1111.29 28.392C1111.29 28.3387 1111.31 28.28 1111.35 28.216C1111.41 28.152 1111.44 28.0987 1111.45 28.056C1111.46 28.0027 1111.48 27.9547 1111.51 27.912C1111.53 27.8267 1111.54 27.64 1111.53 27.352C1111.4 27.448 1111.21 27.704 1110.95 28.12C1110.69 28.5787 1110.45 28.8987 1110.25 29.08C1109.91 29.4 1109.52 29.56 1109.08 29.56C1108.82 29.56 1108.57 29.4587 1108.33 29.256C1108.21 29.16 1108 28.952 1107.7 28.632C1107.19 28.056 1106.91 27.7413 1106.87 27.688C1106.65 27.3893 1106.54 27.1067 1106.54 26.84C1106.54 26.7547 1106.55 26.6693 1106.57 26.584C1106.77 25.6453 1107.4 24.7547 1108.46 23.912C1109.22 23.304 1110.31 22.6587 1111.72 21.976C1111.72 21.6347 1111.63 21.416 1111.46 21.32C1111.36 21.256 1110.98 21.3787 1110.34 21.688C1109.7 21.9867 1109.26 22.2427 1109 22.456C1108.91 22.5413 1108.78 22.6587 1108.58 22.808C1108.4 22.9147 1108.24 22.9467 1108.09 22.904C1107.97 22.872 1107.72 22.68 1107.34 22.328C1106.95 21.976 1106.74 21.7413 1106.71 21.624C1106.63 21.336 1106.72 21.112 1106.98 20.952C1106.99 20.9413 1107.21 20.8773 1107.62 20.76C1108.02 20.5467 1108.41 20.3333 1108.81 20.12C1109.64 19.7253 1110.34 19.512 1110.92 19.48C1111.17 19.4693 1111.44 19.5973 1111.75 19.864C1112.03 20.1093 1112.31 20.3547 1112.58 20.6C1112.87 20.8347 1113.17 21.064 1113.46 21.288C1113.81 21.5867 1113.98 21.8747 1113.98 22.152V28.2C1114.08 28.4773 1114.13 28.664 1114.12 28.76ZM1111.56 24.088C1111.04 24.2907 1110.59 24.6 1110.22 25.016C1109.94 25.3573 1109.66 25.6933 1109.38 26.024C1109.16 26.248 1108.95 26.5413 1108.74 26.904C1108.55 27.256 1108.46 27.5173 1108.46 27.688C1108.46 27.7733 1108.49 27.816 1108.55 27.816C1108.78 27.816 1109.28 27.336 1110.06 26.376C1110.83 25.4053 1111.34 24.6427 1111.56 24.088Z" fill="white"/>
<path d="M0 471H1210" stroke="#666666" stroke-miterlimit="10" stroke-dasharray="12 12"/>
<path d="M1210 471V278" stroke="#666666" stroke-miterlimit="10" stroke-dasharray="12 12"/>
<path d="M0 543H1288" stroke="#666666" stroke-miterlimit="10"/>
<path d="M0 399H1139" stroke="#666666" stroke-miterlimit="10"/>
<path d="M1139 399V278" stroke="#666666" stroke-miterlimit="10"/>
<path d="M1287 543V275" stroke="#666666" stroke-miterlimit="10"/>
<defs>
<filter id="filter0_d" x="839.357" y="0.0502005" width="458.329" height="290.612" filterUnits="userSpaceOnUse" color-interpolation-filters="sRGB">
<feFlood flood-opacity="0" result="BackgroundImageFix"/>
<feColorMatrix in="SourceAlpha" type="matrix" values="0 0 0 0 0 0 0 0 0 0 0 0 0 0 0 0 0 0 127 0"/>
<feOffset dy="4.33749"/>
<feGaussianBlur stdDeviation="4.33749"/>
<feColorMatrix type="matrix" values="0 0 0 0 0 0 0 0 0 0 0 0 0 0 0 0 0 0 0.098 0"/>
<feBlend mode="normal" in2="BackgroundImageFix" result="effect1_dropShadow"/>
<feBlend mode="normal" in="SourceGraphic" in2="effect1_dropShadow" result="shape"/>
</filter>
<linearGradient id="paint0_linear" x1="878.189" y1="292.241" x2="1044.39" y2="188.388" gradientUnits="userSpaceOnUse">
<stop stop-color="#808080" stop-opacity="0.251"/>
<stop offset="0.54" stop-color="#808080" stop-opacity="0.122"/>
<stop offset="1" stop-color="#808080" stop-opacity="0.102"/>
</linearGradient>
</defs>
</svg>
