<svg width="204" height="160" viewBox="0 0 204 160" fill="none" xmlns="http://www.w3.org/2000/svg">
<g clip-path="url(#clip0)">
<path d="M72.3046 139.156H49.6689V131.171C49.6689 130.056 50.1122 128.986 50.9011 128.197C51.69 127.408 52.76 126.965 53.8757 126.965H68.0978C69.2135 126.965 70.2835 127.408 71.0724 128.197C71.8614 128.986 72.3046 130.056 72.3046 131.171V139.156Z" fill="#ED1C24" fill-opacity="0.3"/>
<path d="M94.9407 139.155H72.3096V120.729C72.3096 119.613 72.7528 118.543 73.5417 117.754C74.3306 116.965 75.4006 116.522 76.5163 116.522H90.7399C91.2924 116.522 91.8394 116.631 92.3498 116.842C92.8602 117.054 93.3239 117.364 93.7146 117.754C94.1052 118.145 94.415 118.609 94.6264 119.119C94.8379 119.629 94.9467 120.177 94.9467 120.729L94.9407 139.155Z" fill="#ED1C24" fill-opacity="0.56"/>
<path d="M117.578 139.156H94.9424V109.512C94.9424 108.396 95.3856 107.326 96.1745 106.537C96.9634 105.748 98.0334 105.305 99.1491 105.305H113.376C114.491 105.305 115.561 105.748 116.35 106.537C117.139 107.326 117.582 108.396 117.582 109.512L117.578 139.156Z" fill="#ED1C24" fill-opacity="0.3"/>
<path d="M140.213 139.156H117.577V92.5026C117.577 91.3869 118.02 90.317 118.809 89.528C119.598 88.7391 120.668 88.2959 121.784 88.2959H136.006C137.122 88.2959 138.192 88.7391 138.981 89.528C139.77 90.317 140.213 91.3869 140.213 92.5026V139.156Z" fill="#FFCBB8"/>
<path d="M123.721 40.6262H146.488C146.643 40.6251 146.793 40.5773 146.92 40.4891C147.047 40.4009 147.144 40.2764 147.199 40.132C147.253 39.9876 147.263 39.83 147.227 39.6799C147.19 39.5299 147.109 39.3944 146.994 39.2912L141.08 34.0847C140.999 34.0129 140.933 33.9246 140.889 33.8256C140.844 33.7266 140.821 33.6193 140.821 33.5107C140.821 33.4021 140.844 33.2947 140.889 33.1958C140.933 33.0968 140.999 33.0084 141.08 32.9366L147 27.7212C147.115 27.6181 147.196 27.4826 147.233 27.3325C147.269 27.1824 147.259 27.0248 147.205 26.8804C147.15 26.736 147.053 26.6115 146.926 26.5233C146.799 26.4351 146.649 26.3873 146.494 26.3862H123.721V40.6262Z" fill="#ED1C24"/>
<path d="M125.535 47.2966L100.871 60.6896C98.67 61.8837 98.0693 63.9856 97.3009 66.6912L92.3955 84.0387L104.41 79.1141L109.076 65.012L121.488 57.4708C123.177 56.4459 124.487 54.8981 125.217 53.062C125.947 51.226 126.059 49.2018 125.535 47.2966Z" fill="#83D9FF"/>
<path d="M125.535 47.2966L122.69 48.8408C122.447 50.0813 121.949 51.2575 121.226 52.2943C120.503 53.331 119.572 54.2055 118.492 54.8616L107.183 61.7324C106.471 62.1652 105.936 62.8372 105.674 63.6281L104.059 68.5097C103.229 71.017 101.867 73.315 100.065 75.2461C98.264 77.1772 96.0659 78.6956 93.6222 79.697L92.3955 84.0343L104.41 79.1081L109.076 65.0076L121.488 57.4663C123.176 56.4414 124.484 54.8942 125.215 53.0592C125.945 51.2242 126.057 49.2012 125.535 47.2966Z" fill="#5FC9ED"/>
<path d="M104.415 79.1096L111.519 87.5038C112.695 89.0628 113.72 90.1575 113.508 91.8722L111.846 105.298H107.508L106.374 93.7545C106.341 93.4118 106.216 93.0844 106.012 92.8063C105.809 92.5282 105.535 92.3097 105.219 92.1733L92.3926 84.0343L104.415 79.1096Z" fill="#38627C"/>
<path d="M92.3966 84.0343L91.7039 96.7598C91.8003 97.6233 91.6942 98.4973 91.3939 99.3126L83.2148 116.519H87.8132L100.111 100.183C100.698 99.2764 101.054 98.2403 101.15 97.1647L104.413 79.1052L92.3966 84.0343Z" fill="#4F7693"/>
<path d="M103.533 50.0423L105.55 53.979C106.006 54.8673 106.09 55.9002 105.784 56.8504C105.478 57.8006 104.807 58.5904 103.919 59.0461L102.36 59.8441C101.472 60.299 100.439 60.3827 99.4893 60.0768C98.5394 59.7708 97.7499 59.1002 97.2942 58.2124L95.2769 54.2757C94.8215 53.3873 94.7375 52.3545 95.0435 51.4043C95.3495 50.4541 96.0203 49.6643 96.9085 49.2086L98.4675 48.4106C99.3556 47.9552 100.388 47.8713 101.338 48.1773C102.288 48.4833 103.078 49.1542 103.533 50.0423Z" fill="#FECBAA"/>
<path d="M148.146 37.9829L143.065 33.5092L148.146 29.0354C148.528 28.6987 148.799 28.2534 148.922 27.7589C149.045 27.2645 149.014 26.7442 148.835 26.2675C148.655 25.7908 148.334 25.3801 147.915 25.0902C147.496 24.8003 146.998 24.645 146.489 24.6448H125.464V23.7429C125.464 23.2807 125.28 22.8373 124.954 22.5105C124.627 22.1836 124.183 22 123.721 22C123.259 22 122.816 22.1836 122.489 22.5105C122.162 22.8373 121.978 23.2807 121.978 23.7429V47.2448L107.667 55.016C107.586 54.3774 107.395 53.7579 107.1 53.1855L105.085 49.2488C104.417 47.9488 103.262 46.9668 101.871 46.5185C100.48 46.0701 98.9686 46.1921 97.6679 46.8576L96.1089 47.6557C95.4645 47.9852 94.8915 48.4386 94.4225 48.9899C93.9535 49.5411 93.5978 50.1794 93.3757 50.8683C93.1536 51.5571 93.0695 52.283 93.1282 53.0043C93.1869 53.7257 93.3873 54.4284 93.7178 55.0723L95.7336 59.0106C96.1895 59.8946 96.8777 60.6377 97.7243 61.1599C96.7252 62.7046 96.0137 64.4172 95.6239 66.2151L95.2486 67.5501C95.1862 67.7703 95.1678 68.0007 95.1945 68.228C95.2212 68.4553 95.2925 68.6751 95.4042 68.8749C95.5159 69.0746 95.6659 69.2504 95.8456 69.3922C96.0254 69.5339 96.2313 69.6388 96.4516 69.7009C96.6059 69.7453 96.7657 69.7677 96.9262 69.7677C97.3057 69.7671 97.6746 69.6429 97.9771 69.4138C98.2796 69.1846 98.4991 68.8631 98.6024 68.4979L98.9777 67.1704C99.7416 64.4766 100.21 63.0348 101.704 62.2235L104.374 60.7698L104.705 60.6007C104.815 60.5443 104.917 60.4805 105.021 60.4182L124.099 50.0587C124.039 51.2575 123.687 52.4235 123.074 53.4554C122.461 54.4873 121.605 55.3539 120.581 55.9801L108.174 63.5184L108.131 63.5436L104.275 65.8888C103.893 66.122 103.616 66.493 103.5 66.9251C103.384 67.3571 103.439 67.8171 103.653 68.2098C103.867 68.6025 104.224 68.898 104.65 69.035C105.075 69.172 105.538 69.1401 105.94 68.9459L103.011 77.8029L100.869 78.681L95.0454 81.0677L96.723 75.1344C96.8427 74.6916 96.783 74.2195 96.5569 73.8204C96.3308 73.4214 95.9565 73.1275 95.5152 73.0026C95.0738 72.8777 94.6011 72.9317 94.1993 73.1531C93.7976 73.3744 93.4994 73.7452 93.3692 74.185L90.7185 83.5582C90.6832 83.6819 90.6623 83.8094 90.6562 83.9379L89.962 96.6842C90.0148 97.3145 89.9647 97.9493 89.8137 98.5636L82.1003 114.778H76.5112C74.9337 114.779 73.4213 115.407 72.3059 116.522C71.1904 117.638 70.5631 119.15 70.5615 120.727V125.759C69.7884 125.405 68.948 125.222 68.0977 125.223H53.8755C52.2994 125.227 50.7889 125.855 49.675 126.97C48.5612 128.086 47.9349 129.597 47.9333 131.173V137.413H43.7429C43.2807 137.413 42.8373 137.597 42.5105 137.924C42.1836 138.251 42 138.694 42 139.156C42 139.619 42.1836 140.062 42.5105 140.389C42.8373 140.716 43.2807 140.899 43.7429 140.899H146.487C146.949 140.899 147.393 140.716 147.72 140.389C148.047 140.062 148.23 139.619 148.23 139.156C148.23 138.694 148.047 138.251 147.72 137.924C147.393 137.597 146.949 137.413 146.487 137.413H141.954V92.4967C141.953 90.9193 141.325 89.4069 140.21 88.2914C139.094 87.176 137.582 86.5487 136.005 86.5471H125.464V56.1477C126.44 54.8283 127.105 53.3048 127.408 51.6917C127.711 50.0786 127.645 48.4178 127.214 46.8339C127.11 46.4545 126.88 46.1216 126.562 45.8894C126.244 45.6572 125.857 45.5395 125.464 45.5553V42.3735H146.487C146.997 42.3736 147.495 42.2185 147.914 41.9287C148.333 41.6389 148.654 41.2283 148.834 40.7515C149.014 40.2747 149.045 39.7544 148.922 39.2597C148.799 38.7651 148.528 38.3197 148.146 37.9829ZM96.6993 51.9366C96.7792 51.682 96.909 51.446 97.0812 51.2423C97.2533 51.0385 97.4644 50.8711 97.702 50.7499L99.261 49.9519C99.738 49.7076 100.293 49.6627 100.803 49.8271C101.313 49.9914 101.737 50.3517 101.981 50.8285L104.003 54.7816C104.227 55.2219 104.283 55.7291 104.159 56.2075C104.035 56.6859 103.741 57.1025 103.331 57.3789L102.763 57.6859L101.565 58.3C101.087 58.5438 100.533 58.5883 100.023 58.4237C99.5127 58.259 99.0888 57.8987 98.8442 57.4219L96.8268 53.4852C96.7038 53.2484 96.6291 52.9896 96.6072 52.7237C96.5853 52.4578 96.6166 52.1902 96.6993 51.9366ZM93.1986 115.316C92.594 115.04 91.9471 114.867 91.2851 114.806L93.1986 112.265V115.316ZM101.473 101.275C102.154 100.363 102.587 99.2898 102.729 98.1601C102.776 97.9346 103.637 93.2384 103.637 93.2384C103.637 93.2384 104.451 93.7457 104.536 93.7813C104.565 93.7947 104.59 93.8154 104.609 93.8414C104.627 93.8674 104.639 93.8978 104.643 93.9296L105.59 103.571H99.749L101.473 101.275ZM111.777 91.6572L110.306 103.555H109.091L108.111 93.5855C108.049 92.9598 107.828 92.3603 107.469 91.8444C107.109 91.3286 106.623 90.9137 106.058 90.6396L104.3 89.5286L105.467 83.0583C105.467 83.0583 110.39 88.8982 110.505 89.0465C111.522 90.3726 111.865 90.9022 111.777 91.6572ZM92.9539 100.091C93.3035 99.0496 93.4686 97.9548 93.4419 96.8562L94.0753 85.2299L102.136 81.9265L100.67 90.0418C100.67 90.0641 100.661 90.0863 100.658 90.1086L99.4464 96.8192C99.3474 97.6288 99.1 98.4132 98.7166 99.1331L86.9449 114.781H85.9748L92.9539 100.091ZM51.4117 131.173C51.4125 130.52 51.6724 129.894 52.1343 129.432C52.5962 128.971 53.2225 128.711 53.8755 128.711H68.0977C68.7509 128.711 69.3773 128.971 69.8395 129.432C70.3016 129.894 70.5618 130.52 70.563 131.173V137.415H51.4117V131.173ZM74.0473 131.173V120.729C74.0489 120.076 74.3091 119.451 74.7709 118.99C75.2327 118.528 75.8585 118.269 76.5112 118.268H90.7333C91.3865 118.269 92.0127 118.529 92.4746 118.991C92.9365 119.452 93.1963 120.079 93.1971 120.732V137.413H74.0473V131.173ZM138.47 92.4967V137.413H119.32V126.965C119.32 126.503 119.136 126.059 118.81 125.732C118.483 125.406 118.039 125.222 117.577 125.222C117.115 125.222 116.672 125.406 116.345 125.732C116.018 126.059 115.834 126.503 115.834 126.965V137.413H96.683V109.516C96.6837 108.863 96.9436 108.237 97.4055 107.776C97.8675 107.314 98.4937 107.055 99.1468 107.054H113.369C114.022 107.055 114.648 107.314 115.11 107.776C115.572 108.237 115.832 108.863 115.833 109.516V118.252C115.833 118.714 116.016 119.157 116.343 119.484C116.67 119.811 117.113 119.995 117.576 119.995C118.038 119.995 118.481 119.811 118.808 119.484C119.135 119.157 119.319 118.714 119.319 118.252V92.4967C119.319 91.8433 119.579 91.2168 120.042 90.7549C120.504 90.293 121.13 90.0333 121.784 90.0329H136.006C136.659 90.0337 137.285 90.2935 137.747 90.7554C138.209 91.2173 138.469 91.8435 138.47 92.4967ZM121.784 86.5486C120.206 86.5501 118.694 87.1775 117.579 88.2929C116.463 89.4084 115.836 90.9208 115.834 92.4982V104.101C115.197 103.81 114.513 103.634 113.814 103.583L115.235 92.0888C115.291 91.1381 115.144 90.1864 114.805 89.2965C114.466 88.4067 113.941 87.599 113.267 86.9268C113.149 86.7785 106.377 78.7314 106.377 78.7314L110.53 66.1676L121.975 59.2138V86.5515L121.784 86.5486ZM125.464 38.8877V28.1321H143.905L139.928 31.6283C139.66 31.8636 139.446 32.1531 139.299 32.4777C139.153 32.8023 139.077 33.1544 139.077 33.5106C139.077 33.8669 139.153 34.219 139.299 34.5436C139.446 34.8682 139.66 35.1577 139.928 35.393L143.905 38.8892H125.464V38.8877Z" fill="black"/>
</g>
<defs>
<clipPath id="clip0">
<rect width="107" height="118.898" fill="white" transform="translate(42 22)"/>
</clipPath>
</defs>
</svg>
