<svg width="422" height="384" viewBox="0 0 422 384" fill="none" xmlns="http://www.w3.org/2000/svg">
<path d="M360.2 351.545C277.804 394.595 144.196 394.595 61.8003 351.545C-20.5952 308.495 -20.605 238.702 61.8003 195.652C144.206 152.603 277.804 152.603 360.2 195.652C442.595 238.702 442.605 308.495 360.2 351.545Z" fill="#F5F5F5"/>
<path d="M146.606 340.658C121.759 340.658 101.616 331.058 101.616 319.216C101.616 307.374 121.759 297.774 146.606 297.774C171.454 297.774 191.597 307.374 191.597 319.216C191.597 331.058 171.454 340.658 146.606 340.658Z" fill="#EBEBEB"/>
<path d="M66.9049 291.757C47.7348 291.757 32.1945 284.351 32.1945 275.215C32.1945 266.08 47.7348 258.674 66.9049 258.674C86.0749 258.674 101.615 266.08 101.615 275.215C101.615 284.351 86.0749 291.757 66.9049 291.757Z" fill="#EBEBEB"/>
<path d="M314.299 270.58C316.259 260.232 323.432 245.484 332.183 237.262C340.601 229.363 353.096 226.609 358.074 230.255C363.052 233.9 359.789 241.779 350.126 251.383C339.219 262.212 318.278 292.257 314.299 309.279V270.58Z" fill="#FF725E"/>
<g opacity="0.2">
<path opacity="0.2" d="M314.299 270.58C316.259 260.232 323.432 245.484 332.183 237.262C340.601 229.363 353.096 226.609 358.074 230.255C363.052 233.9 359.789 241.779 350.126 251.383C339.219 262.212 318.278 292.257 314.299 309.279V270.58Z" fill="black"/>
</g>
<path d="M314.299 295.481C314.422 295.48 314.54 295.433 314.63 295.35C314.72 295.266 314.777 295.153 314.789 295.031C317.259 268.964 335.486 239.663 353.008 233.557C353.13 233.513 353.23 233.423 353.287 233.306C353.344 233.188 353.352 233.054 353.311 232.93C353.267 232.808 353.177 232.708 353.06 232.651C352.942 232.594 352.808 232.586 352.684 232.627C334.516 238.947 316.337 268.072 313.789 294.942C313.778 295.072 313.818 295.201 313.901 295.301C313.983 295.402 314.101 295.467 314.23 295.481H314.299Z" fill="white"/>
<path d="M314.299 321.793C314.299 321.793 317.69 324.498 328.999 323.44C340.308 322.381 346.138 314.297 346.138 310.827C346.138 307.358 335.741 306.761 333.487 298.157C335.78 300.614 338.83 302.232 342.15 302.753C348.03 303.86 352.753 301.978 354.096 291.267C351.198 291.691 348.241 291.446 345.452 290.552C340.798 289.053 339.69 286.495 340.905 285.946C342.121 285.397 348.608 285.946 352.763 284.368C356.918 282.791 353.743 261.153 351.019 259.615C348.294 258.076 335.408 261.702 332.899 263.642C330.665 265.367 327.529 268.356 328.979 274.677C327.261 273.071 325.922 271.102 325.059 268.914C323.844 265.974 322.962 266.66 321.139 267.787C320.045 268.404 319.095 269.248 318.353 270.262C317.611 271.276 317.094 272.437 316.837 273.667C316.396 276.411 317.112 285.878 320.973 288.955C320.973 288.955 317.269 289.425 314.241 283.173C314.241 283.173 308.361 285.544 307.028 289.386C305.695 293.227 304.245 312.033 314.299 321.793Z" fill="#FF725E"/>
<path d="M313.299 323.93C313.419 323.929 313.534 323.884 313.624 323.805C313.714 323.726 313.772 323.617 313.789 323.499C316.376 302.322 332.477 274.5 348.264 264.054C348.373 263.981 348.449 263.868 348.475 263.739C348.5 263.611 348.474 263.477 348.401 263.368C348.329 263.259 348.215 263.183 348.087 263.157C347.958 263.132 347.824 263.158 347.715 263.231C331.732 273.863 315.376 301.969 312.819 323.381C312.802 323.51 312.837 323.64 312.916 323.743C312.995 323.845 313.112 323.913 313.24 323.93H313.299Z" fill="white"/>
<path d="M312.308 326.889C312.892 326.484 313.374 325.948 313.714 325.324C314.055 324.699 314.244 324.004 314.268 323.293V89.1692C314.228 88.4325 314.014 87.7156 313.645 87.077C313.275 86.4384 312.76 85.8962 312.141 85.4944L165.146 0.609786C164.532 0.224413 163.824 0.0138162 163.099 0.000656894C162.374 -0.0125024 161.659 0.172271 161.031 0.535099C160.403 0.897927 159.886 1.42508 159.536 2.05985C159.185 2.69462 159.014 3.41298 159.041 4.13766L308.192 326.811C308.823 327.147 309.525 327.329 310.24 327.342C310.955 327.356 311.664 327.201 312.308 326.889Z" fill="#E0E0E0"/>
<path d="M310.32 93.6185L250.611 54.5473L254.59 52.2444L312.172 85.4946C312.791 85.8964 313.306 86.4387 313.676 87.0773C314.045 87.7159 314.259 88.4327 314.299 89.1695V91.3156L310.32 93.6185Z" fill="#37474F"/>
<path opacity="0.2" d="M310.32 93.6185L250.611 54.5473L254.59 52.2444L312.172 85.4946C312.791 85.8964 313.306 86.4387 313.676 87.0773C314.045 87.7159 314.259 88.4327 314.299 89.1695V91.3156L310.32 93.6185Z" fill="#37474F"/>
<path d="M290.377 100.507L313.681 87.1016C314.061 87.7336 314.273 88.452 314.298 89.1889V323.273C314.324 323.997 314.151 324.714 313.8 325.347C313.448 325.981 312.931 326.506 312.304 326.868C311.676 327.23 310.962 327.414 310.238 327.4C309.514 327.387 308.807 327.176 308.193 326.791L290.377 316.551V100.507Z" fill="#263238"/>
<path opacity="0.4" d="M290.377 100.507L313.681 87.1016C314.061 87.7336 314.273 88.452 314.298 89.1889V323.273C314.324 323.997 314.151 324.714 313.8 325.347C313.448 325.981 312.931 326.506 312.304 326.868C311.676 327.23 310.962 327.414 310.238 327.4C309.514 327.387 308.807 327.176 308.193 326.791L290.377 316.551V100.507Z" fill="#263238"/>
<path d="M308.194 326.811L161.199 241.926C160.58 241.525 160.065 240.982 159.695 240.344C159.326 239.705 159.112 238.988 159.072 238.251V4.13774C159.072 2.78539 160.052 2.23661 161.199 2.91279L308.194 87.7974C308.813 88.1992 309.328 88.7414 309.697 89.3801C310.067 90.0187 310.28 90.7355 310.32 91.4723V325.586C310.32 326.938 309.37 327.487 308.194 326.811Z" fill="#455A64"/>
<path opacity="0.1" d="M308.194 326.811L161.199 241.926C160.58 241.525 160.065 240.982 159.695 240.344C159.326 239.705 159.112 238.988 159.072 238.251V4.13774C159.072 2.78539 160.052 2.23661 161.199 2.91279L308.194 87.7974C308.813 88.1992 309.328 88.7414 309.697 89.3801C310.067 90.0187 310.28 90.7355 310.32 91.4723V325.586C310.32 326.938 309.37 327.487 308.194 326.811Z" fill="#455A64"/>
<path d="M298.108 145.547L262.83 125.163C260.487 123.811 258.586 124.771 258.586 127.31C258.691 128.735 259.13 130.115 259.867 131.339C260.604 132.563 261.619 133.596 262.83 134.355L298.108 154.739C300.46 156.091 302.352 155.131 302.352 152.593C302.249 151.167 301.811 149.786 301.074 148.561C300.337 147.337 299.321 146.304 298.108 145.547Z" fill="#FF725E"/>
<path d="M298.108 160.011L274.756 146.526C272.414 145.174 270.512 146.134 270.512 148.673C270.617 150.098 271.056 151.478 271.793 152.702C272.53 153.926 273.545 154.959 274.756 155.719L298.108 169.203C300.46 170.555 302.352 169.595 302.352 167.057C302.249 165.631 301.811 164.25 301.074 163.025C300.337 161.801 299.321 160.768 298.108 160.011Z" fill="#FF725E"/>
<path d="M300.656 184.765L296.09 182.129C295.11 181.59 294.394 182.031 294.394 183.109V188.381C294.426 188.97 294.596 189.543 294.891 190.053C295.185 190.564 295.596 190.998 296.09 191.321L300.656 193.918C301.636 194.466 302.352 194.025 302.352 192.938V187.666C302.313 187.084 302.14 186.519 301.846 186.015C301.551 185.512 301.144 185.084 300.656 184.765Z" fill="#FF725E"/>
<path opacity="0.2" d="M300.656 184.765L296.09 182.129C295.11 181.59 294.394 182.031 294.394 183.109V188.381C294.426 188.97 294.596 189.543 294.891 190.053C295.185 190.564 295.596 190.998 296.09 191.321L300.656 193.918C301.636 194.466 302.352 194.025 302.352 192.938V187.666C302.313 187.084 302.14 186.519 301.846 186.015C301.551 185.512 301.144 185.084 300.656 184.765Z" fill="black"/>
<path d="M300.656 203.159L296.09 200.522C295.11 199.974 294.394 200.415 294.394 201.502V206.775C294.428 207.363 294.599 207.935 294.894 208.445C295.188 208.956 295.598 209.39 296.09 209.715L300.656 212.351C301.636 212.89 302.352 212.449 302.352 211.371V206.098C302.321 205.509 302.152 204.936 301.857 204.425C301.563 203.914 301.151 203.48 300.656 203.159Z" fill="#FF725E"/>
<g opacity="0.2">
<path opacity="0.2" d="M300.656 203.159L296.09 200.522C295.11 199.974 294.394 200.415 294.394 201.502V206.775C294.428 207.363 294.599 207.935 294.894 208.445C295.188 208.956 295.598 209.39 296.09 209.715L300.656 212.351C301.636 212.89 302.352 212.449 302.352 211.371V206.098C302.321 205.509 302.152 204.936 301.857 204.425C301.563 203.914 301.151 203.48 300.656 203.159Z" fill="black"/>
</g>
<path d="M288.29 198.318L260.695 182.374C259.519 181.697 258.568 182.178 258.568 183.452C258.621 184.164 258.842 184.853 259.211 185.465C259.581 186.076 260.089 186.592 260.695 186.97L288.29 202.914C289.466 203.59 290.417 203.11 290.417 201.836C290.364 201.124 290.143 200.434 289.774 199.823C289.405 199.212 288.896 198.696 288.29 198.318Z" fill="#FF725E"/>
<path opacity="0.2" d="M288.29 198.318L260.695 182.374C259.519 181.697 258.568 182.178 258.568 183.452C258.621 184.164 258.842 184.853 259.211 185.465C259.581 186.076 260.089 186.592 260.695 186.97L288.29 202.914C289.466 203.59 290.417 203.11 290.417 201.836C290.364 201.124 290.143 200.434 289.774 199.823C289.405 199.212 288.896 198.696 288.29 198.318Z" fill="black"/>
<path d="M300.656 221.543L296.09 218.907C295.11 218.358 294.394 218.799 294.394 219.887V225.159C294.428 225.748 294.598 226.32 294.893 226.831C295.187 227.341 295.597 227.775 296.09 228.099L300.656 230.735C301.636 231.274 302.352 230.833 302.352 229.755V224.483C302.321 223.894 302.152 223.32 301.857 222.809C301.563 222.298 301.151 221.864 300.656 221.543Z" fill="#E0E0E0"/>
<path d="M288.29 216.702L260.695 200.777C259.519 200.101 258.568 200.581 258.568 201.855C258.62 202.568 258.839 203.258 259.209 203.87C259.579 204.481 260.088 204.997 260.695 205.374L288.29 221.318C289.466 221.994 290.417 221.514 290.417 220.24C290.367 219.524 290.148 218.83 289.778 218.216C289.409 217.601 288.899 217.082 288.29 216.702Z" fill="#F0F0F0"/>
<path d="M300.656 239.976L296.09 237.34C295.11 236.791 294.394 237.232 294.394 238.32V243.592C294.428 244.18 294.598 244.753 294.893 245.263C295.187 245.774 295.597 246.208 296.09 246.532L300.656 249.168C301.636 249.707 302.352 249.266 302.352 248.188V242.916C302.321 242.327 302.152 241.753 301.857 241.242C301.563 240.731 301.151 240.297 300.656 239.976Z" fill="#E0E0E0"/>
<path d="M288.29 235.135L260.695 219.201C259.519 218.515 258.568 219.005 258.568 220.269C258.62 220.983 258.839 221.675 259.209 222.288C259.578 222.901 260.088 223.418 260.695 223.797L288.29 239.731C289.466 240.407 290.417 239.927 290.417 238.653C290.364 237.941 290.143 237.251 289.774 236.64C289.405 236.029 288.896 235.513 288.29 235.135Z" fill="#F0F0F0"/>
<path d="M300.656 258.36L296.09 255.724C295.11 255.175 294.394 255.616 294.394 256.704V261.976C294.428 262.565 294.598 263.137 294.893 263.648C295.187 264.158 295.597 264.593 296.09 264.916L300.656 267.552C301.636 268.091 302.352 267.65 302.352 266.572V261.3C302.321 260.711 302.152 260.137 301.857 259.626C301.563 259.115 301.151 258.682 300.656 258.36Z" fill="#E0E0E0"/>
<path d="M288.29 253.519L260.695 237.585C259.519 236.899 258.568 237.389 258.568 238.653C258.62 239.367 258.839 240.059 259.209 240.672C259.578 241.285 260.088 241.802 260.695 242.181L288.29 258.115C289.466 258.791 290.417 258.311 290.417 257.037C290.364 256.325 290.143 255.635 289.774 255.024C289.405 254.413 288.896 253.897 288.29 253.519Z" fill="#F0F0F0"/>
<path d="M300.235 276.45L280.636 265.112C279.46 264.436 278.509 264.916 278.509 266.19C278.562 266.902 278.783 267.592 279.152 268.203C279.521 268.814 280.03 269.33 280.636 269.708L300.235 281.046C301.401 281.722 302.352 281.242 302.352 279.978C302.3 279.265 302.082 278.574 301.714 277.962C301.346 277.349 300.84 276.831 300.235 276.45Z" fill="#FF725E"/>
<path d="M300.235 285.642L260.693 262.819C259.517 262.143 258.567 262.623 258.567 263.887C258.618 264.601 258.838 265.292 259.208 265.905C259.577 266.519 260.086 267.036 260.693 267.415L300.235 290.238C301.401 290.914 302.352 290.434 302.352 289.17C302.3 288.457 302.082 287.766 301.714 287.154C301.346 286.541 300.84 286.023 300.235 285.642Z" fill="#FF725E"/>
<path opacity="0.8" d="M300.235 285.642L260.693 262.819C259.517 262.143 258.567 262.623 258.567 263.887C258.618 264.601 258.838 265.292 259.208 265.905C259.577 266.519 260.086 267.036 260.693 267.415L300.235 290.238C301.401 290.914 302.352 290.434 302.352 289.17C302.3 288.457 302.082 287.766 301.714 287.154C301.346 286.541 300.84 286.023 300.235 285.642Z" fill="white"/>
<path d="M300.235 285.642L272.629 269.708C271.463 269.032 270.512 269.512 270.512 270.786C270.565 271.497 270.785 272.186 271.152 272.797C271.52 273.408 272.026 273.924 272.629 274.304L300.235 290.238C301.401 290.915 302.352 290.434 302.352 289.17C302.3 288.457 302.082 287.767 301.714 287.154C301.346 286.541 300.84 286.023 300.235 285.642Z" fill="#FF725E"/>
<path d="M300.235 294.854L280.636 283.516C279.46 282.84 278.509 283.32 278.509 284.594C278.562 285.306 278.783 285.996 279.152 286.607C279.521 287.218 280.03 287.734 280.636 288.112L300.235 299.45C301.401 300.126 302.352 299.646 302.352 298.382C302.3 297.669 302.082 296.978 301.714 296.365C301.346 295.753 300.84 295.235 300.235 294.854Z" fill="#FF725E"/>
<path d="M288.29 179.924L260.695 163.989C259.519 163.313 258.568 163.793 258.568 165.067C258.621 165.78 258.842 166.469 259.211 167.08C259.581 167.692 260.089 168.207 260.695 168.585L288.29 184.52C289.466 185.196 290.417 184.716 290.417 183.452C290.365 182.738 290.146 182.046 289.776 181.433C289.407 180.82 288.898 180.303 288.29 179.924Z" fill="#FF725E"/>
<path opacity="0.2" d="M288.29 179.924L260.695 163.989C259.519 163.313 258.568 163.793 258.568 165.067C258.621 165.78 258.842 166.469 259.211 167.08C259.581 167.692 260.089 168.207 260.695 168.585L288.29 184.52C289.466 185.196 290.417 184.716 290.417 183.452C290.365 182.738 290.146 182.046 289.776 181.433C289.407 180.82 288.898 180.303 288.29 179.924Z" fill="black"/>
<path d="M300.235 294.854L280.636 283.516C279.46 282.84 278.509 283.32 278.509 284.594C278.562 285.306 278.783 285.996 279.152 286.607C279.521 287.218 280.03 287.734 280.636 288.112L300.235 299.45C301.401 300.126 302.352 299.646 302.352 298.382C302.3 297.669 302.082 296.978 301.714 296.365C301.346 295.753 300.84 295.235 300.235 294.854Z" fill="#FF725E"/>
<path d="M300.235 304.017L260.693 281.193C259.517 280.517 258.567 280.997 258.567 282.261C258.618 282.975 258.838 283.667 259.208 284.28C259.577 284.893 260.086 285.41 260.693 285.789L300.235 308.574C301.401 309.26 302.352 308.77 302.352 307.505C302.294 306.799 302.073 306.116 301.706 305.511C301.338 304.905 300.835 304.394 300.235 304.017Z" fill="#FF725E"/>
<path opacity="0.8" d="M300.235 304.017L260.693 281.193C259.517 280.517 258.567 280.997 258.567 282.261C258.618 282.975 258.838 283.667 259.208 284.28C259.577 284.893 260.086 285.41 260.693 285.789L300.235 308.574C301.401 309.26 302.352 308.77 302.352 307.505C302.294 306.799 302.073 306.116 301.706 305.511C301.338 304.905 300.835 304.394 300.235 304.017Z" fill="white"/>
<path d="M300.235 304.017L264.672 283.437C263.496 282.761 262.545 283.241 262.545 284.515C262.599 285.228 262.819 285.917 263.188 286.528C263.558 287.14 264.066 287.655 264.672 288.033L300.235 308.613C301.401 309.299 302.352 308.809 302.352 307.545C302.3 306.832 302.082 306.141 301.714 305.528C301.346 304.915 300.84 304.398 300.235 304.017Z" fill="#FF725E"/>
<path d="M161.179 2.91269L250.61 54.5471V293.561L161.179 241.936C160.56 241.534 160.045 240.992 159.675 240.353C159.306 239.715 159.092 238.998 159.052 238.261V4.13765C159.062 2.82449 160.042 2.23652 161.179 2.91269Z" fill="#EBEBEB"/>
<path opacity="0.6" d="M161.179 2.91269L250.61 54.5471V293.561L161.179 241.936C160.56 241.534 160.045 240.992 159.675 240.353C159.306 239.715 159.092 238.998 159.052 238.261V4.13765C159.062 2.82449 160.042 2.23652 161.179 2.91269Z" fill="#FAFAFA"/>
<path d="M250.61 63.7389V82.123L258.567 91.3151H250.61V109.699L167.019 61.4359V15.4756L250.61 63.7389Z" fill="#FF725E"/>
<g opacity="0.6">
<path opacity="0.6" d="M239.673 64.3763L205.806 44.777C204.169 43.797 202.866 44.6006 202.866 46.4919C202.92 47.5195 203.214 48.5202 203.724 49.4137C204.235 50.3071 204.948 51.0685 205.806 51.6367L239.673 71.187C241.32 72.167 242.613 71.3634 242.613 69.4721C242.554 68.4524 242.257 67.4606 241.747 66.5759C241.237 65.6912 240.527 64.938 239.673 64.3763Z" fill="white"/>
</g>
<path d="M241.585 79.2619L176.035 41.4156C175.447 41.0824 174.977 41.3176 174.977 41.9546C175.002 42.3111 175.111 42.6566 175.295 42.9631C175.479 43.2696 175.733 43.5284 176.035 43.7186L241.585 81.5158C242.173 81.849 242.644 81.6138 242.644 80.9768C242.611 80.6289 242.498 80.2931 242.315 79.9957C242.131 79.6982 241.882 79.4472 241.585 79.2619Z" fill="#FF725E"/>
<path d="M241.585 79.2619L176.035 41.4156C175.447 41.0824 174.977 41.3176 174.977 41.9546C175.002 42.3111 175.111 42.6566 175.295 42.9631C175.479 43.2696 175.733 43.5284 176.035 43.7186L241.585 81.5158C242.173 81.849 242.644 81.6138 242.644 80.9768C242.611 80.6289 242.498 80.2931 242.315 79.9957C242.131 79.6982 241.882 79.4472 241.585 79.2619Z" fill="#FF725E"/>
<path opacity="0.6" d="M241.585 79.2619L176.035 41.4156C175.447 41.0824 174.977 41.3176 174.977 41.9546C175.002 42.3111 175.111 42.6566 175.295 42.9631C175.479 43.2696 175.733 43.5284 176.035 43.7186L241.585 81.5158C242.173 81.849 242.644 81.6138 242.644 80.9768C242.611 80.6289 242.498 80.2931 242.315 79.9957C242.131 79.6982 241.882 79.4472 241.585 79.2619Z" fill="white"/>
<path d="M241.585 86.1214L176.035 48.2752C175.447 47.9322 174.977 48.1772 174.977 48.8142C175.002 49.1694 175.111 49.5135 175.295 49.8184C175.479 50.1233 175.733 50.3803 176.035 50.5683L241.585 88.4146C242.173 88.7576 242.644 88.5126 242.644 87.8756C242.618 87.5204 242.509 87.1762 242.325 86.8713C242.141 86.5664 241.888 86.3094 241.585 86.1214Z" fill="#FF725E"/>
<path opacity="0.6" d="M241.585 86.1214L176.035 48.2752C175.447 47.9322 174.977 48.1772 174.977 48.8142C175.002 49.1694 175.111 49.5135 175.295 49.8184C175.479 50.1233 175.733 50.3803 176.035 50.5683L241.585 88.4146C242.173 88.7576 242.644 88.5126 242.644 87.8756C242.618 87.5204 242.509 87.1762 242.325 86.8713C242.141 86.5664 241.888 86.3094 241.585 86.1214Z" fill="white"/>
<path opacity="0.6" d="M241.585 92.9814L176.035 55.1351C175.447 54.8019 174.977 55.0371 174.977 55.6741C175.002 56.0306 175.111 56.3761 175.295 56.6826C175.479 56.9891 175.733 57.2479 176.035 57.438L241.585 95.2843C242.173 95.6175 242.644 95.3823 242.644 94.7453C242.618 94.3888 242.509 94.0433 242.325 93.7368C242.141 93.4303 241.888 93.1715 241.585 92.9814Z" fill="white"/>
<path d="M239.115 112.287L234.519 109.641C233.539 109.092 232.824 109.533 232.824 110.621V115.893C232.857 116.481 233.027 117.054 233.321 117.565C233.616 118.075 234.026 118.51 234.519 118.833L239.086 121.469C240.066 122.008 240.781 121.567 240.781 120.489V115.226C240.754 114.64 240.589 114.068 240.3 113.557C240.01 113.046 239.605 112.611 239.115 112.287Z" fill="#FF725E"/>
<path opacity="0.2" d="M239.115 112.287L234.519 109.641C233.539 109.092 232.824 109.533 232.824 110.621V115.893C232.857 116.481 233.027 117.054 233.321 117.565C233.616 118.075 234.026 118.51 234.519 118.833L239.086 121.469C240.066 122.008 240.781 121.567 240.781 120.489V115.226C240.754 114.64 240.589 114.068 240.3 113.557C240.01 113.046 239.605 112.611 239.115 112.287Z" fill="white"/>
<path d="M226.748 107.446L199.153 91.5016C197.977 90.8254 197.026 91.3056 197.026 92.5796C197.079 93.2918 197.3 93.9814 197.669 94.5926C198.039 95.2038 198.547 95.7194 199.153 96.0976L226.748 112.042C227.924 112.718 228.875 112.238 228.875 110.964C228.822 110.252 228.601 109.562 228.232 108.951C227.863 108.339 227.354 107.824 226.748 107.446Z" fill="#FF725E"/>
<path opacity="0.8" d="M226.748 107.446L199.153 91.5016C197.977 90.8254 197.026 91.3056 197.026 92.5796C197.079 93.2918 197.3 93.9814 197.669 94.5926C198.039 95.2038 198.547 95.7194 199.153 96.0976L226.748 112.042C227.924 112.718 228.875 112.238 228.875 110.964C228.822 110.252 228.601 109.562 228.232 108.951C227.863 108.339 227.354 107.824 226.748 107.446Z" fill="white"/>
<path d="M239.752 128.75L170.175 88.5714C169.587 88.2284 169.116 88.4734 169.116 89.1005C169.141 89.4573 169.25 89.8031 169.434 90.1097C169.618 90.4163 169.871 90.6749 170.175 90.8645L239.752 131.043C240.34 131.386 240.811 131.141 240.811 130.504C240.785 130.149 240.676 129.805 240.492 129.5C240.308 129.195 240.055 128.938 239.752 128.75Z" fill="#FF725E"/>
<path d="M239.752 135.639L170.175 95.4605C169.587 95.1274 169.116 95.3626 169.116 95.9995C169.142 96.356 169.251 96.7016 169.435 97.008C169.618 97.3145 169.872 97.5733 170.175 97.7635L239.752 137.942C240.34 138.275 240.811 138.04 240.811 137.403C240.785 137.047 240.676 136.701 240.492 136.395C240.308 136.088 240.055 135.829 239.752 135.639Z" fill="#FF725E"/>
<path d="M239.752 142.538L170.175 102.36C169.587 102.017 169.116 102.262 169.116 102.889C169.141 103.246 169.25 103.591 169.434 103.898C169.618 104.205 169.871 104.463 170.175 104.653L239.752 144.831C240.34 145.174 240.811 144.929 240.811 144.302C240.786 143.945 240.677 143.6 240.493 143.293C240.309 142.986 240.055 142.728 239.752 142.538Z" fill="#FF725E"/>
<path d="M239.752 149.447L170.175 109.268C169.587 108.935 169.116 109.17 169.116 109.807C169.142 110.164 169.251 110.509 169.435 110.816C169.618 111.122 169.872 111.381 170.175 111.571L239.752 151.75C240.34 152.083 240.811 151.848 240.811 151.211C240.785 150.854 240.676 150.509 240.492 150.202C240.308 149.896 240.055 149.637 239.752 149.447Z" fill="#FF725E"/>
<path d="M239.752 128.75L170.175 88.5714C169.587 88.2284 169.116 88.4734 169.116 89.1005C169.141 89.4573 169.25 89.8031 169.434 90.1097C169.618 90.4163 169.871 90.6749 170.175 90.8645L239.752 131.043C240.34 131.386 240.811 131.141 240.811 130.504C240.785 130.149 240.676 129.805 240.492 129.5C240.308 129.195 240.055 128.938 239.752 128.75Z" fill="#E0E0E0"/>
<path d="M239.752 135.639L170.175 95.4605C169.587 95.1274 169.116 95.3626 169.116 95.9995C169.142 96.356 169.251 96.7016 169.435 97.008C169.618 97.3145 169.872 97.5733 170.175 97.7635L239.752 137.942C240.34 138.275 240.811 138.04 240.811 137.403C240.785 137.047 240.676 136.701 240.492 136.395C240.308 136.088 240.055 135.829 239.752 135.639Z" fill="#E0E0E0"/>
<path d="M239.752 142.538L170.175 102.36C169.587 102.017 169.116 102.262 169.116 102.889C169.141 103.246 169.25 103.591 169.434 103.898C169.618 104.205 169.871 104.463 170.175 104.653L239.752 144.831C240.34 145.174 240.811 144.929 240.811 144.302C240.786 143.945 240.677 143.6 240.493 143.293C240.309 142.986 240.055 142.728 239.752 142.538Z" fill="#E0E0E0"/>
<path d="M239.752 149.447L170.175 109.268C169.587 108.935 169.116 109.17 169.116 109.807C169.142 110.164 169.251 110.509 169.435 110.816C169.618 111.122 169.872 111.381 170.175 111.571L239.752 151.75C240.34 152.083 240.811 151.848 240.811 151.211C240.785 150.854 240.676 150.509 240.492 150.202C240.308 149.896 240.055 149.637 239.752 149.447Z" fill="#E0E0E0"/>
<path opacity="0.8" d="M239.752 128.75L170.175 88.5714C169.587 88.2284 169.116 88.4734 169.116 89.1005C169.141 89.4573 169.25 89.8031 169.434 90.1097C169.618 90.4163 169.871 90.6749 170.175 90.8645L239.752 131.043C240.34 131.386 240.811 131.141 240.811 130.504C240.785 130.149 240.676 129.805 240.492 129.5C240.308 129.195 240.055 128.938 239.752 128.75Z" fill="#E0E0E0"/>
<path opacity="0.8" d="M239.752 135.639L170.175 95.4605C169.587 95.1274 169.116 95.3626 169.116 95.9995C169.142 96.356 169.251 96.7016 169.435 97.008C169.618 97.3145 169.872 97.5733 170.175 97.7635L239.752 137.942C240.34 138.275 240.811 138.04 240.811 137.403C240.785 137.047 240.676 136.701 240.492 136.395C240.308 136.088 240.055 135.829 239.752 135.639Z" fill="#E0E0E0"/>
<path opacity="0.8" d="M239.752 142.538L170.175 102.36C169.587 102.017 169.116 102.262 169.116 102.889C169.141 103.246 169.25 103.591 169.434 103.898C169.618 104.205 169.871 104.463 170.175 104.653L239.752 144.831C240.34 145.174 240.811 144.929 240.811 144.302C240.786 143.945 240.677 143.6 240.493 143.293C240.309 142.986 240.055 142.728 239.752 142.538Z" fill="#E0E0E0"/>
<path opacity="0.8" d="M239.752 149.447L170.175 109.268C169.587 108.935 169.116 109.17 169.116 109.807C169.142 110.164 169.251 110.509 169.435 110.816C169.618 111.122 169.872 111.381 170.175 111.571L239.752 151.75C240.34 152.083 240.811 151.848 240.811 151.211C240.785 150.854 240.676 150.509 240.492 150.202C240.308 149.896 240.055 149.637 239.752 149.447Z" fill="#E0E0E0"/>
<path d="M239.752 178.728L170.175 138.55C169.587 138.207 169.116 138.452 169.116 139.079C169.141 139.436 169.25 139.781 169.434 140.088C169.618 140.395 169.871 140.653 170.175 140.843L239.752 181.021C240.34 181.364 240.811 181.119 240.811 180.482C240.785 180.127 240.676 179.783 240.492 179.478C240.308 179.173 240.055 178.916 239.752 178.728Z" fill="#E0E0E0"/>
<path d="M239.752 185.617L170.175 145.439C169.587 145.105 169.116 145.341 169.116 145.978C169.142 146.334 169.251 146.68 169.435 146.986C169.618 147.293 169.872 147.551 170.175 147.742L239.752 187.92C240.34 188.253 240.811 188.018 240.811 187.381C240.785 187.025 240.676 186.679 240.492 186.373C240.308 186.066 240.055 185.807 239.752 185.617Z" fill="#E0E0E0"/>
<path d="M239.752 192.516L170.175 152.337C169.587 151.994 169.116 152.239 169.116 152.867C169.141 153.223 169.25 153.569 169.434 153.876C169.618 154.182 169.871 154.441 170.175 154.631L239.752 194.809C240.34 195.152 240.811 194.907 240.811 194.28C240.786 193.923 240.677 193.577 240.493 193.271C240.309 192.964 240.055 192.706 239.752 192.516Z" fill="#E0E0E0"/>
<path d="M239.752 199.425L170.175 159.246C169.587 158.913 169.116 159.148 169.116 159.785C169.142 160.142 169.251 160.487 169.435 160.794C169.618 161.1 169.872 161.359 170.175 161.549L239.752 201.728C240.34 202.061 240.811 201.826 240.811 201.189C240.785 200.832 240.676 200.487 240.492 200.18C240.308 199.874 240.055 199.615 239.752 199.425Z" fill="#E0E0E0"/>
<path opacity="0.8" d="M239.752 178.728L170.175 138.55C169.587 138.207 169.116 138.452 169.116 139.079C169.141 139.436 169.25 139.781 169.434 140.088C169.618 140.395 169.871 140.653 170.175 140.843L239.752 181.021C240.34 181.364 240.811 181.119 240.811 180.482C240.785 180.127 240.676 179.783 240.492 179.478C240.308 179.173 240.055 178.916 239.752 178.728Z" fill="#E0E0E0"/>
<path opacity="0.8" d="M239.752 185.617L170.175 145.439C169.587 145.105 169.116 145.341 169.116 145.978C169.142 146.334 169.251 146.68 169.435 146.986C169.618 147.293 169.872 147.551 170.175 147.742L239.752 187.92C240.34 188.253 240.811 188.018 240.811 187.381C240.785 187.025 240.676 186.679 240.492 186.373C240.308 186.066 240.055 185.807 239.752 185.617Z" fill="#E0E0E0"/>
<path opacity="0.8" d="M239.752 192.516L170.175 152.337C169.587 151.994 169.116 152.239 169.116 152.867C169.141 153.223 169.25 153.569 169.434 153.876C169.618 154.182 169.871 154.441 170.175 154.631L239.752 194.809C240.34 195.152 240.811 194.907 240.811 194.28C240.786 193.923 240.677 193.577 240.493 193.271C240.309 192.964 240.055 192.706 239.752 192.516Z" fill="#E0E0E0"/>
<path opacity="0.8" d="M239.752 199.425L170.175 159.246C169.587 158.913 169.116 159.148 169.116 159.785C169.142 160.142 169.251 160.487 169.435 160.794C169.618 161.1 169.872 161.359 170.175 161.549L239.752 201.728C240.34 202.061 240.811 201.826 240.811 201.189C240.785 200.832 240.676 200.487 240.492 200.18C240.308 199.874 240.055 199.615 239.752 199.425Z" fill="#E0E0E0"/>
<path d="M239.752 229.686L170.175 189.508C169.587 189.165 169.116 189.41 169.116 190.037C169.141 190.394 169.25 190.739 169.434 191.046C169.618 191.353 169.871 191.611 170.175 191.801L239.752 231.979C240.34 232.322 240.811 232.077 240.811 231.44C240.785 231.085 240.676 230.741 240.492 230.436C240.308 230.131 240.055 229.874 239.752 229.686Z" fill="#E0E0E0"/>
<path d="M239.752 236.575L170.175 196.397C169.587 196.064 169.116 196.299 169.116 196.936C169.142 197.292 169.251 197.638 169.435 197.944C169.618 198.251 169.872 198.51 170.175 198.7L239.752 238.878C240.34 239.212 240.811 238.976 240.811 238.339C240.785 237.983 240.676 237.637 240.492 237.331C240.308 237.024 240.055 236.766 239.752 236.575Z" fill="#E0E0E0"/>
<path d="M239.752 243.475L170.175 203.296C169.587 202.953 169.116 203.198 169.116 203.825C169.141 204.182 169.25 204.528 169.434 204.834C169.618 205.141 169.871 205.4 170.175 205.589L239.752 245.768C240.34 246.111 240.811 245.866 240.811 245.238C240.786 244.882 240.677 244.536 240.493 244.229C240.309 243.923 240.055 243.664 239.752 243.475Z" fill="#E0E0E0"/>
<path d="M239.752 250.383L170.175 210.204C169.587 209.871 169.116 210.106 169.116 210.743C169.142 211.1 169.251 211.445 169.435 211.752C169.618 212.058 169.872 212.317 170.175 212.507L239.752 252.686C240.34 253.019 240.811 252.784 240.811 252.147C240.785 251.79 240.676 251.445 240.492 251.138C240.308 250.832 240.055 250.573 239.752 250.383Z" fill="#E0E0E0"/>
<path opacity="0.8" d="M239.752 229.686L170.175 189.508C169.587 189.165 169.116 189.41 169.116 190.037C169.141 190.394 169.25 190.739 169.434 191.046C169.618 191.353 169.871 191.611 170.175 191.801L239.752 231.979C240.34 232.322 240.811 232.077 240.811 231.44C240.785 231.085 240.676 230.741 240.492 230.436C240.308 230.131 240.055 229.874 239.752 229.686Z" fill="#E0E0E0"/>
<path opacity="0.8" d="M239.752 236.575L170.175 196.397C169.587 196.064 169.116 196.299 169.116 196.936C169.142 197.292 169.251 197.638 169.435 197.944C169.618 198.251 169.872 198.51 170.175 198.7L239.752 238.878C240.34 239.212 240.811 238.976 240.811 238.339C240.785 237.983 240.676 237.637 240.492 237.331C240.308 237.024 240.055 236.766 239.752 236.575Z" fill="#E0E0E0"/>
<path opacity="0.8" d="M239.752 243.475L170.175 203.296C169.587 202.953 169.116 203.198 169.116 203.825C169.141 204.182 169.25 204.528 169.434 204.834C169.618 205.141 169.871 205.4 170.175 205.589L239.752 245.768C240.34 246.111 240.811 245.866 240.811 245.238C240.786 244.882 240.677 244.536 240.493 244.229C240.309 243.923 240.055 243.664 239.752 243.475Z" fill="#E0E0E0"/>
<path opacity="0.8" d="M239.752 250.383L170.175 210.204C169.587 209.871 169.116 210.106 169.116 210.743C169.142 211.1 169.251 211.445 169.435 211.752C169.618 212.058 169.872 212.317 170.175 212.507L239.752 252.686C240.34 253.019 240.811 252.784 240.811 252.147C240.785 251.79 240.676 251.445 240.492 251.138C240.308 250.832 240.055 250.573 239.752 250.383Z" fill="#E0E0E0"/>
<path d="M239.115 162.843L234.519 160.207C233.539 159.668 232.824 160.109 232.824 161.187V166.479C232.854 167.068 233.024 167.642 233.318 168.153C233.613 168.664 234.025 169.097 234.519 169.419L239.086 172.055C240.066 172.594 240.781 172.163 240.781 171.075V165.803C240.757 165.213 240.593 164.637 240.303 164.123C240.014 163.609 239.607 163.17 239.115 162.843Z" fill="#FF725E"/>
<path opacity="0.2" d="M239.115 162.843L234.519 160.207C233.539 159.668 232.824 160.109 232.824 161.187V166.479C232.854 167.068 233.024 167.642 233.318 168.153C233.613 168.664 234.025 169.097 234.519 169.419L239.086 172.055C240.066 172.594 240.781 172.163 240.781 171.075V165.803C240.757 165.213 240.593 164.637 240.303 164.123C240.014 163.609 239.607 163.17 239.115 162.843Z" fill="white"/>
<path d="M226.748 158.002L199.153 142.068C197.977 141.391 197.026 141.872 197.026 143.136C197.078 143.85 197.297 144.541 197.667 145.154C198.036 145.767 198.546 146.284 199.153 146.664L226.748 162.559C227.924 163.235 228.875 162.755 228.875 161.49C228.817 160.783 228.595 160.1 228.226 159.494C227.856 158.888 227.351 158.377 226.748 158.002Z" fill="#FF725E"/>
<path opacity="0.8" d="M226.748 158.002L199.153 142.068C197.977 141.391 197.026 141.872 197.026 143.136C197.078 143.85 197.297 144.541 197.667 145.154C198.036 145.767 198.546 146.284 199.153 146.664L226.748 162.559C227.924 163.235 228.875 162.755 228.875 161.49C228.817 160.783 228.595 160.1 228.226 159.494C227.856 158.888 227.351 158.377 226.748 158.002Z" fill="white"/>
<path d="M239.115 213.409L234.519 210.773C233.539 210.224 232.824 210.665 232.824 211.753V217.025C232.855 217.614 233.025 218.187 233.319 218.698C233.614 219.209 234.025 219.643 234.519 219.965L239.086 222.601C240.066 223.14 240.781 222.699 240.781 221.621V216.349C240.754 215.762 240.589 215.191 240.3 214.68C240.01 214.169 239.605 213.734 239.115 213.409Z" fill="#FF725E"/>
<path opacity="0.2" d="M239.115 213.409L234.519 210.773C233.539 210.224 232.824 210.665 232.824 211.753V217.025C232.855 217.614 233.025 218.187 233.319 218.698C233.614 219.209 234.025 219.643 234.519 219.965L239.086 222.601C240.066 223.14 240.781 222.699 240.781 221.621V216.349C240.754 215.762 240.589 215.191 240.3 214.68C240.01 214.169 239.605 213.734 239.115 213.409Z" fill="white"/>
<path d="M226.748 208.617L199.153 192.673C197.977 191.997 197.026 192.477 197.026 193.751C197.079 194.465 197.299 195.156 197.668 195.769C198.037 196.382 198.546 196.899 199.153 197.279L226.748 213.213C227.924 213.889 228.875 213.409 228.875 212.135C228.822 211.423 228.601 210.733 228.232 210.122C227.863 209.511 227.354 208.995 226.748 208.617Z" fill="#FF725E"/>
<path opacity="0.8" d="M226.748 208.617L199.153 192.673C197.977 191.997 197.026 192.477 197.026 193.751C197.079 194.465 197.299 195.156 197.668 195.769C198.037 196.382 198.546 196.899 199.153 197.279L226.748 213.213C227.924 213.889 228.875 213.409 228.875 212.135C228.822 211.423 228.601 210.733 228.232 210.122C227.863 209.511 227.354 208.995 226.748 208.617Z" fill="white"/>
<path d="M232.619 257.919L228.052 255.283C227.073 254.744 226.347 255.185 226.347 256.263V261.535C226.379 262.125 226.551 262.699 226.847 263.21C227.143 263.721 227.556 264.154 228.052 264.475L232.619 267.111C233.55 267.66 234.314 267.219 234.314 266.131V260.859C234.28 260.271 234.109 259.699 233.815 259.188C233.521 258.678 233.111 258.243 232.619 257.919Z" fill="#FF725E"/>
<path d="M239.752 275.833L220.907 264.955C220.319 264.622 219.849 264.857 219.849 265.494C219.874 265.851 219.983 266.196 220.167 266.503C220.351 266.809 220.605 267.068 220.907 267.258L239.752 278.136C240.34 278.469 240.811 278.234 240.811 277.597C240.785 277.24 240.676 276.895 240.492 276.588C240.308 276.282 240.055 276.023 239.752 275.833Z" fill="#E0E0E0"/>
<path d="M207.267 243.278L202.7 240.642C201.769 240.103 201.005 240.544 201.005 241.622V246.895C201.036 247.483 201.206 248.056 201.501 248.567C201.796 249.078 202.206 249.512 202.7 249.834L207.267 252.471C208.247 253.01 208.972 252.578 208.972 251.491V246.218C208.939 245.629 208.767 245.055 208.471 244.544C208.175 244.034 207.762 243.6 207.267 243.278Z" fill="#FF725E"/>
<path d="M214.41 261.192L195.566 250.315C194.978 249.972 194.507 250.217 194.507 250.854C194.533 251.209 194.642 251.553 194.826 251.858C195.01 252.163 195.263 252.42 195.566 252.608L214.41 263.495C214.998 263.838 215.469 263.593 215.469 262.966C215.446 262.608 215.338 262.26 215.154 261.951C214.97 261.643 214.715 261.383 214.41 261.192Z" fill="#E0E0E0"/>
<path d="M181.925 228.638L177.358 226.002C176.427 225.453 175.663 225.894 175.663 226.982V232.254C175.696 232.842 175.867 233.415 176.161 233.925C176.456 234.436 176.866 234.87 177.358 235.194L181.925 237.83C182.905 238.369 183.62 237.928 183.62 236.85V231.578C183.59 230.989 183.42 230.415 183.126 229.904C182.831 229.393 182.42 228.959 181.925 228.638Z" fill="#FF725E"/>
<path opacity="0.2" d="M232.619 257.919L228.052 255.283C227.073 254.744 226.347 255.185 226.347 256.263V261.535C226.379 262.125 226.551 262.699 226.847 263.21C227.143 263.721 227.556 264.154 228.052 264.475L232.619 267.111C233.55 267.66 234.314 267.219 234.314 266.131V260.859C234.28 260.271 234.109 259.699 233.815 259.188C233.521 258.678 233.111 258.243 232.619 257.919Z" fill="white"/>
<path opacity="0.2" d="M207.267 243.278L202.7 240.642C201.769 240.103 201.005 240.544 201.005 241.622V246.895C201.036 247.483 201.206 248.056 201.501 248.567C201.796 249.078 202.206 249.512 202.7 249.834L207.267 252.471C208.247 253.01 208.972 252.578 208.972 251.491V246.218C208.939 245.629 208.767 245.055 208.471 244.544C208.175 244.034 207.762 243.6 207.267 243.278Z" fill="white"/>
<path opacity="0.2" d="M181.925 228.638L177.358 226.002C176.427 225.453 175.663 225.894 175.663 226.982V232.254C175.696 232.842 175.867 233.415 176.161 233.925C176.456 234.436 176.866 234.87 177.358 235.194L181.925 237.83C182.905 238.369 183.62 237.928 183.62 236.85V231.578C183.59 230.989 183.42 230.415 183.126 229.904C182.831 229.393 182.42 228.959 181.925 228.638Z" fill="white"/>
<path d="M189.069 246.552L170.224 235.674C169.636 235.331 169.165 235.576 169.165 236.203C169.19 236.56 169.299 236.906 169.483 237.212C169.667 237.519 169.921 237.778 170.224 237.967L189.069 248.845C189.647 249.188 190.127 248.943 190.127 248.306C190.099 247.951 189.989 247.608 189.806 247.303C189.622 246.999 189.369 246.741 189.069 246.552Z" fill="#E0E0E0"/>
<path d="M282.448 83.0442C293.444 89.2376 302.352 104.672 302.352 117.51C302.352 130.347 293.444 135.619 282.448 129.269C271.453 122.919 262.545 107.494 262.545 94.794C262.545 82.0937 271.463 76.841 282.448 83.0442Z" fill="#FAFAFA"/>
<path d="M272.805 122.606L288.739 126.878C289.014 126.968 289.306 126.987 289.59 126.935C289.874 126.883 290.14 126.761 290.365 126.58C290.59 126.399 290.766 126.165 290.877 125.899C290.989 125.633 291.032 125.343 291.003 125.056V97.9301C290.947 95.6849 290.197 93.5121 288.856 91.7101C287.516 89.9081 285.65 88.5653 283.516 87.8659L278.067 86.4057C273.922 85.2984 270.561 88.0031 270.561 92.4423V119.578C270.579 120.252 270.804 120.904 271.205 121.446C271.607 121.988 272.165 122.393 272.805 122.606Z" fill="#37474F"/>
<path d="M272.041 129.622L273.717 122.223C273.717 122.223 273.717 112.238 275.138 111.316C276.559 110.395 276.971 110.219 276.971 110.219C275.148 109.592 271.307 109.121 270.111 112.629C268.964 115.942 267.249 124.105 266.436 128.123L272.041 129.622Z" fill="#F28F8F"/>
<path d="M272.179 129.662L277.862 110.307C275.344 109.327 272.11 108.514 270.542 111.111C269.131 113.443 266.877 125.663 266.436 128.123L272.179 129.662Z" fill="#FF725E"/>
<g opacity="0.4">
<path opacity="0.4" d="M272.179 129.662L277.862 110.307C275.344 109.327 272.11 108.514 270.542 111.111C269.131 113.443 266.877 125.663 266.436 128.123L272.179 129.662Z" fill="black"/>
</g>
<path d="M271.414 129.455L277 130.955C276.775 129.351 276.246 127.804 275.442 126.398C274.324 124.787 272.715 123.58 270.856 122.958C271.258 125.1 271.445 127.276 271.414 129.455Z" fill="#FF725E"/>
<path d="M271.414 129.455L277 130.955C276.775 129.351 276.246 127.804 275.442 126.398C274.324 124.787 272.715 123.58 270.856 122.958C271.258 125.1 271.445 127.276 271.414 129.455Z" fill="#FF725E"/>
<g opacity="0.7">
<path opacity="0.7" d="M271.414 129.455L277 130.955C276.775 129.351 276.246 127.804 275.442 126.398C274.324 124.787 272.715 123.58 270.856 122.958C271.258 125.1 271.445 127.276 271.414 129.455Z" fill="black"/>
</g>
<path d="M272.611 129.779L288.29 133.963L290.015 128.623C290.015 128.623 285.438 117.912 291.093 115.158C290.377 114.619 284.351 112.267 284.351 112.267L277.873 110.307C276.638 109.974 271.65 112.189 270.386 117.098C269.935 118.833 270.092 120.391 272.63 129.426C272.601 129.544 272.611 129.661 272.611 129.779Z" fill="#FF725E"/>
<path d="M273.904 89.7378C272.826 90.1298 271.494 92.6777 271.621 98.8221C271.729 104.035 273.297 105.682 274.081 106.309C275.255 106.897 276.55 107.202 277.863 107.201V110.307C277.863 110.307 275.825 112.267 275.952 113.757C276.08 115.246 278.892 116.305 280.793 115.423C282.182 114.64 283.383 113.563 284.311 112.267V105.113C284.455 105.278 284.629 105.413 284.825 105.51C285.021 105.607 285.234 105.664 285.452 105.677C285.67 105.691 285.888 105.661 286.095 105.59C286.301 105.518 286.491 105.406 286.654 105.26C286.96 105.051 287.221 104.782 287.421 104.47C287.621 104.158 287.757 103.809 287.82 103.443C287.883 103.078 287.872 102.704 287.788 102.342C287.704 101.981 287.548 101.64 287.33 101.341C286.35 100.057 284.635 99.8706 283.968 101.154C283.139 99.1409 281.654 97.4663 279.755 96.4016C276.658 94.52 274.972 92.8443 273.904 89.7378Z" fill="#FFA8A7"/>
<path d="M277.01 98.9687C277.006 99.1545 277.059 99.3371 277.163 99.4915C277.266 99.6459 277.415 99.7645 277.588 99.8311C277.662 99.8566 277.741 99.8638 277.818 99.852C277.895 99.8403 277.968 99.8099 278.031 99.7636C278.093 99.7173 278.144 99.6564 278.178 99.5862C278.212 99.516 278.228 99.4386 278.225 99.3607C278.23 99.1749 278.176 98.9923 278.073 98.8379C277.969 98.6836 277.821 98.565 277.647 98.4983C277.573 98.4728 277.495 98.4657 277.418 98.4774C277.341 98.4892 277.267 98.5195 277.205 98.5658C277.142 98.6121 277.092 98.673 277.058 98.7432C277.024 98.8134 277.007 98.8908 277.01 98.9687Z" fill="#37474F"/>
<path d="M276.854 103.32L275.442 103.418C275.484 103.633 275.596 103.828 275.761 103.972C275.926 104.116 276.135 104.2 276.354 104.212C276.746 104.182 276.971 103.761 276.854 103.32Z" fill="#F28F8F"/>
<path d="M272.032 95.6369L273.257 95.0587C273.184 94.8692 273.043 94.7134 272.863 94.6211C272.682 94.5289 272.473 94.5067 272.277 94.5589C272.189 94.6129 272.113 94.6839 272.053 94.7676C271.993 94.8513 271.951 94.9461 271.928 95.0465C271.905 95.1469 271.903 95.2508 271.92 95.3522C271.938 95.4535 271.976 95.5503 272.032 95.6369Z" fill="#37474F"/>
<path d="M278.774 97.9301L277.549 96.6855C277.614 96.6194 277.692 96.5678 277.778 96.5342C277.865 96.5005 277.957 96.4854 278.05 96.4901C278.142 96.4947 278.233 96.5189 278.315 96.561C278.398 96.6031 278.471 96.6623 278.529 96.7345C278.699 96.8767 278.815 97.0724 278.86 97.2895C278.904 97.5066 278.874 97.7325 278.774 97.9301Z" fill="#37474F"/>
<path d="M272.316 97.2441C272.311 97.4302 272.363 97.6134 272.467 97.7681C272.571 97.9227 272.72 98.041 272.895 98.1064C272.969 98.1323 273.049 98.1394 273.127 98.1272C273.204 98.1149 273.278 98.0837 273.341 98.0363C273.404 97.9888 273.454 97.9266 273.488 97.8551C273.521 97.7836 273.536 97.705 273.531 97.6263C273.534 97.4407 273.481 97.2588 273.377 97.1047C273.274 96.9506 273.126 96.8317 272.953 96.7639C272.879 96.738 272.799 96.7309 272.721 96.7431C272.643 96.7554 272.57 96.7866 272.507 96.8341C272.444 96.8815 272.393 96.9437 272.36 97.0153C272.327 97.0868 272.312 97.1653 272.316 97.2441Z" fill="#37474F"/>
<path d="M275.178 97.636L275.09 101.526L273.159 100.37L275.178 97.636Z" fill="#F28F8F"/>
<path d="M277.862 107.201C279.41 107.397 282.605 107.269 283.104 106.054C282.923 106.651 282.525 107.158 281.987 107.475C281.007 108.102 277.862 108.24 277.862 108.24V107.201Z" fill="#F28F8F"/>
<path d="M288.201 133.953L288.857 131.621L287.133 133.669L288.201 133.953Z" fill="#FF725E"/>
<path d="M289.485 134.297C290.189 130.944 291.142 127.649 292.337 124.438C293.983 119.921 292.141 116.02 291.034 115.158C289.926 114.296 284.291 112.267 284.291 112.267C282.253 118.068 281.694 125.84 281.645 132.2L289.485 134.297Z" fill="#FF725E"/>
<path opacity="0.4" d="M289.485 134.297C290.189 130.944 291.142 127.649 292.337 124.438C293.983 119.921 292.141 116.02 291.034 115.158C289.926 114.296 284.291 112.267 284.291 112.267C282.253 118.068 281.694 125.84 281.645 132.2L289.485 134.297Z" fill="black"/>
<path d="M292.268 135.041L297.864 136.541C298.02 136.435 298.168 136.317 298.305 136.188C298.305 136.188 295.659 125.977 294.816 122.586C293.973 119.195 293.326 116.863 291.053 115.158C286.966 117.813 288.858 125.193 288.858 125.193L292.268 135.041Z" fill="#FF725E"/>
<path opacity="0.4" d="M292.268 135.041L297.864 136.541C298.02 136.435 298.168 136.317 298.305 136.188C298.305 136.188 295.659 125.977 294.816 122.586C293.973 119.195 293.326 116.863 291.053 115.158C286.966 117.813 288.858 125.193 288.858 125.193L292.268 135.041Z" fill="black"/>
<path d="M373.743 69.7853V50.3722C373.802 46.6091 371.352 42.8362 366.384 39.9747C356.584 34.3007 340.65 34.3007 330.83 39.9747C325.862 42.8362 323.412 46.6091 323.471 50.3722V69.7167C323.471 73.4601 325.882 80.1533 330.83 83.005C340.63 88.679 356.564 88.679 366.384 83.005C371.283 80.1827 373.733 73.5385 373.743 69.8245V69.7853Z" fill="#EBEBEB"/>
<path d="M348.608 26.2849L307.126 50.2353L348.608 74.1856L390.09 50.2353L348.608 26.2849Z" fill="#F5F5F5"/>
<path d="M369.364 62.2005L348.932 50.5389C348.848 50.4907 348.755 50.4595 348.658 50.4471C348.562 50.4348 348.464 50.4416 348.37 50.4671C348.277 50.4925 348.189 50.5362 348.112 50.5956C348.035 50.6551 347.971 50.729 347.923 50.8133C347.874 50.8976 347.843 50.9906 347.831 51.0869C347.819 51.1833 347.825 51.2811 347.851 51.3748C347.876 51.4685 347.92 51.5563 347.979 51.6332C348.039 51.71 348.113 51.7744 348.197 51.8227L367.904 63.0433L369.364 62.2005Z" fill="#E0E0E0"/>
<path d="M307.125 50.2351V51.95L348.607 75.8906V74.1855L307.125 50.2351Z" fill="#E6E6E6"/>
<path d="M390.09 50.2351V51.95L348.608 75.8906V74.1855L390.09 50.2351Z" fill="#F0F0F0"/>
<path d="M370.393 63.3178L369.128 64.043C368.937 63.7309 368.671 63.4715 368.354 63.2884L367.913 63.0336L369.354 62.2104C369.779 62.4963 370.134 62.8749 370.393 63.3178Z" fill="#E0E0E0"/>
<path d="M323.423 61.3579L348.608 78.4583L373.725 61.3971L348.608 75.8908L323.423 61.3579Z" fill="#E0E0E0"/>
<path d="M372.009 83.4854C371.658 83.6667 371.268 83.7613 370.873 83.7613C370.477 83.7613 370.087 83.6667 369.736 83.4854L367.864 95.5683C367.864 97.8516 373.793 97.8516 373.793 95.5683L372.009 83.4854Z" fill="#F5F5F5"/>
<path d="M372.117 90.3843L372.489 97.0088C372.611 96.9718 372.729 96.9226 372.842 96.8618L372.117 90.3843Z" fill="#EBEBEB"/>
<path d="M369.315 97.0579L370.099 86.2783L368.932 96.9011C369.057 96.9609 369.184 97.0133 369.315 97.0579Z" fill="#EBEBEB"/>
<path d="M370.646 97.2736H371.019L370.823 88.7185L370.646 97.2736Z" fill="#EBEBEB"/>
<path d="M370.883 84.4947C370.448 84.4839 370.028 84.3403 369.677 84.0832C369.528 83.9732 369.427 83.8104 369.394 83.6282C369.362 83.446 369.4 83.2582 369.501 83.1032C369.608 82.9507 369.77 82.8459 369.953 82.8111C370.136 82.7764 370.325 82.8143 370.481 82.917C370.574 83.0074 370.699 83.058 370.829 83.058C370.959 83.058 371.083 83.0074 371.177 82.917C371.253 82.8491 371.342 82.7979 371.44 82.7665C371.537 82.7352 371.639 82.7244 371.741 82.7348C371.842 82.7453 371.94 82.7767 372.029 82.8272C372.118 82.8777 372.195 82.9461 372.256 83.0281C372.317 83.1101 372.36 83.2038 372.382 83.3033C372.405 83.4028 372.406 83.5059 372.387 83.6061C372.367 83.7063 372.327 83.8013 372.269 83.8851C372.211 83.9689 372.136 84.0397 372.049 84.093C371.712 84.3453 371.304 84.4858 370.883 84.4947Z" fill="#E0E0E0"/>
<path d="M370.833 82.6131C370.737 82.6144 370.642 82.5966 370.553 82.5607C370.464 82.5249 370.383 82.4717 370.314 82.4042C370.246 82.3368 370.192 82.2564 370.154 82.1677C370.117 82.0791 370.098 81.984 370.098 81.8879V64.7581C370.097 64.373 369.996 63.9948 369.803 63.6613C369.61 63.3277 369.334 63.0504 369.001 62.857L348.196 50.9994C348.031 50.9048 347.91 50.749 347.858 50.5657C347.807 50.3823 347.83 50.1861 347.922 50.0195C347.968 49.9367 348.03 49.8639 348.104 49.8052C348.178 49.7465 348.263 49.7031 348.354 49.6776C348.446 49.6521 348.541 49.6449 348.635 49.6565C348.729 49.6681 348.819 49.6982 348.902 49.7451L369.755 61.6223C370.311 61.9432 370.773 62.4045 371.095 62.96C371.416 63.5155 371.586 64.1457 371.588 64.7876V81.9173C371.584 82.0126 371.562 82.1062 371.522 82.1927C371.482 82.2792 371.425 82.3571 371.355 82.4217C371.285 82.4863 371.203 82.5365 371.113 82.5693C371.024 82.6022 370.929 82.6171 370.833 82.6131Z" fill="#FAFAFA"/>
<path d="M369.225 81.8879C369.223 81.5697 369.316 81.258 369.491 80.9924C369.667 80.7268 369.917 80.5193 370.21 80.3962C370.504 80.273 370.827 80.2398 371.14 80.3007C371.452 80.3616 371.74 80.5139 371.965 80.7382C372.191 80.9626 372.345 81.249 372.408 81.561C372.471 81.873 372.439 82.1966 372.318 82.4909C372.197 82.7851 371.991 83.0367 371.726 83.2137C371.462 83.3908 371.151 83.4853 370.832 83.4853C370.622 83.4866 370.413 83.4462 370.218 83.3665C370.023 83.2868 369.846 83.1694 369.697 83.0209C369.547 82.8725 369.429 82.6959 369.348 82.5015C369.267 82.307 369.225 82.0985 369.225 81.8879Z" fill="#F5F5F5"/>
<path d="M372.42 81.9763C372.353 82.1421 372.251 82.2915 372.121 82.4144C371.991 82.5372 371.836 82.6307 371.667 82.6883C371.498 82.746 371.318 82.7665 371.14 82.7485C370.962 82.7304 370.791 82.6743 370.636 82.5839C370.439 82.4653 370.277 82.2979 370.164 82.0979C370.051 81.8978 369.991 81.672 369.991 81.4422C369.991 81.2124 370.051 80.9866 370.164 80.7865C370.277 80.5865 370.439 80.4191 370.636 80.3005C370.336 80.3419 370.055 80.4676 369.823 80.6629C369.592 80.8583 369.421 81.1153 369.331 81.404C369.24 81.6927 369.233 82.0013 369.311 82.2937C369.389 82.5862 369.548 82.8505 369.77 83.0559C369.993 83.2613 370.269 83.3994 370.566 83.454C370.864 83.5086 371.171 83.4776 371.452 83.3644C371.732 83.2513 371.975 83.0608 372.152 82.815C372.328 82.5693 372.432 82.2784 372.449 81.9763H372.42Z" fill="#EBEBEB"/>
<path d="M86.9268 72.4313L94.502 68.0704L90.3371 67.1885L86.1919 70.0794L86.9268 72.4313Z" fill="#E0E0E0"/>
<path d="M100.185 33.3994C100.185 21.6398 107.388 16.1814 116.237 21.287L129.31 28.8328C138.129 33.9384 145.352 47.6971 145.352 59.4959C145.352 59.9761 145.352 60.4759 145.352 60.8972C145.352 61.1618 145.352 61.3872 145.352 61.642C145.352 61.8968 145.303 62.1026 145.283 62.328C145.263 62.5534 145.224 62.8474 145.185 63.1022C144.988 64.4947 144.639 65.8617 144.146 67.1788C143.94 67.6688 143.725 68.1588 143.49 68.5704C143.381 68.7976 143.257 69.017 143.117 69.2269L142.99 69.4327C142.772 69.7838 142.519 70.1121 142.235 70.4127C142.078 70.5891 141.931 70.7753 141.765 70.9419L141.255 71.4319C141.079 71.5691 140.912 71.7357 140.726 71.8728C140.55 72.0146 140.363 72.1424 140.168 72.255L139.589 72.5882C138.84 72.9925 138.029 73.2674 137.188 73.4016C137.124 73.3858 137.057 73.3858 136.992 73.4016C136.767 73.4016 136.561 73.4506 136.336 73.4506C136.098 73.4702 135.859 73.4702 135.62 73.4506C134.991 73.4575 134.362 73.3884 133.749 73.2448C133.382 73.1718 133.019 73.0802 132.661 72.9704C131.516 72.6196 130.417 72.1327 129.388 71.5201L116.315 63.9743C115.419 63.4541 114.561 62.8712 113.748 62.23C113.748 62.0732 113.748 61.936 113.748 61.789C113.748 61.642 113.748 61.3284 113.748 61.152C113.748 60.76 113.748 60.3583 113.748 59.9565C113.777 49.9314 107.74 38.1032 100.185 33.3994Z" fill="#E0E0E0"/>
<path d="M97.9805 24.9227L105.575 20.552C105.526 20.552 104.801 25.834 104.801 25.834L99.1662 26.5004L97.9805 24.9227Z" fill="#E0E0E0"/>
<path d="M133.073 76.2828L140.09 72.3041L135.866 70.4912L133.073 76.2828Z" fill="#E0E0E0"/>
<path d="M129.31 71.6376C129.36 74.5417 130.293 77.3617 131.985 79.7223C132.299 80.1339 131.819 80.4965 131.466 80.3103C129.864 79.4792 128.445 78.3364 127.291 76.949C125.075 74.3296 123.525 71.2128 122.774 67.8647L129.31 71.6376Z" fill="#E0E0E0"/>
<path d="M131.907 80.2907L124.312 84.6613C124.312 84.6613 120.05 81.0648 120.05 73.7837L128.291 73.2251C128.291 73.2251 128.487 77.9681 131.907 80.2907Z" fill="#E0E0E0"/>
<path d="M111.681 58.8685C111.681 59.2344 111.681 59.5872 111.681 59.9269C111.681 60.1229 111.681 60.2895 111.681 60.4757C111.681 60.6619 111.681 60.8187 111.622 60.9951C111.563 61.1715 111.622 61.3871 111.553 61.583C111.44 62.4511 111.236 63.305 110.946 64.131C110.904 64.2814 110.851 64.4288 110.789 64.5719C110.717 64.7688 110.636 64.9618 110.544 65.1501C110.468 65.3322 110.379 65.509 110.279 65.6793C110.202 65.85 110.11 66.014 110.005 66.1693L109.907 66.3261C109.734 66.596 109.544 66.8546 109.339 67.1003C109.232 67.2431 109.114 67.3774 108.986 67.502L108.613 67.8646C108.486 67.9838 108.352 68.0951 108.212 68.1978C108.077 68.3016 107.937 68.3965 107.79 68.482C107.643 68.5702 107.506 68.6584 107.349 68.7368L106.898 68.9524L106.428 69.119C106.141 69.2058 105.85 69.2778 105.556 69.3346H105.409C105.246 69.3495 105.082 69.3495 104.919 69.3346C104.743 69.3545 104.566 69.3545 104.39 69.3346C103.968 69.3344 103.548 69.2917 103.135 69.2072C102.805 69.1511 102.477 69.0758 102.155 68.9818C101.295 68.7182 100.47 68.353 99.6957 67.894L89.8961 62.2298C89.0218 61.7253 88.1981 61.1379 87.4363 60.4757C87.1619 60.2405 86.8876 59.9857 86.6132 59.7309C86.1192 59.2707 85.6513 58.7833 85.2118 58.2708L84.5846 57.7024C84.418 57.5064 84.2612 57.3006 84.0946 57.0948C84.054 57.0236 84.0047 56.9577 83.9477 56.8988C83.2951 56.0361 82.6931 55.1362 82.1445 54.2039C81.9975 53.9589 81.8603 53.7041 81.7133 53.4493C81.5663 53.1946 81.4292 52.9398 81.292 52.6752C81.1548 52.4106 81.0274 52.146 80.8902 51.8912L80.5178 51.0876C80.3904 50.823 80.2728 50.5388 80.1552 50.2841C79.9494 49.8137 79.7632 49.3041 79.5966 48.8533C79.5966 48.7651 79.528 48.6769 79.4986 48.5887C79.3908 48.3143 79.3026 48.0399 79.2144 47.7655C79.038 47.2364 78.8812 46.7072 78.7244 46.1584C78.3796 44.8704 78.121 43.5609 77.9503 42.2385C77.9503 42.0131 77.9013 41.7976 77.8719 41.5722C77.8425 41.3468 77.8719 41.19 77.8229 40.994C77.7739 40.798 77.8229 40.602 77.8229 40.406C77.8229 40.0401 77.8229 39.6776 77.8229 39.3182C77.8229 30.4986 83.2225 26.3729 89.8667 30.2046L99.6663 35.8786C106.281 39.6906 111.681 50.0097 111.681 58.8685Z" fill="#E0E0E0"/>
<path d="M74.2843 33.9677L81.8202 29.6362L84.6621 31.6452L75.8718 36.9664L74.2843 33.9677Z" fill="#E0E0E0"/>
<path d="M100.155 72.8431L107.73 68.4822L101.792 66.7085L100.155 72.8431Z" fill="#E0E0E0"/>
<path d="M91.3166 63.1807C91.3166 64.7486 89.3566 66.8849 87.1125 67.2867C86.8087 67.3455 86.8871 68.0119 87.2497 68.2667C88.5871 68.9931 90.13 69.2485 91.6302 68.9919C92.6044 68.9628 93.5535 68.6753 94.38 68.1587C95.2066 67.6421 95.8809 66.915 96.334 66.052L91.3166 63.1807Z" fill="#FF725E"/>
<path d="M108.653 25.6477L121.735 33.2032C130.555 38.3089 137.768 52.0676 137.768 63.8566C137.768 64.3465 137.768 64.8365 137.768 65.2677C137.768 65.5323 137.768 65.7577 137.768 66.0125C137.768 66.2673 137.719 66.4633 137.689 66.6887C137.66 66.9141 137.63 67.2276 137.591 67.4726C137.414 68.86 137.086 70.2238 136.611 71.5395C136.405 72.0393 136.19 72.5195 135.955 72.9408C135.847 73.1653 135.722 73.3814 135.582 73.5876C135.541 73.6592 135.495 73.7279 135.445 73.7934C135.232 74.1637 134.983 74.5117 134.7 74.8322C134.544 75.0086 134.387 75.2046 134.22 75.3614L133.72 75.8513C133.544 75.9885 133.368 76.1551 133.191 76.2923C133.014 76.4319 132.827 76.5596 132.633 76.6745L132.045 77.0077C131.299 77.4104 130.49 77.6853 129.653 77.8211C129.59 77.7994 129.521 77.7994 129.457 77.8211C129.232 77.8211 129.016 77.8211 128.801 77.8211C128.563 77.8356 128.324 77.8356 128.086 77.8211C127.456 77.8238 126.828 77.7547 126.214 77.6153C125.847 77.5423 125.484 77.4507 125.126 77.3409C123.984 76.9871 122.885 76.5038 121.853 75.9003C121.901 78.8032 122.839 81.6214 124.538 83.9752C124.852 84.3966 124.371 84.7592 124.009 84.573C122.405 83.741 120.985 82.5945 119.834 81.2019C117.624 78.5823 116.074 75.4703 115.317 72.1275L116.297 72.6665L108.819 68.3546C108.096 67.9376 107.399 67.4762 106.732 66.9729C106.79 66.7241 106.832 66.4721 106.859 66.2183C106.859 66.0517 106.918 65.8067 106.938 65.5519C106.974 65.3346 106.996 65.1153 107.006 64.8953V64.7777C107.016 64.6145 107.016 64.4509 107.006 64.2877C107.006 63.9154 107.006 63.5234 107.006 63.1314C107.006 53.2141 101.127 42.0327 93.5614 37.6523L92.7284 37.1623C92.8068 25.8241 99.9311 20.6107 108.653 25.6477Z" fill="#F0F0F0"/>
<path d="M82.2425 34.5459L92.0422 40.21C98.6765 44.0515 104.086 54.3705 104.086 63.2294C104.086 63.592 104.086 63.9448 104.086 64.2878C104.086 64.6308 104.086 64.6504 104.086 64.8366C104.086 65.0228 104.086 65.1796 104.037 65.356C104.021 65.5499 103.995 65.7429 103.959 65.9341C103.851 66.8065 103.647 67.6642 103.351 68.4918C103.313 68.6437 103.261 68.7914 103.194 68.9328C103.128 69.127 103.049 69.3169 102.959 69.5012C102.881 69.6855 102.792 69.8655 102.694 70.0402C102.614 70.2112 102.518 70.3751 102.41 70.5302C102.387 70.5858 102.358 70.6385 102.322 70.687C102.136 70.9614 101.95 71.2161 101.754 71.4611C101.64 71.6018 101.519 71.7359 101.391 71.8629L101.019 72.2255C100.892 72.3447 100.757 72.456 100.617 72.5587C100.488 72.6645 100.35 72.7595 100.205 72.8429C100.058 72.9311 99.9211 73.0193 99.7643 73.0977L99.3135 73.3133L98.8431 73.4799C98.5563 73.5667 98.2652 73.6387 97.971 73.6955H97.824C97.661 73.7104 97.497 73.7104 97.334 73.6955C97.1552 73.7203 96.9738 73.7203 96.795 73.6955C96.374 73.6979 95.9538 73.6585 95.5406 73.5779C95.2101 73.521 94.8829 73.4457 94.5607 73.3525C93.6991 73.0926 92.873 72.7272 92.101 72.2647L88.7887 70.3636C88.3292 71.2175 87.6521 71.9346 86.826 72.4423C85.9999 72.9501 85.0542 73.2302 84.0848 73.2545C82.5836 73.5074 81.0409 73.2486 79.7044 72.5195C79.3516 72.2941 79.2634 71.6277 79.577 71.5395C81.8211 71.1378 83.7713 69.0014 83.7713 67.4335L82.2817 66.5711C81.409 66.0643 80.5855 65.477 79.822 64.817C79.5476 64.5818 79.2732 64.327 79.0086 64.0722C78.5114 63.6121 78.0403 63.1247 77.5975 62.6121C77.4211 62.4063 77.2447 62.2103 77.0683 61.9751C76.8919 61.7399 76.7449 61.5831 76.5783 61.3773L76.4313 61.1813C75.7788 60.3185 75.1767 59.4187 74.6282 58.4864L74.1872 57.7318C74.0402 57.477 73.903 57.2222 73.7658 56.9577C73.6286 56.6931 73.511 56.4285 73.3738 56.1737L72.9917 55.3701C72.8643 55.0957 72.7565 54.8213 72.6389 54.5665C72.4331 54.0962 72.2371 53.5866 72.0705 53.1358L71.9823 52.8712C71.8745 52.5968 71.7765 52.3224 71.6981 52.048C71.5119 51.509 71.3649 50.9897 71.1983 50.4409C70.8535 49.1529 70.5949 47.8434 70.4241 46.521C70.4241 46.2956 70.3752 46.08 70.3556 45.8547C70.336 45.6293 70.3555 45.4627 70.3065 45.2765C70.2575 45.0903 70.3065 44.8845 70.3065 44.6885C70.3065 44.3259 70.3065 43.9535 70.3065 43.5909C70.1987 34.8006 75.6081 30.7142 82.2425 34.5459Z" fill="#F0F0F0"/>
<path d="M160.972 164.176C164.677 163.019 168.479 166.018 170.968 172.074C173.457 178.131 178.68 193.536 179.455 197.642C180.229 201.748 162.707 210.685 163.197 210.45C163.687 210.215 160.972 164.176 160.972 164.176Z" fill="#263238"/>
<path d="M169.116 306.721C169.645 306.917 169.773 307.917 169.851 309.896C169.91 311.396 170.233 314.012 168.479 314.531C166.725 315.051 164.148 314.786 163.021 313.375C161.619 311.611 160.669 310.063 158.67 307.907C156.925 306.045 155.053 304.301 154.348 301.684C153.711 299.313 154.24 298.293 155.857 297.607C158.072 296.627 161.56 299.744 163.295 300.234C164.794 300.655 168.597 306.525 169.116 306.721Z" fill="#263238"/>
<path d="M169.116 304.889V307.319C168.204 307.903 167.15 308.227 166.067 308.256C164.985 308.285 163.914 308.019 162.972 307.486C162.864 307.251 162.335 304.007 162.335 304.007L169.116 304.889Z" fill="#FFA8A7"/>
<path d="M149.428 320.735C149.428 320.735 150.124 322.852 150.496 324.655C150.8 326.125 151.222 328.575 150.712 329.692C150.202 330.809 148.184 331.514 145.077 331.485C143.059 331.485 139.913 332.847 137.767 334.043C135.621 335.238 130.907 335.777 128.565 335.503C125.801 335.18 122.93 333.543 122.479 332.426C122.028 331.309 122.626 330.084 129.153 327.301C129.212 327.301 138.227 324.361 141.393 320.862L149.428 320.735Z" fill="#263238"/>
<path d="M149.429 318.109C149.429 318.109 149.429 319.912 149.429 320.941C149.429 321.97 148.214 323.508 145.058 323.4C142.843 323.322 141.305 322.724 141.393 320.902V318.265L149.429 318.109Z" fill="#FFA8A7"/>
<path d="M170.704 272.619C170.163 268.311 169.201 264.068 167.833 259.948C167.833 259.948 168.695 249.021 169.117 238.663C169.567 227.472 169.117 213.399 169.303 210.616C169.303 210.616 133.191 203.306 132.544 216.241C131.898 229.177 133.975 262.104 134.397 267.787C134.818 273.471 135.808 278.498 136.984 287.71C138.16 296.922 141.393 318.265 141.393 318.265C142.643 318.902 144.029 319.221 145.431 319.193C146.833 319.166 148.206 318.793 149.429 318.109C149.429 318.109 151.967 292.237 151.703 285.682C151.496 280.812 150.66 275.989 149.214 271.335L150.497 251.392C151.105 242.112 151.742 237.673 151.889 233.626L152.663 233.234C152.663 233.234 153.457 249.246 153.878 254.93C154.3 260.614 155.211 266.063 156.818 276.617C158.249 285.77 162.492 305.144 162.492 305.144C166.618 307.378 169.077 304.859 169.077 304.859C169.077 304.859 171.802 280.556 170.704 272.619Z" fill="#455A64"/>
<path d="M151.889 233.655C151.889 233.655 160.65 229.334 165.03 225.443C165.03 225.443 160.963 231.176 155.613 233.724C155.613 233.724 153.712 253.607 153.721 253.215L152.624 233.616L151.889 233.655Z" fill="#37474F"/>
<path d="M144.088 160.079L146.224 171.839L156.847 171.065L154.622 157.727L144.088 160.079Z" fill="#FFA8A7"/>
<path d="M168.068 170.202C167.019 167.008 162.962 163.529 158.905 164.323C152.871 165.343 146.925 166.827 141.119 168.762C137.405 170.085 134.024 173.299 133.71 185.529L131.829 221.945L136.327 222.924L137.895 214.673L138.62 222.924C143.324 224.1 151.487 223.13 156.847 221.945C168.019 219.504 169.361 214.869 169.361 214.869C169.361 214.869 169.508 194.378 169.175 185.529C168.861 177.964 168.793 172.358 168.068 170.202Z" fill="#37474F"/>
<path d="M136.228 146.144C136.228 146.144 133.65 149.956 133.983 150.358C134.579 150.76 135.243 151.049 135.943 151.211L136.228 146.144Z" fill="#FFA8A7"/>
<path d="M144.088 134.071C141.608 135.326 137.326 137.638 136.15 146.703C134.935 156.013 136.532 159.011 137.786 160.246C138.639 161.079 143.264 161.128 145.577 160.432C148.517 159.56 155.004 157.081 157.983 152.299C161.492 146.674 162.276 139.138 158.317 136.139C152.76 131.925 146.185 133.013 144.088 134.071Z" fill="#FFA8A7"/>
<path d="M135.63 137.187C136.444 139.422 137.816 144.89 143.519 147.173C143.519 147.173 144.333 143.684 147.263 144.057C150.193 144.429 150.693 148.163 148.889 150.485C147.086 152.808 145.342 151.965 145.342 151.965C145.342 151.965 144.95 156.963 148.282 159.227C148.282 159.227 152.309 161.775 156.572 159.815C158.532 158.933 161.208 154.337 162.795 150.564C166.166 142.587 166.646 136.188 161.56 134.169C160.933 130.543 159.297 129.181 156.014 128.505C148.948 127.045 143.607 131.69 137.669 130.876C134.562 130.445 134.699 134.639 135.63 137.187Z" fill="#37474F"/>
<path d="M161.679 135.384L165.011 133.326C164.882 133.096 164.707 132.893 164.498 132.732C164.288 132.57 164.048 132.452 163.792 132.386C163.536 132.32 163.269 132.306 163.008 132.345C162.746 132.385 162.495 132.477 162.27 132.616C162.045 132.755 161.851 132.938 161.698 133.154C161.546 133.37 161.439 133.615 161.384 133.874C161.328 134.132 161.326 134.4 161.377 134.659C161.427 134.919 161.53 135.166 161.679 135.384Z" fill="#37474F"/>
<path d="M144.871 164.362L143.656 167.88C143.656 167.88 144.548 169.448 148.34 169.526C152.133 169.605 156.18 168.399 157.435 166.782C157.72 166.466 157.932 166.09 158.054 165.681C158.176 165.272 158.205 164.842 158.14 164.421C158.14 164.421 156.631 161.089 155.2 161.236L155.435 162.686C155.435 162.686 155.112 163.872 151.672 164.783C146.322 166.204 144.871 164.362 144.871 164.362Z" fill="#455A64"/>
<path d="M114.395 187.744C112.866 185.99 112.278 182.099 110.239 179.434C108.201 176.768 107.447 174.818 106.643 175.984C105.575 177.523 107.986 180.61 107.447 180.884C106.908 181.158 104.918 185.255 104.712 187.509C104.507 189.762 110.484 195.446 110.484 195.446L114.395 187.744Z" fill="#FFA8A7"/>
<path d="M144.871 164.362C144.625 164.357 144.381 164.419 144.167 164.541C143.953 164.664 143.777 164.842 143.656 165.057C143.057 166.14 142.52 167.255 142.049 168.399L143.656 167.88L144.871 164.362Z" fill="#455A64"/>
<path d="M107.613 180.57C107.613 180.57 100.391 179.943 99.3424 180.57C98.2938 181.198 98.6074 184.324 99.3424 186.244C100.077 188.165 103.762 189.41 107.182 191.722C107.182 191.37 107.613 180.57 107.613 180.57Z" fill="#FFA8A7"/>
<path d="M142.05 168.438C138.943 169.526 136.229 170.771 133.328 176.219C129.604 183.216 122.548 194.408 122.548 194.408L114.424 187.244C114.424 187.244 113.199 186.058 110.916 189.831C110.247 190.847 109.824 192.004 109.679 193.212C109.534 194.419 109.673 195.644 110.083 196.789C110.083 196.789 119.461 207.794 121.255 209.47C123.048 211.145 126.017 209.842 127.948 207.206C129.879 204.57 142.079 189.331 142.079 189.331C142.079 189.331 148.704 180.531 142.05 168.438Z" fill="#37474F"/>
<path d="M58.2517 150.143H81.3887C82.2619 150.143 83.0994 149.796 83.7169 149.178C84.3344 148.561 84.6813 147.723 84.6813 146.85V110.091C84.6813 107.199 83.5322 104.424 81.4867 102.379C79.4413 100.334 76.6671 99.1844 73.7743 99.1844H65.8366C62.949 99.1922 60.1823 100.345 58.1432 102.389C56.1041 104.434 54.959 107.204 54.959 110.091V146.85C54.959 147.723 55.3059 148.561 55.9234 149.178C56.5409 149.796 57.3784 150.143 58.2517 150.143Z" fill="#37474F"/>
<path d="M85.2895 137.599C87.5337 144.214 91.2967 163.245 91.2967 163.245C91.2967 163.245 99.1364 172.829 101.694 175.151C103.095 176.445 106.251 178.767 106.251 178.767L100.518 182.981C95.3422 179 90.4803 174.626 85.9755 169.899C84.9736 168.833 84.2705 167.521 83.9372 166.096L80.0173 149.28C80.0173 149.28 80.0173 135.757 77.9496 133.983C75.8819 132.209 75.2841 131.837 75.2841 131.837C77.9398 131.641 83.5256 132.395 85.2895 137.599Z" fill="#F28F8F"/>
<path d="M74.0592 131.641C77.7145 131.219 82.3987 131.298 84.682 135.384C86.9653 139.471 90.7676 160.599 90.7676 160.599C90.7676 160.599 87.1711 163.392 83.2904 163.343L74.0592 131.641Z" fill="#FF725E"/>
<path d="M84.221 151.328C83.5629 154.478 83.3093 157.699 83.4664 160.912C83.7506 165.146 86.6709 172.535 86.6709 172.535C86.6709 172.535 84.3876 175.044 77.9492 174.034C72.7064 173.221 74.5585 157.375 77.567 154.337C79.3216 152.524 81.7011 151.448 84.221 151.328Z" fill="#FF725E"/>
<path opacity="0.3" d="M84.221 151.328C83.5629 154.478 83.3093 157.699 83.4664 160.912C83.7506 165.146 86.6709 172.535 86.6709 172.535C86.6709 172.535 84.3876 175.044 77.9492 174.034C72.7064 173.221 74.5585 157.375 77.567 154.337C79.3216 152.524 81.7011 151.448 84.221 151.328Z" fill="black"/>
<path d="M72.109 263.24C72.0674 263.963 72.2487 264.681 72.6284 265.298C73.5977 266.9 74.7379 268.391 76.0289 269.747C77.8418 271.707 80.5563 274.01 82.5065 275.705C83.5844 276.685 83.6236 278.077 82.0753 278.577C79.1892 279.279 76.1437 278.855 73.5594 277.391C71.5994 276.352 68.8751 271.511 67.268 270.825C65.4159 269.992 64.3869 269.581 63.7597 268.728C63.2855 268.243 62.9895 267.612 62.9201 266.938C62.8507 266.263 63.0119 265.585 63.3775 265.014C64.2497 263.387 65.5629 260.888 66.1019 261.172L65.9352 261.682C66.3566 263.005 69.9629 264.544 71.815 264.181L72.109 263.24Z" fill="#37474F"/>
<path d="M53.2245 207.951C52.3915 199.131 50.0004 184.941 52.4503 174.436L84.9852 176.161C85.8867 186.519 86.9451 218.858 85.8083 222.562C84.4952 226.933 72.765 257.184 72.0888 263.27C72.0422 263.984 72.2241 264.695 72.6082 265.298C73.5763 266.904 74.7166 268.399 76.0087 269.757C76.8906 270.737 77.9686 271.717 79.1054 272.697C79.2006 272.837 79.2579 272.999 79.272 273.168C79.272 274.147 76.8024 274.451 75.3521 274.03C73.5433 273.392 71.985 272.194 70.9031 270.61C70.0701 269.502 68.1984 267.376 66.9832 265.779C66.5777 265.286 66.2322 264.746 65.9542 264.171C65.6298 263.454 65.5741 262.643 65.7974 261.888L65.8758 261.643C66.5118 259.659 66.9066 257.606 67.0518 255.528C67.5026 248.855 68.6491 233.44 69.7075 229.334C70.4423 226.342 71.5588 223.456 73.0296 220.749L69.3155 191.85C69.3155 191.85 68.9235 217.329 67.7672 223.826C66.8558 229.03 66.503 235.537 65.4348 244.464C64.4549 253.01 63.3181 268.062 63.3181 268.062C63.289 268.067 63.2591 268.067 63.2299 268.062V275.255H57.1443V271.08C57.1443 269.195 56.987 267.314 56.674 265.455C55.694 259.771 53.6557 246.767 53.2343 242.367C52.5679 235.39 55.0864 226.619 55.0864 226.619C55.0864 226.619 54.0379 216.555 53.2245 207.951Z" fill="#FFA8A7"/>
<path d="M64.6899 131.945C64.6899 131.945 55.9388 132.925 54.8902 133.425C63.1023 139.197 56.4484 152.044 56.4484 152.044L59.594 161.912C56.0956 166.391 53.0773 169.056 51.2055 173.966C49.128 179.454 47.2857 187.617 47.7757 204.345C55.6154 210.224 79.4677 209.587 88.7578 204.345C88.7578 204.345 87.1898 189.577 85.3377 178.101C84.1128 170.526 81.2219 162.275 81.7119 159.482C85.3965 148.153 85.6317 146.115 84.9654 143.587C83.1328 136.472 75.881 131.661 74.0975 131.661L64.6899 131.945Z" fill="#FF725E"/>
<path opacity="0.6" d="M64.6899 131.945C64.6899 131.945 55.9388 132.925 54.8902 133.425C63.1023 139.197 56.4484 152.044 56.4484 152.044L59.594 161.912C56.0956 166.391 53.0773 169.056 51.2055 173.966C49.128 179.454 47.2857 187.617 47.7757 204.345C55.6154 210.224 79.4677 209.587 88.7578 204.345C88.7578 204.345 87.1898 189.577 85.3377 178.101C84.1128 170.526 81.2219 162.275 81.7119 159.482C85.3965 148.153 85.6317 146.115 84.9654 143.587C83.1328 136.472 75.881 131.661 74.0975 131.661L64.6899 131.945Z" fill="white"/>
<path d="M63.2897 272.207V271.335C64.0541 274.265 65.5827 276.94 67.7191 279.086C69.679 280.86 72.3249 282.918 73.0109 284.907C73.6969 286.897 69.8652 287.788 67.3369 287.534C64.887 287.234 62.6298 286.053 60.9868 284.211C59.3796 282.369 59.409 281.115 58.6642 280.096C57.9194 279.076 56.1849 277.959 55.7831 276.783C55.6577 275.686 55.7782 274.575 56.1359 273.53C56.4201 272.442 56.7337 271.237 57.1159 271.335V272.011C57.9976 272.705 59.0907 273.075 60.2126 273.059C61.0651 273.079 63.2995 272.893 63.2897 272.207Z" fill="#37474F"/>
<path d="M57.1459 271.991C58.0276 272.685 59.1207 273.055 60.2426 273.04C61.1441 273.04 63.3392 272.893 63.3294 272.207V271.335C64.0939 274.265 65.6224 276.94 67.7589 279.086L69.2386 280.409C70.2774 281.566 69.9834 282.575 67.5433 282.781C65.1032 282.986 62.957 281.517 61.1147 279.253C59.5439 276.976 58.2138 274.543 57.1459 271.991Z" fill="#FFA8A7"/>
<path d="M79.8022 105.192C81.3701 106.123 83.3105 110.091 83.1243 118.343C82.9577 125.359 80.6842 127.094 79.5376 127.594C78.391 128.093 76.1959 127.79 74.0596 127.437V131.641C74.0596 131.641 76.9995 135.081 76.8329 137.011C76.6663 138.942 72.5602 139.392 69.7869 137.511C67.7846 135.958 66.0614 134.076 64.6911 131.945L64.7401 122.272C64.7401 122.272 63.476 123.488 61.3396 121.626C59.5757 120.087 58.9877 117.48 60.3597 116.089C60.7159 115.754 61.1471 115.509 61.6172 115.375C62.0873 115.24 62.5827 115.22 63.0622 115.316C63.5416 115.412 63.9912 115.621 64.3734 115.926C64.7557 116.231 65.0595 116.623 65.2595 117.069C65.2595 117.069 66.4452 113.766 71.3745 112.169C75.8235 110.689 78.244 109.014 79.8022 105.192Z" fill="#FFA8A7"/>
<path d="M75.2842 116.588C75.284 116.761 75.2331 116.93 75.1378 117.074C75.0425 117.218 74.907 117.331 74.7481 117.399C74.5893 117.467 74.414 117.486 74.244 117.455C74.0741 117.424 73.917 117.344 73.7923 117.225C73.6675 117.105 73.5806 116.952 73.5422 116.783C73.5039 116.615 73.5159 116.439 73.5767 116.277C73.6374 116.116 73.7444 115.975 73.8842 115.874C74.0239 115.772 74.1905 115.714 74.363 115.707C74.4814 115.704 74.5992 115.725 74.7095 115.768C74.8199 115.811 74.9208 115.875 75.0063 115.957C75.0919 116.039 75.1604 116.137 75.2081 116.245C75.2558 116.353 75.2816 116.47 75.2842 116.588Z" fill="#37474F"/>
<path d="M75.5202 122.527L77.5684 123.184C77.5324 123.32 77.4691 123.448 77.3823 123.56C77.2956 123.672 77.1872 123.765 77.0636 123.833C76.94 123.902 76.8038 123.945 76.6632 123.96C76.5226 123.974 76.3805 123.96 76.2454 123.919C75.9689 123.824 75.7392 123.627 75.6042 123.368C75.4692 123.109 75.4391 122.808 75.5202 122.527Z" fill="#F28F8F"/>
<path d="M82.5172 113.874L80.7336 112.639C80.809 112.519 80.9081 112.415 81.0249 112.334C81.1418 112.253 81.2738 112.196 81.4132 112.168C81.5525 112.139 81.6962 112.139 81.8354 112.168C81.9747 112.197 82.1066 112.254 82.2232 112.335C82.4621 112.504 82.6263 112.758 82.6811 113.045C82.736 113.332 82.6772 113.629 82.5172 113.874Z" fill="#37474F"/>
<path d="M72.7164 114.54L74.5098 113.306C74.4342 113.185 74.3352 113.081 74.2187 113C74.1022 112.919 73.9705 112.862 73.8315 112.833C73.6925 112.804 73.5491 112.803 73.4097 112.83C73.2703 112.857 73.1379 112.912 73.0202 112.992C72.7829 113.164 72.6196 113.419 72.5632 113.706C72.5068 113.994 72.5616 114.292 72.7164 114.54Z" fill="#37474F"/>
<path d="M82.1044 115.942C82.1062 116.115 82.0569 116.285 81.9628 116.43C81.8687 116.575 81.7339 116.69 81.5752 116.759C81.4165 116.828 81.241 116.849 81.0704 116.819C80.8999 116.79 80.7419 116.71 80.6161 116.591C80.4904 116.472 80.4025 116.319 80.3634 116.15C80.3242 115.981 80.3356 115.805 80.3961 115.643C80.4566 115.48 80.5635 115.34 80.7034 115.238C80.8434 115.136 81.0103 115.077 81.1833 115.07C81.4208 115.064 81.6507 115.153 81.8232 115.316C81.9957 115.48 82.0968 115.704 82.1044 115.942Z" fill="#37474F"/>
<path d="M77.9508 115.442L78.088 120.753L80.8809 119.891L77.9508 115.442Z" fill="#F28F8F"/>
<path d="M74.0586 127.437C71.8047 127.133 67.1988 125.8 66.4345 123.968C66.7253 124.896 67.2929 125.713 68.0612 126.31C69.4528 127.496 74.0586 128.838 74.0586 128.838V127.437Z" fill="#F28F8F"/>
<path d="M58.0752 156.532L64.2588 164.901L59.5941 161.912L58.0752 156.532Z" fill="#FF725E"/>
<path d="M106.79 178.767C108.113 180.473 108.926 183.785 109.622 184.902C110.318 186.019 111.15 186.989 109.622 187.195C108.093 187.401 105.859 184.412 105.026 182.599C104.604 181.577 103.808 180.753 102.801 180.296C103.517 180.051 103.144 177.18 103.644 176.778C103.644 176.778 106.251 177.846 106.79 178.767Z" fill="#F28F8F"/>
<path d="M107.183 191.703C105.801 190.674 105.752 189.41 105.487 187.401C105.223 185.392 99.6859 183.217 99.5095 184.716C99.3331 186.215 98.8333 187.47 100.489 189.292C102.146 191.115 104.654 193.055 107.183 191.703Z" fill="#F28F8F"/>
<path d="M64.6902 131.945C64.6902 131.945 56.4977 132.66 54.8906 133.424C53.2834 134.189 50.6081 138.814 52.9992 145.527C55.3903 152.24 57.5658 160.138 57.3209 161.726C57.0759 163.313 51.3627 171.525 51.3627 171.525C52.9389 172.689 54.7212 173.543 56.6153 174.044L59.5552 167.655L58.8692 174.446C61.8222 175.164 64.8564 175.493 67.8947 175.426C67.8947 175.426 70.668 149.339 64.6902 131.945Z" fill="#FF725E"/>
<path d="M44.5043 163.941C43.8477 160.08 44.5043 158.815 45.8566 155.033L52.7164 159.472C52.1538 160.9 51.8229 162.408 51.7364 163.941C51.7952 165.058 53.3142 176.131 54.7351 179.992C54.9912 180.679 55.4945 181.245 56.1463 181.58C57.5593 182.443 58.8399 183.506 59.9485 184.735C60.9971 185.715 61.8398 185.892 61.732 186.225C61.5701 186.586 61.2806 186.875 60.9189 187.036C60.5572 187.197 60.1489 187.219 59.7721 187.097C58.9185 186.82 58.0997 186.445 57.332 185.98C58.0126 187.421 58.919 188.745 60.0171 189.9C62.5356 192.585 62.761 194.329 58.0572 194.692C55.1173 194.917 52.6576 193.271 50.0019 186.95C49.1789 184.633 48.5014 182.267 47.9733 179.865C46.5426 174.387 45.151 167.831 44.5043 163.941Z" fill="#FFA8A7"/>
<path d="M54.892 133.425C51.5896 134.904 50.6488 137.825 49.4238 142.117C48.1989 146.409 44.3574 159.286 44.3574 159.286C44.3574 159.286 47.6501 163.206 52.1971 162.108L58.0769 147.83C58.0769 147.83 60.8208 138.511 54.892 133.425Z" fill="#FF725E"/>
</svg>
