<svg width="204" height="160" viewBox="0 0 204 160" fill="none" xmlns="http://www.w3.org/2000/svg">
<path d="M110 144C145.346 144 174 115.346 174 80C174 44.6538 145.346 16 110 16C74.6538 16 46 44.6538 46 80C46 115.346 74.6538 144 110 144Z" fill="#EFEFEF"/>
<path d="M130.096 90.9618L123.101 102.156C122.282 103.467 121.847 104.982 121.848 106.529V122.305H126.798L130.098 107.456L139.997 95.0816V90.9618H130.096Z" fill="#42566B"/>
<path d="M111.948 57.963L115.669 65.4049C116.466 67.0024 117.761 68.2973 119.359 69.0946L121.518 70.1751L123.498 71.1649L130.097 84.3653H146.598L148.248 64.5699L149.687 59.5348L150.357 57.1861C150.724 55.9011 150.774 54.5461 150.502 53.2376C150.229 51.9291 149.644 50.7063 148.794 49.6743L141.213 40.4702L136.698 43.121L143.298 54.6708L141.958 56.4494L138.34 61.2717L130.09 64.5714L125.278 62.647L121.84 61.2717L116.89 54.6723L111.948 57.963Z" fill="#ED1C24" fill-opacity="0.3"/>
<path d="M146.596 84.3624V102.372C146.598 103.55 146.852 104.714 147.341 105.786L154.851 122.307H149.892L139.687 109.187C138.806 108.054 138.235 106.71 138.032 105.289L137.175 99.2908C136.866 97.1251 135.709 95.171 133.959 93.8582L130.089 90.9589V84.3624H146.596Z" fill="#4D6378"/>
<path d="M111.948 57.9616L115.669 65.4034C116.466 67.0009 117.761 68.2959 119.359 69.0931L121.518 70.1737L125.287 62.6395L121.849 61.2643L116.899 54.6619L111.948 57.9616Z" fill="#F5C99D"/>
<path d="M138.347 56.3125V61.2628C138.347 62.5757 137.826 63.8349 136.898 64.7632C135.969 65.6916 134.71 66.2131 133.397 66.2131C132.084 66.2127 130.826 65.691 129.898 64.7627C128.97 63.8344 128.448 62.5755 128.448 61.2628V56.3125H138.347Z" fill="#F5C99D"/>
<path d="M138.347 56.3126H128.448V54.662C128.448 53.6542 128.849 52.6877 129.561 51.9751C130.274 51.2625 131.24 50.8622 132.248 50.8622C132.998 50.8623 133.731 51.0845 134.356 51.5007L138.349 54.1619L138.347 56.3126Z" fill="#B1792C"/>
<path d="M90.4968 90.9618L97.4922 102.156C98.312 103.467 98.7467 104.982 98.7469 106.529V122.305H93.7965L90.4968 107.456L80.5977 95.0861V90.9618H90.4968Z" fill="#42566B"/>
<path d="M108.648 57.963L104.927 65.4049C104.13 67.0024 102.835 68.2973 101.238 69.0946L99.078 70.1751L97.0985 71.1649L90.4991 84.3653H73.999L72.3484 64.5699L70.9091 59.5348L70.2393 57.1861C69.8723 55.9011 69.8227 54.5461 70.0949 53.2376C70.3671 51.9291 70.953 50.7063 71.8021 49.6743L79.3839 40.4702L83.8981 43.121L77.2987 54.6708L78.6382 56.4494L82.2565 61.2717L90.5065 64.5714L95.3184 62.647L98.7566 61.2717L103.707 54.6723L108.648 57.963Z" fill="#ED1C24" fill-opacity="0.3"/>
<path d="M73.9981 84.3624V102.372C73.9967 103.55 73.7429 104.714 73.2539 105.786L65.748 122.316H70.6984L80.9026 109.196C81.7841 108.063 82.3546 106.719 82.5577 105.298L83.415 99.2997C83.7245 97.1341 84.8814 95.1799 86.6314 93.8672L90.5012 90.9678V84.3624H73.9981Z" fill="#4D6378"/>
<path d="M77.2981 54.6634L78.6376 56.442L70.9159 59.5289L70.2462 57.1803C69.8791 55.8952 69.8295 54.5402 70.1018 53.2317C70.374 51.9233 70.9598 50.7005 71.809 49.6684L79.3907 40.4644L83.905 43.1151L77.2981 54.6634Z" fill="#F5C99D"/>
<path d="M108.646 57.9616L104.925 65.4034C104.128 67.0009 102.833 68.2959 101.236 69.0931L99.0762 70.1737L95.3076 62.6395L98.7458 61.2643L103.696 54.6619L108.646 57.9616Z" fill="#F5C99D"/>
<path d="M131.635 35.4753C131.362 36.1319 131.289 36.8548 131.428 37.5524C131.566 38.2501 131.908 38.891 132.41 39.3942L137.131 44.1138L127.796 53.4489L123.077 48.7278C122.573 48.2252 121.932 47.8832 121.235 47.7452C120.537 47.6071 119.814 47.6792 119.158 47.9523L119.114 47.9687C118.457 48.2402 117.896 48.7007 117.5 49.2919C117.105 49.883 116.895 50.5782 116.895 51.2892V57.9631H103.695V51.2892C103.695 50.5782 103.485 49.883 103.09 49.2919C102.695 48.7007 102.133 48.2402 101.476 47.9687L101.433 47.9523C100.776 47.6792 100.053 47.6071 99.3555 47.7452C98.6578 47.8832 98.0169 48.2252 97.5137 48.7278L92.7941 53.4489L83.459 44.1138L88.1802 39.3942C88.6827 38.891 89.0247 38.2501 89.1627 37.5524C89.3008 36.8548 89.2287 36.1319 88.9556 35.4753C88.951 35.4606 88.9456 35.4462 88.9392 35.4321C88.6677 34.775 88.2072 34.2132 87.616 33.8182C87.0249 33.4231 86.3297 33.2124 85.6187 33.213H78.9463V26.6135H98.7416C98.7416 29.6767 99.9585 32.6144 102.124 34.7804C104.29 36.9464 107.228 38.1633 110.291 38.1633C113.355 38.1633 116.292 36.9464 118.458 34.7804C120.624 32.6144 121.841 29.6767 121.841 26.6135H141.637V33.213H134.963C134.252 33.2124 133.556 33.4231 132.965 33.8182C132.374 34.2132 131.914 34.775 131.642 35.4321C131.636 35.4462 131.63 35.4606 131.626 35.4753H131.635Z" fill="#ED1C24"/>
<path d="M82.2471 56.3125V61.2628C82.2471 62.5757 82.7686 63.8349 83.697 64.7632C84.6253 65.6916 85.8845 66.2131 87.1974 66.2131C88.5103 66.2131 89.7694 65.6916 90.6978 64.7632C91.6262 63.8349 92.1477 62.5757 92.1477 61.2628V56.3125H82.2471Z" fill="#F5C99D"/>
<path d="M82.2471 56.3126H92.1462V54.662C92.1462 53.6542 91.7459 52.6877 91.0333 51.9751C90.3207 51.2625 89.3542 50.8622 88.3464 50.8622C87.5963 50.8623 86.863 51.0845 86.2389 51.5007L82.2471 54.1634V56.3126Z" fill="#B1792C"/>
<path d="M131.635 35.4753C131.362 36.1319 131.29 36.8548 131.428 37.5524C131.566 38.2501 131.908 38.891 132.411 39.3942L137.132 44.1138L127.797 53.4489L123.077 48.7278C122.574 48.2252 121.933 47.8832 121.236 47.7452C120.538 47.6071 119.815 47.6792 119.158 47.9523L119.115 47.9687C118.458 48.2402 117.896 48.7007 117.501 49.2919C117.106 49.883 116.896 50.5782 116.896 51.2892V57.9631H103.696V51.2892C103.696 50.5782 103.486 49.883 103.09 49.2919C102.695 48.7007 102.134 48.2402 101.476 47.9687L101.433 47.9523C100.777 47.6792 100.054 47.6071 99.3562 47.7452C98.6585 47.8832 98.0176 48.2252 97.5144 48.7278L92.7948 53.4489L86.9023 47.5564L91.9152 42.5421C93.0048 41.4636 94.4344 40.796 95.9608 40.6527C97.4871 40.5095 99.016 40.8994 100.287 41.7562C103.023 43.5616 106.197 44.5926 109.472 44.7398C112.747 44.8871 116.001 44.145 118.888 42.5924C121.775 41.0398 124.188 38.7345 125.871 35.9213C127.554 33.108 128.443 29.8917 128.446 26.6135H141.646V33.213H134.972C134.261 33.2124 133.566 33.4231 132.975 33.8182C132.384 34.2132 131.923 34.775 131.652 35.4321C131.645 35.4462 131.64 35.4606 131.635 35.4753Z" fill="#ED1C24"/>
<path d="M156.348 121.628L148.838 105.107C148.445 104.25 148.242 103.319 148.242 102.376V84.4308L149.879 64.8602L151.945 57.6312C152.386 56.0893 152.445 54.4635 152.118 52.8937C151.791 51.3238 151.088 49.8569 150.068 48.6191L142.488 39.4135C142.239 39.1106 141.889 38.9066 141.503 38.8382C141.116 38.7697 140.718 38.8412 140.379 39.0399L136.608 41.2546L133.582 38.2288C133.309 37.9579 133.122 37.6117 133.047 37.2345C132.971 36.8572 133.01 36.466 133.158 36.1108L133.178 36.0617C133.325 35.7063 133.574 35.4025 133.893 35.1891C134.213 34.9757 134.589 34.8624 134.973 34.8635H141.641C142.079 34.8635 142.499 34.6896 142.808 34.3801C143.118 34.0705 143.292 33.6507 143.292 33.2129V26.6135C143.292 26.3967 143.249 26.1821 143.166 25.9818C143.083 25.7816 142.962 25.5996 142.808 25.4463C142.655 25.2931 142.473 25.1715 142.273 25.0885C142.073 25.0056 141.858 24.9629 141.641 24.9629H121.846C121.408 24.9629 120.988 25.1368 120.679 25.4463C120.369 25.7559 120.195 26.1757 120.195 26.6135C120.218 27.9277 119.979 29.2333 119.492 30.4541C119.005 31.6749 118.279 32.7865 117.358 33.724C116.437 34.6614 115.338 35.406 114.126 35.9143C112.913 36.4225 111.612 36.6843 110.298 36.6843C108.983 36.6843 107.682 36.4225 106.47 35.9143C105.258 35.406 104.159 34.6614 103.237 33.724C102.316 32.7865 101.591 31.6749 101.104 30.4541C100.616 29.2333 100.377 27.9277 100.4 26.6135C100.4 26.3965 100.357 26.1816 100.274 25.9811C100.191 25.7807 100.069 25.5986 99.9155 25.4453C99.7619 25.292 99.5796 25.1705 99.379 25.0877C99.1784 25.0049 98.9634 24.9625 98.7464 24.9629H78.9511C78.7343 24.9629 78.5197 25.0056 78.3194 25.0885C78.1192 25.1715 77.9372 25.2931 77.7839 25.4463C77.6307 25.5996 77.5091 25.7816 77.4261 25.9818C77.3432 26.1821 77.3005 26.3967 77.3005 26.6135V33.2129C77.3005 33.6507 77.4744 34.0705 77.7839 34.3801C78.0935 34.6896 78.5133 34.8635 78.9511 34.8635H85.6249C86.0082 34.8621 86.3833 34.9745 86.7026 35.1864C87.0219 35.3984 87.271 35.7005 87.4184 36.0542L87.4393 36.1034C87.588 36.4583 87.6276 36.8496 87.5528 37.2271C87.478 37.6047 87.2924 37.9513 87.0196 38.2228L83.9937 41.2487L80.2162 39.0384C79.8777 38.8398 79.4794 38.7682 79.0929 38.8367C78.7063 38.9052 78.3569 39.1091 78.1072 39.412L70.5269 48.6191C69.5075 49.8569 68.8041 51.3238 68.4772 52.8937C68.1503 54.4635 68.2096 56.0893 68.6501 57.6312L70.7159 64.8602L72.3531 84.4308V102.375C72.3536 103.317 72.1505 104.249 71.7578 105.106L64.246 121.628C64.132 121.879 64.0829 122.155 64.1031 122.431C64.1232 122.706 64.2121 122.971 64.3614 123.203C64.5108 123.435 64.716 123.626 64.9582 123.759C65.2003 123.891 65.4718 123.96 65.7477 123.96H70.6981C70.9493 123.961 71.1973 123.903 71.423 123.793C71.6487 123.682 71.8462 123.522 72.0004 123.323L82.2047 110.203C83.2614 108.844 83.9457 107.232 84.1902 105.527L84.5905 102.721L88.0138 106.997C88.6421 107.785 89.0828 108.705 89.3027 109.688L92.1872 122.67C92.2687 123.036 92.4727 123.364 92.7655 123.599C93.0582 123.834 93.4223 123.962 93.7976 123.962H98.7464C99.1842 123.962 99.604 123.788 99.9136 123.479C100.223 123.169 100.397 122.749 100.397 122.311V106.526C100.397 104.67 99.8761 102.852 98.8923 101.279L92.147 90.487V84.7523L98.3297 72.3914L101.978 70.5666C103.891 69.6052 105.444 68.0524 106.406 66.1387L109.67 59.6107H110.93L114.194 66.1387C115.156 68.0524 116.708 69.6052 118.622 70.5666L122.27 72.3914L128.45 84.7448V90.4825L121.697 101.281C120.715 102.854 120.194 104.671 120.195 106.526V122.302C120.194 122.52 120.236 122.736 120.318 122.937C120.401 123.138 120.522 123.321 120.676 123.475C120.829 123.63 121.011 123.752 121.212 123.835C121.413 123.919 121.628 123.962 121.846 123.962H126.796C127.172 123.962 127.536 123.834 127.828 123.599C128.121 123.364 128.325 123.036 128.407 122.67L131.291 109.69C131.511 108.707 131.952 107.786 132.58 106.999L136.003 102.723L136.404 105.528C136.648 107.234 137.332 108.846 138.389 110.206L148.594 123.326C148.748 123.525 148.945 123.685 149.171 123.796C149.397 123.906 149.645 123.963 149.896 123.963H154.846C155.122 123.963 155.394 123.894 155.636 123.762C155.878 123.629 156.083 123.438 156.232 123.206C156.382 122.974 156.471 122.709 156.491 122.434C156.511 122.158 156.462 121.882 156.348 121.631V121.628ZM140.833 42.5956L147.517 50.7117C148.197 51.537 148.666 52.5151 148.884 53.5618C149.101 54.6085 149.062 55.6924 148.768 56.7203L148.598 57.3156L144.579 55.7052L144.621 55.6501C144.814 55.3926 144.928 55.0842 144.948 54.7629C144.968 54.4416 144.894 54.1214 144.734 53.8418L138.937 43.7164L140.833 42.5956ZM133.391 64.561C132.516 64.5599 131.678 64.2118 131.059 63.5933C130.441 62.9747 130.093 62.1361 130.092 61.2613V57.9631H136.691V61.2628C136.69 62.1368 136.342 62.9747 135.725 63.5932C135.107 64.2116 134.27 64.5602 133.396 64.5625L133.391 64.561ZM122.888 59.9024L118.546 54.1127V51.2848C118.545 50.9015 118.657 50.5264 118.869 50.2071C119.081 49.8878 119.383 49.6387 119.737 49.4913L119.786 49.4704C120.141 49.3217 120.532 49.2821 120.91 49.3569C121.287 49.4317 121.634 49.6173 121.905 49.8902L126.625 54.6098C126.677 54.663 126.732 54.7128 126.79 54.7586V61.2643C126.79 61.3328 126.79 61.4012 126.79 61.4697L122.888 59.9024ZM105.325 50.8606C108.604 51.527 111.983 51.527 115.261 50.8606C115.25 51.002 115.244 51.1434 115.244 51.2877V56.3125H105.346V51.2877C105.346 51.1448 105.34 51.0094 105.325 50.8606ZM102.043 51.2848V54.1127L97.7016 59.9024L93.7887 61.4682C93.7887 61.3997 93.7887 61.3313 93.7887 61.2628V54.7571C93.847 54.7113 93.9022 54.6616 93.9539 54.6083L98.6735 49.8887C98.938 49.6238 99.2737 49.4413 99.6399 49.3633C100.006 49.2854 100.387 49.3154 100.736 49.4496L100.911 49.5225C101.25 49.6757 101.539 49.9237 101.741 50.2369C101.943 50.55 102.051 50.9149 102.051 51.2877L102.043 51.2848ZM83.8925 61.2628V57.9631H90.4919V61.2628C90.4919 62.1379 90.1443 62.9772 89.5255 63.5961C88.9066 64.2149 88.0673 64.5625 87.1922 64.5625C86.3171 64.5625 85.4778 64.2149 84.8589 63.5961C84.2401 62.9772 83.8925 62.1379 83.8925 61.2628ZM79.2636 54.5398L83.7288 46.7199L86.5388 49.521C86.1103 49.671 85.7023 49.874 85.3243 50.1253L81.331 52.7955C81.1049 52.946 80.9195 53.15 80.7912 53.3894C80.663 53.6288 80.5958 53.8961 80.5957 54.1677V56.3169L79.2636 54.5398ZM88.3427 52.5127C88.9125 52.5134 89.4587 52.7401 89.8616 53.143C90.2645 53.5459 90.4911 54.0921 90.4919 54.6619H84.4715L87.1505 52.8758C87.5044 52.6384 87.921 52.512 88.3472 52.5127H88.3427ZM133.44 52.8743L136.119 54.6604H130.096C130.096 54.2716 130.202 53.8901 130.402 53.5567C130.602 53.2233 130.889 52.9504 131.232 52.7671C131.575 52.5839 131.961 52.497 132.35 52.5159C132.738 52.5348 133.114 52.6586 133.437 52.8743H133.44ZM139.998 56.3125V54.1633C139.997 53.8922 139.929 53.6256 139.8 53.387C139.671 53.1485 139.486 52.9453 139.26 52.7955L135.267 50.1342C134.889 49.8797 134.48 49.6737 134.051 49.521L136.855 46.7169L141.32 54.5368L139.998 56.3125ZM134.799 44.1078L127.804 51.1032L124.251 47.5504C124.147 47.4462 124.038 47.348 123.927 47.2528C126.717 45.4051 129.107 43.015 130.955 40.2247C131.049 40.3363 131.147 40.4449 131.252 40.5491L134.799 44.1078ZM139.998 31.5579H134.972C134.823 31.5579 134.686 31.5579 134.545 31.5757C134.769 30.4813 134.918 29.3728 134.991 28.2582H139.998V31.5579ZM89.3489 40.561C90.0847 39.8282 90.5856 38.8927 90.7876 37.874C90.9896 36.8552 90.8836 35.7994 90.483 34.8412L90.4666 34.8025C90.0722 33.8425 89.4007 33.0217 88.5378 32.4449C87.675 31.8681 86.6599 31.5613 85.622 31.5638H80.5972V28.2626H97.1985C97.599 31.4539 99.1508 34.3893 101.562 36.5173C103.974 38.6453 107.08 39.8196 110.296 39.8196C113.513 39.8196 116.618 38.6453 119.03 36.5173C121.442 34.3893 122.993 31.4539 123.394 28.2626H131.684C131.421 31.6276 130.368 34.8832 128.611 37.7651C126.854 40.6471 124.442 43.0743 121.572 44.8497C118.701 46.6251 115.452 47.6988 112.089 47.9837C108.726 48.2686 105.343 47.7566 102.214 46.4892C102.18 46.4743 102.147 46.4565 102.112 46.4431L102.091 46.4342L102.071 46.4252L101.993 46.3955C99.498 45.3435 97.2254 43.8284 95.2949 41.9303L92.9716 44.2909C94.1028 45.3977 95.3368 46.3945 96.6568 47.2676C96.5496 47.3584 96.4454 47.4537 96.3442 47.5549L92.7959 51.1136L85.8006 44.1182L89.3489 40.561ZM73.075 50.7117L79.7608 42.5927L81.6599 43.7164L75.8642 53.8373C75.7046 54.1169 75.6303 54.4371 75.6504 54.7584C75.6705 55.0797 75.7842 55.3881 75.9773 55.6457L76.019 55.7008L72.0004 57.3112L71.8307 56.7158C71.5368 55.689 71.4965 54.6063 71.7132 53.5605C71.9299 52.5147 72.3972 51.5371 73.075 50.7117ZM81.7805 99.057L80.9232 105.055C80.7616 106.194 80.3055 107.272 79.6 108.181L69.8899 120.665H68.3092L74.7598 106.475C75.3484 105.19 75.653 103.793 75.6529 102.379V86.0114H88.8532V90.1357L85.6398 92.535C84.5971 93.3126 83.7189 94.2892 83.0562 95.4085C82.3935 96.5278 81.9594 97.7674 81.779 99.0555L81.7805 99.057ZM97.0958 106.526V120.665H95.1193L92.525 108.973C92.1948 107.498 91.5331 106.117 90.5902 104.936L85.3258 98.356C85.747 97.0894 86.5451 95.9817 87.6134 95.1813L90.0424 93.3595L96.0867 103.034C96.7437 104.08 97.0934 105.29 97.0958 106.526ZM95.6209 70.4237L89.4769 82.7117H75.5144L73.9903 64.4256C73.9812 64.3188 73.9618 64.2131 73.9323 64.1101L72.9023 60.5067L78.067 58.4408L80.6225 61.8492C80.7151 62.8812 81.049 63.8769 81.5974 64.756C82.1458 65.635 82.8932 66.3728 83.7794 66.9097L82.2627 77.5307L85.5297 77.9981L86.9779 67.8593C87.0508 67.8593 87.1267 67.8593 87.1967 67.8593C88.1134 67.8596 89.0201 67.6685 89.8588 67.2982C90.6974 66.9278 91.4494 66.3864 92.0666 65.7086L94.512 64.7307L96.8622 69.4325L96.3576 69.684C96.035 69.8442 95.7736 70.1056 95.6134 70.4282L95.6209 70.4237ZM103.451 64.6637C102.81 65.9392 101.775 66.9741 100.5 67.6152L99.8151 67.9575L97.5825 63.5028L99.3552 62.7943C99.636 62.6819 99.8806 62.4945 100.062 62.2526L102.46 59.057C102.614 59.2322 102.803 59.3725 103.016 59.4685C103.228 59.5645 103.459 59.614 103.692 59.6137H105.972L103.451 64.6637ZM117.144 64.6637L114.614 59.6122H116.894C117.127 59.6125 117.358 59.563 117.57 59.467C117.783 59.371 117.973 59.2307 118.127 59.0555L120.523 62.2511C120.704 62.493 120.949 62.6805 121.23 62.7928L123.002 63.5013L120.77 67.956L120.085 67.6137C118.81 66.9727 117.775 65.9378 117.134 64.6622L117.144 64.6637ZM124.227 69.687L123.723 69.4355L126.073 64.7337L128.518 65.7115C129.136 66.3893 129.888 66.9307 130.726 67.301C131.565 67.6714 132.472 67.8625 133.388 67.8622C133.461 67.8622 133.537 67.8622 133.607 67.8622L135.055 78.001L138.322 77.5337L136.806 66.9127C137.692 66.3758 138.439 65.638 138.988 64.7589C139.536 63.8799 139.87 62.8841 139.962 61.8522L142.518 58.4438L147.683 60.5097L146.659 64.1071C146.629 64.2101 146.61 64.3158 146.601 64.4226L145.078 82.7117H131.116L124.972 70.4237C124.811 70.1011 124.55 69.8398 124.227 69.6795V69.687ZM129.996 104.936C129.053 106.117 128.392 107.498 128.061 108.973L125.473 120.665H123.497V106.526C123.496 105.289 123.844 104.077 124.5 103.028L130.544 93.3536L132.973 95.1754C134.044 95.9746 134.845 97.0824 135.268 98.3501L129.996 104.936ZM150.703 120.665L140.992 108.178C140.287 107.269 139.831 106.191 139.669 105.052L138.812 99.0541C138.632 97.7663 138.198 96.527 137.535 95.408C136.873 94.289 135.995 93.3125 134.953 92.535L131.747 90.1298V86.0114H144.946V102.375C144.945 103.788 145.25 105.185 145.839 106.471L152.283 120.665H150.703Z" fill="black"/>
</svg>
